G04 #@! TF.GenerationSoftware,KiCad,Pcbnew,5.0.2-bee76a0~70~ubuntu18.04.1*
G04 #@! TF.CreationDate,2019-04-01T01:37:44+08:00*
G04 #@! TF.ProjectId,TINY-REFLOW-CONTROLLER,54494e59-2d52-4454-964c-4f572d434f4e,rev?*
G04 #@! TF.SameCoordinates,PX8f0d180PY5f5e100*
G04 #@! TF.FileFunction,Soldermask,Bot*
G04 #@! TF.FilePolarity,Negative*
%FSLAX46Y46*%
G04 Gerber Fmt 4.6, Leading zero omitted, Abs format (unit mm)*
G04 Created by KiCad (PCBNEW 5.0.2-bee76a0~70~ubuntu18.04.1) date Mon 01 Apr 2019 01:37:44 AM +08*
%MOMM*%
%LPD*%
G01*
G04 APERTURE LIST*
%ADD10C,0.100000*%
G04 APERTURE END LIST*
D10*
G36*
X16018690Y6572649D02*
X16205045Y6495458D01*
X16372765Y6383391D01*
X16515391Y6240765D01*
X16627458Y6073045D01*
X16704649Y5886690D01*
X16744000Y5688857D01*
X16744000Y5487143D01*
X16704649Y5289310D01*
X16627458Y5102955D01*
X16515391Y4935235D01*
X16372765Y4792609D01*
X16205045Y4680542D01*
X16018690Y4603351D01*
X15820857Y4564000D01*
X15619143Y4564000D01*
X15421310Y4603351D01*
X15234955Y4680542D01*
X15067235Y4792609D01*
X14924609Y4935235D01*
X14812542Y5102955D01*
X14735351Y5289310D01*
X14696000Y5487143D01*
X14696000Y5688857D01*
X14735351Y5886690D01*
X14812542Y6073045D01*
X14924609Y6240765D01*
X15067235Y6383391D01*
X15234955Y6495458D01*
X15421310Y6572649D01*
X15619143Y6612000D01*
X15820857Y6612000D01*
X16018690Y6572649D01*
X16018690Y6572649D01*
G37*
G36*
X12518690Y6572649D02*
X12705045Y6495458D01*
X12872765Y6383391D01*
X13015391Y6240765D01*
X13127458Y6073045D01*
X13204649Y5886690D01*
X13244000Y5688857D01*
X13244000Y5487143D01*
X13204649Y5289310D01*
X13127458Y5102955D01*
X13015391Y4935235D01*
X12872765Y4792609D01*
X12705045Y4680542D01*
X12518690Y4603351D01*
X12320857Y4564000D01*
X12119143Y4564000D01*
X11921310Y4603351D01*
X11734955Y4680542D01*
X11567235Y4792609D01*
X11424609Y4935235D01*
X11312542Y5102955D01*
X11235351Y5289310D01*
X11196000Y5487143D01*
X11196000Y5688857D01*
X11235351Y5886690D01*
X11312542Y6073045D01*
X11424609Y6240765D01*
X11567235Y6383391D01*
X11734955Y6495458D01*
X11921310Y6572649D01*
X12119143Y6612000D01*
X12320857Y6612000D01*
X12518690Y6572649D01*
X12518690Y6572649D01*
G37*
G36*
X8906690Y6572649D02*
X9093045Y6495458D01*
X9260765Y6383391D01*
X9403391Y6240765D01*
X9515458Y6073045D01*
X9592649Y5886690D01*
X9632000Y5688857D01*
X9632000Y5487143D01*
X9592649Y5289310D01*
X9515458Y5102955D01*
X9403391Y4935235D01*
X9260765Y4792609D01*
X9093045Y4680542D01*
X8906690Y4603351D01*
X8708857Y4564000D01*
X8507143Y4564000D01*
X8309310Y4603351D01*
X8122955Y4680542D01*
X7955235Y4792609D01*
X7812609Y4935235D01*
X7700542Y5102955D01*
X7623351Y5289310D01*
X7584000Y5487143D01*
X7584000Y5688857D01*
X7623351Y5886690D01*
X7700542Y6073045D01*
X7812609Y6240765D01*
X7955235Y6383391D01*
X8122955Y6495458D01*
X8309310Y6572649D01*
X8507143Y6612000D01*
X8708857Y6612000D01*
X8906690Y6572649D01*
X8906690Y6572649D01*
G37*
G36*
X5406690Y6572649D02*
X5593045Y6495458D01*
X5760765Y6383391D01*
X5903391Y6240765D01*
X6015458Y6073045D01*
X6092649Y5886690D01*
X6132000Y5688857D01*
X6132000Y5487143D01*
X6092649Y5289310D01*
X6015458Y5102955D01*
X5903391Y4935235D01*
X5760765Y4792609D01*
X5593045Y4680542D01*
X5406690Y4603351D01*
X5208857Y4564000D01*
X5007143Y4564000D01*
X4809310Y4603351D01*
X4622955Y4680542D01*
X4455235Y4792609D01*
X4312609Y4935235D01*
X4200542Y5102955D01*
X4123351Y5289310D01*
X4084000Y5487143D01*
X4084000Y5688857D01*
X4123351Y5886690D01*
X4200542Y6073045D01*
X4312609Y6240765D01*
X4455235Y6383391D01*
X4622955Y6495458D01*
X4809310Y6572649D01*
X5007143Y6612000D01*
X5208857Y6612000D01*
X5406690Y6572649D01*
X5406690Y6572649D01*
G37*
G36*
X23130690Y6572649D02*
X23317045Y6495458D01*
X23484765Y6383391D01*
X23627391Y6240765D01*
X23739458Y6073045D01*
X23816649Y5886690D01*
X23856000Y5688857D01*
X23856000Y5487143D01*
X23816649Y5289310D01*
X23739458Y5102955D01*
X23627391Y4935235D01*
X23484765Y4792609D01*
X23317045Y4680542D01*
X23130690Y4603351D01*
X22932857Y4564000D01*
X22731143Y4564000D01*
X22533310Y4603351D01*
X22346955Y4680542D01*
X22179235Y4792609D01*
X22036609Y4935235D01*
X21924542Y5102955D01*
X21847351Y5289310D01*
X21808000Y5487143D01*
X21808000Y5688857D01*
X21847351Y5886690D01*
X21924542Y6073045D01*
X22036609Y6240765D01*
X22179235Y6383391D01*
X22346955Y6495458D01*
X22533310Y6572649D01*
X22731143Y6612000D01*
X22932857Y6612000D01*
X23130690Y6572649D01*
X23130690Y6572649D01*
G37*
G36*
X19630690Y6572649D02*
X19817045Y6495458D01*
X19984765Y6383391D01*
X20127391Y6240765D01*
X20239458Y6073045D01*
X20316649Y5886690D01*
X20356000Y5688857D01*
X20356000Y5487143D01*
X20316649Y5289310D01*
X20239458Y5102955D01*
X20127391Y4935235D01*
X19984765Y4792609D01*
X19817045Y4680542D01*
X19630690Y4603351D01*
X19432857Y4564000D01*
X19231143Y4564000D01*
X19033310Y4603351D01*
X18846955Y4680542D01*
X18679235Y4792609D01*
X18536609Y4935235D01*
X18424542Y5102955D01*
X18347351Y5289310D01*
X18308000Y5487143D01*
X18308000Y5688857D01*
X18347351Y5886690D01*
X18424542Y6073045D01*
X18536609Y6240765D01*
X18679235Y6383391D01*
X18846955Y6495458D01*
X19033310Y6572649D01*
X19231143Y6612000D01*
X19432857Y6612000D01*
X19630690Y6572649D01*
X19630690Y6572649D01*
G37*
G36*
X1966900Y16951658D02*
X2148536Y16896558D01*
X2315940Y16807079D01*
X2462665Y16686665D01*
X2583079Y16539940D01*
X2672558Y16372536D01*
X2727658Y16190900D01*
X2746262Y16002000D01*
X2727658Y15813100D01*
X2672558Y15631464D01*
X2583079Y15464060D01*
X2462668Y15317338D01*
X2462666Y15317337D01*
X2462665Y15317335D01*
X2382593Y15251622D01*
X2365271Y15234300D01*
X2351657Y15213925D01*
X2342280Y15191286D01*
X2337499Y15167253D01*
X2337499Y15142748D01*
X2342279Y15118715D01*
X2351657Y15096076D01*
X2365270Y15075701D01*
X2382597Y15058374D01*
X2402972Y15044760D01*
X2425611Y15035383D01*
X2449644Y15030602D01*
X2461897Y15030000D01*
X2566230Y15030000D01*
X2798576Y14983783D01*
X3049223Y14933926D01*
X3207663Y14868298D01*
X3504193Y14745472D01*
X3913660Y14471874D01*
X4261874Y14123660D01*
X4535472Y13714193D01*
X4723926Y13259222D01*
X4820000Y12776230D01*
X4820000Y12283770D01*
X4723926Y11800778D01*
X4535472Y11345807D01*
X4261874Y10936340D01*
X3913660Y10588126D01*
X3504193Y10314528D01*
X3237677Y10204134D01*
X3049223Y10126074D01*
X2888225Y10094049D01*
X2566230Y10030000D01*
X2073770Y10030000D01*
X1751775Y10094049D01*
X1590777Y10126074D01*
X1402323Y10204134D01*
X1135807Y10314528D01*
X726340Y10588126D01*
X378126Y10936340D01*
X104528Y11345807D01*
X-83926Y11800778D01*
X-180000Y12283770D01*
X-180000Y12776230D01*
X-83926Y13259222D01*
X104528Y13714193D01*
X378126Y14123660D01*
X726340Y14471874D01*
X1135807Y14745472D01*
X1432337Y14868298D01*
X1453948Y14879849D01*
X1472890Y14895394D01*
X1488436Y14914336D01*
X1499987Y14935947D01*
X1507100Y14959396D01*
X1509502Y14983783D01*
X1507100Y15008169D01*
X1499987Y15031618D01*
X1488436Y15053229D01*
X1472891Y15072171D01*
X1453949Y15087717D01*
X1432338Y15099268D01*
X1420787Y15103401D01*
X1407461Y15107443D01*
X1240060Y15196921D01*
X1093335Y15317335D01*
X972921Y15464060D01*
X883442Y15631464D01*
X828342Y15813100D01*
X809738Y16002000D01*
X828342Y16190900D01*
X883442Y16372536D01*
X972921Y16539940D01*
X1093335Y16686665D01*
X1240060Y16807079D01*
X1407464Y16896558D01*
X1589100Y16951658D01*
X1730662Y16965600D01*
X1825338Y16965600D01*
X1966900Y16951658D01*
X1966900Y16951658D01*
G37*
G36*
X26098576Y14983783D02*
X26349223Y14933926D01*
X26507663Y14868298D01*
X26804193Y14745472D01*
X27213660Y14471874D01*
X27561874Y14123660D01*
X27835472Y13714193D01*
X28023926Y13259222D01*
X28120000Y12776230D01*
X28120000Y12283770D01*
X28023926Y11800778D01*
X27835472Y11345807D01*
X27561874Y10936340D01*
X27213660Y10588126D01*
X26804193Y10314528D01*
X26537677Y10204134D01*
X26349223Y10126074D01*
X26188225Y10094049D01*
X25866230Y10030000D01*
X25373770Y10030000D01*
X25051775Y10094049D01*
X24890777Y10126074D01*
X24702323Y10204134D01*
X24435807Y10314528D01*
X24026340Y10588126D01*
X23678126Y10936340D01*
X23404528Y11345807D01*
X23216074Y11800778D01*
X23120000Y12283770D01*
X23120000Y12776230D01*
X23216074Y13259222D01*
X23404528Y13714193D01*
X23678126Y14123660D01*
X24026340Y14471874D01*
X24435807Y14745472D01*
X24732337Y14868298D01*
X24890777Y14933926D01*
X25141424Y14983783D01*
X25373770Y15030000D01*
X25866230Y15030000D01*
X26098576Y14983783D01*
X26098576Y14983783D01*
G37*
G36*
X4506900Y16951658D02*
X4688536Y16896558D01*
X4855940Y16807079D01*
X5002665Y16686665D01*
X5123079Y16539940D01*
X5212558Y16372536D01*
X5267658Y16190900D01*
X5286262Y16002000D01*
X5267658Y15813100D01*
X5212558Y15631464D01*
X5123079Y15464060D01*
X5002665Y15317335D01*
X4855940Y15196921D01*
X4688536Y15107442D01*
X4506900Y15052342D01*
X4365338Y15038400D01*
X4270662Y15038400D01*
X4129100Y15052342D01*
X3947464Y15107442D01*
X3780060Y15196921D01*
X3633335Y15317335D01*
X3512921Y15464060D01*
X3423442Y15631464D01*
X3368342Y15813100D01*
X3349738Y16002000D01*
X3368342Y16190900D01*
X3423442Y16372536D01*
X3512921Y16539940D01*
X3633335Y16686665D01*
X3780060Y16807079D01*
X3947464Y16896558D01*
X4129100Y16951658D01*
X4270662Y16965600D01*
X4365338Y16965600D01*
X4506900Y16951658D01*
X4506900Y16951658D01*
G37*
G36*
X1966900Y19491658D02*
X2148536Y19436558D01*
X2315940Y19347079D01*
X2462665Y19226665D01*
X2583079Y19079940D01*
X2672558Y18912536D01*
X2727658Y18730900D01*
X2746262Y18542000D01*
X2727658Y18353100D01*
X2672558Y18171464D01*
X2583079Y18004060D01*
X2462665Y17857335D01*
X2315940Y17736921D01*
X2148536Y17647442D01*
X1966900Y17592342D01*
X1825338Y17578400D01*
X1730662Y17578400D01*
X1589100Y17592342D01*
X1407464Y17647442D01*
X1240060Y17736921D01*
X1093335Y17857335D01*
X972921Y18004060D01*
X883442Y18171464D01*
X828342Y18353100D01*
X809738Y18542000D01*
X828342Y18730900D01*
X883442Y18912536D01*
X972921Y19079940D01*
X1093335Y19226665D01*
X1240060Y19347079D01*
X1407464Y19436558D01*
X1589100Y19491658D01*
X1730662Y19505600D01*
X1825338Y19505600D01*
X1966900Y19491658D01*
X1966900Y19491658D01*
G37*
G36*
X4506900Y19491658D02*
X4688536Y19436558D01*
X4855940Y19347079D01*
X5002665Y19226665D01*
X5123079Y19079940D01*
X5212558Y18912536D01*
X5267658Y18730900D01*
X5286262Y18542000D01*
X5267658Y18353100D01*
X5212558Y18171464D01*
X5123079Y18004060D01*
X5002665Y17857335D01*
X4855940Y17736921D01*
X4688536Y17647442D01*
X4506900Y17592342D01*
X4365338Y17578400D01*
X4270662Y17578400D01*
X4129100Y17592342D01*
X3947464Y17647442D01*
X3780060Y17736921D01*
X3633335Y17857335D01*
X3512921Y18004060D01*
X3423442Y18171464D01*
X3368342Y18353100D01*
X3349738Y18542000D01*
X3368342Y18730900D01*
X3423442Y18912536D01*
X3512921Y19079940D01*
X3633335Y19226665D01*
X3780060Y19347079D01*
X3947464Y19436558D01*
X4129100Y19491658D01*
X4270662Y19505600D01*
X4365338Y19505600D01*
X4506900Y19491658D01*
X4506900Y19491658D01*
G37*
G36*
X1966900Y22031658D02*
X2148536Y21976558D01*
X2315940Y21887079D01*
X2462665Y21766665D01*
X2583079Y21619940D01*
X2672558Y21452536D01*
X2727658Y21270900D01*
X2746262Y21082000D01*
X2727658Y20893100D01*
X2672558Y20711464D01*
X2583079Y20544060D01*
X2462665Y20397335D01*
X2315940Y20276921D01*
X2148536Y20187442D01*
X1966900Y20132342D01*
X1825338Y20118400D01*
X1730662Y20118400D01*
X1589100Y20132342D01*
X1407464Y20187442D01*
X1240060Y20276921D01*
X1093335Y20397335D01*
X972921Y20544060D01*
X883442Y20711464D01*
X828342Y20893100D01*
X809738Y21082000D01*
X828342Y21270900D01*
X883442Y21452536D01*
X972921Y21619940D01*
X1093335Y21766665D01*
X1240060Y21887079D01*
X1407464Y21976558D01*
X1589100Y22031658D01*
X1730662Y22045600D01*
X1825338Y22045600D01*
X1966900Y22031658D01*
X1966900Y22031658D01*
G37*
G36*
X4506900Y22031658D02*
X4688536Y21976558D01*
X4855940Y21887079D01*
X5002665Y21766665D01*
X5123079Y21619940D01*
X5212558Y21452536D01*
X5267658Y21270900D01*
X5286262Y21082000D01*
X5267658Y20893100D01*
X5212558Y20711464D01*
X5123079Y20544060D01*
X5002665Y20397335D01*
X4855940Y20276921D01*
X4688536Y20187442D01*
X4506900Y20132342D01*
X4365338Y20118400D01*
X4270662Y20118400D01*
X4129100Y20132342D01*
X3947464Y20187442D01*
X3780060Y20276921D01*
X3633335Y20397335D01*
X3512921Y20544060D01*
X3423442Y20711464D01*
X3368342Y20893100D01*
X3349738Y21082000D01*
X3368342Y21270900D01*
X3423442Y21452536D01*
X3512921Y21619940D01*
X3633335Y21766665D01*
X3780060Y21887079D01*
X3947464Y21976558D01*
X4129100Y22031658D01*
X4270662Y22045600D01*
X4365338Y22045600D01*
X4506900Y22031658D01*
X4506900Y22031658D01*
G37*
G36*
X2888225Y38765951D02*
X3049223Y38733926D01*
X3237677Y38655866D01*
X3504193Y38545472D01*
X3913660Y38271874D01*
X4261874Y37923660D01*
X4535472Y37514193D01*
X4723926Y37059222D01*
X4820000Y36576230D01*
X4820000Y36083770D01*
X4723926Y35600778D01*
X4535472Y35145807D01*
X4261874Y34736340D01*
X3913660Y34388126D01*
X3504193Y34114528D01*
X3237677Y34004134D01*
X3049223Y33926074D01*
X2888225Y33894049D01*
X2566230Y33830000D01*
X2073770Y33830000D01*
X1751775Y33894049D01*
X1590777Y33926074D01*
X1402323Y34004134D01*
X1135807Y34114528D01*
X726340Y34388126D01*
X378126Y34736340D01*
X104528Y35145807D01*
X-83926Y35600778D01*
X-180000Y36083770D01*
X-180000Y36576230D01*
X-83926Y37059222D01*
X104528Y37514193D01*
X378126Y37923660D01*
X726340Y38271874D01*
X1135807Y38545472D01*
X1402323Y38655866D01*
X1590777Y38733926D01*
X1751775Y38765951D01*
X2073770Y38830000D01*
X2566230Y38830000D01*
X2888225Y38765951D01*
X2888225Y38765951D01*
G37*
G36*
X26364027Y40548148D02*
X26505401Y40505262D01*
X26635694Y40435620D01*
X26749896Y40341896D01*
X26843620Y40227694D01*
X26913262Y40097401D01*
X26956148Y39956027D01*
X26970628Y39809000D01*
X26956148Y39661973D01*
X26913262Y39520599D01*
X26843620Y39390306D01*
X26749896Y39276104D01*
X26635694Y39182380D01*
X26505401Y39112738D01*
X26364027Y39069852D01*
X26253839Y39059000D01*
X25984113Y39059000D01*
X25959727Y39056598D01*
X25936278Y39049485D01*
X25914667Y39037934D01*
X25895725Y39022388D01*
X25880179Y39003446D01*
X25868628Y38981835D01*
X25861515Y38958386D01*
X25859113Y38934000D01*
X25861515Y38909614D01*
X25868628Y38886165D01*
X25880179Y38864554D01*
X25895725Y38845612D01*
X25914667Y38830066D01*
X25936278Y38818515D01*
X25959727Y38811402D01*
X26138984Y38775745D01*
X26349223Y38733926D01*
X26537677Y38655866D01*
X26804193Y38545472D01*
X27213660Y38271874D01*
X27561874Y37923660D01*
X27835472Y37514193D01*
X28023926Y37059222D01*
X28120000Y36576230D01*
X28120000Y36083770D01*
X28023926Y35600778D01*
X27835472Y35145807D01*
X27561874Y34736340D01*
X27213660Y34388126D01*
X26804193Y34114528D01*
X26537677Y34004134D01*
X26349223Y33926074D01*
X26188225Y33894049D01*
X25866230Y33830000D01*
X25373770Y33830000D01*
X25051775Y33894049D01*
X24890777Y33926074D01*
X24702323Y34004134D01*
X24435807Y34114528D01*
X24026340Y34388126D01*
X23678126Y34736340D01*
X23404528Y35145807D01*
X23216074Y35600778D01*
X23120000Y36083770D01*
X23120000Y36576230D01*
X23216074Y37059222D01*
X23404528Y37514193D01*
X23678126Y37923660D01*
X24026340Y38271874D01*
X24435807Y38545472D01*
X24702323Y38655866D01*
X24890777Y38733926D01*
X25051775Y38765951D01*
X25373770Y38830000D01*
X25617980Y38830000D01*
X25642366Y38832402D01*
X25665815Y38839515D01*
X25687426Y38851066D01*
X25706368Y38866612D01*
X25721914Y38885554D01*
X25733465Y38907165D01*
X25740578Y38930614D01*
X25742980Y38955000D01*
X25740578Y38979386D01*
X25733465Y39002835D01*
X25721914Y39024446D01*
X25706368Y39043388D01*
X25687426Y39058934D01*
X25654266Y39074617D01*
X25528599Y39112738D01*
X25398306Y39182380D01*
X25284104Y39276104D01*
X25190380Y39390306D01*
X25120738Y39520599D01*
X25077852Y39661973D01*
X25063372Y39809000D01*
X25077852Y39956027D01*
X25120738Y40097401D01*
X25190380Y40227694D01*
X25284104Y40341896D01*
X25398306Y40435620D01*
X25528599Y40505262D01*
X25669973Y40548148D01*
X25780161Y40559000D01*
X26253839Y40559000D01*
X26364027Y40548148D01*
X26364027Y40548148D01*
G37*
G36*
X23571183Y41682100D02*
X23698574Y41629332D01*
X23813225Y41552725D01*
X23910725Y41455225D01*
X23987332Y41340574D01*
X24040100Y41213183D01*
X24067000Y41077945D01*
X24067000Y40940055D01*
X24040100Y40804817D01*
X23987332Y40677426D01*
X23910726Y40562776D01*
X23813224Y40465274D01*
X23698574Y40388668D01*
X23571183Y40335900D01*
X23435945Y40309000D01*
X23298055Y40309000D01*
X23162817Y40335900D01*
X23035426Y40388668D01*
X22920776Y40465274D01*
X22823274Y40562776D01*
X22746668Y40677426D01*
X22693900Y40804817D01*
X22667000Y40940055D01*
X22667000Y41077945D01*
X22693900Y41213183D01*
X22746668Y41340574D01*
X22823275Y41455225D01*
X22920775Y41552725D01*
X23035426Y41629332D01*
X23162817Y41682100D01*
X23298055Y41709000D01*
X23435945Y41709000D01*
X23571183Y41682100D01*
X23571183Y41682100D01*
G37*
G36*
X23571183Y46532100D02*
X23698574Y46479332D01*
X23768842Y46432381D01*
X23813225Y46402725D01*
X23910725Y46305225D01*
X23987332Y46190574D01*
X24040100Y46063183D01*
X24067000Y45927945D01*
X24067000Y45790055D01*
X24040100Y45654817D01*
X23987332Y45527426D01*
X23910725Y45412775D01*
X23813225Y45315275D01*
X23698574Y45238668D01*
X23571183Y45185900D01*
X23435945Y45159000D01*
X23298055Y45159000D01*
X23162817Y45185900D01*
X23035426Y45238668D01*
X22920775Y45315275D01*
X22823275Y45412775D01*
X22746668Y45527426D01*
X22693900Y45654817D01*
X22667000Y45790055D01*
X22667000Y45927945D01*
X22693900Y46063183D01*
X22746668Y46190574D01*
X22823275Y46305225D01*
X22920775Y46402725D01*
X22965159Y46432381D01*
X23035426Y46479332D01*
X23162817Y46532100D01*
X23298055Y46559000D01*
X23435945Y46559000D01*
X23571183Y46532100D01*
X23571183Y46532100D01*
G37*
G36*
X26364027Y47798148D02*
X26505401Y47755262D01*
X26635694Y47685620D01*
X26749896Y47591896D01*
X26843620Y47477694D01*
X26913262Y47347401D01*
X26956148Y47206027D01*
X26970628Y47059000D01*
X26956148Y46911973D01*
X26913262Y46770599D01*
X26843620Y46640306D01*
X26749896Y46526104D01*
X26635694Y46432380D01*
X26505401Y46362738D01*
X26364027Y46319852D01*
X26253839Y46309000D01*
X25780161Y46309000D01*
X25669973Y46319852D01*
X25528599Y46362738D01*
X25398306Y46432380D01*
X25284104Y46526104D01*
X25190380Y46640306D01*
X25120738Y46770599D01*
X25077852Y46911973D01*
X25063372Y47059000D01*
X25077852Y47206027D01*
X25120738Y47347401D01*
X25190380Y47477694D01*
X25284104Y47591896D01*
X25398306Y47685620D01*
X25528599Y47755262D01*
X25669973Y47798148D01*
X25780161Y47809000D01*
X26253839Y47809000D01*
X26364027Y47798148D01*
X26364027Y47798148D01*
G37*
G36*
X21393845Y50318785D02*
X21484839Y50281094D01*
X21565640Y50227104D01*
X21566734Y50226373D01*
X21636373Y50156734D01*
X21691095Y50074837D01*
X21728785Y49983845D01*
X21748000Y49887245D01*
X21748000Y49788755D01*
X21728785Y49692155D01*
X21691095Y49601163D01*
X21636373Y49519266D01*
X21566734Y49449627D01*
X21566731Y49449625D01*
X21484839Y49394906D01*
X21393845Y49357215D01*
X21297246Y49338000D01*
X21198754Y49338000D01*
X21102155Y49357215D01*
X21011161Y49394906D01*
X20929269Y49449625D01*
X20929266Y49449627D01*
X20859627Y49519266D01*
X20804905Y49601163D01*
X20767215Y49692155D01*
X20748000Y49788755D01*
X20748000Y49887245D01*
X20767215Y49983845D01*
X20804905Y50074837D01*
X20859627Y50156734D01*
X20929266Y50226373D01*
X20930360Y50227104D01*
X21011161Y50281094D01*
X21102155Y50318785D01*
X21198754Y50338000D01*
X21297246Y50338000D01*
X21393845Y50318785D01*
X21393845Y50318785D01*
G37*
G36*
X23093845Y50318785D02*
X23184839Y50281094D01*
X23265640Y50227104D01*
X23266734Y50226373D01*
X23336373Y50156734D01*
X23391095Y50074837D01*
X23428785Y49983845D01*
X23448000Y49887245D01*
X23448000Y49788755D01*
X23428785Y49692155D01*
X23391095Y49601163D01*
X23336373Y49519266D01*
X23266734Y49449627D01*
X23266731Y49449625D01*
X23184839Y49394906D01*
X23093845Y49357215D01*
X22997246Y49338000D01*
X22898754Y49338000D01*
X22802155Y49357215D01*
X22711161Y49394906D01*
X22629269Y49449625D01*
X22629266Y49449627D01*
X22559627Y49519266D01*
X22504905Y49601163D01*
X22467215Y49692155D01*
X22448000Y49788755D01*
X22448000Y49887245D01*
X22467215Y49983845D01*
X22504905Y50074837D01*
X22559627Y50156734D01*
X22629266Y50226373D01*
X22630360Y50227104D01*
X22711161Y50281094D01*
X22802155Y50318785D01*
X22898754Y50338000D01*
X22997246Y50338000D01*
X23093845Y50318785D01*
X23093845Y50318785D01*
G37*
M02*
