G04 #@! TF.GenerationSoftware,KiCad,Pcbnew,5.0.2-bee76a0~70~ubuntu18.04.1*
G04 #@! TF.CreationDate,2019-04-01T01:37:44+08:00*
G04 #@! TF.ProjectId,TINY-REFLOW-CONTROLLER,54494e59-2d52-4454-964c-4f572d434f4e,rev?*
G04 #@! TF.SameCoordinates,PX8f0d180PY5f5e100*
G04 #@! TF.FileFunction,Legend,Bot*
G04 #@! TF.FilePolarity,Positive*
%FSLAX46Y46*%
G04 Gerber Fmt 4.6, Leading zero omitted, Abs format (unit mm)*
G04 Created by KiCad (PCBNEW 5.0.2-bee76a0~70~ubuntu18.04.1) date Mon 01 Apr 2019 01:37:44 AM +08*
%MOMM*%
%LPD*%
G01*
G04 APERTURE LIST*
%ADD10C,0.150000*%
%ADD11C,0.200000*%
%ADD12C,0.100000*%
%ADD13C,0.010000*%
%ADD14C,5.000000*%
%ADD15C,2.048000*%
%ADD16O,1.927200X1.927200*%
%ADD17O,1.900000X1.500000*%
%ADD18C,1.400000*%
%ADD19C,1.000000*%
G04 APERTURE END LIST*
D10*
X18350952Y1377905D02*
X18312857Y1416000D01*
X18236666Y1454096D01*
X18046190Y1454096D01*
X17970000Y1416000D01*
X17931904Y1377905D01*
X17893809Y1301715D01*
X17893809Y1225524D01*
X17931904Y1111239D01*
X18389047Y654096D01*
X17893809Y654096D01*
X17627142Y1187429D02*
X17436666Y654096D01*
X17246190Y1187429D01*
X16789047Y1454096D02*
X16712857Y1454096D01*
X16636666Y1416000D01*
X16598571Y1377905D01*
X16560476Y1301715D01*
X16522380Y1149334D01*
X16522380Y958858D01*
X16560476Y806477D01*
X16598571Y730286D01*
X16636666Y692191D01*
X16712857Y654096D01*
X16789047Y654096D01*
X16865238Y692191D01*
X16903333Y730286D01*
X16941428Y806477D01*
X16979523Y958858D01*
X16979523Y1149334D01*
X16941428Y1301715D01*
X16903333Y1377905D01*
X16865238Y1416000D01*
X16789047Y1454096D01*
X16027142Y1454096D02*
X15950952Y1454096D01*
X15874761Y1416000D01*
X15836666Y1377905D01*
X15798571Y1301715D01*
X15760476Y1149334D01*
X15760476Y958858D01*
X15798571Y806477D01*
X15836666Y730286D01*
X15874761Y692191D01*
X15950952Y654096D01*
X16027142Y654096D01*
X16103333Y692191D01*
X16141428Y730286D01*
X16179523Y806477D01*
X16217619Y958858D01*
X16217619Y1149334D01*
X16179523Y1301715D01*
X16141428Y1377905D01*
X16103333Y1416000D01*
X16027142Y1454096D01*
X14389047Y654096D02*
X14846190Y654096D01*
X14617619Y654096D02*
X14617619Y1454096D01*
X14693809Y1339810D01*
X14770000Y1263620D01*
X14846190Y1225524D01*
X14084285Y1377905D02*
X14046190Y1416000D01*
X13970000Y1454096D01*
X13779523Y1454096D01*
X13703333Y1416000D01*
X13665238Y1377905D01*
X13627142Y1301715D01*
X13627142Y1225524D01*
X13665238Y1111239D01*
X14122380Y654096D01*
X13627142Y654096D01*
X13284285Y958858D02*
X12674761Y958858D01*
X12331904Y1377905D02*
X12293809Y1416000D01*
X12217619Y1454096D01*
X12027142Y1454096D01*
X11950952Y1416000D01*
X11912857Y1377905D01*
X11874761Y1301715D01*
X11874761Y1225524D01*
X11912857Y1111239D01*
X12370000Y654096D01*
X11874761Y654096D01*
X11379523Y1454096D02*
X11303333Y1454096D01*
X11227142Y1416000D01*
X11189047Y1377905D01*
X11150952Y1301715D01*
X11112857Y1149334D01*
X11112857Y958858D01*
X11150952Y806477D01*
X11189047Y730286D01*
X11227142Y692191D01*
X11303333Y654096D01*
X11379523Y654096D01*
X11455714Y692191D01*
X11493809Y730286D01*
X11531904Y806477D01*
X11570000Y958858D01*
X11570000Y1149334D01*
X11531904Y1301715D01*
X11493809Y1377905D01*
X11455714Y1416000D01*
X11379523Y1454096D01*
X10350952Y654096D02*
X10808095Y654096D01*
X10579523Y654096D02*
X10579523Y1454096D01*
X10655714Y1339810D01*
X10731904Y1263620D01*
X10808095Y1225524D01*
X9893809Y1111239D02*
X9970000Y1149334D01*
X10008095Y1187429D01*
X10046190Y1263620D01*
X10046190Y1301715D01*
X10008095Y1377905D01*
X9970000Y1416000D01*
X9893809Y1454096D01*
X9741428Y1454096D01*
X9665238Y1416000D01*
X9627142Y1377905D01*
X9589047Y1301715D01*
X9589047Y1263620D01*
X9627142Y1187429D01*
X9665238Y1149334D01*
X9741428Y1111239D01*
X9893809Y1111239D01*
X9970000Y1073143D01*
X10008095Y1035048D01*
X10046190Y958858D01*
X10046190Y806477D01*
X10008095Y730286D01*
X9970000Y692191D01*
X9893809Y654096D01*
X9741428Y654096D01*
X9665238Y692191D01*
X9627142Y730286D01*
X9589047Y806477D01*
X9589047Y958858D01*
X9627142Y1035048D01*
X9665238Y1073143D01*
X9741428Y1111239D01*
D11*
X16501619Y45267620D02*
X16501619Y46267620D01*
X16168285Y45553334D01*
X15834952Y46267620D01*
X15834952Y45267620D01*
X14930190Y45267620D02*
X14930190Y45791429D01*
X14977809Y45886667D01*
X15073047Y45934286D01*
X15263523Y45934286D01*
X15358761Y45886667D01*
X14930190Y45315239D02*
X15025428Y45267620D01*
X15263523Y45267620D01*
X15358761Y45315239D01*
X15406380Y45410477D01*
X15406380Y45505715D01*
X15358761Y45600953D01*
X15263523Y45648572D01*
X15025428Y45648572D01*
X14930190Y45696191D01*
X14025428Y45267620D02*
X14025428Y46267620D01*
X14025428Y45315239D02*
X14120666Y45267620D01*
X14311142Y45267620D01*
X14406380Y45315239D01*
X14454000Y45362858D01*
X14501619Y45458096D01*
X14501619Y45743810D01*
X14454000Y45839048D01*
X14406380Y45886667D01*
X14311142Y45934286D01*
X14120666Y45934286D01*
X14025428Y45886667D01*
X13168285Y45315239D02*
X13263523Y45267620D01*
X13454000Y45267620D01*
X13549238Y45315239D01*
X13596857Y45410477D01*
X13596857Y45791429D01*
X13549238Y45886667D01*
X13454000Y45934286D01*
X13263523Y45934286D01*
X13168285Y45886667D01*
X13120666Y45791429D01*
X13120666Y45696191D01*
X13596857Y45600953D01*
X12025428Y45934286D02*
X11834952Y45267620D01*
X11644476Y45743810D01*
X11454000Y45267620D01*
X11263523Y45934286D01*
X10882571Y45267620D02*
X10882571Y45934286D01*
X10882571Y46267620D02*
X10930190Y46220000D01*
X10882571Y46172381D01*
X10834952Y46220000D01*
X10882571Y46267620D01*
X10882571Y46172381D01*
X10549238Y45934286D02*
X10168285Y45934286D01*
X10406380Y46267620D02*
X10406380Y45410477D01*
X10358761Y45315239D01*
X10263523Y45267620D01*
X10168285Y45267620D01*
X9834952Y45267620D02*
X9834952Y46267620D01*
X9406380Y45267620D02*
X9406380Y45791429D01*
X9454000Y45886667D01*
X9549238Y45934286D01*
X9692095Y45934286D01*
X9787333Y45886667D01*
X9834952Y45839048D01*
X5715000Y22479000D02*
G75*
G03X5715000Y22479000I-127000J0D01*
G01*
D10*
X3828952Y22752096D02*
X3828952Y23552096D01*
X3486095Y22790191D02*
X3371809Y22752096D01*
X3181333Y22752096D01*
X3105142Y22790191D01*
X3067047Y22828286D01*
X3028952Y22904477D01*
X3028952Y22980667D01*
X3067047Y23056858D01*
X3105142Y23094953D01*
X3181333Y23133048D01*
X3333714Y23171143D01*
X3409904Y23209239D01*
X3448000Y23247334D01*
X3486095Y23323524D01*
X3486095Y23399715D01*
X3448000Y23475905D01*
X3409904Y23514000D01*
X3333714Y23552096D01*
X3143238Y23552096D01*
X3028952Y23514000D01*
X2686095Y22752096D02*
X2686095Y23552096D01*
X2381333Y23552096D01*
X2305142Y23514000D01*
X2267047Y23475905D01*
X2228952Y23399715D01*
X2228952Y23285429D01*
X2267047Y23209239D01*
X2305142Y23171143D01*
X2381333Y23133048D01*
X2686095Y23133048D01*
D12*
G04 #@! TO.C,LOGO3*
G36*
X17661392Y12845143D02*
X17988382Y12845143D01*
X18315371Y12845143D01*
X18297039Y13007785D01*
X18290772Y13113734D01*
X18306443Y13169961D01*
X18343029Y13195109D01*
X18414857Y13190936D01*
X18469791Y13125827D01*
X18501057Y13010709D01*
X18505714Y12932767D01*
X18502502Y12861965D01*
X18486404Y12803391D01*
X18447729Y12743178D01*
X18376784Y12667456D01*
X18263876Y12562360D01*
X18217628Y12520555D01*
X18057748Y12368232D01*
X17950006Y12240195D01*
X17886562Y12119878D01*
X17859573Y11990715D01*
X17861197Y11836139D01*
X17866467Y11778712D01*
X17914158Y11527576D01*
X18001377Y11335376D01*
X18132759Y11197995D01*
X18312942Y11111316D01*
X18546561Y11071223D01*
X18667617Y11067279D01*
X18843237Y11072900D01*
X18966299Y11091715D01*
X19056129Y11126942D01*
X19068143Y11133970D01*
X19155636Y11194770D01*
X19218544Y11250932D01*
X19220503Y11253247D01*
X19267213Y11346611D01*
X19302329Y11485230D01*
X19321170Y11642114D01*
X19319055Y11790276D01*
X19316838Y11808653D01*
X19294136Y11974286D01*
X18990639Y11974286D01*
X18687143Y11974286D01*
X18687143Y11776856D01*
X18680362Y11662734D01*
X18662932Y11580286D01*
X18647375Y11554848D01*
X18589676Y11552866D01*
X18538463Y11608890D01*
X18502657Y11708394D01*
X18491104Y11809304D01*
X18491718Y11883328D01*
X18503252Y11942618D01*
X18534751Y12000929D01*
X18595264Y12072018D01*
X18693839Y12169639D01*
X18784943Y12256040D01*
X18929104Y12399778D01*
X19035933Y12522272D01*
X19097204Y12613729D01*
X19107160Y12639623D01*
X19122777Y12793106D01*
X19111624Y12981822D01*
X19077752Y13175299D01*
X19025212Y13343068D01*
X19008887Y13378931D01*
X18922834Y13516379D01*
X18815799Y13610728D01*
X18673300Y13669552D01*
X18480852Y13700426D01*
X18381832Y13706872D01*
X18142383Y13700338D01*
X17959690Y13652283D01*
X17827591Y13557352D01*
X17739922Y13410185D01*
X17690521Y13205426D01*
X17679355Y13096207D01*
X17661392Y12845143D01*
X17661392Y12845143D01*
G37*
X17661392Y12845143D02*
X17988382Y12845143D01*
X18315371Y12845143D01*
X18297039Y13007785D01*
X18290772Y13113734D01*
X18306443Y13169961D01*
X18343029Y13195109D01*
X18414857Y13190936D01*
X18469791Y13125827D01*
X18501057Y13010709D01*
X18505714Y12932767D01*
X18502502Y12861965D01*
X18486404Y12803391D01*
X18447729Y12743178D01*
X18376784Y12667456D01*
X18263876Y12562360D01*
X18217628Y12520555D01*
X18057748Y12368232D01*
X17950006Y12240195D01*
X17886562Y12119878D01*
X17859573Y11990715D01*
X17861197Y11836139D01*
X17866467Y11778712D01*
X17914158Y11527576D01*
X18001377Y11335376D01*
X18132759Y11197995D01*
X18312942Y11111316D01*
X18546561Y11071223D01*
X18667617Y11067279D01*
X18843237Y11072900D01*
X18966299Y11091715D01*
X19056129Y11126942D01*
X19068143Y11133970D01*
X19155636Y11194770D01*
X19218544Y11250932D01*
X19220503Y11253247D01*
X19267213Y11346611D01*
X19302329Y11485230D01*
X19321170Y11642114D01*
X19319055Y11790276D01*
X19316838Y11808653D01*
X19294136Y11974286D01*
X18990639Y11974286D01*
X18687143Y11974286D01*
X18687143Y11776856D01*
X18680362Y11662734D01*
X18662932Y11580286D01*
X18647375Y11554848D01*
X18589676Y11552866D01*
X18538463Y11608890D01*
X18502657Y11708394D01*
X18491104Y11809304D01*
X18491718Y11883328D01*
X18503252Y11942618D01*
X18534751Y12000929D01*
X18595264Y12072018D01*
X18693839Y12169639D01*
X18784943Y12256040D01*
X18929104Y12399778D01*
X19035933Y12522272D01*
X19097204Y12613729D01*
X19107160Y12639623D01*
X19122777Y12793106D01*
X19111624Y12981822D01*
X19077752Y13175299D01*
X19025212Y13343068D01*
X19008887Y13378931D01*
X18922834Y13516379D01*
X18815799Y13610728D01*
X18673300Y13669552D01*
X18480852Y13700426D01*
X18381832Y13706872D01*
X18142383Y13700338D01*
X17959690Y13652283D01*
X17827591Y13557352D01*
X17739922Y13410185D01*
X17690521Y13205426D01*
X17679355Y13096207D01*
X17661392Y12845143D01*
G36*
X15774350Y12845143D02*
X16109823Y12845143D01*
X16445296Y12845143D01*
X16423160Y12933339D01*
X16419095Y13035990D01*
X16436471Y13114768D01*
X16496262Y13190990D01*
X16582330Y13214170D01*
X16672166Y13184994D01*
X16742601Y13105440D01*
X16782082Y12997978D01*
X16822338Y12833831D01*
X16860660Y12628807D01*
X16894339Y12398708D01*
X16920667Y12159340D01*
X16933442Y11991935D01*
X16942136Y11822479D01*
X16942698Y11710286D01*
X16933649Y11640355D01*
X16913513Y11597683D01*
X16892519Y11576404D01*
X16810782Y11547812D01*
X16724573Y11579749D01*
X16648073Y11662610D01*
X16598449Y11775592D01*
X16558065Y11919857D01*
X16243747Y11930342D01*
X16103001Y11931635D01*
X15994824Y11926153D01*
X15935684Y11915021D01*
X15929429Y11908894D01*
X15945504Y11817824D01*
X15986803Y11690400D01*
X16042937Y11553500D01*
X16103516Y11434002D01*
X16128018Y11395132D01*
X16217907Y11296014D01*
X16338286Y11199922D01*
X16398489Y11162804D01*
X16499765Y11113426D01*
X16595156Y11084750D01*
X16710467Y11071750D01*
X16871504Y11069398D01*
X16877768Y11069443D01*
X17030939Y11074783D01*
X17165885Y11086894D01*
X17258430Y11103416D01*
X17271981Y11107909D01*
X17404227Y11183927D01*
X17499318Y11295710D01*
X17559296Y11450088D01*
X17586202Y11653889D01*
X17582077Y11913944D01*
X17566336Y12092641D01*
X17516628Y12482883D01*
X17457866Y12806686D01*
X17387977Y13069843D01*
X17304885Y13278151D01*
X17206516Y13437405D01*
X17090794Y13553399D01*
X17028276Y13595529D01*
X16920112Y13650055D01*
X16807679Y13683166D01*
X16663942Y13701421D01*
X16567771Y13707222D01*
X16408604Y13711479D01*
X16296054Y13703555D01*
X16204635Y13679521D01*
X16111687Y13636917D01*
X15965699Y13534856D01*
X15867775Y13399047D01*
X15810767Y13216979D01*
X15793149Y13079336D01*
X15774350Y12845143D01*
X15774350Y12845143D01*
G37*
X15774350Y12845143D02*
X16109823Y12845143D01*
X16445296Y12845143D01*
X16423160Y12933339D01*
X16419095Y13035990D01*
X16436471Y13114768D01*
X16496262Y13190990D01*
X16582330Y13214170D01*
X16672166Y13184994D01*
X16742601Y13105440D01*
X16782082Y12997978D01*
X16822338Y12833831D01*
X16860660Y12628807D01*
X16894339Y12398708D01*
X16920667Y12159340D01*
X16933442Y11991935D01*
X16942136Y11822479D01*
X16942698Y11710286D01*
X16933649Y11640355D01*
X16913513Y11597683D01*
X16892519Y11576404D01*
X16810782Y11547812D01*
X16724573Y11579749D01*
X16648073Y11662610D01*
X16598449Y11775592D01*
X16558065Y11919857D01*
X16243747Y11930342D01*
X16103001Y11931635D01*
X15994824Y11926153D01*
X15935684Y11915021D01*
X15929429Y11908894D01*
X15945504Y11817824D01*
X15986803Y11690400D01*
X16042937Y11553500D01*
X16103516Y11434002D01*
X16128018Y11395132D01*
X16217907Y11296014D01*
X16338286Y11199922D01*
X16398489Y11162804D01*
X16499765Y11113426D01*
X16595156Y11084750D01*
X16710467Y11071750D01*
X16871504Y11069398D01*
X16877768Y11069443D01*
X17030939Y11074783D01*
X17165885Y11086894D01*
X17258430Y11103416D01*
X17271981Y11107909D01*
X17404227Y11183927D01*
X17499318Y11295710D01*
X17559296Y11450088D01*
X17586202Y11653889D01*
X17582077Y11913944D01*
X17566336Y12092641D01*
X17516628Y12482883D01*
X17457866Y12806686D01*
X17387977Y13069843D01*
X17304885Y13278151D01*
X17206516Y13437405D01*
X17090794Y13553399D01*
X17028276Y13595529D01*
X16920112Y13650055D01*
X16807679Y13683166D01*
X16663942Y13701421D01*
X16567771Y13707222D01*
X16408604Y13711479D01*
X16296054Y13703555D01*
X16204635Y13679521D01*
X16111687Y13636917D01*
X15965699Y13534856D01*
X15867775Y13399047D01*
X15810767Y13216979D01*
X15793149Y13079336D01*
X15774350Y12845143D01*
G36*
X14082802Y13011234D02*
X14108154Y12800606D01*
X14162285Y12598877D01*
X14241420Y12429174D01*
X14298969Y12352734D01*
X14342996Y12297365D01*
X14350271Y12244889D01*
X14323278Y12163836D01*
X14315380Y12144762D01*
X14276745Y11993856D01*
X14262034Y11781568D01*
X14271129Y11504980D01*
X14283934Y11348357D01*
X14307066Y11103429D01*
X14596143Y11103429D01*
X14667006Y11103429D01*
X14667006Y12903233D01*
X14676312Y13036641D01*
X14712169Y13132599D01*
X14719481Y13141643D01*
X14801840Y13197935D01*
X14886244Y13205234D01*
X14949336Y13164990D01*
X14965839Y13126357D01*
X14980857Y13044200D01*
X15000328Y12921977D01*
X15021043Y12782054D01*
X15039794Y12646795D01*
X15053372Y12538565D01*
X15058571Y12479871D01*
X15029607Y12456167D01*
X14959606Y12457107D01*
X14873909Y12477991D01*
X14797854Y12514120D01*
X14775173Y12532419D01*
X14718760Y12625711D01*
X14681930Y12757786D01*
X14667006Y12903233D01*
X14667006Y11103429D01*
X14885219Y11103429D01*
X14864048Y11221357D01*
X14824994Y11500752D01*
X14816241Y11730137D01*
X14837170Y11905583D01*
X14887160Y12023161D01*
X14965590Y12078944D01*
X15000150Y12083143D01*
X15076066Y12072347D01*
X15109177Y12053044D01*
X15120914Y12007465D01*
X15139601Y11904603D01*
X15162782Y11759136D01*
X15188001Y11585738D01*
X15191125Y11563187D01*
X15254472Y11103429D01*
X15537522Y11103429D01*
X15670467Y11106298D01*
X15769899Y11113909D01*
X15818429Y11124767D01*
X15820571Y11127756D01*
X15815666Y11172926D01*
X15801914Y11279619D01*
X15780762Y11437521D01*
X15753655Y11636316D01*
X15722038Y11865690D01*
X15687359Y12115329D01*
X15651063Y12374917D01*
X15614596Y12634140D01*
X15579403Y12882683D01*
X15546932Y13110232D01*
X15518626Y13306471D01*
X15495934Y13461087D01*
X15480299Y13563764D01*
X15473703Y13602224D01*
X15454247Y13688019D01*
X14975195Y13672723D01*
X14714308Y13658744D01*
X14514933Y13633081D01*
X14366436Y13591865D01*
X14258179Y13531230D01*
X14179527Y13447307D01*
X14133528Y13366671D01*
X14090002Y13207631D01*
X14082802Y13011234D01*
X14082802Y13011234D01*
G37*
X14082802Y13011234D02*
X14108154Y12800606D01*
X14162285Y12598877D01*
X14241420Y12429174D01*
X14298969Y12352734D01*
X14342996Y12297365D01*
X14350271Y12244889D01*
X14323278Y12163836D01*
X14315380Y12144762D01*
X14276745Y11993856D01*
X14262034Y11781568D01*
X14271129Y11504980D01*
X14283934Y11348357D01*
X14307066Y11103429D01*
X14596143Y11103429D01*
X14667006Y11103429D01*
X14667006Y12903233D01*
X14676312Y13036641D01*
X14712169Y13132599D01*
X14719481Y13141643D01*
X14801840Y13197935D01*
X14886244Y13205234D01*
X14949336Y13164990D01*
X14965839Y13126357D01*
X14980857Y13044200D01*
X15000328Y12921977D01*
X15021043Y12782054D01*
X15039794Y12646795D01*
X15053372Y12538565D01*
X15058571Y12479871D01*
X15029607Y12456167D01*
X14959606Y12457107D01*
X14873909Y12477991D01*
X14797854Y12514120D01*
X14775173Y12532419D01*
X14718760Y12625711D01*
X14681930Y12757786D01*
X14667006Y12903233D01*
X14667006Y11103429D01*
X14885219Y11103429D01*
X14864048Y11221357D01*
X14824994Y11500752D01*
X14816241Y11730137D01*
X14837170Y11905583D01*
X14887160Y12023161D01*
X14965590Y12078944D01*
X15000150Y12083143D01*
X15076066Y12072347D01*
X15109177Y12053044D01*
X15120914Y12007465D01*
X15139601Y11904603D01*
X15162782Y11759136D01*
X15188001Y11585738D01*
X15191125Y11563187D01*
X15254472Y11103429D01*
X15537522Y11103429D01*
X15670467Y11106298D01*
X15769899Y11113909D01*
X15818429Y11124767D01*
X15820571Y11127756D01*
X15815666Y11172926D01*
X15801914Y11279619D01*
X15780762Y11437521D01*
X15753655Y11636316D01*
X15722038Y11865690D01*
X15687359Y12115329D01*
X15651063Y12374917D01*
X15614596Y12634140D01*
X15579403Y12882683D01*
X15546932Y13110232D01*
X15518626Y13306471D01*
X15495934Y13461087D01*
X15480299Y13563764D01*
X15473703Y13602224D01*
X15454247Y13688019D01*
X14975195Y13672723D01*
X14714308Y13658744D01*
X14514933Y13633081D01*
X14366436Y13591865D01*
X14258179Y13531230D01*
X14179527Y13447307D01*
X14133528Y13366671D01*
X14090002Y13207631D01*
X14082802Y13011234D01*
G36*
X12511762Y13679715D02*
X12535934Y13489215D01*
X12555666Y13338444D01*
X12578570Y13244913D01*
X12620224Y13195005D01*
X12696208Y13175101D01*
X12822101Y13171581D01*
X12899134Y13171715D01*
X13040940Y13172432D01*
X13132774Y13166043D01*
X13187835Y13139737D01*
X13219325Y13080704D01*
X13240443Y12976132D01*
X13263676Y12817929D01*
X13286950Y12663715D01*
X13062484Y12663715D01*
X12838017Y12663715D01*
X12863852Y12436929D01*
X12879773Y12314223D01*
X12895381Y12221594D01*
X12905842Y12182929D01*
X12947993Y12168286D01*
X13040479Y12158406D01*
X13133532Y12155715D01*
X13228032Y12156232D01*
X13291641Y12149714D01*
X13332553Y12124054D01*
X13358965Y12067146D01*
X13379071Y11966882D01*
X13401065Y11811158D01*
X13409860Y11747500D01*
X13433954Y11575143D01*
X13119182Y11575143D01*
X12804411Y11575143D01*
X12827827Y11402786D01*
X12841654Y11293394D01*
X12855967Y11214343D01*
X12881449Y11160742D01*
X12928779Y11127701D01*
X13008640Y11110329D01*
X13131713Y11103737D01*
X13308680Y11103034D01*
X13481681Y11103429D01*
X14077043Y11103429D01*
X14059418Y11203215D01*
X14049842Y11264607D01*
X14032221Y11384490D01*
X14007991Y11552610D01*
X13978591Y11758710D01*
X13945457Y11992535D01*
X13910028Y12243830D01*
X13873740Y12502339D01*
X13838032Y12757806D01*
X13804340Y12999977D01*
X13774102Y13218595D01*
X13748755Y13403406D01*
X13729737Y13544154D01*
X13718486Y13630582D01*
X13716000Y13653343D01*
X13681704Y13662096D01*
X13586764Y13669621D01*
X13443106Y13675394D01*
X13262654Y13678895D01*
X13113881Y13679715D01*
X12511762Y13679715D01*
X12511762Y13679715D01*
G37*
X12511762Y13679715D02*
X12535934Y13489215D01*
X12555666Y13338444D01*
X12578570Y13244913D01*
X12620224Y13195005D01*
X12696208Y13175101D01*
X12822101Y13171581D01*
X12899134Y13171715D01*
X13040940Y13172432D01*
X13132774Y13166043D01*
X13187835Y13139737D01*
X13219325Y13080704D01*
X13240443Y12976132D01*
X13263676Y12817929D01*
X13286950Y12663715D01*
X13062484Y12663715D01*
X12838017Y12663715D01*
X12863852Y12436929D01*
X12879773Y12314223D01*
X12895381Y12221594D01*
X12905842Y12182929D01*
X12947993Y12168286D01*
X13040479Y12158406D01*
X13133532Y12155715D01*
X13228032Y12156232D01*
X13291641Y12149714D01*
X13332553Y12124054D01*
X13358965Y12067146D01*
X13379071Y11966882D01*
X13401065Y11811158D01*
X13409860Y11747500D01*
X13433954Y11575143D01*
X13119182Y11575143D01*
X12804411Y11575143D01*
X12827827Y11402786D01*
X12841654Y11293394D01*
X12855967Y11214343D01*
X12881449Y11160742D01*
X12928779Y11127701D01*
X13008640Y11110329D01*
X13131713Y11103737D01*
X13308680Y11103034D01*
X13481681Y11103429D01*
X14077043Y11103429D01*
X14059418Y11203215D01*
X14049842Y11264607D01*
X14032221Y11384490D01*
X14007991Y11552610D01*
X13978591Y11758710D01*
X13945457Y11992535D01*
X13910028Y12243830D01*
X13873740Y12502339D01*
X13838032Y12757806D01*
X13804340Y12999977D01*
X13774102Y13218595D01*
X13748755Y13403406D01*
X13729737Y13544154D01*
X13718486Y13630582D01*
X13716000Y13653343D01*
X13681704Y13662096D01*
X13586764Y13669621D01*
X13443106Y13675394D01*
X13262654Y13678895D01*
X13113881Y13679715D01*
X12511762Y13679715D01*
G36*
X10922000Y11130166D02*
X10955417Y11117750D01*
X11044219Y11108399D01*
X11171238Y11103697D01*
X11212286Y11103429D01*
X11502571Y11103429D01*
X11502571Y11304732D01*
X11502571Y11506035D01*
X11515200Y11505426D01*
X11515200Y12036397D01*
X11516063Y12144857D01*
X11521907Y12291814D01*
X11529918Y12425910D01*
X11557000Y12823105D01*
X11674929Y12419632D01*
X11721631Y12256632D01*
X11759592Y12118027D01*
X11784684Y12019299D01*
X11792857Y11977079D01*
X11762443Y11949936D01*
X11690678Y11939066D01*
X11606775Y11943797D01*
X11539948Y11963458D01*
X11519708Y11983357D01*
X11515200Y12036397D01*
X11515200Y11505426D01*
X11726369Y11495232D01*
X11950167Y11484429D01*
X12010604Y11303000D01*
X12071041Y11121572D01*
X12349235Y11110974D01*
X12480818Y11109333D01*
X12578807Y11114535D01*
X12625705Y11125473D01*
X12627429Y11128542D01*
X12615396Y11167912D01*
X12581134Y11267697D01*
X12527398Y11420178D01*
X12456944Y11617634D01*
X12372526Y11852345D01*
X12276900Y12116591D01*
X12172822Y12402652D01*
X12167146Y12418211D01*
X11706863Y13679715D01*
X11425512Y13679715D01*
X11144161Y13679715D01*
X11123918Y13525500D01*
X11117266Y13462078D01*
X11105810Y13339133D01*
X11090456Y13167428D01*
X11072113Y12957727D01*
X11051687Y12720791D01*
X11030087Y12467386D01*
X11008218Y12208274D01*
X10986989Y11954218D01*
X10967306Y11715981D01*
X10950078Y11504327D01*
X10936211Y11330019D01*
X10926613Y11203819D01*
X10922191Y11136492D01*
X10922000Y11130166D01*
X10922000Y11130166D01*
G37*
X10922000Y11130166D02*
X10955417Y11117750D01*
X11044219Y11108399D01*
X11171238Y11103697D01*
X11212286Y11103429D01*
X11502571Y11103429D01*
X11502571Y11304732D01*
X11502571Y11506035D01*
X11515200Y11505426D01*
X11515200Y12036397D01*
X11516063Y12144857D01*
X11521907Y12291814D01*
X11529918Y12425910D01*
X11557000Y12823105D01*
X11674929Y12419632D01*
X11721631Y12256632D01*
X11759592Y12118027D01*
X11784684Y12019299D01*
X11792857Y11977079D01*
X11762443Y11949936D01*
X11690678Y11939066D01*
X11606775Y11943797D01*
X11539948Y11963458D01*
X11519708Y11983357D01*
X11515200Y12036397D01*
X11515200Y11505426D01*
X11726369Y11495232D01*
X11950167Y11484429D01*
X12010604Y11303000D01*
X12071041Y11121572D01*
X12349235Y11110974D01*
X12480818Y11109333D01*
X12578807Y11114535D01*
X12625705Y11125473D01*
X12627429Y11128542D01*
X12615396Y11167912D01*
X12581134Y11267697D01*
X12527398Y11420178D01*
X12456944Y11617634D01*
X12372526Y11852345D01*
X12276900Y12116591D01*
X12172822Y12402652D01*
X12167146Y12418211D01*
X11706863Y13679715D01*
X11425512Y13679715D01*
X11144161Y13679715D01*
X11123918Y13525500D01*
X11117266Y13462078D01*
X11105810Y13339133D01*
X11090456Y13167428D01*
X11072113Y12957727D01*
X11051687Y12720791D01*
X11030087Y12467386D01*
X11008218Y12208274D01*
X10986989Y11954218D01*
X10967306Y11715981D01*
X10950078Y11504327D01*
X10936211Y11330019D01*
X10926613Y11203819D01*
X10922191Y11136492D01*
X10922000Y11130166D01*
G36*
X8455819Y13598072D02*
X8461154Y13543451D01*
X8475720Y13426115D01*
X8498283Y13255161D01*
X8527610Y13039689D01*
X8562469Y12788795D01*
X8601626Y12511578D01*
X8629169Y12319000D01*
X8801271Y11121572D01*
X9081493Y11110974D01*
X9193008Y11105365D01*
X9272307Y11104992D01*
X9323092Y11119916D01*
X9349065Y11160199D01*
X9353930Y11235902D01*
X9341390Y11357086D01*
X9315146Y11533813D01*
X9292380Y11684000D01*
X9267594Y11856081D01*
X9248410Y11999879D01*
X9236571Y12101479D01*
X9233824Y12146961D01*
X9234194Y12147993D01*
X9248369Y12120165D01*
X9279264Y12033224D01*
X9323490Y11897786D01*
X9377655Y11724467D01*
X9438368Y11523884D01*
X9495386Y11330265D01*
X9561286Y11103530D01*
X9751786Y11103479D01*
X9942286Y11103429D01*
X9942286Y11635619D01*
X9943231Y11821267D01*
X9945833Y11976632D01*
X9949742Y12089506D01*
X9954609Y12147681D01*
X9957094Y12152691D01*
X9967718Y12112873D01*
X9985504Y12015958D01*
X10007919Y11876770D01*
X10030995Y11720286D01*
X10061906Y11496002D01*
X10085552Y11333287D01*
X10108050Y11222381D01*
X10135515Y11153525D01*
X10174064Y11116961D01*
X10229811Y11102930D01*
X10308874Y11101672D01*
X10417367Y11103429D01*
X10417574Y11103429D01*
X10560594Y11104433D01*
X10644907Y11110242D01*
X10684376Y11125054D01*
X10692863Y11153064D01*
X10687278Y11185072D01*
X10677862Y11240017D01*
X10660232Y11355121D01*
X10635855Y11519973D01*
X10606197Y11724163D01*
X10572727Y11957281D01*
X10536911Y12208918D01*
X10500216Y12468663D01*
X10464109Y12726107D01*
X10430057Y12970840D01*
X10399528Y13192451D01*
X10373987Y13380531D01*
X10354904Y13524671D01*
X10343743Y13614459D01*
X10341429Y13639140D01*
X10305717Y13661814D01*
X10199799Y13675416D01*
X10035223Y13679715D01*
X9729018Y13679715D01*
X9707905Y13525500D01*
X9696023Y13430662D01*
X9678823Y13283040D01*
X9658514Y13102028D01*
X9637305Y12907021D01*
X9635108Y12886450D01*
X9615071Y12707189D01*
X9596371Y12555601D01*
X9580834Y12445419D01*
X9570285Y12390372D01*
X9568679Y12386870D01*
X9551832Y12414391D01*
X9513599Y12499776D01*
X9458156Y12632966D01*
X9389679Y12803905D01*
X9312344Y13002535D01*
X9303610Y13025293D01*
X9053286Y13678461D01*
X8753929Y13679088D01*
X8607132Y13678282D01*
X8518424Y13672484D01*
X8473328Y13657761D01*
X8457368Y13630178D01*
X8455819Y13598072D01*
X8455819Y13598072D01*
G37*
X8455819Y13598072D02*
X8461154Y13543451D01*
X8475720Y13426115D01*
X8498283Y13255161D01*
X8527610Y13039689D01*
X8562469Y12788795D01*
X8601626Y12511578D01*
X8629169Y12319000D01*
X8801271Y11121572D01*
X9081493Y11110974D01*
X9193008Y11105365D01*
X9272307Y11104992D01*
X9323092Y11119916D01*
X9349065Y11160199D01*
X9353930Y11235902D01*
X9341390Y11357086D01*
X9315146Y11533813D01*
X9292380Y11684000D01*
X9267594Y11856081D01*
X9248410Y11999879D01*
X9236571Y12101479D01*
X9233824Y12146961D01*
X9234194Y12147993D01*
X9248369Y12120165D01*
X9279264Y12033224D01*
X9323490Y11897786D01*
X9377655Y11724467D01*
X9438368Y11523884D01*
X9495386Y11330265D01*
X9561286Y11103530D01*
X9751786Y11103479D01*
X9942286Y11103429D01*
X9942286Y11635619D01*
X9943231Y11821267D01*
X9945833Y11976632D01*
X9949742Y12089506D01*
X9954609Y12147681D01*
X9957094Y12152691D01*
X9967718Y12112873D01*
X9985504Y12015958D01*
X10007919Y11876770D01*
X10030995Y11720286D01*
X10061906Y11496002D01*
X10085552Y11333287D01*
X10108050Y11222381D01*
X10135515Y11153525D01*
X10174064Y11116961D01*
X10229811Y11102930D01*
X10308874Y11101672D01*
X10417367Y11103429D01*
X10417574Y11103429D01*
X10560594Y11104433D01*
X10644907Y11110242D01*
X10684376Y11125054D01*
X10692863Y11153064D01*
X10687278Y11185072D01*
X10677862Y11240017D01*
X10660232Y11355121D01*
X10635855Y11519973D01*
X10606197Y11724163D01*
X10572727Y11957281D01*
X10536911Y12208918D01*
X10500216Y12468663D01*
X10464109Y12726107D01*
X10430057Y12970840D01*
X10399528Y13192451D01*
X10373987Y13380531D01*
X10354904Y13524671D01*
X10343743Y13614459D01*
X10341429Y13639140D01*
X10305717Y13661814D01*
X10199799Y13675416D01*
X10035223Y13679715D01*
X9729018Y13679715D01*
X9707905Y13525500D01*
X9696023Y13430662D01*
X9678823Y13283040D01*
X9658514Y13102028D01*
X9637305Y12907021D01*
X9635108Y12886450D01*
X9615071Y12707189D01*
X9596371Y12555601D01*
X9580834Y12445419D01*
X9570285Y12390372D01*
X9568679Y12386870D01*
X9551832Y12414391D01*
X9513599Y12499776D01*
X9458156Y12632966D01*
X9389679Y12803905D01*
X9312344Y13002535D01*
X9303610Y13025293D01*
X9053286Y13678461D01*
X8753929Y13679088D01*
X8607132Y13678282D01*
X8518424Y13672484D01*
X8473328Y13657761D01*
X8457368Y13630178D01*
X8455819Y13598072D01*
G36*
X15895516Y16270972D02*
X15897171Y16125875D01*
X15903951Y15967801D01*
X15930077Y15614747D01*
X15971074Y15286175D01*
X16024864Y14991596D01*
X16089372Y14740519D01*
X16162521Y14542456D01*
X16242234Y14406915D01*
X16245740Y14402679D01*
X16367653Y14287589D01*
X16514036Y14211040D01*
X16519539Y14209763D01*
X16519539Y16149743D01*
X16523604Y16196404D01*
X16551569Y16265587D01*
X16604382Y16287919D01*
X16665459Y16285421D01*
X16736897Y16266647D01*
X16795364Y16220054D01*
X16844126Y16137320D01*
X16886452Y16010127D01*
X16925609Y15830154D01*
X16964863Y15589081D01*
X16979722Y15485210D01*
X17013547Y15236270D01*
X17036256Y15048761D01*
X17048073Y14912435D01*
X17049221Y14817043D01*
X17039924Y14752336D01*
X17020404Y14708066D01*
X16997265Y14680164D01*
X16911110Y14628111D01*
X16823240Y14647096D01*
X16767828Y14691887D01*
X16719262Y14768210D01*
X16675848Y14881804D01*
X16661783Y14936816D01*
X16632744Y15092386D01*
X16603815Y15279349D01*
X16576674Y15482409D01*
X16552998Y15686274D01*
X16534464Y15875647D01*
X16522752Y16035235D01*
X16519539Y16149743D01*
X16519539Y14209763D01*
X16699201Y14168066D01*
X16937458Y14153703D01*
X16963572Y14153646D01*
X17156878Y14160692D01*
X17313157Y14179617D01*
X17407357Y14205226D01*
X17527643Y14281877D01*
X17608679Y14395569D01*
X17654941Y14556324D01*
X17670904Y14774167D01*
X17671007Y14795739D01*
X17665041Y14970957D01*
X17648996Y15181603D01*
X17625855Y15391715D01*
X17615359Y15467025D01*
X17558080Y15813308D01*
X17497398Y16093911D01*
X17428319Y16315707D01*
X17345845Y16485568D01*
X17244981Y16610368D01*
X17120731Y16696981D01*
X16968099Y16752279D01*
X16782088Y16783136D01*
X16651662Y16792814D01*
X16401933Y16790706D01*
X16210010Y16753996D01*
X16068460Y16679860D01*
X15969846Y16565475D01*
X15949013Y16526055D01*
X15920056Y16453950D01*
X15902684Y16374626D01*
X15895516Y16270972D01*
X15895516Y16270972D01*
G37*
X15895516Y16270972D02*
X15897171Y16125875D01*
X15903951Y15967801D01*
X15930077Y15614747D01*
X15971074Y15286175D01*
X16024864Y14991596D01*
X16089372Y14740519D01*
X16162521Y14542456D01*
X16242234Y14406915D01*
X16245740Y14402679D01*
X16367653Y14287589D01*
X16514036Y14211040D01*
X16519539Y14209763D01*
X16519539Y16149743D01*
X16523604Y16196404D01*
X16551569Y16265587D01*
X16604382Y16287919D01*
X16665459Y16285421D01*
X16736897Y16266647D01*
X16795364Y16220054D01*
X16844126Y16137320D01*
X16886452Y16010127D01*
X16925609Y15830154D01*
X16964863Y15589081D01*
X16979722Y15485210D01*
X17013547Y15236270D01*
X17036256Y15048761D01*
X17048073Y14912435D01*
X17049221Y14817043D01*
X17039924Y14752336D01*
X17020404Y14708066D01*
X16997265Y14680164D01*
X16911110Y14628111D01*
X16823240Y14647096D01*
X16767828Y14691887D01*
X16719262Y14768210D01*
X16675848Y14881804D01*
X16661783Y14936816D01*
X16632744Y15092386D01*
X16603815Y15279349D01*
X16576674Y15482409D01*
X16552998Y15686274D01*
X16534464Y15875647D01*
X16522752Y16035235D01*
X16519539Y16149743D01*
X16519539Y14209763D01*
X16699201Y14168066D01*
X16937458Y14153703D01*
X16963572Y14153646D01*
X17156878Y14160692D01*
X17313157Y14179617D01*
X17407357Y14205226D01*
X17527643Y14281877D01*
X17608679Y14395569D01*
X17654941Y14556324D01*
X17670904Y14774167D01*
X17671007Y14795739D01*
X17665041Y14970957D01*
X17648996Y15181603D01*
X17625855Y15391715D01*
X17615359Y15467025D01*
X17558080Y15813308D01*
X17497398Y16093911D01*
X17428319Y16315707D01*
X17345845Y16485568D01*
X17244981Y16610368D01*
X17120731Y16696981D01*
X16968099Y16752279D01*
X16782088Y16783136D01*
X16651662Y16792814D01*
X16401933Y16790706D01*
X16210010Y16753996D01*
X16068460Y16679860D01*
X15969846Y16565475D01*
X15949013Y16526055D01*
X15920056Y16453950D01*
X15902684Y16374626D01*
X15895516Y16270972D01*
G36*
X13980451Y16046630D02*
X13985400Y16018152D01*
X14000162Y15974953D01*
X14028156Y15948679D01*
X14084898Y15935133D01*
X14185902Y15930118D01*
X14313418Y15929429D01*
X14619167Y15929429D01*
X14630226Y16101786D01*
X14640282Y16206254D01*
X14662257Y16258670D01*
X14710298Y16279519D01*
X14756981Y16285347D01*
X14825806Y16283785D01*
X14882678Y16259522D01*
X14930303Y16205189D01*
X14971386Y16113413D01*
X15008632Y15976824D01*
X15044748Y15788051D01*
X15082438Y15539723D01*
X15112471Y15316830D01*
X15133428Y15134540D01*
X15147229Y14969848D01*
X15152694Y14840778D01*
X15148642Y14765358D01*
X15148590Y14765117D01*
X15098535Y14670462D01*
X15011666Y14632318D01*
X14935341Y14644860D01*
X14869669Y14699864D01*
X14809966Y14796175D01*
X14773018Y14903341D01*
X14768286Y14947913D01*
X14763229Y14983190D01*
X14738837Y15005120D01*
X14681274Y15016848D01*
X14576709Y15021518D01*
X14441023Y15022286D01*
X14113760Y15022286D01*
X14136971Y14922500D01*
X14225871Y14662295D01*
X14358265Y14447268D01*
X14528070Y14285892D01*
X14641286Y14220222D01*
X14784858Y14176773D01*
X14966541Y14153770D01*
X15160211Y14151372D01*
X15339743Y14169741D01*
X15479010Y14209037D01*
X15491421Y14214985D01*
X15600123Y14279323D01*
X15676142Y14352134D01*
X15724830Y14447128D01*
X15751543Y14578017D01*
X15761634Y14758511D01*
X15761831Y14907450D01*
X15746806Y15244827D01*
X15710441Y15572638D01*
X15655478Y15877977D01*
X15584659Y16147938D01*
X15500725Y16369615D01*
X15421388Y16510058D01*
X15296782Y16631066D01*
X15128209Y16720199D01*
X14931632Y16776553D01*
X14723014Y16799224D01*
X14518320Y16787308D01*
X14333515Y16739902D01*
X14184561Y16656102D01*
X14116118Y16583942D01*
X14058419Y16471171D01*
X14011985Y16324162D01*
X13983700Y16172716D01*
X13980451Y16046630D01*
X13980451Y16046630D01*
G37*
X13980451Y16046630D02*
X13985400Y16018152D01*
X14000162Y15974953D01*
X14028156Y15948679D01*
X14084898Y15935133D01*
X14185902Y15930118D01*
X14313418Y15929429D01*
X14619167Y15929429D01*
X14630226Y16101786D01*
X14640282Y16206254D01*
X14662257Y16258670D01*
X14710298Y16279519D01*
X14756981Y16285347D01*
X14825806Y16283785D01*
X14882678Y16259522D01*
X14930303Y16205189D01*
X14971386Y16113413D01*
X15008632Y15976824D01*
X15044748Y15788051D01*
X15082438Y15539723D01*
X15112471Y15316830D01*
X15133428Y15134540D01*
X15147229Y14969848D01*
X15152694Y14840778D01*
X15148642Y14765358D01*
X15148590Y14765117D01*
X15098535Y14670462D01*
X15011666Y14632318D01*
X14935341Y14644860D01*
X14869669Y14699864D01*
X14809966Y14796175D01*
X14773018Y14903341D01*
X14768286Y14947913D01*
X14763229Y14983190D01*
X14738837Y15005120D01*
X14681274Y15016848D01*
X14576709Y15021518D01*
X14441023Y15022286D01*
X14113760Y15022286D01*
X14136971Y14922500D01*
X14225871Y14662295D01*
X14358265Y14447268D01*
X14528070Y14285892D01*
X14641286Y14220222D01*
X14784858Y14176773D01*
X14966541Y14153770D01*
X15160211Y14151372D01*
X15339743Y14169741D01*
X15479010Y14209037D01*
X15491421Y14214985D01*
X15600123Y14279323D01*
X15676142Y14352134D01*
X15724830Y14447128D01*
X15751543Y14578017D01*
X15761634Y14758511D01*
X15761831Y14907450D01*
X15746806Y15244827D01*
X15710441Y15572638D01*
X15655478Y15877977D01*
X15584659Y16147938D01*
X15500725Y16369615D01*
X15421388Y16510058D01*
X15296782Y16631066D01*
X15128209Y16720199D01*
X14931632Y16776553D01*
X14723014Y16799224D01*
X14518320Y16787308D01*
X14333515Y16739902D01*
X14184561Y16656102D01*
X14116118Y16583942D01*
X14058419Y16471171D01*
X14011985Y16324162D01*
X13983700Y16172716D01*
X13980451Y16046630D01*
G36*
X17689286Y16150721D02*
X17707988Y15896949D01*
X17761550Y15679194D01*
X17846157Y15510859D01*
X17884986Y15463340D01*
X17944532Y15395269D01*
X17959563Y15344132D01*
X17934821Y15275669D01*
X17916128Y15238284D01*
X17883089Y15156051D01*
X17862969Y15057394D01*
X17855062Y14928981D01*
X17858661Y14757478D01*
X17873060Y14529554D01*
X17876310Y14487072D01*
X17899614Y14187715D01*
X18184521Y14187715D01*
X18259365Y14189505D01*
X18259365Y16052189D01*
X18285704Y16180925D01*
X18358213Y16254986D01*
X18452370Y16274143D01*
X18505705Y16271378D01*
X18540165Y16253361D01*
X18563292Y16205508D01*
X18582625Y16113234D01*
X18602467Y15983858D01*
X18629997Y15793786D01*
X18645137Y15664687D01*
X18646188Y15585752D01*
X18631452Y15546172D01*
X18599228Y15535141D01*
X18547817Y15541850D01*
X18533415Y15544703D01*
X18437094Y15574781D01*
X18369937Y15614228D01*
X18369768Y15614395D01*
X18337435Y15673649D01*
X18302204Y15778386D01*
X18279668Y15869880D01*
X18259365Y16052189D01*
X18259365Y14189505D01*
X18317928Y14190904D01*
X18417864Y14199367D01*
X18467006Y14211450D01*
X18469326Y14214929D01*
X18465122Y14261179D01*
X18453998Y14361008D01*
X18438038Y14495984D01*
X18431288Y14551434D01*
X18413106Y14793471D01*
X18426247Y14971611D01*
X18471199Y15087653D01*
X18548451Y15143395D01*
X18593976Y15149286D01*
X18644714Y15145426D01*
X18682873Y15126946D01*
X18712125Y15083496D01*
X18736141Y15004728D01*
X18758590Y14880292D01*
X18783143Y14699837D01*
X18799137Y14570812D01*
X18845958Y14187715D01*
X19129408Y14187715D01*
X19273038Y14189685D01*
X19358388Y14197736D01*
X19399688Y14215074D01*
X19411173Y14244906D01*
X19411191Y14251215D01*
X19405841Y14301251D01*
X19391414Y14414274D01*
X19369112Y14581433D01*
X19340141Y14793875D01*
X19305705Y15042747D01*
X19267007Y15319198D01*
X19237191Y15530286D01*
X19064857Y16745858D01*
X18576643Y16745342D01*
X18374975Y16744098D01*
X18230414Y16739470D01*
X18127507Y16729373D01*
X18050801Y16711720D01*
X17984843Y16684422D01*
X17937869Y16659072D01*
X17815562Y16572821D01*
X17739284Y16470878D01*
X17700153Y16335078D01*
X17689286Y16150721D01*
X17689286Y16150721D01*
G37*
X17689286Y16150721D02*
X17707988Y15896949D01*
X17761550Y15679194D01*
X17846157Y15510859D01*
X17884986Y15463340D01*
X17944532Y15395269D01*
X17959563Y15344132D01*
X17934821Y15275669D01*
X17916128Y15238284D01*
X17883089Y15156051D01*
X17862969Y15057394D01*
X17855062Y14928981D01*
X17858661Y14757478D01*
X17873060Y14529554D01*
X17876310Y14487072D01*
X17899614Y14187715D01*
X18184521Y14187715D01*
X18259365Y14189505D01*
X18259365Y16052189D01*
X18285704Y16180925D01*
X18358213Y16254986D01*
X18452370Y16274143D01*
X18505705Y16271378D01*
X18540165Y16253361D01*
X18563292Y16205508D01*
X18582625Y16113234D01*
X18602467Y15983858D01*
X18629997Y15793786D01*
X18645137Y15664687D01*
X18646188Y15585752D01*
X18631452Y15546172D01*
X18599228Y15535141D01*
X18547817Y15541850D01*
X18533415Y15544703D01*
X18437094Y15574781D01*
X18369937Y15614228D01*
X18369768Y15614395D01*
X18337435Y15673649D01*
X18302204Y15778386D01*
X18279668Y15869880D01*
X18259365Y16052189D01*
X18259365Y14189505D01*
X18317928Y14190904D01*
X18417864Y14199367D01*
X18467006Y14211450D01*
X18469326Y14214929D01*
X18465122Y14261179D01*
X18453998Y14361008D01*
X18438038Y14495984D01*
X18431288Y14551434D01*
X18413106Y14793471D01*
X18426247Y14971611D01*
X18471199Y15087653D01*
X18548451Y15143395D01*
X18593976Y15149286D01*
X18644714Y15145426D01*
X18682873Y15126946D01*
X18712125Y15083496D01*
X18736141Y15004728D01*
X18758590Y14880292D01*
X18783143Y14699837D01*
X18799137Y14570812D01*
X18845958Y14187715D01*
X19129408Y14187715D01*
X19273038Y14189685D01*
X19358388Y14197736D01*
X19399688Y14215074D01*
X19411173Y14244906D01*
X19411191Y14251215D01*
X19405841Y14301251D01*
X19391414Y14414274D01*
X19369112Y14581433D01*
X19340141Y14793875D01*
X19305705Y15042747D01*
X19267007Y15319198D01*
X19237191Y15530286D01*
X19064857Y16745858D01*
X18576643Y16745342D01*
X18374975Y16744098D01*
X18230414Y16739470D01*
X18127507Y16729373D01*
X18050801Y16711720D01*
X17984843Y16684422D01*
X17937869Y16659072D01*
X17815562Y16572821D01*
X17739284Y16470878D01*
X17700153Y16335078D01*
X17689286Y16150721D01*
G36*
X11996915Y16718708D02*
X11996953Y16718643D01*
X12024729Y16675444D01*
X12086121Y16582002D01*
X12174444Y16448424D01*
X12283014Y16284819D01*
X12405145Y16101296D01*
X12416380Y16084437D01*
X12537575Y15901043D01*
X12643574Y15737664D01*
X12728198Y15604069D01*
X12785271Y15510025D01*
X12808614Y15465302D01*
X12808857Y15463815D01*
X12796575Y15423232D01*
X12762885Y15327589D01*
X12712519Y15189526D01*
X12650212Y15021684D01*
X12580697Y14836702D01*
X12508707Y14647220D01*
X12438977Y14465878D01*
X12376239Y14305316D01*
X12354751Y14251215D01*
X12349112Y14221776D01*
X12368816Y14203126D01*
X12426073Y14192845D01*
X12533094Y14188518D01*
X12675530Y14187715D01*
X12839058Y14189382D01*
X12943822Y14195984D01*
X13003582Y14209924D01*
X13032100Y14233603D01*
X13039336Y14251215D01*
X13054164Y14310518D01*
X13081163Y14423848D01*
X13116385Y14574472D01*
X13152752Y14732000D01*
X13192650Y14903379D01*
X13228763Y15054012D01*
X13256903Y15166710D01*
X13272068Y15221858D01*
X13285005Y15215214D01*
X13304475Y15144967D01*
X13328720Y15019609D01*
X13355980Y14847632D01*
X13369740Y14750143D01*
X13443857Y14205858D01*
X13725072Y14195260D01*
X13857789Y14193678D01*
X13957348Y14198994D01*
X14006172Y14210083D01*
X14008382Y14213403D01*
X14004062Y14254854D01*
X13990837Y14359809D01*
X13969827Y14519896D01*
X13942152Y14726743D01*
X13908930Y14971978D01*
X13871280Y15247230D01*
X13836025Y15502923D01*
X13661572Y16763702D01*
X13380357Y16763851D01*
X13269734Y16765346D01*
X13190675Y16762950D01*
X13139631Y16746550D01*
X13113053Y16706029D01*
X13107388Y16631274D01*
X13119089Y16512167D01*
X13144604Y16338596D01*
X13170691Y16166453D01*
X13195821Y15990907D01*
X13215164Y15843323D01*
X13227060Y15737386D01*
X13229848Y15686778D01*
X13229178Y15684511D01*
X13209832Y15711261D01*
X13163390Y15792527D01*
X13095439Y15918031D01*
X13011567Y16077494D01*
X12938833Y16218559D01*
X12659883Y16764000D01*
X12314943Y16764000D01*
X12150139Y16761837D01*
X12048441Y16754458D01*
X12000487Y16740527D01*
X11996915Y16718708D01*
X11996915Y16718708D01*
G37*
X11996915Y16718708D02*
X11996953Y16718643D01*
X12024729Y16675444D01*
X12086121Y16582002D01*
X12174444Y16448424D01*
X12283014Y16284819D01*
X12405145Y16101296D01*
X12416380Y16084437D01*
X12537575Y15901043D01*
X12643574Y15737664D01*
X12728198Y15604069D01*
X12785271Y15510025D01*
X12808614Y15465302D01*
X12808857Y15463815D01*
X12796575Y15423232D01*
X12762885Y15327589D01*
X12712519Y15189526D01*
X12650212Y15021684D01*
X12580697Y14836702D01*
X12508707Y14647220D01*
X12438977Y14465878D01*
X12376239Y14305316D01*
X12354751Y14251215D01*
X12349112Y14221776D01*
X12368816Y14203126D01*
X12426073Y14192845D01*
X12533094Y14188518D01*
X12675530Y14187715D01*
X12839058Y14189382D01*
X12943822Y14195984D01*
X13003582Y14209924D01*
X13032100Y14233603D01*
X13039336Y14251215D01*
X13054164Y14310518D01*
X13081163Y14423848D01*
X13116385Y14574472D01*
X13152752Y14732000D01*
X13192650Y14903379D01*
X13228763Y15054012D01*
X13256903Y15166710D01*
X13272068Y15221858D01*
X13285005Y15215214D01*
X13304475Y15144967D01*
X13328720Y15019609D01*
X13355980Y14847632D01*
X13369740Y14750143D01*
X13443857Y14205858D01*
X13725072Y14195260D01*
X13857789Y14193678D01*
X13957348Y14198994D01*
X14006172Y14210083D01*
X14008382Y14213403D01*
X14004062Y14254854D01*
X13990837Y14359809D01*
X13969827Y14519896D01*
X13942152Y14726743D01*
X13908930Y14971978D01*
X13871280Y15247230D01*
X13836025Y15502923D01*
X13661572Y16763702D01*
X13380357Y16763851D01*
X13269734Y16765346D01*
X13190675Y16762950D01*
X13139631Y16746550D01*
X13113053Y16706029D01*
X13107388Y16631274D01*
X13119089Y16512167D01*
X13144604Y16338596D01*
X13170691Y16166453D01*
X13195821Y15990907D01*
X13215164Y15843323D01*
X13227060Y15737386D01*
X13229848Y15686778D01*
X13229178Y15684511D01*
X13209832Y15711261D01*
X13163390Y15792527D01*
X13095439Y15918031D01*
X13011567Y16077494D01*
X12938833Y16218559D01*
X12659883Y16764000D01*
X12314943Y16764000D01*
X12150139Y16761837D01*
X12048441Y16754458D01*
X12000487Y16740527D01*
X11996915Y16718708D01*
G36*
X10549034Y16764000D02*
X10571916Y16573500D01*
X10585143Y16452213D01*
X10593562Y16353624D01*
X10595113Y16319500D01*
X10603426Y16288970D01*
X10637022Y16270037D01*
X10709439Y16260043D01*
X10834217Y16256331D01*
X10918595Y16256000D01*
X11241762Y16256000D01*
X11265934Y16065500D01*
X11283158Y15944109D01*
X11300316Y15845487D01*
X11308070Y15811500D01*
X11309328Y15776251D01*
X11277972Y15757013D01*
X11199316Y15749174D01*
X11105874Y15748000D01*
X10992899Y15746332D01*
X10923565Y15732307D01*
X10890022Y15692395D01*
X10884417Y15613066D01*
X10898901Y15480789D01*
X10908789Y15408351D01*
X10931864Y15240000D01*
X11157682Y15240000D01*
X11383500Y15240000D01*
X11420094Y14976929D01*
X11435963Y14845132D01*
X11443771Y14742300D01*
X11442045Y14688681D01*
X11441202Y14686643D01*
X11400194Y14673992D01*
X11304942Y14664471D01*
X11173760Y14659696D01*
X11132641Y14659429D01*
X10839564Y14659429D01*
X10862639Y14491079D01*
X10876708Y14374348D01*
X10884880Y14279274D01*
X10885714Y14255222D01*
X10890099Y14230465D01*
X10910010Y14212618D01*
X10955585Y14200557D01*
X11036962Y14193161D01*
X11164278Y14189309D01*
X11347671Y14187878D01*
X11495754Y14187715D01*
X12105794Y14187715D01*
X11922839Y15475858D01*
X11739885Y16764000D01*
X11144460Y16764000D01*
X10549034Y16764000D01*
X10549034Y16764000D01*
G37*
X10549034Y16764000D02*
X10571916Y16573500D01*
X10585143Y16452213D01*
X10593562Y16353624D01*
X10595113Y16319500D01*
X10603426Y16288970D01*
X10637022Y16270037D01*
X10709439Y16260043D01*
X10834217Y16256331D01*
X10918595Y16256000D01*
X11241762Y16256000D01*
X11265934Y16065500D01*
X11283158Y15944109D01*
X11300316Y15845487D01*
X11308070Y15811500D01*
X11309328Y15776251D01*
X11277972Y15757013D01*
X11199316Y15749174D01*
X11105874Y15748000D01*
X10992899Y15746332D01*
X10923565Y15732307D01*
X10890022Y15692395D01*
X10884417Y15613066D01*
X10898901Y15480789D01*
X10908789Y15408351D01*
X10931864Y15240000D01*
X11157682Y15240000D01*
X11383500Y15240000D01*
X11420094Y14976929D01*
X11435963Y14845132D01*
X11443771Y14742300D01*
X11442045Y14688681D01*
X11441202Y14686643D01*
X11400194Y14673992D01*
X11304942Y14664471D01*
X11173760Y14659696D01*
X11132641Y14659429D01*
X10839564Y14659429D01*
X10862639Y14491079D01*
X10876708Y14374348D01*
X10884880Y14279274D01*
X10885714Y14255222D01*
X10890099Y14230465D01*
X10910010Y14212618D01*
X10955585Y14200557D01*
X11036962Y14193161D01*
X11164278Y14189309D01*
X11347671Y14187878D01*
X11495754Y14187715D01*
X12105794Y14187715D01*
X11922839Y15475858D01*
X11739885Y16764000D01*
X11144460Y16764000D01*
X10549034Y16764000D01*
G36*
X8702193Y16764000D02*
X8725467Y16609786D01*
X8749552Y16448340D01*
X8770537Y16345104D01*
X8799742Y16287164D01*
X8848487Y16261605D01*
X8928093Y16255513D01*
X9035581Y16256000D01*
X9171660Y16252891D01*
X9251351Y16241017D01*
X9290667Y16216564D01*
X9302050Y16192500D01*
X9311656Y16140755D01*
X9329677Y16027204D01*
X9354614Y15861934D01*
X9384969Y15655031D01*
X9419243Y15416581D01*
X9455701Y15158358D01*
X9591555Y14187715D01*
X9879816Y14187715D01*
X10168077Y14187715D01*
X10147127Y14305643D01*
X10136233Y14375308D01*
X10117385Y14504752D01*
X10092297Y14681833D01*
X10062683Y14894404D01*
X10030254Y15130322D01*
X10015317Y15240000D01*
X9982297Y15481048D01*
X9951365Y15702882D01*
X9924213Y15893684D01*
X9902531Y16041634D01*
X9888012Y16134913D01*
X9884203Y16156215D01*
X9863948Y16256000D01*
X10124394Y16256000D01*
X10384840Y16256000D01*
X10359005Y16482786D01*
X10343085Y16605492D01*
X10327476Y16698121D01*
X10317016Y16736786D01*
X10277604Y16744704D01*
X10176253Y16751715D01*
X10023594Y16757465D01*
X9830259Y16761600D01*
X9606876Y16763764D01*
X9501526Y16764000D01*
X8702193Y16764000D01*
X8702193Y16764000D01*
G37*
X8702193Y16764000D02*
X8725467Y16609786D01*
X8749552Y16448340D01*
X8770537Y16345104D01*
X8799742Y16287164D01*
X8848487Y16261605D01*
X8928093Y16255513D01*
X9035581Y16256000D01*
X9171660Y16252891D01*
X9251351Y16241017D01*
X9290667Y16216564D01*
X9302050Y16192500D01*
X9311656Y16140755D01*
X9329677Y16027204D01*
X9354614Y15861934D01*
X9384969Y15655031D01*
X9419243Y15416581D01*
X9455701Y15158358D01*
X9591555Y14187715D01*
X9879816Y14187715D01*
X10168077Y14187715D01*
X10147127Y14305643D01*
X10136233Y14375308D01*
X10117385Y14504752D01*
X10092297Y14681833D01*
X10062683Y14894404D01*
X10030254Y15130322D01*
X10015317Y15240000D01*
X9982297Y15481048D01*
X9951365Y15702882D01*
X9924213Y15893684D01*
X9902531Y16041634D01*
X9888012Y16134913D01*
X9884203Y16156215D01*
X9863948Y16256000D01*
X10124394Y16256000D01*
X10384840Y16256000D01*
X10359005Y16482786D01*
X10343085Y16605492D01*
X10327476Y16698121D01*
X10317016Y16736786D01*
X10277604Y16744704D01*
X10176253Y16751715D01*
X10023594Y16757465D01*
X9830259Y16761600D01*
X9606876Y16763764D01*
X9501526Y16764000D01*
X8702193Y16764000D01*
G36*
X8198956Y29683330D02*
X8208835Y25083308D01*
X8218714Y20483286D01*
X8337070Y20144305D01*
X8527259Y19700287D01*
X8769633Y19306381D01*
X9062766Y18963928D01*
X9405232Y18674268D01*
X9795604Y18438741D01*
X10232457Y18258689D01*
X10395857Y18209085D01*
X10459175Y18192073D01*
X10521055Y18177585D01*
X10587784Y18165377D01*
X10665646Y18155201D01*
X10760925Y18146812D01*
X10793989Y18144909D01*
X10793989Y26658960D01*
X10797521Y26815206D01*
X10800125Y26845688D01*
X10823481Y27069143D01*
X10990669Y27075197D01*
X11515675Y27061053D01*
X12015765Y26979050D01*
X12493938Y26828312D01*
X12953196Y26607967D01*
X13262044Y26413906D01*
X13603394Y26144680D01*
X13927430Y25825542D01*
X14220040Y25473185D01*
X14422592Y25170765D01*
X14422592Y25579844D01*
X14476989Y25614131D01*
X14583280Y25644928D01*
X14720789Y25668779D01*
X14868838Y25682229D01*
X15006750Y25681821D01*
X15024456Y25680427D01*
X15174135Y25660078D01*
X15310782Y25623780D01*
X15444235Y25565272D01*
X15584331Y25478293D01*
X15740906Y25356583D01*
X15923798Y25193881D01*
X16142842Y24983927D01*
X16186882Y24940621D01*
X16380099Y24747790D01*
X16523421Y24599178D01*
X16620756Y24490303D01*
X16676013Y24416682D01*
X16693097Y24373832D01*
X16689702Y24363777D01*
X16650109Y24340305D01*
X16579957Y24344698D01*
X16484893Y24369769D01*
X16359760Y24400737D01*
X16244627Y24418574D01*
X16211820Y24420286D01*
X16108127Y24445999D01*
X15990916Y24513474D01*
X15972658Y24527505D01*
X15749183Y24667062D01*
X15506661Y24749224D01*
X15260782Y24770458D01*
X15051041Y24735006D01*
X14880225Y24682316D01*
X14773890Y24909550D01*
X14693354Y25069050D01*
X14598139Y25240051D01*
X14535624Y25343024D01*
X14471712Y25451188D01*
X14431106Y25536299D01*
X14422592Y25579844D01*
X14422592Y25170765D01*
X14467110Y25104297D01*
X14625967Y24800874D01*
X14737675Y24554507D01*
X14436282Y24251539D01*
X14316286Y24133034D01*
X14214281Y24036254D01*
X14141278Y23971382D01*
X14108611Y23948572D01*
X14068479Y23968026D01*
X13985397Y24019660D01*
X13875405Y24093377D01*
X13844739Y24114663D01*
X13734814Y24188937D01*
X13651854Y24240098D01*
X13609738Y24259760D01*
X13607143Y24258256D01*
X13627029Y24219532D01*
X13678954Y24140534D01*
X13745572Y24046808D01*
X13822412Y23940568D01*
X13883903Y23853107D01*
X13913348Y23808700D01*
X13906746Y23764266D01*
X13851841Y23684002D01*
X13745725Y23564148D01*
X13639648Y23454915D01*
X13518687Y23335937D01*
X13414893Y23238717D01*
X13339491Y23173443D01*
X13304033Y23150286D01*
X13260445Y23166220D01*
X13167261Y23209411D01*
X13038910Y23272945D01*
X12913909Y23337270D01*
X12465966Y23609889D01*
X12061385Y23933944D01*
X11704604Y24303180D01*
X11400058Y24711346D01*
X11152188Y25152189D01*
X10965429Y25619455D01*
X10844220Y26106892D01*
X10816726Y26292331D01*
X10800729Y26473382D01*
X10793989Y26658960D01*
X10793989Y18144909D01*
X10879906Y18139964D01*
X11028874Y18134410D01*
X11214114Y18129906D01*
X11441909Y18126204D01*
X11718545Y18123060D01*
X12050306Y18120226D01*
X12210182Y18119101D01*
X12210182Y22968858D01*
X12215854Y23164917D01*
X12232089Y23311325D01*
X12257302Y23396197D01*
X12304462Y23478821D01*
X12456874Y23385354D01*
X12562847Y23323827D01*
X12706420Y23244955D01*
X12860215Y23163710D01*
X12893016Y23146844D01*
X13028421Y23076641D01*
X13110469Y23027853D01*
X13150431Y22988887D01*
X13159578Y22948146D01*
X13149182Y22894036D01*
X13147016Y22885545D01*
X13131436Y22786332D01*
X13121541Y22648420D01*
X13119490Y22533429D01*
X13147078Y22311847D01*
X13219505Y22101876D01*
X13327423Y21926985D01*
X13385507Y21865591D01*
X13450163Y21758969D01*
X13462202Y21666019D01*
X13472855Y21538993D01*
X13498493Y21405900D01*
X13501105Y21396202D01*
X13526394Y21291766D01*
X13531270Y21225174D01*
X13511376Y21198685D01*
X13462357Y21214557D01*
X13379858Y21275049D01*
X13259522Y21382420D01*
X13096994Y21538928D01*
X12955696Y21679022D01*
X12736130Y21902242D01*
X12566243Y22084474D01*
X12440619Y22231969D01*
X12353847Y22350976D01*
X12313232Y22420860D01*
X12263397Y22527306D01*
X12232701Y22622212D01*
X12216647Y22729487D01*
X12210738Y22873044D01*
X12210182Y22968858D01*
X12210182Y18119101D01*
X12443478Y18117458D01*
X12794820Y18115198D01*
X14903497Y18101888D01*
X14977693Y18227642D01*
X15051890Y18353396D01*
X14941784Y18456769D01*
X14860743Y18552280D01*
X14779593Y18677795D01*
X14746454Y18741323D01*
X14653368Y19001890D01*
X14629697Y19243081D01*
X14675910Y19468171D01*
X14792476Y19680434D01*
X14898817Y19805520D01*
X15091808Y20004771D01*
X15020761Y20215670D01*
X14969910Y20392253D01*
X14953485Y20538419D01*
X14970714Y20687218D01*
X15006546Y20824772D01*
X15099055Y21026080D01*
X15217648Y21170415D01*
X15307544Y21268980D01*
X15347193Y21338744D01*
X15344795Y21393843D01*
X15325556Y21487522D01*
X15316728Y21624545D01*
X15318077Y21776469D01*
X15329369Y21914850D01*
X15349863Y22009932D01*
X15365194Y22070109D01*
X15354225Y22127759D01*
X15309203Y22202880D01*
X15239872Y22293509D01*
X15157428Y22398876D01*
X15050263Y22538082D01*
X14926183Y22700749D01*
X14792992Y22876497D01*
X14658495Y23054949D01*
X14530497Y23225727D01*
X14416802Y23378452D01*
X14325215Y23502746D01*
X14263541Y23588230D01*
X14240813Y23622000D01*
X14226663Y23657207D01*
X14259566Y23638824D01*
X14262392Y23636687D01*
X14308623Y23601930D01*
X14401577Y23532310D01*
X14529826Y23436381D01*
X14681937Y23322693D01*
X14768286Y23258191D01*
X14952318Y23119558D01*
X15141183Y22975250D01*
X15315552Y22840163D01*
X15456099Y22729190D01*
X15485974Y22705104D01*
X15611194Y22605196D01*
X15696221Y22544881D01*
X15756405Y22517045D01*
X15807099Y22514577D01*
X15863317Y22530244D01*
X15995993Y22558196D01*
X16160528Y22568315D01*
X16323657Y22560496D01*
X16452118Y22534632D01*
X16458962Y22532140D01*
X16525790Y22514709D01*
X16578123Y22532321D01*
X16640997Y22595821D01*
X16660851Y22619596D01*
X16825664Y22765291D01*
X17030735Y22862478D01*
X17259518Y22907812D01*
X17495468Y22897951D01*
X17715166Y22832651D01*
X17886190Y22756404D01*
X17963253Y22881095D01*
X18073776Y23005373D01*
X18233403Y23115798D01*
X18418670Y23198096D01*
X18534165Y23228372D01*
X18728931Y23234554D01*
X18945829Y23193195D01*
X19161073Y23112950D01*
X19350873Y23002473D01*
X19480505Y22884076D01*
X19519439Y22851120D01*
X19568512Y22856893D01*
X19633651Y22890085D01*
X19741466Y22950715D01*
X19730849Y25146000D01*
X19728618Y25599633D01*
X19726497Y25986708D01*
X19724252Y26313237D01*
X19721649Y26585232D01*
X19718453Y26808707D01*
X19714432Y26989673D01*
X19709350Y27134143D01*
X19702974Y27248129D01*
X19695070Y27337644D01*
X19685403Y27408700D01*
X19673740Y27467309D01*
X19659846Y27519485D01*
X19643487Y27571239D01*
X19635494Y27595286D01*
X19449847Y28046175D01*
X19210479Y28448413D01*
X18918500Y28800888D01*
X18575023Y29102489D01*
X18181158Y29352105D01*
X17738017Y29548623D01*
X17653000Y29578307D01*
X17399000Y29663572D01*
X12798978Y29673451D01*
X8198956Y29683330D01*
X8198956Y29683330D01*
G37*
X8198956Y29683330D02*
X8208835Y25083308D01*
X8218714Y20483286D01*
X8337070Y20144305D01*
X8527259Y19700287D01*
X8769633Y19306381D01*
X9062766Y18963928D01*
X9405232Y18674268D01*
X9795604Y18438741D01*
X10232457Y18258689D01*
X10395857Y18209085D01*
X10459175Y18192073D01*
X10521055Y18177585D01*
X10587784Y18165377D01*
X10665646Y18155201D01*
X10760925Y18146812D01*
X10793989Y18144909D01*
X10793989Y26658960D01*
X10797521Y26815206D01*
X10800125Y26845688D01*
X10823481Y27069143D01*
X10990669Y27075197D01*
X11515675Y27061053D01*
X12015765Y26979050D01*
X12493938Y26828312D01*
X12953196Y26607967D01*
X13262044Y26413906D01*
X13603394Y26144680D01*
X13927430Y25825542D01*
X14220040Y25473185D01*
X14422592Y25170765D01*
X14422592Y25579844D01*
X14476989Y25614131D01*
X14583280Y25644928D01*
X14720789Y25668779D01*
X14868838Y25682229D01*
X15006750Y25681821D01*
X15024456Y25680427D01*
X15174135Y25660078D01*
X15310782Y25623780D01*
X15444235Y25565272D01*
X15584331Y25478293D01*
X15740906Y25356583D01*
X15923798Y25193881D01*
X16142842Y24983927D01*
X16186882Y24940621D01*
X16380099Y24747790D01*
X16523421Y24599178D01*
X16620756Y24490303D01*
X16676013Y24416682D01*
X16693097Y24373832D01*
X16689702Y24363777D01*
X16650109Y24340305D01*
X16579957Y24344698D01*
X16484893Y24369769D01*
X16359760Y24400737D01*
X16244627Y24418574D01*
X16211820Y24420286D01*
X16108127Y24445999D01*
X15990916Y24513474D01*
X15972658Y24527505D01*
X15749183Y24667062D01*
X15506661Y24749224D01*
X15260782Y24770458D01*
X15051041Y24735006D01*
X14880225Y24682316D01*
X14773890Y24909550D01*
X14693354Y25069050D01*
X14598139Y25240051D01*
X14535624Y25343024D01*
X14471712Y25451188D01*
X14431106Y25536299D01*
X14422592Y25579844D01*
X14422592Y25170765D01*
X14467110Y25104297D01*
X14625967Y24800874D01*
X14737675Y24554507D01*
X14436282Y24251539D01*
X14316286Y24133034D01*
X14214281Y24036254D01*
X14141278Y23971382D01*
X14108611Y23948572D01*
X14068479Y23968026D01*
X13985397Y24019660D01*
X13875405Y24093377D01*
X13844739Y24114663D01*
X13734814Y24188937D01*
X13651854Y24240098D01*
X13609738Y24259760D01*
X13607143Y24258256D01*
X13627029Y24219532D01*
X13678954Y24140534D01*
X13745572Y24046808D01*
X13822412Y23940568D01*
X13883903Y23853107D01*
X13913348Y23808700D01*
X13906746Y23764266D01*
X13851841Y23684002D01*
X13745725Y23564148D01*
X13639648Y23454915D01*
X13518687Y23335937D01*
X13414893Y23238717D01*
X13339491Y23173443D01*
X13304033Y23150286D01*
X13260445Y23166220D01*
X13167261Y23209411D01*
X13038910Y23272945D01*
X12913909Y23337270D01*
X12465966Y23609889D01*
X12061385Y23933944D01*
X11704604Y24303180D01*
X11400058Y24711346D01*
X11152188Y25152189D01*
X10965429Y25619455D01*
X10844220Y26106892D01*
X10816726Y26292331D01*
X10800729Y26473382D01*
X10793989Y26658960D01*
X10793989Y18144909D01*
X10879906Y18139964D01*
X11028874Y18134410D01*
X11214114Y18129906D01*
X11441909Y18126204D01*
X11718545Y18123060D01*
X12050306Y18120226D01*
X12210182Y18119101D01*
X12210182Y22968858D01*
X12215854Y23164917D01*
X12232089Y23311325D01*
X12257302Y23396197D01*
X12304462Y23478821D01*
X12456874Y23385354D01*
X12562847Y23323827D01*
X12706420Y23244955D01*
X12860215Y23163710D01*
X12893016Y23146844D01*
X13028421Y23076641D01*
X13110469Y23027853D01*
X13150431Y22988887D01*
X13159578Y22948146D01*
X13149182Y22894036D01*
X13147016Y22885545D01*
X13131436Y22786332D01*
X13121541Y22648420D01*
X13119490Y22533429D01*
X13147078Y22311847D01*
X13219505Y22101876D01*
X13327423Y21926985D01*
X13385507Y21865591D01*
X13450163Y21758969D01*
X13462202Y21666019D01*
X13472855Y21538993D01*
X13498493Y21405900D01*
X13501105Y21396202D01*
X13526394Y21291766D01*
X13531270Y21225174D01*
X13511376Y21198685D01*
X13462357Y21214557D01*
X13379858Y21275049D01*
X13259522Y21382420D01*
X13096994Y21538928D01*
X12955696Y21679022D01*
X12736130Y21902242D01*
X12566243Y22084474D01*
X12440619Y22231969D01*
X12353847Y22350976D01*
X12313232Y22420860D01*
X12263397Y22527306D01*
X12232701Y22622212D01*
X12216647Y22729487D01*
X12210738Y22873044D01*
X12210182Y22968858D01*
X12210182Y18119101D01*
X12443478Y18117458D01*
X12794820Y18115198D01*
X14903497Y18101888D01*
X14977693Y18227642D01*
X15051890Y18353396D01*
X14941784Y18456769D01*
X14860743Y18552280D01*
X14779593Y18677795D01*
X14746454Y18741323D01*
X14653368Y19001890D01*
X14629697Y19243081D01*
X14675910Y19468171D01*
X14792476Y19680434D01*
X14898817Y19805520D01*
X15091808Y20004771D01*
X15020761Y20215670D01*
X14969910Y20392253D01*
X14953485Y20538419D01*
X14970714Y20687218D01*
X15006546Y20824772D01*
X15099055Y21026080D01*
X15217648Y21170415D01*
X15307544Y21268980D01*
X15347193Y21338744D01*
X15344795Y21393843D01*
X15325556Y21487522D01*
X15316728Y21624545D01*
X15318077Y21776469D01*
X15329369Y21914850D01*
X15349863Y22009932D01*
X15365194Y22070109D01*
X15354225Y22127759D01*
X15309203Y22202880D01*
X15239872Y22293509D01*
X15157428Y22398876D01*
X15050263Y22538082D01*
X14926183Y22700749D01*
X14792992Y22876497D01*
X14658495Y23054949D01*
X14530497Y23225727D01*
X14416802Y23378452D01*
X14325215Y23502746D01*
X14263541Y23588230D01*
X14240813Y23622000D01*
X14226663Y23657207D01*
X14259566Y23638824D01*
X14262392Y23636687D01*
X14308623Y23601930D01*
X14401577Y23532310D01*
X14529826Y23436381D01*
X14681937Y23322693D01*
X14768286Y23258191D01*
X14952318Y23119558D01*
X15141183Y22975250D01*
X15315552Y22840163D01*
X15456099Y22729190D01*
X15485974Y22705104D01*
X15611194Y22605196D01*
X15696221Y22544881D01*
X15756405Y22517045D01*
X15807099Y22514577D01*
X15863317Y22530244D01*
X15995993Y22558196D01*
X16160528Y22568315D01*
X16323657Y22560496D01*
X16452118Y22534632D01*
X16458962Y22532140D01*
X16525790Y22514709D01*
X16578123Y22532321D01*
X16640997Y22595821D01*
X16660851Y22619596D01*
X16825664Y22765291D01*
X17030735Y22862478D01*
X17259518Y22907812D01*
X17495468Y22897951D01*
X17715166Y22832651D01*
X17886190Y22756404D01*
X17963253Y22881095D01*
X18073776Y23005373D01*
X18233403Y23115798D01*
X18418670Y23198096D01*
X18534165Y23228372D01*
X18728931Y23234554D01*
X18945829Y23193195D01*
X19161073Y23112950D01*
X19350873Y23002473D01*
X19480505Y22884076D01*
X19519439Y22851120D01*
X19568512Y22856893D01*
X19633651Y22890085D01*
X19741466Y22950715D01*
X19730849Y25146000D01*
X19728618Y25599633D01*
X19726497Y25986708D01*
X19724252Y26313237D01*
X19721649Y26585232D01*
X19718453Y26808707D01*
X19714432Y26989673D01*
X19709350Y27134143D01*
X19702974Y27248129D01*
X19695070Y27337644D01*
X19685403Y27408700D01*
X19673740Y27467309D01*
X19659846Y27519485D01*
X19643487Y27571239D01*
X19635494Y27595286D01*
X19449847Y28046175D01*
X19210479Y28448413D01*
X18918500Y28800888D01*
X18575023Y29102489D01*
X18181158Y29352105D01*
X17738017Y29548623D01*
X17653000Y29578307D01*
X17399000Y29663572D01*
X12798978Y29673451D01*
X8198956Y29683330D01*
G36*
X11630060Y25633874D02*
X11644034Y25436597D01*
X11720612Y25239676D01*
X11763379Y25172726D01*
X11888875Y25052248D01*
X12057812Y24964953D01*
X12245155Y24919989D01*
X12425871Y24926501D01*
X12433003Y24928051D01*
X12636670Y25008246D01*
X12796325Y25141527D01*
X12904120Y25318080D01*
X12952210Y25528089D01*
X12954000Y25579683D01*
X12941783Y25744105D01*
X12896452Y25872643D01*
X12804986Y25998403D01*
X12777209Y26029168D01*
X12630344Y26154186D01*
X12467341Y26219069D01*
X12301214Y26234572D01*
X12087042Y26203096D01*
X11907182Y26116117D01*
X11767293Y25984805D01*
X11673033Y25820334D01*
X11630060Y25633874D01*
X11630060Y25633874D01*
G37*
X11630060Y25633874D02*
X11644034Y25436597D01*
X11720612Y25239676D01*
X11763379Y25172726D01*
X11888875Y25052248D01*
X12057812Y24964953D01*
X12245155Y24919989D01*
X12425871Y24926501D01*
X12433003Y24928051D01*
X12636670Y25008246D01*
X12796325Y25141527D01*
X12904120Y25318080D01*
X12952210Y25528089D01*
X12954000Y25579683D01*
X12941783Y25744105D01*
X12896452Y25872643D01*
X12804986Y25998403D01*
X12777209Y26029168D01*
X12630344Y26154186D01*
X12467341Y26219069D01*
X12301214Y26234572D01*
X12087042Y26203096D01*
X11907182Y26116117D01*
X11767293Y25984805D01*
X11673033Y25820334D01*
X11630060Y25633874D01*
D13*
G04 #@! TO.C,LOGO2*
G36*
X7810500Y40576500D02*
X18097500Y40576500D01*
X18097500Y42492084D01*
X17864667Y42492084D01*
X17864647Y42183733D01*
X17864541Y41914923D01*
X17864281Y41682861D01*
X17863801Y41484756D01*
X17863032Y41317814D01*
X17861906Y41179245D01*
X17860356Y41066254D01*
X17858314Y40976050D01*
X17855712Y40905841D01*
X17852484Y40852834D01*
X17848560Y40814237D01*
X17843874Y40787257D01*
X17838357Y40769103D01*
X17831942Y40756981D01*
X17824562Y40748099D01*
X17822334Y40745834D01*
X17814033Y40738325D01*
X17803315Y40731760D01*
X17787450Y40726077D01*
X17763707Y40721212D01*
X17729355Y40717101D01*
X17681663Y40713680D01*
X17617901Y40710888D01*
X17535337Y40708658D01*
X17431242Y40706930D01*
X17302883Y40705638D01*
X17147532Y40704719D01*
X16962456Y40704110D01*
X16744925Y40703747D01*
X16492208Y40703567D01*
X16201575Y40703506D01*
X16002000Y40703500D01*
X15686592Y40703519D01*
X15410787Y40703618D01*
X15171853Y40703861D01*
X14967060Y40704310D01*
X14793678Y40705030D01*
X14648975Y40706084D01*
X14530221Y40707536D01*
X14434685Y40709449D01*
X14359636Y40711886D01*
X14302344Y40714911D01*
X14260078Y40718588D01*
X14230107Y40722980D01*
X14209700Y40728151D01*
X14196126Y40734164D01*
X14186656Y40741082D01*
X14181667Y40745834D01*
X14174007Y40754311D01*
X14167331Y40765254D01*
X14161572Y40781455D01*
X14156662Y40805706D01*
X14152533Y40840800D01*
X14149119Y40889529D01*
X14146350Y40954686D01*
X14144160Y41039062D01*
X14142480Y41145450D01*
X14141243Y41276643D01*
X14140382Y41435432D01*
X14139828Y41624611D01*
X14139514Y41846971D01*
X14139372Y42105306D01*
X14139346Y42314417D01*
X13943080Y42314417D01*
X13921111Y42111929D01*
X13875203Y41927394D01*
X13811897Y41768402D01*
X13694507Y41561540D01*
X13553727Y41389673D01*
X13391068Y41253563D01*
X13208043Y41153972D01*
X13006165Y41091662D01*
X12786944Y41067393D01*
X12551894Y41081928D01*
X12474321Y41094758D01*
X12332143Y41132504D01*
X12176872Y41192385D01*
X12113611Y41221864D01*
X11918805Y41317545D01*
X12058973Y41544981D01*
X12112489Y41631671D01*
X12148680Y41690074D01*
X11914460Y41690074D01*
X11906935Y41581102D01*
X11897725Y41536254D01*
X11838852Y41396718D01*
X11745800Y41275689D01*
X11624713Y41178781D01*
X11481733Y41111608D01*
X11412256Y41092656D01*
X11312929Y41073666D01*
X11236054Y41066948D01*
X11163524Y41072651D01*
X11077231Y41090926D01*
X11058739Y41095588D01*
X10971365Y41124930D01*
X10884855Y41164983D01*
X10842625Y41190402D01*
X10752667Y41252961D01*
X10752667Y41105667D01*
X10424584Y41105667D01*
X10312147Y41106164D01*
X10216315Y41107535D01*
X10144286Y41109601D01*
X10103257Y41112184D01*
X10096500Y41113831D01*
X10105264Y41136262D01*
X10126519Y41179542D01*
X10128120Y41182623D01*
X10137865Y41208401D01*
X10145483Y41247187D01*
X10151212Y41303782D01*
X10155292Y41382987D01*
X10157960Y41489605D01*
X10159455Y41628438D01*
X10160016Y41804286D01*
X10160030Y41825334D01*
X10161231Y42053750D01*
X10163276Y42153417D01*
X9919811Y42153417D01*
X9919228Y41925246D01*
X9889066Y41718507D01*
X9830754Y41535692D01*
X9745723Y41379290D01*
X9635401Y41251791D01*
X9501219Y41155687D01*
X9344606Y41093468D01*
X9306058Y41084316D01*
X9194291Y41073455D01*
X9067271Y41080347D01*
X8945552Y41102938D01*
X8873194Y41127568D01*
X8801474Y41163023D01*
X8734673Y41202064D01*
X8719736Y41212163D01*
X8657167Y41256716D01*
X8657167Y41105667D01*
X8329084Y41105667D01*
X8216647Y41106154D01*
X8120815Y41107497D01*
X8048786Y41109522D01*
X8007757Y41112052D01*
X8001000Y41113666D01*
X8008375Y41136426D01*
X8026693Y41183008D01*
X8032750Y41197652D01*
X8039301Y41218269D01*
X8044911Y41248468D01*
X8049647Y41291358D01*
X8053581Y41350047D01*
X8056781Y41427643D01*
X8059317Y41527256D01*
X8061259Y41651992D01*
X8062675Y41804960D01*
X8063636Y41989269D01*
X8064211Y42208027D01*
X8064468Y42464342D01*
X8064500Y42618404D01*
X8064500Y43963167D01*
X8764088Y43963167D01*
X8731794Y43900718D01*
X8720353Y43870451D01*
X8711828Y43826209D01*
X8705850Y43762280D01*
X8702050Y43672952D01*
X8700057Y43552515D01*
X8699500Y43401860D01*
X8699500Y42965451D01*
X8757709Y43005530D01*
X8842617Y43055176D01*
X8931639Y43086261D01*
X9037725Y43102059D01*
X9154584Y43105917D01*
X9253949Y43104129D01*
X9326201Y43096850D01*
X9386476Y43081211D01*
X9449914Y43054340D01*
X9464899Y43047078D01*
X9604351Y42956524D01*
X9718242Y42834055D01*
X9806902Y42679021D01*
X9870661Y42490775D01*
X9909849Y42268666D01*
X9919811Y42153417D01*
X10163276Y42153417D01*
X10165145Y42244451D01*
X10172611Y42402012D01*
X10184468Y42531008D01*
X10201554Y42636016D01*
X10224708Y42721611D01*
X10254769Y42792369D01*
X10292575Y42852867D01*
X10338966Y42907679D01*
X10362818Y42931663D01*
X10442544Y42998202D01*
X10528731Y43046143D01*
X10629609Y43077863D01*
X10753407Y43095736D01*
X10908354Y43102137D01*
X10953750Y43102220D01*
X11085113Y43100041D01*
X11190418Y43093465D01*
X11285873Y43080518D01*
X11387684Y43059226D01*
X11464924Y43039983D01*
X11700931Y42978917D01*
X11616411Y42774826D01*
X11531892Y42570735D01*
X11403574Y42622875D01*
X11309125Y42653553D01*
X11200984Y42677650D01*
X11131386Y42687077D01*
X11003649Y42687986D01*
X10908330Y42664700D01*
X10841502Y42614733D01*
X10799240Y42535595D01*
X10782916Y42466302D01*
X10769855Y42384624D01*
X10988803Y42383198D01*
X11222456Y42369313D01*
X11422144Y42330745D01*
X11588482Y42267224D01*
X11722089Y42178484D01*
X11823582Y42064255D01*
X11858535Y42005250D01*
X11888855Y41918959D01*
X11907966Y41808297D01*
X11914460Y41690074D01*
X12148680Y41690074D01*
X12157575Y41704427D01*
X12189809Y41756137D01*
X12204774Y41779691D01*
X12205178Y41780261D01*
X12223549Y41772895D01*
X12263943Y41745475D01*
X12294698Y41721984D01*
X12428937Y41636978D01*
X12570720Y41585658D01*
X12712544Y41569519D01*
X12846903Y41590059D01*
X12885889Y41604117D01*
X13001147Y41674081D01*
X13102274Y41779326D01*
X13184909Y41913944D01*
X13244692Y42072025D01*
X13252192Y42100500D01*
X13269395Y42203660D01*
X13278695Y42332635D01*
X13280285Y42473777D01*
X13274359Y42613434D01*
X13261108Y42737957D01*
X13241899Y42829846D01*
X13179505Y43001325D01*
X13104968Y43133996D01*
X13015624Y43230309D01*
X12908807Y43292714D01*
X12781854Y43323663D01*
X12700000Y43328167D01*
X12555273Y43312637D01*
X12427465Y43263045D01*
X12344808Y43208653D01*
X12296104Y43178363D01*
X12261357Y43169352D01*
X12254801Y43172266D01*
X12236034Y43196214D01*
X12198957Y43247330D01*
X12149142Y43317827D01*
X12098585Y43390593D01*
X11960653Y43590602D01*
X12133678Y43673051D01*
X12338769Y43758775D01*
X12527928Y43811102D01*
X12709498Y43831317D01*
X12891823Y43820705D01*
X12985750Y43804267D01*
X13185428Y43741171D01*
X13370945Y43640957D01*
X13538140Y43507643D01*
X13682851Y43345245D01*
X13800917Y43157781D01*
X13888177Y42949268D01*
X13895479Y42926000D01*
X13911918Y42851629D01*
X13926574Y42747508D01*
X13937889Y42626221D01*
X13942706Y42544333D01*
X13943080Y42314417D01*
X14139346Y42314417D01*
X14139335Y42402406D01*
X14139334Y42492084D01*
X14139354Y42800435D01*
X14139460Y43069245D01*
X14139720Y43301307D01*
X14140200Y43499412D01*
X14140969Y43666353D01*
X14142095Y43804923D01*
X14143645Y43917914D01*
X14145687Y44008117D01*
X14148289Y44078326D01*
X14151517Y44131333D01*
X14155441Y44169931D01*
X14160127Y44196910D01*
X14165644Y44215065D01*
X14172059Y44227187D01*
X14179439Y44236068D01*
X14181667Y44238334D01*
X14234210Y44269947D01*
X14313010Y44280614D01*
X14320677Y44280667D01*
X14379242Y44278677D01*
X14404885Y44269630D01*
X14406944Y44248911D01*
X14404247Y44239375D01*
X14401199Y44174059D01*
X14421704Y44093287D01*
X14460279Y44012405D01*
X14507412Y43950689D01*
X14605138Y43879610D01*
X14713065Y43845494D01*
X14823309Y43847028D01*
X14927988Y43882899D01*
X15019220Y43951792D01*
X15086542Y44047198D01*
X15115364Y44118538D01*
X15132294Y44188065D01*
X15134167Y44211069D01*
X15134167Y44280667D01*
X16457084Y44280667D01*
X16726458Y44280636D01*
X16956690Y44280475D01*
X17150972Y44280086D01*
X17312496Y44279370D01*
X17444453Y44278228D01*
X17550034Y44276561D01*
X17632432Y44274270D01*
X17694837Y44271256D01*
X17740442Y44267420D01*
X17772437Y44262663D01*
X17794016Y44256886D01*
X17808368Y44249990D01*
X17818686Y44241877D01*
X17822334Y44238334D01*
X17829994Y44229857D01*
X17836670Y44218914D01*
X17842429Y44202713D01*
X17847339Y44178462D01*
X17851468Y44143368D01*
X17854882Y44094639D01*
X17857651Y44029482D01*
X17859841Y43945106D01*
X17861521Y43838718D01*
X17862758Y43707525D01*
X17863619Y43548735D01*
X17864173Y43359556D01*
X17864487Y43137196D01*
X17864629Y42878862D01*
X17864666Y42581762D01*
X17864667Y42492084D01*
X18097500Y42492084D01*
X18097500Y44767500D01*
X7810500Y44767500D01*
X7810500Y40576500D01*
X7810500Y40576500D01*
G37*
X7810500Y40576500D02*
X18097500Y40576500D01*
X18097500Y42492084D01*
X17864667Y42492084D01*
X17864647Y42183733D01*
X17864541Y41914923D01*
X17864281Y41682861D01*
X17863801Y41484756D01*
X17863032Y41317814D01*
X17861906Y41179245D01*
X17860356Y41066254D01*
X17858314Y40976050D01*
X17855712Y40905841D01*
X17852484Y40852834D01*
X17848560Y40814237D01*
X17843874Y40787257D01*
X17838357Y40769103D01*
X17831942Y40756981D01*
X17824562Y40748099D01*
X17822334Y40745834D01*
X17814033Y40738325D01*
X17803315Y40731760D01*
X17787450Y40726077D01*
X17763707Y40721212D01*
X17729355Y40717101D01*
X17681663Y40713680D01*
X17617901Y40710888D01*
X17535337Y40708658D01*
X17431242Y40706930D01*
X17302883Y40705638D01*
X17147532Y40704719D01*
X16962456Y40704110D01*
X16744925Y40703747D01*
X16492208Y40703567D01*
X16201575Y40703506D01*
X16002000Y40703500D01*
X15686592Y40703519D01*
X15410787Y40703618D01*
X15171853Y40703861D01*
X14967060Y40704310D01*
X14793678Y40705030D01*
X14648975Y40706084D01*
X14530221Y40707536D01*
X14434685Y40709449D01*
X14359636Y40711886D01*
X14302344Y40714911D01*
X14260078Y40718588D01*
X14230107Y40722980D01*
X14209700Y40728151D01*
X14196126Y40734164D01*
X14186656Y40741082D01*
X14181667Y40745834D01*
X14174007Y40754311D01*
X14167331Y40765254D01*
X14161572Y40781455D01*
X14156662Y40805706D01*
X14152533Y40840800D01*
X14149119Y40889529D01*
X14146350Y40954686D01*
X14144160Y41039062D01*
X14142480Y41145450D01*
X14141243Y41276643D01*
X14140382Y41435432D01*
X14139828Y41624611D01*
X14139514Y41846971D01*
X14139372Y42105306D01*
X14139346Y42314417D01*
X13943080Y42314417D01*
X13921111Y42111929D01*
X13875203Y41927394D01*
X13811897Y41768402D01*
X13694507Y41561540D01*
X13553727Y41389673D01*
X13391068Y41253563D01*
X13208043Y41153972D01*
X13006165Y41091662D01*
X12786944Y41067393D01*
X12551894Y41081928D01*
X12474321Y41094758D01*
X12332143Y41132504D01*
X12176872Y41192385D01*
X12113611Y41221864D01*
X11918805Y41317545D01*
X12058973Y41544981D01*
X12112489Y41631671D01*
X12148680Y41690074D01*
X11914460Y41690074D01*
X11906935Y41581102D01*
X11897725Y41536254D01*
X11838852Y41396718D01*
X11745800Y41275689D01*
X11624713Y41178781D01*
X11481733Y41111608D01*
X11412256Y41092656D01*
X11312929Y41073666D01*
X11236054Y41066948D01*
X11163524Y41072651D01*
X11077231Y41090926D01*
X11058739Y41095588D01*
X10971365Y41124930D01*
X10884855Y41164983D01*
X10842625Y41190402D01*
X10752667Y41252961D01*
X10752667Y41105667D01*
X10424584Y41105667D01*
X10312147Y41106164D01*
X10216315Y41107535D01*
X10144286Y41109601D01*
X10103257Y41112184D01*
X10096500Y41113831D01*
X10105264Y41136262D01*
X10126519Y41179542D01*
X10128120Y41182623D01*
X10137865Y41208401D01*
X10145483Y41247187D01*
X10151212Y41303782D01*
X10155292Y41382987D01*
X10157960Y41489605D01*
X10159455Y41628438D01*
X10160016Y41804286D01*
X10160030Y41825334D01*
X10161231Y42053750D01*
X10163276Y42153417D01*
X9919811Y42153417D01*
X9919228Y41925246D01*
X9889066Y41718507D01*
X9830754Y41535692D01*
X9745723Y41379290D01*
X9635401Y41251791D01*
X9501219Y41155687D01*
X9344606Y41093468D01*
X9306058Y41084316D01*
X9194291Y41073455D01*
X9067271Y41080347D01*
X8945552Y41102938D01*
X8873194Y41127568D01*
X8801474Y41163023D01*
X8734673Y41202064D01*
X8719736Y41212163D01*
X8657167Y41256716D01*
X8657167Y41105667D01*
X8329084Y41105667D01*
X8216647Y41106154D01*
X8120815Y41107497D01*
X8048786Y41109522D01*
X8007757Y41112052D01*
X8001000Y41113666D01*
X8008375Y41136426D01*
X8026693Y41183008D01*
X8032750Y41197652D01*
X8039301Y41218269D01*
X8044911Y41248468D01*
X8049647Y41291358D01*
X8053581Y41350047D01*
X8056781Y41427643D01*
X8059317Y41527256D01*
X8061259Y41651992D01*
X8062675Y41804960D01*
X8063636Y41989269D01*
X8064211Y42208027D01*
X8064468Y42464342D01*
X8064500Y42618404D01*
X8064500Y43963167D01*
X8764088Y43963167D01*
X8731794Y43900718D01*
X8720353Y43870451D01*
X8711828Y43826209D01*
X8705850Y43762280D01*
X8702050Y43672952D01*
X8700057Y43552515D01*
X8699500Y43401860D01*
X8699500Y42965451D01*
X8757709Y43005530D01*
X8842617Y43055176D01*
X8931639Y43086261D01*
X9037725Y43102059D01*
X9154584Y43105917D01*
X9253949Y43104129D01*
X9326201Y43096850D01*
X9386476Y43081211D01*
X9449914Y43054340D01*
X9464899Y43047078D01*
X9604351Y42956524D01*
X9718242Y42834055D01*
X9806902Y42679021D01*
X9870661Y42490775D01*
X9909849Y42268666D01*
X9919811Y42153417D01*
X10163276Y42153417D01*
X10165145Y42244451D01*
X10172611Y42402012D01*
X10184468Y42531008D01*
X10201554Y42636016D01*
X10224708Y42721611D01*
X10254769Y42792369D01*
X10292575Y42852867D01*
X10338966Y42907679D01*
X10362818Y42931663D01*
X10442544Y42998202D01*
X10528731Y43046143D01*
X10629609Y43077863D01*
X10753407Y43095736D01*
X10908354Y43102137D01*
X10953750Y43102220D01*
X11085113Y43100041D01*
X11190418Y43093465D01*
X11285873Y43080518D01*
X11387684Y43059226D01*
X11464924Y43039983D01*
X11700931Y42978917D01*
X11616411Y42774826D01*
X11531892Y42570735D01*
X11403574Y42622875D01*
X11309125Y42653553D01*
X11200984Y42677650D01*
X11131386Y42687077D01*
X11003649Y42687986D01*
X10908330Y42664700D01*
X10841502Y42614733D01*
X10799240Y42535595D01*
X10782916Y42466302D01*
X10769855Y42384624D01*
X10988803Y42383198D01*
X11222456Y42369313D01*
X11422144Y42330745D01*
X11588482Y42267224D01*
X11722089Y42178484D01*
X11823582Y42064255D01*
X11858535Y42005250D01*
X11888855Y41918959D01*
X11907966Y41808297D01*
X11914460Y41690074D01*
X12148680Y41690074D01*
X12157575Y41704427D01*
X12189809Y41756137D01*
X12204774Y41779691D01*
X12205178Y41780261D01*
X12223549Y41772895D01*
X12263943Y41745475D01*
X12294698Y41721984D01*
X12428937Y41636978D01*
X12570720Y41585658D01*
X12712544Y41569519D01*
X12846903Y41590059D01*
X12885889Y41604117D01*
X13001147Y41674081D01*
X13102274Y41779326D01*
X13184909Y41913944D01*
X13244692Y42072025D01*
X13252192Y42100500D01*
X13269395Y42203660D01*
X13278695Y42332635D01*
X13280285Y42473777D01*
X13274359Y42613434D01*
X13261108Y42737957D01*
X13241899Y42829846D01*
X13179505Y43001325D01*
X13104968Y43133996D01*
X13015624Y43230309D01*
X12908807Y43292714D01*
X12781854Y43323663D01*
X12700000Y43328167D01*
X12555273Y43312637D01*
X12427465Y43263045D01*
X12344808Y43208653D01*
X12296104Y43178363D01*
X12261357Y43169352D01*
X12254801Y43172266D01*
X12236034Y43196214D01*
X12198957Y43247330D01*
X12149142Y43317827D01*
X12098585Y43390593D01*
X11960653Y43590602D01*
X12133678Y43673051D01*
X12338769Y43758775D01*
X12527928Y43811102D01*
X12709498Y43831317D01*
X12891823Y43820705D01*
X12985750Y43804267D01*
X13185428Y43741171D01*
X13370945Y43640957D01*
X13538140Y43507643D01*
X13682851Y43345245D01*
X13800917Y43157781D01*
X13888177Y42949268D01*
X13895479Y42926000D01*
X13911918Y42851629D01*
X13926574Y42747508D01*
X13937889Y42626221D01*
X13942706Y42544333D01*
X13943080Y42314417D01*
X14139346Y42314417D01*
X14139335Y42402406D01*
X14139334Y42492084D01*
X14139354Y42800435D01*
X14139460Y43069245D01*
X14139720Y43301307D01*
X14140200Y43499412D01*
X14140969Y43666353D01*
X14142095Y43804923D01*
X14143645Y43917914D01*
X14145687Y44008117D01*
X14148289Y44078326D01*
X14151517Y44131333D01*
X14155441Y44169931D01*
X14160127Y44196910D01*
X14165644Y44215065D01*
X14172059Y44227187D01*
X14179439Y44236068D01*
X14181667Y44238334D01*
X14234210Y44269947D01*
X14313010Y44280614D01*
X14320677Y44280667D01*
X14379242Y44278677D01*
X14404885Y44269630D01*
X14406944Y44248911D01*
X14404247Y44239375D01*
X14401199Y44174059D01*
X14421704Y44093287D01*
X14460279Y44012405D01*
X14507412Y43950689D01*
X14605138Y43879610D01*
X14713065Y43845494D01*
X14823309Y43847028D01*
X14927988Y43882899D01*
X15019220Y43951792D01*
X15086542Y44047198D01*
X15115364Y44118538D01*
X15132294Y44188065D01*
X15134167Y44211069D01*
X15134167Y44280667D01*
X16457084Y44280667D01*
X16726458Y44280636D01*
X16956690Y44280475D01*
X17150972Y44280086D01*
X17312496Y44279370D01*
X17444453Y44278228D01*
X17550034Y44276561D01*
X17632432Y44274270D01*
X17694837Y44271256D01*
X17740442Y44267420D01*
X17772437Y44262663D01*
X17794016Y44256886D01*
X17808368Y44249990D01*
X17818686Y44241877D01*
X17822334Y44238334D01*
X17829994Y44229857D01*
X17836670Y44218914D01*
X17842429Y44202713D01*
X17847339Y44178462D01*
X17851468Y44143368D01*
X17854882Y44094639D01*
X17857651Y44029482D01*
X17859841Y43945106D01*
X17861521Y43838718D01*
X17862758Y43707525D01*
X17863619Y43548735D01*
X17864173Y43359556D01*
X17864487Y43137196D01*
X17864629Y42878862D01*
X17864666Y42581762D01*
X17864667Y42492084D01*
X18097500Y42492084D01*
X18097500Y44767500D01*
X7810500Y44767500D01*
X7810500Y40576500D01*
G36*
X17112186Y43799177D02*
X17004223Y43798095D01*
X16909965Y43796256D01*
X16837242Y43793674D01*
X16793883Y43790361D01*
X16785155Y43787797D01*
X16795770Y43760017D01*
X16821375Y43715994D01*
X16822209Y43714719D01*
X16835239Y43689462D01*
X16845166Y43654659D01*
X16852543Y43604239D01*
X16857922Y43532134D01*
X16861857Y43432275D01*
X16864900Y43298593D01*
X16865997Y43233922D01*
X16867604Y43070897D01*
X16866583Y42949626D01*
X16862939Y42870247D01*
X16856677Y42832899D01*
X16851637Y42830750D01*
X16819780Y42866681D01*
X16768581Y42928986D01*
X16702997Y43011213D01*
X16627984Y43106912D01*
X16548499Y43209631D01*
X16469499Y43312920D01*
X16395940Y43410326D01*
X16332778Y43495399D01*
X16284972Y43561687D01*
X16257476Y43602740D01*
X16254625Y43607782D01*
X16228111Y43671485D01*
X16214252Y43729896D01*
X16213667Y43740074D01*
X16202718Y43783367D01*
X16181917Y43794326D01*
X16150569Y43794494D01*
X16085808Y43794625D01*
X15995693Y43794722D01*
X15888287Y43794782D01*
X15771651Y43794807D01*
X15653845Y43794796D01*
X15542931Y43794750D01*
X15446970Y43794668D01*
X15374023Y43794550D01*
X15332151Y43794397D01*
X15325934Y43794326D01*
X15330342Y43780987D01*
X15360016Y43746110D01*
X15408911Y43696644D01*
X15420816Y43685278D01*
X15462941Y43641484D01*
X15527055Y43569656D01*
X15608812Y43474907D01*
X15703869Y43362352D01*
X15807881Y43237103D01*
X15916504Y43104275D01*
X15958127Y43052826D01*
X16380657Y42528929D01*
X15968596Y41960173D01*
X15863326Y41815909D01*
X15759877Y41676060D01*
X15662400Y41546099D01*
X15575048Y41431497D01*
X15501974Y41337727D01*
X15447330Y41270261D01*
X15428611Y41248542D01*
X15300687Y41105667D01*
X16234834Y41105667D01*
X16234834Y41186190D01*
X16253356Y41278979D01*
X16294522Y41360815D01*
X16322884Y41403069D01*
X16369803Y41470269D01*
X16430590Y41555942D01*
X16500561Y41653620D01*
X16575026Y41756831D01*
X16649301Y41859104D01*
X16718698Y41953968D01*
X16778530Y42034953D01*
X16824111Y42095588D01*
X16850753Y42129402D01*
X16853277Y42132250D01*
X16859722Y42119424D01*
X16864320Y42067103D01*
X16866990Y41978089D01*
X16867648Y41855185D01*
X16866211Y41701192D01*
X16866153Y41697348D01*
X16863402Y41542799D01*
X16860107Y41424766D01*
X16855769Y41337431D01*
X16849889Y41274977D01*
X16841969Y41231587D01*
X16831509Y41201442D01*
X16822209Y41184801D01*
X16796477Y41142368D01*
X16785189Y41117422D01*
X16785167Y41116995D01*
X16805278Y41113555D01*
X16861390Y41110535D01*
X16947171Y41108104D01*
X17056290Y41106433D01*
X17182414Y41105690D01*
X17209134Y41105667D01*
X17633101Y41105667D01*
X17584843Y41170936D01*
X17536584Y41236205D01*
X17536584Y42447153D01*
X17536634Y42704412D01*
X17536856Y42922739D01*
X17537360Y43105533D01*
X17538255Y43256195D01*
X17539651Y43378125D01*
X17541658Y43474723D01*
X17544384Y43549390D01*
X17547940Y43605527D01*
X17552434Y43646533D01*
X17557976Y43675809D01*
X17564676Y43696755D01*
X17572643Y43712772D01*
X17577581Y43720676D01*
X17602280Y43763348D01*
X17610214Y43787701D01*
X17609331Y43789102D01*
X17583554Y43792816D01*
X17524505Y43795699D01*
X17440015Y43797765D01*
X17337912Y43799025D01*
X17226026Y43799492D01*
X17112186Y43799177D01*
X17112186Y43799177D01*
G37*
X17112186Y43799177D02*
X17004223Y43798095D01*
X16909965Y43796256D01*
X16837242Y43793674D01*
X16793883Y43790361D01*
X16785155Y43787797D01*
X16795770Y43760017D01*
X16821375Y43715994D01*
X16822209Y43714719D01*
X16835239Y43689462D01*
X16845166Y43654659D01*
X16852543Y43604239D01*
X16857922Y43532134D01*
X16861857Y43432275D01*
X16864900Y43298593D01*
X16865997Y43233922D01*
X16867604Y43070897D01*
X16866583Y42949626D01*
X16862939Y42870247D01*
X16856677Y42832899D01*
X16851637Y42830750D01*
X16819780Y42866681D01*
X16768581Y42928986D01*
X16702997Y43011213D01*
X16627984Y43106912D01*
X16548499Y43209631D01*
X16469499Y43312920D01*
X16395940Y43410326D01*
X16332778Y43495399D01*
X16284972Y43561687D01*
X16257476Y43602740D01*
X16254625Y43607782D01*
X16228111Y43671485D01*
X16214252Y43729896D01*
X16213667Y43740074D01*
X16202718Y43783367D01*
X16181917Y43794326D01*
X16150569Y43794494D01*
X16085808Y43794625D01*
X15995693Y43794722D01*
X15888287Y43794782D01*
X15771651Y43794807D01*
X15653845Y43794796D01*
X15542931Y43794750D01*
X15446970Y43794668D01*
X15374023Y43794550D01*
X15332151Y43794397D01*
X15325934Y43794326D01*
X15330342Y43780987D01*
X15360016Y43746110D01*
X15408911Y43696644D01*
X15420816Y43685278D01*
X15462941Y43641484D01*
X15527055Y43569656D01*
X15608812Y43474907D01*
X15703869Y43362352D01*
X15807881Y43237103D01*
X15916504Y43104275D01*
X15958127Y43052826D01*
X16380657Y42528929D01*
X15968596Y41960173D01*
X15863326Y41815909D01*
X15759877Y41676060D01*
X15662400Y41546099D01*
X15575048Y41431497D01*
X15501974Y41337727D01*
X15447330Y41270261D01*
X15428611Y41248542D01*
X15300687Y41105667D01*
X16234834Y41105667D01*
X16234834Y41186190D01*
X16253356Y41278979D01*
X16294522Y41360815D01*
X16322884Y41403069D01*
X16369803Y41470269D01*
X16430590Y41555942D01*
X16500561Y41653620D01*
X16575026Y41756831D01*
X16649301Y41859104D01*
X16718698Y41953968D01*
X16778530Y42034953D01*
X16824111Y42095588D01*
X16850753Y42129402D01*
X16853277Y42132250D01*
X16859722Y42119424D01*
X16864320Y42067103D01*
X16866990Y41978089D01*
X16867648Y41855185D01*
X16866211Y41701192D01*
X16866153Y41697348D01*
X16863402Y41542799D01*
X16860107Y41424766D01*
X16855769Y41337431D01*
X16849889Y41274977D01*
X16841969Y41231587D01*
X16831509Y41201442D01*
X16822209Y41184801D01*
X16796477Y41142368D01*
X16785189Y41117422D01*
X16785167Y41116995D01*
X16805278Y41113555D01*
X16861390Y41110535D01*
X16947171Y41108104D01*
X17056290Y41106433D01*
X17182414Y41105690D01*
X17209134Y41105667D01*
X17633101Y41105667D01*
X17584843Y41170936D01*
X17536584Y41236205D01*
X17536584Y42447153D01*
X17536634Y42704412D01*
X17536856Y42922739D01*
X17537360Y43105533D01*
X17538255Y43256195D01*
X17539651Y43378125D01*
X17541658Y43474723D01*
X17544384Y43549390D01*
X17547940Y43605527D01*
X17552434Y43646533D01*
X17557976Y43675809D01*
X17564676Y43696755D01*
X17572643Y43712772D01*
X17577581Y43720676D01*
X17602280Y43763348D01*
X17610214Y43787701D01*
X17609331Y43789102D01*
X17583554Y43792816D01*
X17524505Y43795699D01*
X17440015Y43797765D01*
X17337912Y43799025D01*
X17226026Y43799492D01*
X17112186Y43799177D01*
G36*
X14800792Y43090554D02*
X14446250Y43084750D01*
X14435667Y42142834D01*
X14432656Y41901991D01*
X14429424Y41700557D01*
X14425861Y41535609D01*
X14421853Y41404223D01*
X14417291Y41303475D01*
X14412062Y41230441D01*
X14406054Y41182199D01*
X14399156Y41155823D01*
X14397881Y41153292D01*
X14370678Y41105667D01*
X15156421Y41105667D01*
X15124127Y41168116D01*
X15115440Y41206206D01*
X15107980Y41280759D01*
X15101750Y41386153D01*
X15096749Y41516768D01*
X15092982Y41666983D01*
X15090448Y41831175D01*
X15089150Y42003724D01*
X15089089Y42179009D01*
X15090268Y42351409D01*
X15092687Y42515302D01*
X15096348Y42665067D01*
X15101253Y42795084D01*
X15107404Y42899730D01*
X15114803Y42973385D01*
X15123450Y43010428D01*
X15123584Y43010667D01*
X15145870Y43054432D01*
X15154584Y43079971D01*
X15134835Y43085056D01*
X15079669Y43088809D01*
X14995986Y43091022D01*
X14890688Y43091488D01*
X14800792Y43090554D01*
X14800792Y43090554D01*
G37*
X14800792Y43090554D02*
X14446250Y43084750D01*
X14435667Y42142834D01*
X14432656Y41901991D01*
X14429424Y41700557D01*
X14425861Y41535609D01*
X14421853Y41404223D01*
X14417291Y41303475D01*
X14412062Y41230441D01*
X14406054Y41182199D01*
X14399156Y41155823D01*
X14397881Y41153292D01*
X14370678Y41105667D01*
X15156421Y41105667D01*
X15124127Y41168116D01*
X15115440Y41206206D01*
X15107980Y41280759D01*
X15101750Y41386153D01*
X15096749Y41516768D01*
X15092982Y41666983D01*
X15090448Y41831175D01*
X15089150Y42003724D01*
X15089089Y42179009D01*
X15090268Y42351409D01*
X15092687Y42515302D01*
X15096348Y42665067D01*
X15101253Y42795084D01*
X15107404Y42899730D01*
X15114803Y42973385D01*
X15123450Y43010428D01*
X15123584Y43010667D01*
X15145870Y43054432D01*
X15154584Y43079971D01*
X15134835Y43085056D01*
X15079669Y43088809D01*
X14995986Y43091022D01*
X14890688Y43091488D01*
X14800792Y43090554D01*
G36*
X10821459Y41981326D02*
X10796725Y41971162D01*
X10782431Y41950677D01*
X10775757Y41910045D01*
X10773883Y41839438D01*
X10773834Y41815373D01*
X10775712Y41731344D01*
X10783520Y41676455D01*
X10800521Y41637593D01*
X10825940Y41605959D01*
X10877816Y41560900D01*
X10931399Y41529469D01*
X10933151Y41528785D01*
X11015852Y41511402D01*
X11110304Y41511727D01*
X11195370Y41528882D01*
X11223093Y41540828D01*
X11288522Y41597718D01*
X11321973Y41673748D01*
X11321986Y41758717D01*
X11287097Y41842422D01*
X11269662Y41865695D01*
X11198393Y41922739D01*
X11100219Y41965102D01*
X10989094Y41989184D01*
X10878970Y41991385D01*
X10821459Y41981326D01*
X10821459Y41981326D01*
G37*
X10821459Y41981326D02*
X10796725Y41971162D01*
X10782431Y41950677D01*
X10775757Y41910045D01*
X10773883Y41839438D01*
X10773834Y41815373D01*
X10775712Y41731344D01*
X10783520Y41676455D01*
X10800521Y41637593D01*
X10825940Y41605959D01*
X10877816Y41560900D01*
X10931399Y41529469D01*
X10933151Y41528785D01*
X11015852Y41511402D01*
X11110304Y41511727D01*
X11195370Y41528882D01*
X11223093Y41540828D01*
X11288522Y41597718D01*
X11321973Y41673748D01*
X11321986Y41758717D01*
X11287097Y41842422D01*
X11269662Y41865695D01*
X11198393Y41922739D01*
X11100219Y41965102D01*
X10989094Y41989184D01*
X10878970Y41991385D01*
X10821459Y41981326D01*
G36*
X8828765Y42640984D02*
X8776185Y42618900D01*
X8698704Y42582133D01*
X8710084Y41646733D01*
X8794750Y41598798D01*
X8892092Y41560797D01*
X8992604Y41550383D01*
X9083164Y41567728D01*
X9130986Y41594369D01*
X9201888Y41676635D01*
X9250313Y41793204D01*
X9275858Y41942261D01*
X9278120Y42121987D01*
X9270269Y42224003D01*
X9241819Y42385531D01*
X9194065Y42511245D01*
X9127945Y42600397D01*
X9044397Y42652237D01*
X8944358Y42666015D01*
X8828765Y42640984D01*
X8828765Y42640984D01*
G37*
X8828765Y42640984D02*
X8776185Y42618900D01*
X8698704Y42582133D01*
X8710084Y41646733D01*
X8794750Y41598798D01*
X8892092Y41560797D01*
X8992604Y41550383D01*
X9083164Y41567728D01*
X9130986Y41594369D01*
X9201888Y41676635D01*
X9250313Y41793204D01*
X9275858Y41942261D01*
X9278120Y42121987D01*
X9270269Y42224003D01*
X9241819Y42385531D01*
X9194065Y42511245D01*
X9127945Y42600397D01*
X9044397Y42652237D01*
X8944358Y42666015D01*
X8828765Y42640984D01*
D10*
G04 #@! TO.C,J4*
X3048000Y17907000D02*
X3683000Y17272000D01*
X3048000Y16637000D02*
X3683000Y17272000D01*
X3683000Y17272000D02*
X4953000Y17272000D01*
X2413000Y17272000D02*
X3048000Y16637000D01*
X3048000Y16637000D02*
X3048000Y15367000D01*
X3048000Y19177000D02*
X3048000Y17907000D01*
X3048000Y17907000D02*
X2413000Y17272000D01*
X2413000Y17272000D02*
X1143000Y17272000D01*
X3683000Y19812000D02*
X4953000Y19812000D01*
X3048000Y20447000D02*
X3683000Y19812000D01*
X3683000Y19812000D02*
X3048000Y19177000D01*
X3048000Y19177000D02*
X2413000Y19812000D01*
X1143000Y19812000D02*
X2413000Y19812000D01*
X2413000Y19812000D02*
X3048000Y20447000D01*
X3048000Y20447000D02*
X3048000Y21717000D01*
X1143000Y22352000D02*
X2413000Y22352000D01*
X2413000Y22352000D02*
X3048000Y21717000D01*
X3048000Y21717000D02*
X3683000Y22352000D01*
X3683000Y22352000D02*
X4953000Y22352000D01*
X4953000Y22352000D02*
X5588000Y21717000D01*
X5588000Y21717000D02*
X5588000Y20447000D01*
X5588000Y20447000D02*
X4953000Y19812000D01*
X4953000Y19812000D02*
X5588000Y19177000D01*
X5588000Y19177000D02*
X5588000Y17907000D01*
X5588000Y17907000D02*
X4953000Y17272000D01*
X4953000Y17272000D02*
X5588000Y16637000D01*
X5588000Y16637000D02*
X5588000Y15367000D01*
X5588000Y15367000D02*
X4953000Y14732000D01*
X4953000Y14732000D02*
X3683000Y14732000D01*
X3683000Y14732000D02*
X3048000Y15367000D01*
X3048000Y15367000D02*
X2413000Y14732000D01*
X2413000Y14732000D02*
X1143000Y14732000D01*
X1143000Y14732000D02*
X508000Y15367000D01*
X508000Y15367000D02*
X508000Y16637000D01*
X508000Y16637000D02*
X1143000Y17272000D01*
X1143000Y17272000D02*
X508000Y17907000D01*
X508000Y17907000D02*
X508000Y19177000D01*
X508000Y19177000D02*
X1143000Y19812000D01*
X1143000Y19812000D02*
X508000Y20447000D01*
X508000Y20447000D02*
X508000Y21717000D01*
X508000Y21717000D02*
X1143000Y22352000D01*
D12*
G04 #@! TO.C,LOGO4*
G36*
X9208851Y34166294D02*
X9208962Y34035306D01*
X9209360Y33928280D01*
X9210147Y33842718D01*
X9211423Y33776123D01*
X9213288Y33726000D01*
X9215843Y33689851D01*
X9219188Y33665181D01*
X9223424Y33649491D01*
X9228651Y33640287D01*
X9230082Y33638747D01*
X9249930Y33622200D01*
X9258753Y33617958D01*
X9275149Y33615580D01*
X9314333Y33608903D01*
X9372557Y33598620D01*
X9446073Y33585420D01*
X9531131Y33569995D01*
X9623985Y33553035D01*
X9720884Y33535229D01*
X9818081Y33517270D01*
X9911828Y33499847D01*
X9998375Y33483652D01*
X10073975Y33469374D01*
X10134879Y33457704D01*
X10177338Y33449333D01*
X10197024Y33445104D01*
X10239638Y33425749D01*
X10266636Y33389925D01*
X10266775Y33389636D01*
X10282234Y33355434D01*
X10304476Y33303549D01*
X10332012Y33237689D01*
X10363356Y33161566D01*
X10397021Y33078889D01*
X10431519Y32993367D01*
X10465362Y32908710D01*
X10497065Y32828628D01*
X10525139Y32756831D01*
X10548097Y32697029D01*
X10564451Y32652931D01*
X10572716Y32628247D01*
X10573426Y32624740D01*
X10566010Y32609170D01*
X10544930Y32574505D01*
X10511933Y32523381D01*
X10468770Y32458435D01*
X10417189Y32382303D01*
X10358940Y32297622D01*
X10305230Y32220517D01*
X10229132Y32111871D01*
X10166973Y32022929D01*
X10117436Y31951558D01*
X10079203Y31895625D01*
X10050955Y31852999D01*
X10031374Y31821547D01*
X10019141Y31799135D01*
X10012940Y31783632D01*
X10011450Y31772904D01*
X10013355Y31764820D01*
X10017336Y31757246D01*
X10018070Y31755953D01*
X10032776Y31737540D01*
X10063774Y31704179D01*
X10108467Y31658353D01*
X10164261Y31602545D01*
X10228561Y31539237D01*
X10298774Y31470911D01*
X10372303Y31400051D01*
X10446555Y31329138D01*
X10518935Y31260654D01*
X10586848Y31197083D01*
X10647700Y31140907D01*
X10698895Y31094608D01*
X10737840Y31060669D01*
X10761939Y31041572D01*
X10768194Y31038271D01*
X10784853Y31045548D01*
X10820918Y31066217D01*
X10873631Y31098536D01*
X10940234Y31140761D01*
X11017968Y31191150D01*
X11104078Y31247960D01*
X11172927Y31294023D01*
X11264111Y31355250D01*
X11349358Y31412223D01*
X11425822Y31463062D01*
X11490656Y31505884D01*
X11541016Y31538808D01*
X11574054Y31559952D01*
X11585580Y31566857D01*
X11599417Y31572250D01*
X11615726Y31572920D01*
X11638432Y31567444D01*
X11671458Y31554397D01*
X11718728Y31532356D01*
X11784165Y31499898D01*
X11820026Y31481797D01*
X11901322Y31441778D01*
X11964933Y31412865D01*
X12009150Y31395770D01*
X12032265Y31391206D01*
X12034684Y31392232D01*
X12042686Y31407075D01*
X12059719Y31443833D01*
X12084773Y31500099D01*
X12116835Y31573465D01*
X12154892Y31661524D01*
X12197932Y31761869D01*
X12244942Y31872091D01*
X12294911Y31989783D01*
X12346825Y32112538D01*
X12399673Y32237948D01*
X12452442Y32363606D01*
X12504120Y32487103D01*
X12553694Y32606033D01*
X12600152Y32717988D01*
X12642482Y32820560D01*
X12679670Y32911342D01*
X12710706Y32987926D01*
X12734576Y33047904D01*
X12750269Y33088870D01*
X12756771Y33108415D01*
X12756852Y33109647D01*
X12744170Y33122544D01*
X12713885Y33146897D01*
X12670632Y33179130D01*
X12622757Y33213097D01*
X12487494Y33314978D01*
X12376095Y33417601D01*
X12285615Y33524983D01*
X12213104Y33641141D01*
X12155615Y33770092D01*
X12111991Y33909000D01*
X12097025Y33988154D01*
X12088124Y34083102D01*
X12085560Y34183797D01*
X12089604Y34280191D01*
X12099845Y34358792D01*
X12144461Y34520695D01*
X12211965Y34670828D01*
X12300256Y34807490D01*
X12407236Y34928981D01*
X12530805Y35033602D01*
X12668862Y35119652D01*
X12819308Y35185431D01*
X12980043Y35229239D01*
X13148968Y35249376D01*
X13201245Y35250547D01*
X13373174Y35237790D01*
X13538134Y35200465D01*
X13693779Y35139994D01*
X13837760Y35057797D01*
X13967732Y34955295D01*
X14081348Y34833910D01*
X14176260Y34695061D01*
X14204314Y34643219D01*
X14268717Y34487216D01*
X14306978Y34325546D01*
X14319057Y34159385D01*
X14304914Y33989908D01*
X14264509Y33818292D01*
X14235305Y33734279D01*
X14173328Y33608759D01*
X14085294Y33485956D01*
X13972112Y33366911D01*
X13834693Y33252664D01*
X13779732Y33213097D01*
X13728570Y33176740D01*
X13686059Y33144933D01*
X13656834Y33121252D01*
X13645637Y33109647D01*
X13649798Y33095565D01*
X13663391Y33059489D01*
X13685403Y33003825D01*
X13714822Y32930982D01*
X13750636Y32843367D01*
X13791832Y32743388D01*
X13837397Y32633452D01*
X13886320Y32515967D01*
X13937588Y32393340D01*
X13990189Y32267978D01*
X14043110Y32142291D01*
X14095339Y32018684D01*
X14145863Y31899566D01*
X14193671Y31787344D01*
X14237750Y31684426D01*
X14277087Y31593219D01*
X14310670Y31516130D01*
X14337487Y31455568D01*
X14356525Y31413940D01*
X14366772Y31393653D01*
X14367806Y31392232D01*
X14384861Y31393250D01*
X14423484Y31406993D01*
X14481968Y31432749D01*
X14558604Y31469806D01*
X14582464Y31481797D01*
X14657214Y31519330D01*
X14712057Y31545816D01*
X14750916Y31562676D01*
X14777715Y31571334D01*
X14796378Y31573215D01*
X14810827Y31569741D01*
X14816910Y31566857D01*
X14835558Y31555466D01*
X14873598Y31530926D01*
X14928183Y31495119D01*
X14996468Y31449926D01*
X15075607Y31397229D01*
X15162754Y31338911D01*
X15229563Y31294023D01*
X15320166Y31233521D01*
X15404476Y31178125D01*
X15479734Y31129578D01*
X15543184Y31089622D01*
X15592068Y31060000D01*
X15623626Y31042456D01*
X15634295Y31038271D01*
X15649698Y31047433D01*
X15682076Y31073747D01*
X15729503Y31115457D01*
X15790053Y31170809D01*
X15861802Y31238046D01*
X15942822Y31315412D01*
X16015193Y31385537D01*
X16096434Y31465016D01*
X16171862Y31539334D01*
X16239263Y31606267D01*
X16296419Y31663592D01*
X16341115Y31709086D01*
X16371134Y31740524D01*
X16384259Y31755683D01*
X16384420Y31755953D01*
X16388609Y31763642D01*
X16390930Y31771503D01*
X16390066Y31781670D01*
X16384698Y31796276D01*
X16373508Y31817452D01*
X16355178Y31847331D01*
X16328389Y31888047D01*
X16291824Y31941731D01*
X16244164Y32010516D01*
X16184091Y32096535D01*
X16110287Y32201920D01*
X16097260Y32220517D01*
X16034700Y32310413D01*
X15977315Y32394010D01*
X15926854Y32468674D01*
X15885066Y32531767D01*
X15853699Y32580653D01*
X15834504Y32612695D01*
X15829064Y32624740D01*
X15833886Y32641126D01*
X15847360Y32678328D01*
X15867999Y32732635D01*
X15894315Y32800337D01*
X15924822Y32877726D01*
X15958031Y32961090D01*
X15992457Y33046721D01*
X16026611Y33130909D01*
X16059006Y33209944D01*
X16088156Y33280116D01*
X16112572Y33337715D01*
X16130768Y33379032D01*
X16135715Y33389636D01*
X16162648Y33425586D01*
X16205135Y33445019D01*
X16205466Y33445104D01*
X16227316Y33449771D01*
X16271112Y33458381D01*
X16333104Y33470245D01*
X16409544Y33484672D01*
X16496683Y33500970D01*
X16590774Y33518449D01*
X16688067Y33536420D01*
X16784814Y33554190D01*
X16877268Y33571071D01*
X16961679Y33586370D01*
X17034298Y33599398D01*
X17091379Y33609464D01*
X17129171Y33615877D01*
X17143737Y33617958D01*
X17158075Y33626200D01*
X17172407Y33638747D01*
X17177891Y33646753D01*
X17182358Y33660637D01*
X17185911Y33682895D01*
X17188649Y33716025D01*
X17190672Y33762522D01*
X17192082Y33824884D01*
X17192978Y33905607D01*
X17193462Y34007187D01*
X17193633Y34132122D01*
X17193638Y34166294D01*
X17193459Y34301226D01*
X17192872Y34411866D01*
X17191804Y34500377D01*
X17190181Y34568923D01*
X17187931Y34619669D01*
X17184981Y34654778D01*
X17181256Y34676414D01*
X17176684Y34686742D01*
X17175999Y34687386D01*
X17159029Y34693024D01*
X17118576Y34702703D01*
X17057756Y34715789D01*
X16979682Y34731649D01*
X16887470Y34749650D01*
X16784232Y34769158D01*
X16679483Y34788382D01*
X16567465Y34808946D01*
X16462460Y34828780D01*
X16367784Y34847215D01*
X16286754Y34863582D01*
X16222684Y34877214D01*
X16178891Y34887442D01*
X16159498Y34893208D01*
X16146931Y34900279D01*
X16134461Y34911714D01*
X16120702Y34930179D01*
X16104269Y34958344D01*
X16083776Y34998874D01*
X16057839Y35054439D01*
X16025071Y35127704D01*
X15984088Y35221339D01*
X15958619Y35280004D01*
X15912321Y35387381D01*
X15875966Y35473200D01*
X15848587Y35540107D01*
X15829215Y35590749D01*
X15816881Y35627771D01*
X15810618Y35653821D01*
X15809457Y35671545D01*
X15811627Y35681708D01*
X15822000Y35699886D01*
X15845949Y35737187D01*
X15881688Y35790971D01*
X15927430Y35858597D01*
X15981386Y35937422D01*
X16041770Y36024805D01*
X16106794Y36118106D01*
X16110458Y36123340D01*
X16175031Y36215936D01*
X16234506Y36301929D01*
X16287199Y36378832D01*
X16331424Y36444153D01*
X16365497Y36495403D01*
X16387733Y36530091D01*
X16396447Y36545728D01*
X16396511Y36546119D01*
X16387127Y36560346D01*
X16360689Y36590287D01*
X16319762Y36633463D01*
X16266915Y36687398D01*
X16204715Y36749616D01*
X16135730Y36817640D01*
X16062527Y36888992D01*
X15987674Y36961197D01*
X15913738Y37031777D01*
X15843286Y37098255D01*
X15778887Y37158155D01*
X15723107Y37209000D01*
X15678514Y37248313D01*
X15647676Y37273617D01*
X15633234Y37282438D01*
X15616216Y37275141D01*
X15579646Y37254350D01*
X15526128Y37221712D01*
X15458268Y37178876D01*
X15378672Y37127489D01*
X15289945Y37069199D01*
X15194692Y37005654D01*
X15180300Y36995971D01*
X15084151Y36931570D01*
X14994065Y36871914D01*
X14912668Y36818689D01*
X14842586Y36773583D01*
X14786446Y36738286D01*
X14746873Y36714484D01*
X14726493Y36703866D01*
X14725328Y36703529D01*
X14703572Y36706725D01*
X14659644Y36719673D01*
X14596108Y36741474D01*
X14515528Y36771230D01*
X14420468Y36808045D01*
X14374052Y36826515D01*
X14260066Y36872339D01*
X14168615Y36909487D01*
X14097162Y36939150D01*
X14043170Y36962521D01*
X14004102Y36980790D01*
X13977422Y36995150D01*
X13960591Y37006793D01*
X13951075Y37016909D01*
X13946335Y37026690D01*
X13946068Y37027554D01*
X13942101Y37045575D01*
X13933889Y37086555D01*
X13922024Y37147422D01*
X13907094Y37225104D01*
X13889692Y37316528D01*
X13870407Y37418623D01*
X13850043Y37527177D01*
X13829288Y37637159D01*
X13809553Y37739796D01*
X13791465Y37831960D01*
X13775656Y37910524D01*
X13762752Y37972360D01*
X13753385Y38014342D01*
X13748247Y38033193D01*
X13735494Y38062958D01*
X13201245Y38062958D01*
X12666995Y38062958D01*
X12654192Y38033193D01*
X12648879Y38013655D01*
X12639417Y37971204D01*
X12626434Y37908966D01*
X12610559Y37830070D01*
X12592424Y37737642D01*
X12572655Y37634810D01*
X12552347Y37527177D01*
X12531782Y37417546D01*
X12512518Y37315545D01*
X12495144Y37224244D01*
X12480250Y37146718D01*
X12468428Y37086036D01*
X12460267Y37045273D01*
X12456373Y37027554D01*
X12440504Y37007071D01*
X12409646Y36985123D01*
X12399757Y36979901D01*
X12363113Y36963187D01*
X12309006Y36940071D01*
X12241432Y36912120D01*
X12164387Y36880899D01*
X12081864Y36847975D01*
X11997861Y36814913D01*
X11916372Y36783279D01*
X11841392Y36754641D01*
X11776918Y36730562D01*
X11726943Y36712611D01*
X11695463Y36702352D01*
X11687051Y36700540D01*
X11670436Y36707873D01*
X11634221Y36728695D01*
X11580978Y36761375D01*
X11513280Y36804276D01*
X11433697Y36855767D01*
X11344802Y36914213D01*
X11249166Y36977979D01*
X11228930Y36991582D01*
X11132166Y37056250D01*
X11041545Y37115921D01*
X10959650Y37168961D01*
X10889064Y37213735D01*
X10832369Y37248610D01*
X10792147Y37271952D01*
X10770982Y37282127D01*
X10769241Y37282438D01*
X10754496Y37273386D01*
X10723462Y37247881D01*
X10678708Y37208399D01*
X10622800Y37157419D01*
X10558307Y37097416D01*
X10487794Y37030868D01*
X10413831Y36960250D01*
X10338984Y36888041D01*
X10265821Y36816716D01*
X10196910Y36748753D01*
X10134817Y36686628D01*
X10082110Y36632818D01*
X10041356Y36589801D01*
X10015124Y36560052D01*
X10005979Y36546119D01*
X10013378Y36532341D01*
X10034452Y36499285D01*
X10067517Y36449441D01*
X10110887Y36385299D01*
X10162877Y36309348D01*
X10221805Y36224080D01*
X10285983Y36131982D01*
X10292032Y36123340D01*
X10357259Y36029791D01*
X10417944Y35942015D01*
X10472299Y35862652D01*
X10518537Y35794344D01*
X10554870Y35739733D01*
X10579513Y35701460D01*
X10590676Y35682165D01*
X10590863Y35681708D01*
X10593158Y35668831D01*
X10591143Y35649795D01*
X10583852Y35621952D01*
X10570314Y35582658D01*
X10549563Y35529265D01*
X10520629Y35459126D01*
X10482544Y35369596D01*
X10443871Y35280004D01*
X10397982Y35174519D01*
X10361042Y35090813D01*
X10331665Y35026219D01*
X10308465Y34978070D01*
X10290058Y34943697D01*
X10275057Y34920435D01*
X10262078Y34905614D01*
X10249735Y34896567D01*
X10242992Y34893208D01*
X10220424Y34886641D01*
X10174577Y34876063D01*
X10108766Y34862145D01*
X10026307Y34845554D01*
X9930515Y34826958D01*
X9824708Y34807027D01*
X9723006Y34788382D01*
X9612220Y34768033D01*
X9509519Y34748593D01*
X9418018Y34730696D01*
X9340831Y34714975D01*
X9281072Y34702063D01*
X9241856Y34692594D01*
X9226491Y34687386D01*
X9221799Y34678418D01*
X9217964Y34658433D01*
X9214914Y34625266D01*
X9212574Y34576755D01*
X9210871Y34510734D01*
X9209732Y34425041D01*
X9209084Y34317510D01*
X9208854Y34185979D01*
X9208851Y34166294D01*
X9208851Y34166294D01*
G37*
X9208851Y34166294D02*
X9208962Y34035306D01*
X9209360Y33928280D01*
X9210147Y33842718D01*
X9211423Y33776123D01*
X9213288Y33726000D01*
X9215843Y33689851D01*
X9219188Y33665181D01*
X9223424Y33649491D01*
X9228651Y33640287D01*
X9230082Y33638747D01*
X9249930Y33622200D01*
X9258753Y33617958D01*
X9275149Y33615580D01*
X9314333Y33608903D01*
X9372557Y33598620D01*
X9446073Y33585420D01*
X9531131Y33569995D01*
X9623985Y33553035D01*
X9720884Y33535229D01*
X9818081Y33517270D01*
X9911828Y33499847D01*
X9998375Y33483652D01*
X10073975Y33469374D01*
X10134879Y33457704D01*
X10177338Y33449333D01*
X10197024Y33445104D01*
X10239638Y33425749D01*
X10266636Y33389925D01*
X10266775Y33389636D01*
X10282234Y33355434D01*
X10304476Y33303549D01*
X10332012Y33237689D01*
X10363356Y33161566D01*
X10397021Y33078889D01*
X10431519Y32993367D01*
X10465362Y32908710D01*
X10497065Y32828628D01*
X10525139Y32756831D01*
X10548097Y32697029D01*
X10564451Y32652931D01*
X10572716Y32628247D01*
X10573426Y32624740D01*
X10566010Y32609170D01*
X10544930Y32574505D01*
X10511933Y32523381D01*
X10468770Y32458435D01*
X10417189Y32382303D01*
X10358940Y32297622D01*
X10305230Y32220517D01*
X10229132Y32111871D01*
X10166973Y32022929D01*
X10117436Y31951558D01*
X10079203Y31895625D01*
X10050955Y31852999D01*
X10031374Y31821547D01*
X10019141Y31799135D01*
X10012940Y31783632D01*
X10011450Y31772904D01*
X10013355Y31764820D01*
X10017336Y31757246D01*
X10018070Y31755953D01*
X10032776Y31737540D01*
X10063774Y31704179D01*
X10108467Y31658353D01*
X10164261Y31602545D01*
X10228561Y31539237D01*
X10298774Y31470911D01*
X10372303Y31400051D01*
X10446555Y31329138D01*
X10518935Y31260654D01*
X10586848Y31197083D01*
X10647700Y31140907D01*
X10698895Y31094608D01*
X10737840Y31060669D01*
X10761939Y31041572D01*
X10768194Y31038271D01*
X10784853Y31045548D01*
X10820918Y31066217D01*
X10873631Y31098536D01*
X10940234Y31140761D01*
X11017968Y31191150D01*
X11104078Y31247960D01*
X11172927Y31294023D01*
X11264111Y31355250D01*
X11349358Y31412223D01*
X11425822Y31463062D01*
X11490656Y31505884D01*
X11541016Y31538808D01*
X11574054Y31559952D01*
X11585580Y31566857D01*
X11599417Y31572250D01*
X11615726Y31572920D01*
X11638432Y31567444D01*
X11671458Y31554397D01*
X11718728Y31532356D01*
X11784165Y31499898D01*
X11820026Y31481797D01*
X11901322Y31441778D01*
X11964933Y31412865D01*
X12009150Y31395770D01*
X12032265Y31391206D01*
X12034684Y31392232D01*
X12042686Y31407075D01*
X12059719Y31443833D01*
X12084773Y31500099D01*
X12116835Y31573465D01*
X12154892Y31661524D01*
X12197932Y31761869D01*
X12244942Y31872091D01*
X12294911Y31989783D01*
X12346825Y32112538D01*
X12399673Y32237948D01*
X12452442Y32363606D01*
X12504120Y32487103D01*
X12553694Y32606033D01*
X12600152Y32717988D01*
X12642482Y32820560D01*
X12679670Y32911342D01*
X12710706Y32987926D01*
X12734576Y33047904D01*
X12750269Y33088870D01*
X12756771Y33108415D01*
X12756852Y33109647D01*
X12744170Y33122544D01*
X12713885Y33146897D01*
X12670632Y33179130D01*
X12622757Y33213097D01*
X12487494Y33314978D01*
X12376095Y33417601D01*
X12285615Y33524983D01*
X12213104Y33641141D01*
X12155615Y33770092D01*
X12111991Y33909000D01*
X12097025Y33988154D01*
X12088124Y34083102D01*
X12085560Y34183797D01*
X12089604Y34280191D01*
X12099845Y34358792D01*
X12144461Y34520695D01*
X12211965Y34670828D01*
X12300256Y34807490D01*
X12407236Y34928981D01*
X12530805Y35033602D01*
X12668862Y35119652D01*
X12819308Y35185431D01*
X12980043Y35229239D01*
X13148968Y35249376D01*
X13201245Y35250547D01*
X13373174Y35237790D01*
X13538134Y35200465D01*
X13693779Y35139994D01*
X13837760Y35057797D01*
X13967732Y34955295D01*
X14081348Y34833910D01*
X14176260Y34695061D01*
X14204314Y34643219D01*
X14268717Y34487216D01*
X14306978Y34325546D01*
X14319057Y34159385D01*
X14304914Y33989908D01*
X14264509Y33818292D01*
X14235305Y33734279D01*
X14173328Y33608759D01*
X14085294Y33485956D01*
X13972112Y33366911D01*
X13834693Y33252664D01*
X13779732Y33213097D01*
X13728570Y33176740D01*
X13686059Y33144933D01*
X13656834Y33121252D01*
X13645637Y33109647D01*
X13649798Y33095565D01*
X13663391Y33059489D01*
X13685403Y33003825D01*
X13714822Y32930982D01*
X13750636Y32843367D01*
X13791832Y32743388D01*
X13837397Y32633452D01*
X13886320Y32515967D01*
X13937588Y32393340D01*
X13990189Y32267978D01*
X14043110Y32142291D01*
X14095339Y32018684D01*
X14145863Y31899566D01*
X14193671Y31787344D01*
X14237750Y31684426D01*
X14277087Y31593219D01*
X14310670Y31516130D01*
X14337487Y31455568D01*
X14356525Y31413940D01*
X14366772Y31393653D01*
X14367806Y31392232D01*
X14384861Y31393250D01*
X14423484Y31406993D01*
X14481968Y31432749D01*
X14558604Y31469806D01*
X14582464Y31481797D01*
X14657214Y31519330D01*
X14712057Y31545816D01*
X14750916Y31562676D01*
X14777715Y31571334D01*
X14796378Y31573215D01*
X14810827Y31569741D01*
X14816910Y31566857D01*
X14835558Y31555466D01*
X14873598Y31530926D01*
X14928183Y31495119D01*
X14996468Y31449926D01*
X15075607Y31397229D01*
X15162754Y31338911D01*
X15229563Y31294023D01*
X15320166Y31233521D01*
X15404476Y31178125D01*
X15479734Y31129578D01*
X15543184Y31089622D01*
X15592068Y31060000D01*
X15623626Y31042456D01*
X15634295Y31038271D01*
X15649698Y31047433D01*
X15682076Y31073747D01*
X15729503Y31115457D01*
X15790053Y31170809D01*
X15861802Y31238046D01*
X15942822Y31315412D01*
X16015193Y31385537D01*
X16096434Y31465016D01*
X16171862Y31539334D01*
X16239263Y31606267D01*
X16296419Y31663592D01*
X16341115Y31709086D01*
X16371134Y31740524D01*
X16384259Y31755683D01*
X16384420Y31755953D01*
X16388609Y31763642D01*
X16390930Y31771503D01*
X16390066Y31781670D01*
X16384698Y31796276D01*
X16373508Y31817452D01*
X16355178Y31847331D01*
X16328389Y31888047D01*
X16291824Y31941731D01*
X16244164Y32010516D01*
X16184091Y32096535D01*
X16110287Y32201920D01*
X16097260Y32220517D01*
X16034700Y32310413D01*
X15977315Y32394010D01*
X15926854Y32468674D01*
X15885066Y32531767D01*
X15853699Y32580653D01*
X15834504Y32612695D01*
X15829064Y32624740D01*
X15833886Y32641126D01*
X15847360Y32678328D01*
X15867999Y32732635D01*
X15894315Y32800337D01*
X15924822Y32877726D01*
X15958031Y32961090D01*
X15992457Y33046721D01*
X16026611Y33130909D01*
X16059006Y33209944D01*
X16088156Y33280116D01*
X16112572Y33337715D01*
X16130768Y33379032D01*
X16135715Y33389636D01*
X16162648Y33425586D01*
X16205135Y33445019D01*
X16205466Y33445104D01*
X16227316Y33449771D01*
X16271112Y33458381D01*
X16333104Y33470245D01*
X16409544Y33484672D01*
X16496683Y33500970D01*
X16590774Y33518449D01*
X16688067Y33536420D01*
X16784814Y33554190D01*
X16877268Y33571071D01*
X16961679Y33586370D01*
X17034298Y33599398D01*
X17091379Y33609464D01*
X17129171Y33615877D01*
X17143737Y33617958D01*
X17158075Y33626200D01*
X17172407Y33638747D01*
X17177891Y33646753D01*
X17182358Y33660637D01*
X17185911Y33682895D01*
X17188649Y33716025D01*
X17190672Y33762522D01*
X17192082Y33824884D01*
X17192978Y33905607D01*
X17193462Y34007187D01*
X17193633Y34132122D01*
X17193638Y34166294D01*
X17193459Y34301226D01*
X17192872Y34411866D01*
X17191804Y34500377D01*
X17190181Y34568923D01*
X17187931Y34619669D01*
X17184981Y34654778D01*
X17181256Y34676414D01*
X17176684Y34686742D01*
X17175999Y34687386D01*
X17159029Y34693024D01*
X17118576Y34702703D01*
X17057756Y34715789D01*
X16979682Y34731649D01*
X16887470Y34749650D01*
X16784232Y34769158D01*
X16679483Y34788382D01*
X16567465Y34808946D01*
X16462460Y34828780D01*
X16367784Y34847215D01*
X16286754Y34863582D01*
X16222684Y34877214D01*
X16178891Y34887442D01*
X16159498Y34893208D01*
X16146931Y34900279D01*
X16134461Y34911714D01*
X16120702Y34930179D01*
X16104269Y34958344D01*
X16083776Y34998874D01*
X16057839Y35054439D01*
X16025071Y35127704D01*
X15984088Y35221339D01*
X15958619Y35280004D01*
X15912321Y35387381D01*
X15875966Y35473200D01*
X15848587Y35540107D01*
X15829215Y35590749D01*
X15816881Y35627771D01*
X15810618Y35653821D01*
X15809457Y35671545D01*
X15811627Y35681708D01*
X15822000Y35699886D01*
X15845949Y35737187D01*
X15881688Y35790971D01*
X15927430Y35858597D01*
X15981386Y35937422D01*
X16041770Y36024805D01*
X16106794Y36118106D01*
X16110458Y36123340D01*
X16175031Y36215936D01*
X16234506Y36301929D01*
X16287199Y36378832D01*
X16331424Y36444153D01*
X16365497Y36495403D01*
X16387733Y36530091D01*
X16396447Y36545728D01*
X16396511Y36546119D01*
X16387127Y36560346D01*
X16360689Y36590287D01*
X16319762Y36633463D01*
X16266915Y36687398D01*
X16204715Y36749616D01*
X16135730Y36817640D01*
X16062527Y36888992D01*
X15987674Y36961197D01*
X15913738Y37031777D01*
X15843286Y37098255D01*
X15778887Y37158155D01*
X15723107Y37209000D01*
X15678514Y37248313D01*
X15647676Y37273617D01*
X15633234Y37282438D01*
X15616216Y37275141D01*
X15579646Y37254350D01*
X15526128Y37221712D01*
X15458268Y37178876D01*
X15378672Y37127489D01*
X15289945Y37069199D01*
X15194692Y37005654D01*
X15180300Y36995971D01*
X15084151Y36931570D01*
X14994065Y36871914D01*
X14912668Y36818689D01*
X14842586Y36773583D01*
X14786446Y36738286D01*
X14746873Y36714484D01*
X14726493Y36703866D01*
X14725328Y36703529D01*
X14703572Y36706725D01*
X14659644Y36719673D01*
X14596108Y36741474D01*
X14515528Y36771230D01*
X14420468Y36808045D01*
X14374052Y36826515D01*
X14260066Y36872339D01*
X14168615Y36909487D01*
X14097162Y36939150D01*
X14043170Y36962521D01*
X14004102Y36980790D01*
X13977422Y36995150D01*
X13960591Y37006793D01*
X13951075Y37016909D01*
X13946335Y37026690D01*
X13946068Y37027554D01*
X13942101Y37045575D01*
X13933889Y37086555D01*
X13922024Y37147422D01*
X13907094Y37225104D01*
X13889692Y37316528D01*
X13870407Y37418623D01*
X13850043Y37527177D01*
X13829288Y37637159D01*
X13809553Y37739796D01*
X13791465Y37831960D01*
X13775656Y37910524D01*
X13762752Y37972360D01*
X13753385Y38014342D01*
X13748247Y38033193D01*
X13735494Y38062958D01*
X13201245Y38062958D01*
X12666995Y38062958D01*
X12654192Y38033193D01*
X12648879Y38013655D01*
X12639417Y37971204D01*
X12626434Y37908966D01*
X12610559Y37830070D01*
X12592424Y37737642D01*
X12572655Y37634810D01*
X12552347Y37527177D01*
X12531782Y37417546D01*
X12512518Y37315545D01*
X12495144Y37224244D01*
X12480250Y37146718D01*
X12468428Y37086036D01*
X12460267Y37045273D01*
X12456373Y37027554D01*
X12440504Y37007071D01*
X12409646Y36985123D01*
X12399757Y36979901D01*
X12363113Y36963187D01*
X12309006Y36940071D01*
X12241432Y36912120D01*
X12164387Y36880899D01*
X12081864Y36847975D01*
X11997861Y36814913D01*
X11916372Y36783279D01*
X11841392Y36754641D01*
X11776918Y36730562D01*
X11726943Y36712611D01*
X11695463Y36702352D01*
X11687051Y36700540D01*
X11670436Y36707873D01*
X11634221Y36728695D01*
X11580978Y36761375D01*
X11513280Y36804276D01*
X11433697Y36855767D01*
X11344802Y36914213D01*
X11249166Y36977979D01*
X11228930Y36991582D01*
X11132166Y37056250D01*
X11041545Y37115921D01*
X10959650Y37168961D01*
X10889064Y37213735D01*
X10832369Y37248610D01*
X10792147Y37271952D01*
X10770982Y37282127D01*
X10769241Y37282438D01*
X10754496Y37273386D01*
X10723462Y37247881D01*
X10678708Y37208399D01*
X10622800Y37157419D01*
X10558307Y37097416D01*
X10487794Y37030868D01*
X10413831Y36960250D01*
X10338984Y36888041D01*
X10265821Y36816716D01*
X10196910Y36748753D01*
X10134817Y36686628D01*
X10082110Y36632818D01*
X10041356Y36589801D01*
X10015124Y36560052D01*
X10005979Y36546119D01*
X10013378Y36532341D01*
X10034452Y36499285D01*
X10067517Y36449441D01*
X10110887Y36385299D01*
X10162877Y36309348D01*
X10221805Y36224080D01*
X10285983Y36131982D01*
X10292032Y36123340D01*
X10357259Y36029791D01*
X10417944Y35942015D01*
X10472299Y35862652D01*
X10518537Y35794344D01*
X10554870Y35739733D01*
X10579513Y35701460D01*
X10590676Y35682165D01*
X10590863Y35681708D01*
X10593158Y35668831D01*
X10591143Y35649795D01*
X10583852Y35621952D01*
X10570314Y35582658D01*
X10549563Y35529265D01*
X10520629Y35459126D01*
X10482544Y35369596D01*
X10443871Y35280004D01*
X10397982Y35174519D01*
X10361042Y35090813D01*
X10331665Y35026219D01*
X10308465Y34978070D01*
X10290058Y34943697D01*
X10275057Y34920435D01*
X10262078Y34905614D01*
X10249735Y34896567D01*
X10242992Y34893208D01*
X10220424Y34886641D01*
X10174577Y34876063D01*
X10108766Y34862145D01*
X10026307Y34845554D01*
X9930515Y34826958D01*
X9824708Y34807027D01*
X9723006Y34788382D01*
X9612220Y34768033D01*
X9509519Y34748593D01*
X9418018Y34730696D01*
X9340831Y34714975D01*
X9281072Y34702063D01*
X9241856Y34692594D01*
X9226491Y34687386D01*
X9221799Y34678418D01*
X9217964Y34658433D01*
X9214914Y34625266D01*
X9212574Y34576755D01*
X9210871Y34510734D01*
X9209732Y34425041D01*
X9209084Y34317510D01*
X9208854Y34185979D01*
X9208851Y34166294D01*
G04 #@! TD*
%LPC*%
D14*
G04 #@! TO.C,U5*
X25620000Y12530000D03*
X2320000Y12530000D03*
X25620000Y36330000D03*
X2320000Y36330000D03*
G04 #@! TD*
D15*
G04 #@! TO.C,J5*
X22832000Y5588000D03*
X19332000Y5588000D03*
G04 #@! TD*
D16*
G04 #@! TO.C,J4*
X4318000Y21082000D03*
X1778000Y21082000D03*
X4318000Y18542000D03*
X1778000Y18542000D03*
X4318000Y16002000D03*
X1778000Y16002000D03*
G04 #@! TD*
D17*
G04 #@! TO.C,J3*
X26017000Y47059000D03*
X26017000Y39809000D03*
D18*
X23367000Y45859000D03*
X23367000Y41009000D03*
G04 #@! TD*
D15*
G04 #@! TO.C,J1*
X5108000Y5588000D03*
X8608000Y5588000D03*
G04 #@! TD*
G04 #@! TO.C,J2*
X15720000Y5588000D03*
X12220000Y5588000D03*
G04 #@! TD*
D19*
G04 #@! TO.C,SW3*
X22948000Y49838000D03*
X21248000Y49838000D03*
G04 #@! TD*
M02*
