G04 #@! TF.GenerationSoftware,KiCad,Pcbnew,no-vcs-found-90668f9~60~ubuntu16.04.1*
G04 #@! TF.CreationDate,2017-09-09T17:52:20+08:00*
G04 #@! TF.ProjectId,TINY-REFLOW-CONTROLLER-0R20,54494E592D5245464C4F572D434F4E54,rev?*
G04 #@! TF.SameCoordinates,PX8f0d180PY5f5e100*
G04 #@! TF.FileFunction,Copper,L2,Bot,Signal*
G04 #@! TF.FilePolarity,Positive*
%FSLAX46Y46*%
G04 Gerber Fmt 4.6, Leading zero omitted, Abs format (unit mm)*
G04 Created by KiCad (PCBNEW no-vcs-found-90668f9~60~ubuntu16.04.1) date Sat Sep  9 17:52:20 2017*
%MOMM*%
%LPD*%
G01*
G04 APERTURE LIST*
%ADD10C,1.200000*%
%ADD11O,1.700000X1.300000*%
%ADD12O,1.727200X1.727200*%
%ADD13C,1.848000*%
%ADD14C,0.500000*%
%ADD15C,0.381000*%
%ADD16C,0.254000*%
%ADD17C,0.508000*%
%ADD18C,0.253000*%
G04 APERTURE END LIST*
D10*
X35051000Y28309000D03*
X35051000Y33159000D03*
D11*
X37701000Y27109000D03*
X37701000Y34359000D03*
D12*
X24130000Y48006000D03*
X21590000Y48006000D03*
X19050000Y48006000D03*
X16510000Y48006000D03*
X13970000Y48006000D03*
X11430000Y48006000D03*
X4318000Y26035000D03*
X1778000Y26035000D03*
X4318000Y23495000D03*
X1778000Y23495000D03*
X4318000Y20955000D03*
X1778000Y20955000D03*
D13*
X14605000Y6350000D03*
X18105000Y6350000D03*
X7620000Y6350000D03*
X11120000Y6350000D03*
D14*
X10160000Y11430000D03*
X30480000Y6350000D03*
X35560000Y6350000D03*
X34290000Y5080000D03*
X25400000Y2540000D03*
X25400000Y5080000D03*
X24130000Y3810000D03*
X12700000Y5080000D03*
X10160000Y5080000D03*
X13970000Y1270000D03*
X11430000Y1270000D03*
X6350000Y1270000D03*
X5080000Y2540000D03*
X6350000Y3810000D03*
X7620000Y2540000D03*
X8890000Y3810000D03*
X10160000Y2540000D03*
X11430000Y3810000D03*
X12700000Y2540000D03*
X13970000Y3810000D03*
X15240000Y2540000D03*
X16510000Y3810000D03*
X17780000Y2540000D03*
X19050000Y3810000D03*
X20320000Y2540000D03*
X20320000Y5080000D03*
X20320000Y7620000D03*
X20320000Y10160000D03*
X20320000Y12700000D03*
X20320000Y15240000D03*
X21590000Y13970000D03*
X25400000Y10160000D03*
X24130000Y11430000D03*
X21590000Y8890000D03*
X21590000Y6350000D03*
X22860000Y5080000D03*
X24130000Y6350000D03*
X22860000Y7620000D03*
X24130000Y8890000D03*
X25400000Y7620000D03*
X8890000Y7620000D03*
X10160000Y8890000D03*
X8890000Y10160000D03*
X36830000Y25400000D03*
X34290000Y22860000D03*
X34290000Y17780000D03*
X36830000Y38100000D03*
X34290000Y43180000D03*
X34290000Y40640000D03*
X35560000Y39370000D03*
X34290000Y38100000D03*
X35560000Y36830000D03*
X34290000Y35560000D03*
X33020000Y31750000D03*
X33020000Y34290000D03*
X34290000Y7620000D03*
X31750000Y5080000D03*
X33020000Y6350000D03*
X31750000Y7620000D03*
X33020000Y8890000D03*
X31750000Y10160000D03*
X31750000Y12700000D03*
X33020000Y13970000D03*
X34290000Y15240000D03*
X35560000Y21590000D03*
X35560000Y13970000D03*
X36830000Y15240000D03*
X35560000Y16510000D03*
X35560000Y19050000D03*
X25400000Y21590000D03*
X27940000Y24130000D03*
X27940000Y26670000D03*
X27940000Y29210000D03*
X26670000Y27940000D03*
X26670000Y25400000D03*
X26670000Y22860000D03*
X24130000Y20320000D03*
X6350000Y16510000D03*
X6350000Y19050000D03*
X8890000Y19050000D03*
X10160000Y17780000D03*
X7620000Y20320000D03*
X17780000Y20320000D03*
X12700000Y10160000D03*
X12700000Y12700000D03*
X5080000Y48260000D03*
X38100000Y45720000D03*
X5080000Y40640000D03*
X7620000Y43180000D03*
X10160000Y40640000D03*
X22860000Y35560000D03*
X20320000Y35560000D03*
X7620000Y27940000D03*
X27940000Y34544000D03*
X27432000Y34036000D03*
X30099000Y23114000D03*
X30861000Y23876000D03*
X30099000Y23876000D03*
X10160000Y20320000D03*
X7620000Y17780000D03*
X15240000Y20320000D03*
X20320000Y20320000D03*
X10160000Y38100000D03*
X10160000Y43180000D03*
X7620000Y40640000D03*
X7620000Y33020000D03*
X2540000Y33020000D03*
X2540000Y38100000D03*
X5080000Y43180000D03*
X2540000Y45720000D03*
X28956000Y43942000D03*
X30226000Y41402000D03*
X21844000Y25400000D03*
X22098000Y29210000D03*
X17018000Y25146000D03*
X17526000Y29210000D03*
X19558000Y27178000D03*
X20174000Y27810000D03*
X20174000Y26610000D03*
X18974000Y26610000D03*
X18974000Y27810000D03*
X6616000Y10680000D03*
X8128000Y14732000D03*
X12700000Y41656000D03*
X12192000Y41656000D03*
X11684000Y41656000D03*
X17526000Y31496000D03*
X17526000Y32004000D03*
X11633000Y26797000D03*
X11633000Y27432000D03*
X11633000Y28067000D03*
X12446000Y17526000D03*
X12434000Y21832000D03*
X25908000Y15240000D03*
X25146000Y15240000D03*
X24384000Y15240000D03*
X25908000Y15748000D03*
X25146000Y15748000D03*
X24384000Y15748000D03*
X10287000Y25019000D03*
X10302000Y22718000D03*
X9652000Y23241000D03*
X9002000Y22733000D03*
X17293783Y22584217D03*
X21971000Y22860000D03*
X15113000Y27710000D03*
X24257000Y22860000D03*
X15748000Y28448000D03*
X15748000Y24638000D03*
X9398000Y25019000D03*
X8352000Y23592000D03*
X21971000Y23622000D03*
X24257000Y23622000D03*
X24257000Y24384000D03*
X21971000Y24384000D03*
D15*
X8890000Y10160000D02*
X10160000Y11430000D01*
X34290000Y5080000D02*
X35560000Y6350000D01*
X24130000Y3810000D02*
X25400000Y2540000D01*
X22860000Y5080000D02*
X24130000Y3810000D01*
X8890000Y3810000D02*
X10160000Y5080000D01*
X10160000Y2540000D02*
X11430000Y1270000D01*
X6350000Y3810000D02*
X5080000Y2540000D01*
X8890000Y3810000D02*
X7620000Y2540000D01*
X11430000Y3810000D02*
X10160000Y2540000D01*
X13970000Y3810000D02*
X12700000Y2540000D01*
X16510000Y3810000D02*
X15240000Y2540000D01*
X19050000Y3810000D02*
X17780000Y2540000D01*
X20320000Y5080000D02*
X20320000Y2540000D01*
X21590000Y8890000D02*
X20320000Y7620000D01*
X20320000Y15240000D02*
X20320000Y12700000D01*
X24130000Y11430000D02*
X21590000Y13970000D01*
X24130000Y11430000D02*
X25400000Y10160000D01*
X21590000Y6350000D02*
X21590000Y8890000D01*
X24130000Y6350000D02*
X22860000Y5080000D01*
X24130000Y8890000D02*
X22860000Y7620000D01*
X31750000Y7620000D02*
X25400000Y7620000D01*
X10160000Y8890000D02*
X8890000Y7620000D01*
X12700000Y10160000D02*
X8890000Y10160000D01*
X35560000Y21590000D02*
X34290000Y22860000D01*
X34290000Y38100000D02*
X36830000Y38100000D01*
X34290000Y40640000D02*
X34290000Y43180000D01*
D16*
X34290000Y40640000D02*
X33528000Y41402000D01*
D15*
X35560000Y39370000D02*
X34290000Y40640000D01*
D16*
X35560000Y39370000D02*
X35560000Y43180000D01*
X33528000Y41402000D02*
X30226000Y41402000D01*
X35560000Y43180000D02*
X38100000Y45720000D01*
D15*
X34290000Y35560000D02*
X35560000Y36830000D01*
X33020000Y34290000D02*
X33020000Y31750000D01*
X33020000Y6350000D02*
X31750000Y5080000D01*
X33020000Y8890000D02*
X31750000Y7620000D01*
X31750000Y12700000D02*
X31750000Y10160000D01*
X35560000Y13970000D02*
X33020000Y13970000D01*
X35560000Y19050000D02*
X35560000Y21590000D01*
X35560000Y16510000D02*
X36830000Y15240000D01*
X30480000Y19050000D02*
X35560000Y19050000D01*
X26670000Y22860000D02*
X30480000Y19050000D01*
X27940000Y26670000D02*
X27940000Y24130000D01*
X26670000Y27940000D02*
X27940000Y29210000D01*
X26670000Y22860000D02*
X26670000Y25400000D01*
X20320000Y20320000D02*
X24130000Y20320000D01*
D16*
X7620000Y20320000D02*
X6350000Y19050000D01*
X7620000Y20320000D02*
X10160000Y17780000D01*
X15240000Y20320000D02*
X17780000Y20320000D01*
X7620000Y17780000D02*
X12700000Y12700000D01*
X5080000Y43180000D02*
X5080000Y40640000D01*
X20320000Y35560000D02*
X22860000Y35560000D01*
X7620000Y33020000D02*
X7620000Y27940000D01*
D17*
X27432000Y34036000D02*
X27432000Y32004000D01*
X27178000Y31750000D02*
X17780000Y31750000D01*
X27432000Y32004000D02*
X27178000Y31750000D01*
D16*
X17780000Y31750000D02*
X17526000Y31496000D01*
X30861000Y23876000D02*
X30099000Y23876000D01*
X30861000Y23876000D02*
X30734000Y24003000D01*
X30734000Y24003000D02*
X30734000Y37846000D01*
X30734000Y37846000D02*
X16510000Y37846000D01*
X16510000Y37846000D02*
X16510000Y48006000D01*
X1778000Y18542000D02*
X2540000Y17780000D01*
X2540000Y17780000D02*
X7620000Y17780000D01*
X1778000Y20955000D02*
X1778000Y18542000D01*
X20174000Y26610000D02*
X20174000Y20466000D01*
X20174000Y20466000D02*
X20320000Y20320000D01*
X7620000Y40640000D02*
X10160000Y43180000D01*
X2540000Y33020000D02*
X7620000Y33020000D01*
X5080000Y40640000D02*
X2540000Y38100000D01*
X7366000Y48006000D02*
X5080000Y45720000D01*
X5080000Y45720000D02*
X2540000Y45720000D01*
X11430000Y48006000D02*
X7366000Y48006000D01*
X29210000Y41910000D02*
X28956000Y42164000D01*
X28956000Y42164000D02*
X28956000Y43942000D01*
X29718000Y41402000D02*
X29210000Y41910000D01*
X30226000Y41402000D02*
X29718000Y41402000D01*
X22098000Y29210000D02*
X22098000Y25654000D01*
X22098000Y25654000D02*
X21844000Y25400000D01*
X17526000Y29210000D02*
X22098000Y29210000D01*
X17018000Y28702000D02*
X17018000Y25146000D01*
X17526000Y29210000D02*
X17018000Y28702000D01*
X18974000Y27810000D02*
X18926000Y27810000D01*
X18926000Y27810000D02*
X17526000Y29210000D01*
X18974000Y26610000D02*
X18990000Y26610000D01*
X18990000Y26610000D02*
X19558000Y27178000D01*
X6616000Y10680000D02*
X7378000Y10680000D01*
X7378000Y10680000D02*
X7620000Y10922000D01*
X7620000Y14224000D02*
X7620000Y10922000D01*
X8128000Y14732000D02*
X7620000Y14224000D01*
D17*
X12192000Y41656000D02*
X12192000Y28626000D01*
X12192000Y28626000D02*
X11633000Y28067000D01*
X11684000Y41656000D02*
X12192000Y41656000D01*
D16*
X17526000Y32004000D02*
X17526000Y31496000D01*
D17*
X15494000Y17272000D02*
X15494000Y7239000D01*
X15494000Y7239000D02*
X14605000Y6350000D01*
X16002000Y17780000D02*
X15494000Y17272000D01*
X25908000Y17780000D02*
X16002000Y17780000D01*
X25908000Y15748000D02*
X25908000Y17780000D01*
X24384000Y15748000D02*
X24384000Y17780000D01*
X24384000Y17780000D02*
X14986000Y17780000D01*
X14986000Y17780000D02*
X13716000Y16510000D01*
X13716000Y16510000D02*
X13716000Y7239000D01*
X13716000Y7239000D02*
X14605000Y6350000D01*
D16*
X12446000Y17526000D02*
X24638000Y17526000D01*
X24638000Y17526000D02*
X25146000Y17018000D01*
X25146000Y17018000D02*
X25146000Y15748000D01*
X12434000Y21832000D02*
X12434000Y17538000D01*
X12434000Y17538000D02*
X12446000Y17526000D01*
X25146000Y15240000D02*
X25908000Y15240000D01*
X24384000Y15748000D02*
X24384000Y15240000D01*
X25146000Y15748000D02*
X24384000Y15748000D01*
X10302000Y22718000D02*
X10302000Y22240000D01*
X10302000Y22240000D02*
X9652000Y21590000D01*
X9652000Y21590000D02*
X6223000Y21590000D01*
X6223000Y21590000D02*
X4318000Y23495000D01*
X10287000Y25019000D02*
X10302000Y25004000D01*
X10302000Y25004000D02*
X10302000Y22718000D01*
X9652000Y23241000D02*
X9652000Y22449118D01*
X9652000Y22449118D02*
X9300882Y22098000D01*
X9300882Y22098000D02*
X6604000Y22098000D01*
X3073399Y24790399D02*
X1778000Y23495000D01*
X6604000Y22098000D02*
X5588000Y23114000D01*
X5588000Y23114000D02*
X5588000Y24130000D01*
X5588000Y24130000D02*
X4927601Y24790399D01*
X4927601Y24790399D02*
X3073399Y24790399D01*
X4318000Y26035000D02*
X4445000Y26035000D01*
X8875000Y22606000D02*
X9002000Y22733000D01*
X4445000Y26035000D02*
X6096000Y24384000D01*
X6858000Y22606000D02*
X8875000Y22606000D01*
X6096000Y24384000D02*
X6096000Y23368000D01*
X6096000Y23368000D02*
X6858000Y22606000D01*
X17293783Y22584217D02*
X16785783Y22584217D01*
X16785783Y22584217D02*
X15113000Y24257000D01*
X15113000Y24257000D02*
X15113000Y27710000D01*
X21971000Y22860000D02*
X24257000Y22860000D01*
X15748000Y28448000D02*
X15748000Y24638000D01*
X15769783Y24659783D02*
X15748000Y24638000D01*
X9398000Y25019000D02*
X9398000Y24130000D01*
X9398000Y24130000D02*
X8860000Y23592000D01*
X8860000Y23592000D02*
X8352000Y23592000D01*
X21971000Y23622000D02*
X24257000Y23622000D01*
X24257000Y24384000D02*
X21971000Y24384000D01*
G36*
X16764000Y48260000D02*
X16784000Y48260000D01*
X16784000Y47752000D01*
X16764000Y47752000D01*
X16764000Y46882832D01*
X16951475Y46842317D01*
X17170015Y46950804D01*
X17208500Y46980496D01*
X17208500Y38858000D01*
X17209112Y38845551D01*
X17213916Y38796778D01*
X17218772Y38772362D01*
X17232998Y38725464D01*
X17242526Y38702461D01*
X17265629Y38659239D01*
X17279460Y38638540D01*
X17310550Y38600656D01*
X17328156Y38583050D01*
X17366040Y38551960D01*
X17386739Y38538129D01*
X17429961Y38515026D01*
X17452964Y38505498D01*
X17499862Y38491272D01*
X17524278Y38486416D01*
X17573051Y38481612D01*
X17585500Y38481000D01*
X30985764Y38481000D01*
X31015874Y38478034D01*
X31038835Y38471069D01*
X31059996Y38459758D01*
X31078540Y38444540D01*
X31093758Y38425996D01*
X31105069Y38404835D01*
X31112034Y38381874D01*
X31115000Y38351764D01*
X31115000Y22354236D01*
X31112034Y22324126D01*
X31105069Y22301165D01*
X31093758Y22280004D01*
X31078540Y22261460D01*
X31059996Y22246242D01*
X31038835Y22234931D01*
X31015874Y22227966D01*
X30985764Y22225000D01*
X29974236Y22225000D01*
X29944126Y22227966D01*
X29921165Y22234931D01*
X29900004Y22246242D01*
X29881460Y22261460D01*
X29866242Y22280004D01*
X29854931Y22301165D01*
X29847966Y22324126D01*
X29845000Y22354236D01*
X29845000Y36834000D01*
X29844388Y36846449D01*
X29839584Y36895222D01*
X29834728Y36919638D01*
X29820502Y36966536D01*
X29810974Y36989539D01*
X29787871Y37032761D01*
X29774040Y37053460D01*
X29742950Y37091344D01*
X29725344Y37108950D01*
X29687460Y37140040D01*
X29666761Y37153871D01*
X29623539Y37176974D01*
X29600536Y37186502D01*
X29553638Y37200728D01*
X29529222Y37205584D01*
X29480449Y37210388D01*
X29468000Y37211000D01*
X15940736Y37211000D01*
X15910626Y37213966D01*
X15887665Y37220931D01*
X15866504Y37232242D01*
X15847960Y37247460D01*
X15832742Y37266004D01*
X15821431Y37287165D01*
X15814466Y37310126D01*
X15811500Y37340236D01*
X15811500Y46980496D01*
X15849985Y46950804D01*
X16068525Y46842317D01*
X16256000Y46882832D01*
X16256000Y47752000D01*
X16236000Y47752000D01*
X16236000Y48260000D01*
X16256000Y48260000D01*
X16256000Y48280000D01*
X16764000Y48280000D01*
X16764000Y48260000D01*
X16764000Y48260000D01*
G37*
X16764000Y48260000D02*
X16784000Y48260000D01*
X16784000Y47752000D01*
X16764000Y47752000D01*
X16764000Y46882832D01*
X16951475Y46842317D01*
X17170015Y46950804D01*
X17208500Y46980496D01*
X17208500Y38858000D01*
X17209112Y38845551D01*
X17213916Y38796778D01*
X17218772Y38772362D01*
X17232998Y38725464D01*
X17242526Y38702461D01*
X17265629Y38659239D01*
X17279460Y38638540D01*
X17310550Y38600656D01*
X17328156Y38583050D01*
X17366040Y38551960D01*
X17386739Y38538129D01*
X17429961Y38515026D01*
X17452964Y38505498D01*
X17499862Y38491272D01*
X17524278Y38486416D01*
X17573051Y38481612D01*
X17585500Y38481000D01*
X30985764Y38481000D01*
X31015874Y38478034D01*
X31038835Y38471069D01*
X31059996Y38459758D01*
X31078540Y38444540D01*
X31093758Y38425996D01*
X31105069Y38404835D01*
X31112034Y38381874D01*
X31115000Y38351764D01*
X31115000Y22354236D01*
X31112034Y22324126D01*
X31105069Y22301165D01*
X31093758Y22280004D01*
X31078540Y22261460D01*
X31059996Y22246242D01*
X31038835Y22234931D01*
X31015874Y22227966D01*
X30985764Y22225000D01*
X29974236Y22225000D01*
X29944126Y22227966D01*
X29921165Y22234931D01*
X29900004Y22246242D01*
X29881460Y22261460D01*
X29866242Y22280004D01*
X29854931Y22301165D01*
X29847966Y22324126D01*
X29845000Y22354236D01*
X29845000Y36834000D01*
X29844388Y36846449D01*
X29839584Y36895222D01*
X29834728Y36919638D01*
X29820502Y36966536D01*
X29810974Y36989539D01*
X29787871Y37032761D01*
X29774040Y37053460D01*
X29742950Y37091344D01*
X29725344Y37108950D01*
X29687460Y37140040D01*
X29666761Y37153871D01*
X29623539Y37176974D01*
X29600536Y37186502D01*
X29553638Y37200728D01*
X29529222Y37205584D01*
X29480449Y37210388D01*
X29468000Y37211000D01*
X15940736Y37211000D01*
X15910626Y37213966D01*
X15887665Y37220931D01*
X15866504Y37232242D01*
X15847960Y37247460D01*
X15832742Y37266004D01*
X15821431Y37287165D01*
X15814466Y37310126D01*
X15811500Y37340236D01*
X15811500Y46980496D01*
X15849985Y46950804D01*
X16068525Y46842317D01*
X16256000Y46882832D01*
X16256000Y47752000D01*
X16236000Y47752000D01*
X16236000Y48260000D01*
X16256000Y48260000D01*
X16256000Y48280000D01*
X16764000Y48280000D01*
X16764000Y48260000D01*
D18*
G36*
X30790648Y50533029D02*
X30662569Y50449217D01*
X30553209Y50342124D01*
X30466733Y50215828D01*
X30406434Y50075142D01*
X30374611Y49925423D01*
X30372474Y49772373D01*
X30400105Y49621824D01*
X30456451Y49479509D01*
X30539367Y49350848D01*
X30645694Y49240743D01*
X30771383Y49153387D01*
X30911645Y49092108D01*
X31061138Y49059240D01*
X31214169Y49056034D01*
X31364908Y49082614D01*
X31507613Y49137965D01*
X31636849Y49219981D01*
X31747694Y49325537D01*
X31835925Y49450613D01*
X31898182Y49590444D01*
X31932093Y49739704D01*
X31934534Y49914532D01*
X31904804Y50064681D01*
X31846475Y50206196D01*
X31761771Y50333686D01*
X31653917Y50442296D01*
X31527021Y50527888D01*
X31487503Y50544500D01*
X32519040Y50544500D01*
X32490648Y50533029D01*
X32362569Y50449217D01*
X32253209Y50342124D01*
X32166733Y50215828D01*
X32106434Y50075142D01*
X32074611Y49925423D01*
X32072474Y49772373D01*
X32100105Y49621824D01*
X32156451Y49479509D01*
X32239367Y49350848D01*
X32345694Y49240743D01*
X32471383Y49153387D01*
X32611645Y49092108D01*
X32761138Y49059240D01*
X32914169Y49056034D01*
X33064908Y49082614D01*
X33207613Y49137965D01*
X33336849Y49219981D01*
X33447694Y49325537D01*
X33535925Y49450613D01*
X33598182Y49590444D01*
X33632093Y49739704D01*
X33634534Y49914532D01*
X33604804Y50064681D01*
X33546475Y50206196D01*
X33461771Y50333686D01*
X33353917Y50442296D01*
X33227021Y50527888D01*
X33187503Y50544500D01*
X36616492Y50544500D01*
X36463480Y50482679D01*
X36098116Y50243592D01*
X35786149Y49938091D01*
X35539463Y49577814D01*
X35367452Y49176484D01*
X35276670Y48749386D01*
X35270573Y48312790D01*
X35349395Y47883324D01*
X35510133Y47477347D01*
X35746664Y47110323D01*
X36049979Y46796231D01*
X36408525Y46547035D01*
X36808645Y46372227D01*
X37235098Y46278465D01*
X37671641Y46269321D01*
X38101647Y46345142D01*
X38508736Y46503042D01*
X38877403Y46737005D01*
X39193605Y47038120D01*
X39445298Y47394917D01*
X39544500Y47617729D01*
X39544500Y42361693D01*
X39428023Y42537004D01*
X39147990Y42819000D01*
X38818516Y43041233D01*
X38452152Y43195238D01*
X38062852Y43275150D01*
X37665444Y43277924D01*
X37275067Y43203456D01*
X36906588Y43054581D01*
X36574044Y42836970D01*
X36290100Y42558912D01*
X36065572Y42230997D01*
X35909013Y41865717D01*
X35826385Y41476985D01*
X35820837Y41079606D01*
X35892578Y40688718D01*
X36038877Y40319209D01*
X36254161Y39985154D01*
X36530230Y39699276D01*
X36856569Y39472464D01*
X37220747Y39313359D01*
X37608893Y39228019D01*
X38006223Y39219696D01*
X38397603Y39288707D01*
X38768124Y39432423D01*
X39103675Y39645370D01*
X39391473Y39919436D01*
X39544500Y40136366D01*
X39544500Y12770762D01*
X39297990Y13019000D01*
X38968516Y13241233D01*
X38602152Y13395238D01*
X38212852Y13475150D01*
X37815444Y13477924D01*
X37425067Y13403456D01*
X37056588Y13254581D01*
X36724044Y13036970D01*
X36440100Y12758912D01*
X36215572Y12430997D01*
X36059013Y12065717D01*
X35976385Y11676985D01*
X35970837Y11279606D01*
X36042578Y10888718D01*
X36188877Y10519209D01*
X36404161Y10185154D01*
X36680230Y9899276D01*
X37006569Y9672464D01*
X37370747Y9513359D01*
X37758893Y9428019D01*
X38156223Y9419696D01*
X38547603Y9488707D01*
X38918124Y9632423D01*
X39253675Y9845370D01*
X39541473Y10119436D01*
X39544500Y10123727D01*
X39544500Y3382674D01*
X39475395Y3550336D01*
X39233762Y3914022D01*
X38926091Y4223848D01*
X38564101Y4468014D01*
X38161580Y4637218D01*
X37733859Y4725017D01*
X37297230Y4728065D01*
X36868325Y4646247D01*
X36463480Y4482679D01*
X36098116Y4243592D01*
X35786149Y3938091D01*
X35539463Y3577814D01*
X35367452Y3176484D01*
X35276670Y2749386D01*
X35270573Y2312790D01*
X35349395Y1883324D01*
X35510133Y1477347D01*
X35746664Y1110323D01*
X36049979Y796231D01*
X36408525Y547035D01*
X36618040Y455500D01*
X3386166Y455500D01*
X3508736Y503042D01*
X3877403Y737005D01*
X4193605Y1038120D01*
X4445298Y1394917D01*
X4622895Y1793807D01*
X4719631Y2219595D01*
X4726595Y2718320D01*
X4641785Y3146643D01*
X4475395Y3550336D01*
X4233762Y3914022D01*
X3926091Y4223848D01*
X3564101Y4468014D01*
X3161580Y4637218D01*
X2733859Y4725017D01*
X2297230Y4728065D01*
X1868325Y4646247D01*
X1463480Y4482679D01*
X1098116Y4243592D01*
X786149Y3938091D01*
X539463Y3577814D01*
X455500Y3381914D01*
X455500Y6240314D01*
X6313785Y6240314D01*
X6359967Y5988691D01*
X6454142Y5750831D01*
X6592725Y5535792D01*
X6770437Y5351766D01*
X6980508Y5205763D01*
X7214937Y5103344D01*
X7464795Y5048409D01*
X7720564Y5043051D01*
X7972503Y5087475D01*
X8211016Y5179988D01*
X8427016Y5317066D01*
X8612278Y5493488D01*
X8759744Y5702535D01*
X8863798Y5936243D01*
X8920476Y6185712D01*
X8921238Y6240314D01*
X9813785Y6240314D01*
X9859967Y5988691D01*
X9954142Y5750831D01*
X10092725Y5535792D01*
X10270437Y5351766D01*
X10480508Y5205763D01*
X10714937Y5103344D01*
X10964795Y5048409D01*
X11220564Y5043051D01*
X11472503Y5087475D01*
X11711016Y5179988D01*
X11927016Y5317066D01*
X12112278Y5493488D01*
X12259744Y5702535D01*
X12363798Y5936243D01*
X12420476Y6185712D01*
X12424556Y6477913D01*
X12374866Y6728866D01*
X12277378Y6965389D01*
X12135807Y7178472D01*
X11955543Y7359998D01*
X11743454Y7503054D01*
X11507618Y7602190D01*
X11257017Y7653631D01*
X11001198Y7655417D01*
X10749903Y7607480D01*
X10512706Y7511646D01*
X10298640Y7371566D01*
X10115860Y7192574D01*
X9971327Y6981488D01*
X9870546Y6746350D01*
X9817357Y6496115D01*
X9813785Y6240314D01*
X8921238Y6240314D01*
X8924556Y6477913D01*
X8874866Y6728866D01*
X8777378Y6965389D01*
X8635807Y7178472D01*
X8455543Y7359998D01*
X8243454Y7503054D01*
X8007618Y7602190D01*
X7757017Y7653631D01*
X7501198Y7655417D01*
X7249903Y7607480D01*
X7012706Y7511646D01*
X6798640Y7371566D01*
X6615860Y7192574D01*
X6471327Y6981488D01*
X6370546Y6746350D01*
X6317357Y6496115D01*
X6313785Y6240314D01*
X455500Y6240314D01*
X455500Y10131991D01*
X680230Y9899276D01*
X1006569Y9672464D01*
X1370747Y9513359D01*
X1758893Y9428019D01*
X2156223Y9419696D01*
X2547603Y9488707D01*
X2918124Y9632423D01*
X3253675Y9845370D01*
X3541473Y10119436D01*
X3770557Y10444184D01*
X3851945Y10626986D01*
X5984671Y10626986D01*
X6006992Y10505370D01*
X6052509Y10390405D01*
X6119490Y10286471D01*
X6205383Y10197527D01*
X6306916Y10126959D01*
X6420222Y10077457D01*
X6540985Y10050906D01*
X6664605Y10048316D01*
X6786374Y10069787D01*
X6901654Y10114501D01*
X6993045Y10172500D01*
X7378000Y10172500D01*
X7424663Y10177075D01*
X7471355Y10181160D01*
X7473918Y10181905D01*
X7476574Y10182165D01*
X7521430Y10195708D01*
X7566469Y10208793D01*
X7568841Y10210022D01*
X7571393Y10210793D01*
X7612774Y10232795D01*
X7654405Y10254375D01*
X7656490Y10256039D01*
X7658846Y10257292D01*
X7695157Y10286907D01*
X7731811Y10316167D01*
X7735529Y10319834D01*
X7735602Y10319893D01*
X7735658Y10319960D01*
X7736857Y10321143D01*
X7978857Y10563144D01*
X8008612Y10599368D01*
X8038745Y10635279D01*
X8040030Y10637617D01*
X8041725Y10639680D01*
X8063880Y10681000D01*
X8086461Y10722074D01*
X8087268Y10724619D01*
X8088529Y10726970D01*
X8102238Y10771808D01*
X8116410Y10816485D01*
X8116707Y10819136D01*
X8117488Y10821689D01*
X8122224Y10868320D01*
X8127451Y10914914D01*
X8127487Y10920131D01*
X8127497Y10920229D01*
X8127488Y10920320D01*
X8127500Y10922000D01*
X8127500Y14013786D01*
X8222041Y14108328D01*
X8298374Y14121787D01*
X8413654Y14166501D01*
X8518053Y14232755D01*
X8607595Y14318025D01*
X8678869Y14419063D01*
X8729161Y14532020D01*
X8756555Y14652595D01*
X8758527Y14793824D01*
X8734511Y14915116D01*
X8687392Y15029434D01*
X8618967Y15132423D01*
X8531841Y15220159D01*
X8429332Y15289302D01*
X8315346Y15337218D01*
X8194224Y15362080D01*
X8070580Y15362944D01*
X7949122Y15339774D01*
X7834478Y15293455D01*
X7731015Y15225750D01*
X7642672Y15139239D01*
X7572815Y15037216D01*
X7524105Y14923567D01*
X7503118Y14824832D01*
X7261143Y14582857D01*
X7231367Y14546607D01*
X7201255Y14510721D01*
X7199970Y14508383D01*
X7198275Y14506320D01*
X7176120Y14465000D01*
X7153539Y14423926D01*
X7152732Y14421381D01*
X7151471Y14419030D01*
X7137758Y14374180D01*
X7123590Y14329515D01*
X7123293Y14326866D01*
X7122512Y14324312D01*
X7117775Y14277675D01*
X7112549Y14231086D01*
X7112513Y14225869D01*
X7112503Y14225771D01*
X7112512Y14225680D01*
X7112500Y14224000D01*
X7112500Y11187500D01*
X6991167Y11187500D01*
X6917332Y11237302D01*
X6803346Y11285218D01*
X6682224Y11310080D01*
X6558580Y11310944D01*
X6437122Y11287774D01*
X6322478Y11241455D01*
X6219015Y11173750D01*
X6130672Y11087239D01*
X6060815Y10985216D01*
X6012105Y10871567D01*
X5986397Y10750621D01*
X5984671Y10626986D01*
X3851945Y10626986D01*
X3932201Y10807242D01*
X4020248Y11194783D01*
X4026587Y11648709D01*
X3949394Y12038557D01*
X3797951Y12405987D01*
X3578023Y12737004D01*
X3297990Y13019000D01*
X2968516Y13241233D01*
X2602152Y13395238D01*
X2212852Y13475150D01*
X1815444Y13477924D01*
X1425067Y13403456D01*
X1056588Y13254581D01*
X724044Y13036970D01*
X455500Y12773993D01*
X455500Y20759886D01*
X549295Y20759886D01*
X610969Y20523927D01*
X717491Y20304533D01*
X864768Y20110136D01*
X1047140Y19948207D01*
X1257599Y19824969D01*
X1488056Y19745157D01*
X1582886Y19726295D01*
X1777500Y19806025D01*
X1777500Y20954500D01*
X1778500Y20954500D01*
X1778500Y19806025D01*
X1973114Y19726295D01*
X2067944Y19745157D01*
X2298401Y19824969D01*
X2508860Y19948207D01*
X2691232Y20110136D01*
X2838509Y20304533D01*
X2945031Y20523927D01*
X3006705Y20759886D01*
X2926975Y20954500D01*
X1778500Y20954500D01*
X1777500Y20954500D01*
X629025Y20954500D01*
X549295Y20759886D01*
X455500Y20759886D01*
X455500Y21150114D01*
X549295Y21150114D01*
X629025Y20955500D01*
X1777500Y20955500D01*
X1777500Y22103975D01*
X1778500Y22103975D01*
X1778500Y20955500D01*
X2926975Y20955500D01*
X2929236Y20961020D01*
X3073900Y20961020D01*
X3073900Y20948980D01*
X3097594Y20707333D01*
X3167772Y20474890D01*
X3281763Y20260506D01*
X3435223Y20072345D01*
X3622308Y19917574D01*
X3835892Y19802090D01*
X4067839Y19730290D01*
X4309315Y19704910D01*
X4551121Y19726916D01*
X4784048Y19795471D01*
X4999223Y19907962D01*
X5188451Y20060105D01*
X5344524Y20246105D01*
X5461496Y20458877D01*
X5534913Y20690317D01*
X5561979Y20931610D01*
X5562100Y20948980D01*
X5562100Y20961020D01*
X5538406Y21202667D01*
X5468228Y21435110D01*
X5354237Y21649494D01*
X5200777Y21837655D01*
X5013692Y21992426D01*
X4800108Y22107910D01*
X4568161Y22179710D01*
X4326685Y22205090D01*
X4084879Y22183084D01*
X3851952Y22114529D01*
X3636777Y22002038D01*
X3447549Y21849895D01*
X3291476Y21663895D01*
X3174504Y21451123D01*
X3101087Y21219683D01*
X3074021Y20978390D01*
X3073900Y20961020D01*
X2929236Y20961020D01*
X3006705Y21150114D01*
X2945031Y21386073D01*
X2838509Y21605467D01*
X2691232Y21799864D01*
X2508860Y21961793D01*
X2298401Y22085031D01*
X2067944Y22164843D01*
X1973114Y22183705D01*
X1778500Y22103975D01*
X1777500Y22103975D01*
X1582886Y22183705D01*
X1488056Y22164843D01*
X1257599Y22085031D01*
X1047140Y21961793D01*
X864768Y21799864D01*
X717491Y21605467D01*
X610969Y21386073D01*
X549295Y21150114D01*
X455500Y21150114D01*
X455500Y23501020D01*
X533900Y23501020D01*
X533900Y23488980D01*
X557594Y23247333D01*
X627772Y23014890D01*
X741763Y22800506D01*
X895223Y22612345D01*
X1082308Y22457574D01*
X1295892Y22342090D01*
X1527839Y22270290D01*
X1769315Y22244910D01*
X2011121Y22266916D01*
X2244048Y22335471D01*
X2459223Y22447962D01*
X2648451Y22600105D01*
X2804524Y22786105D01*
X2921496Y22998877D01*
X2994913Y23230317D01*
X3021979Y23471610D01*
X3022100Y23488980D01*
X3022100Y23501020D01*
X2998406Y23742667D01*
X2939266Y23938552D01*
X3283613Y24282899D01*
X3357768Y24282899D01*
X3291476Y24203895D01*
X3174504Y23991123D01*
X3101087Y23759683D01*
X3074021Y23518390D01*
X3073900Y23501020D01*
X3073900Y23488980D01*
X3097594Y23247333D01*
X3167772Y23014890D01*
X3281763Y22800506D01*
X3435223Y22612345D01*
X3622308Y22457574D01*
X3835892Y22342090D01*
X4067839Y22270290D01*
X4309315Y22244910D01*
X4551121Y22266916D01*
X4765325Y22329961D01*
X5864143Y21231143D01*
X5900393Y21201367D01*
X5936279Y21171255D01*
X5938617Y21169970D01*
X5940680Y21168275D01*
X5982000Y21146120D01*
X6023074Y21123539D01*
X6025619Y21122732D01*
X6027970Y21121471D01*
X6072808Y21107762D01*
X6117485Y21093590D01*
X6120136Y21093293D01*
X6122689Y21092512D01*
X6169320Y21087776D01*
X6215914Y21082549D01*
X6221131Y21082513D01*
X6221229Y21082503D01*
X6221320Y21082512D01*
X6223000Y21082500D01*
X9652000Y21082500D01*
X9698663Y21087075D01*
X9745355Y21091160D01*
X9747918Y21091905D01*
X9750574Y21092165D01*
X9795430Y21105708D01*
X9840469Y21118793D01*
X9842841Y21120022D01*
X9845393Y21120793D01*
X9886774Y21142795D01*
X9928405Y21164375D01*
X9930490Y21166039D01*
X9932846Y21167292D01*
X9969157Y21196907D01*
X10005811Y21226167D01*
X10009529Y21229834D01*
X10009602Y21229893D01*
X10009658Y21229960D01*
X10010857Y21231143D01*
X10660857Y21881143D01*
X10690633Y21917393D01*
X10720745Y21953279D01*
X10722030Y21955617D01*
X10723725Y21957680D01*
X10745880Y21999000D01*
X10768461Y22040074D01*
X10769268Y22042619D01*
X10770529Y22044970D01*
X10784238Y22089808D01*
X10798410Y22134485D01*
X10798707Y22137136D01*
X10799488Y22139689D01*
X10804224Y22186320D01*
X10809451Y22232914D01*
X10809487Y22238131D01*
X10809497Y22238229D01*
X10809488Y22238320D01*
X10809500Y22240000D01*
X10809500Y22343583D01*
X10852869Y22405063D01*
X10903161Y22518020D01*
X10930555Y22638595D01*
X10932527Y22779824D01*
X10908511Y22901116D01*
X10861392Y23015434D01*
X10809500Y23093539D01*
X10809500Y24665847D01*
X10837869Y24706063D01*
X10888161Y24819020D01*
X10915555Y24939595D01*
X10917527Y25080824D01*
X10893511Y25202116D01*
X10846392Y25316434D01*
X10777967Y25419423D01*
X10690841Y25507159D01*
X10588332Y25576302D01*
X10474346Y25624218D01*
X10353224Y25649080D01*
X10229580Y25649944D01*
X10108122Y25626774D01*
X9993478Y25580455D01*
X9890015Y25512750D01*
X9842497Y25466218D01*
X9801841Y25507159D01*
X9699332Y25576302D01*
X9585346Y25624218D01*
X9464224Y25649080D01*
X9340580Y25649944D01*
X9219122Y25626774D01*
X9104478Y25580455D01*
X9001015Y25512750D01*
X8912672Y25426239D01*
X8842815Y25324216D01*
X8794105Y25210567D01*
X8768397Y25089621D01*
X8766671Y24965986D01*
X8788992Y24844370D01*
X8834509Y24729405D01*
X8890500Y24642524D01*
X8890500Y24340214D01*
X8680956Y24130670D01*
X8653332Y24149302D01*
X8539346Y24197218D01*
X8418224Y24222080D01*
X8294580Y24222944D01*
X8173122Y24199774D01*
X8058478Y24153455D01*
X7955015Y24085750D01*
X7866672Y23999239D01*
X7796815Y23897216D01*
X7748105Y23783567D01*
X7722397Y23662621D01*
X7720671Y23538986D01*
X7742992Y23417370D01*
X7788509Y23302405D01*
X7855490Y23198471D01*
X7937546Y23113500D01*
X7068214Y23113500D01*
X6603500Y23578214D01*
X6603500Y24384000D01*
X6598925Y24430663D01*
X6594840Y24477355D01*
X6594095Y24479918D01*
X6593835Y24482574D01*
X6580288Y24527444D01*
X6567207Y24572468D01*
X6565978Y24574839D01*
X6565207Y24577393D01*
X6543205Y24618774D01*
X6521626Y24660404D01*
X6519961Y24662490D01*
X6518708Y24664846D01*
X6489098Y24701151D01*
X6459833Y24737811D01*
X6456170Y24741525D01*
X6456107Y24741602D01*
X6456036Y24741661D01*
X6454857Y24742856D01*
X5509020Y25688693D01*
X5534913Y25770317D01*
X5561979Y26011610D01*
X5562100Y26028980D01*
X5562100Y26041020D01*
X5538406Y26282667D01*
X5468228Y26515110D01*
X5354237Y26729494D01*
X5200777Y26917655D01*
X5013692Y27072426D01*
X4800108Y27187910D01*
X4568161Y27259710D01*
X4326685Y27285090D01*
X4084879Y27263084D01*
X3851952Y27194529D01*
X3636777Y27082038D01*
X3447549Y26929895D01*
X3291476Y26743895D01*
X3174504Y26531123D01*
X3101087Y26299683D01*
X3074021Y26058390D01*
X3073900Y26041020D01*
X3073900Y26028980D01*
X3097594Y25787333D01*
X3167772Y25554890D01*
X3281763Y25340506D01*
X3316512Y25297899D01*
X3073399Y25297899D01*
X3026736Y25293324D01*
X2980044Y25289239D01*
X2977481Y25288494D01*
X2974825Y25288234D01*
X2929969Y25274691D01*
X2884930Y25261606D01*
X2882558Y25260377D01*
X2880006Y25259606D01*
X2838604Y25237593D01*
X2796995Y25216024D01*
X2794912Y25214361D01*
X2792553Y25213107D01*
X2756220Y25183475D01*
X2719588Y25154232D01*
X2715870Y25150565D01*
X2715797Y25150506D01*
X2715741Y25150439D01*
X2714542Y25149256D01*
X2224285Y24658999D01*
X2028161Y24719710D01*
X1786685Y24745090D01*
X1544879Y24723084D01*
X1311952Y24654529D01*
X1096777Y24542038D01*
X907549Y24389895D01*
X751476Y24203895D01*
X634504Y23991123D01*
X561087Y23759683D01*
X534021Y23518390D01*
X533900Y23501020D01*
X455500Y23501020D01*
X455500Y26041020D01*
X533900Y26041020D01*
X533900Y26028980D01*
X557594Y25787333D01*
X627772Y25554890D01*
X741763Y25340506D01*
X895223Y25152345D01*
X1082308Y24997574D01*
X1295892Y24882090D01*
X1527839Y24810290D01*
X1769315Y24784910D01*
X2011121Y24806916D01*
X2244048Y24875471D01*
X2459223Y24987962D01*
X2648451Y25140105D01*
X2804524Y25326105D01*
X2921496Y25538877D01*
X2994913Y25770317D01*
X3021979Y26011610D01*
X3022100Y26028980D01*
X3022100Y26041020D01*
X2998406Y26282667D01*
X2928228Y26515110D01*
X2814237Y26729494D01*
X2660777Y26917655D01*
X2473692Y27072426D01*
X2260108Y27187910D01*
X2028161Y27259710D01*
X1786685Y27285090D01*
X1544879Y27263084D01*
X1311952Y27194529D01*
X1096777Y27082038D01*
X907549Y26929895D01*
X751476Y26743895D01*
X634504Y26531123D01*
X561087Y26299683D01*
X534021Y26058390D01*
X533900Y26041020D01*
X455500Y26041020D01*
X455500Y40138246D01*
X554161Y39985154D01*
X830230Y39699276D01*
X1156569Y39472464D01*
X1520747Y39313359D01*
X1908893Y39228019D01*
X2306223Y39219696D01*
X2697603Y39288707D01*
X3068124Y39432423D01*
X3403675Y39645370D01*
X3691473Y39919436D01*
X3920557Y40244184D01*
X4082201Y40607242D01*
X4170248Y40994783D01*
X4176587Y41448709D01*
X4099394Y41838557D01*
X4068299Y41914000D01*
X10986000Y41914000D01*
X10986000Y17268000D01*
X10987832Y17230702D01*
X10992636Y17181929D01*
X11007187Y17108776D01*
X11021413Y17061878D01*
X11049960Y16992960D01*
X11073063Y16949738D01*
X11114500Y16887723D01*
X11145590Y16849839D01*
X11198339Y16797090D01*
X11236223Y16766000D01*
X11298238Y16724563D01*
X11341460Y16701460D01*
X11410378Y16672913D01*
X11457276Y16658687D01*
X11530429Y16644136D01*
X11579202Y16639332D01*
X11616500Y16637500D01*
X13081500Y16637500D01*
X13081500Y6854000D01*
X13083332Y6816702D01*
X13088136Y6767929D01*
X13102687Y6694776D01*
X13116913Y6647878D01*
X13145460Y6578960D01*
X13168563Y6535738D01*
X13210000Y6473723D01*
X13241090Y6435839D01*
X13293839Y6383090D01*
X13300700Y6377459D01*
X13298785Y6240314D01*
X13344967Y5988691D01*
X13439142Y5750831D01*
X13577725Y5535792D01*
X13755437Y5351766D01*
X13965508Y5205763D01*
X14199937Y5103344D01*
X14449795Y5048409D01*
X14705564Y5043051D01*
X14957503Y5087475D01*
X15196016Y5179988D01*
X15412016Y5317066D01*
X15597278Y5493488D01*
X15744744Y5702535D01*
X15848798Y5936243D01*
X15905476Y6185712D01*
X15906238Y6240314D01*
X16798785Y6240314D01*
X16844967Y5988691D01*
X16939142Y5750831D01*
X17077725Y5535792D01*
X17255437Y5351766D01*
X17465508Y5205763D01*
X17699937Y5103344D01*
X17949795Y5048409D01*
X18205564Y5043051D01*
X18457503Y5087475D01*
X18696016Y5179988D01*
X18912016Y5317066D01*
X19097278Y5493488D01*
X19244744Y5702535D01*
X19348798Y5936243D01*
X19405476Y6185712D01*
X19409556Y6477913D01*
X19359866Y6728866D01*
X19262378Y6965389D01*
X19120807Y7178472D01*
X18940543Y7359998D01*
X18728454Y7503054D01*
X18492618Y7602190D01*
X18242017Y7653631D01*
X17986198Y7655417D01*
X17734903Y7607480D01*
X17497706Y7511646D01*
X17283640Y7371566D01*
X17100860Y7192574D01*
X16956327Y6981488D01*
X16855546Y6746350D01*
X16802357Y6496115D01*
X16798785Y6240314D01*
X15906238Y6240314D01*
X15908140Y6376508D01*
X15916161Y6383090D01*
X15968910Y6435839D01*
X16000000Y6473723D01*
X16041437Y6535738D01*
X16064540Y6578960D01*
X16093087Y6647878D01*
X16107313Y6694776D01*
X16121864Y6767929D01*
X16126668Y6816702D01*
X16128500Y6854000D01*
X16128500Y16637500D01*
X23495500Y16637500D01*
X23495500Y14982000D01*
X23497332Y14944702D01*
X23502136Y14895929D01*
X23516687Y14822776D01*
X23530913Y14775878D01*
X23559460Y14706960D01*
X23582563Y14663738D01*
X23624000Y14601723D01*
X23655090Y14563839D01*
X23707839Y14511090D01*
X23745723Y14480000D01*
X23807738Y14438563D01*
X23850960Y14415460D01*
X23919878Y14386913D01*
X23966776Y14372687D01*
X24039929Y14358136D01*
X24088702Y14353332D01*
X24126000Y14351500D01*
X26166000Y14351500D01*
X26203298Y14353332D01*
X26252071Y14358136D01*
X26325224Y14372687D01*
X26372122Y14386913D01*
X26441040Y14415460D01*
X26484262Y14438563D01*
X26546277Y14480000D01*
X26584161Y14511090D01*
X26636910Y14563839D01*
X26668000Y14601723D01*
X26709437Y14663738D01*
X26732540Y14706960D01*
X26761087Y14775878D01*
X26775313Y14822776D01*
X26789864Y14895929D01*
X26794668Y14944702D01*
X26796500Y14982000D01*
X26796500Y18292000D01*
X26794668Y18329298D01*
X26789864Y18378071D01*
X26775313Y18451224D01*
X26761087Y18498122D01*
X26732540Y18567040D01*
X26709437Y18610262D01*
X26668000Y18672277D01*
X26636910Y18710161D01*
X26584161Y18762910D01*
X26546277Y18794000D01*
X26484262Y18835437D01*
X26441040Y18858540D01*
X26372122Y18887087D01*
X26325224Y18901313D01*
X26252071Y18915864D01*
X26203298Y18920668D01*
X26166000Y18922500D01*
X13334500Y18922500D01*
X13334500Y27656986D01*
X14481671Y27656986D01*
X14503992Y27535370D01*
X14549509Y27420405D01*
X14605500Y27333524D01*
X14605500Y24257000D01*
X14610075Y24210337D01*
X14614160Y24163645D01*
X14614905Y24161082D01*
X14615165Y24158426D01*
X14628708Y24113570D01*
X14641793Y24068531D01*
X14643022Y24066159D01*
X14643793Y24063607D01*
X14665795Y24022226D01*
X14687375Y23980595D01*
X14689039Y23978510D01*
X14690292Y23976154D01*
X14719907Y23939843D01*
X14749167Y23903189D01*
X14752834Y23899471D01*
X14752893Y23899398D01*
X14752960Y23899342D01*
X14754143Y23898143D01*
X16426926Y22225361D01*
X16463146Y22195609D01*
X16499062Y22165472D01*
X16501400Y22164187D01*
X16503463Y22162492D01*
X16544783Y22140337D01*
X16585857Y22117756D01*
X16588402Y22116949D01*
X16590753Y22115688D01*
X16635603Y22101975D01*
X16680268Y22087807D01*
X16682917Y22087510D01*
X16685471Y22086729D01*
X16732113Y22081991D01*
X16778697Y22076766D01*
X16783913Y22076730D01*
X16784011Y22076720D01*
X16784102Y22076729D01*
X16785783Y22076717D01*
X16919175Y22076717D01*
X16984699Y22031176D01*
X17098005Y21981674D01*
X17218768Y21955123D01*
X17342388Y21952533D01*
X17464157Y21974004D01*
X17579437Y22018718D01*
X17683836Y22084972D01*
X17773378Y22170242D01*
X17844652Y22271280D01*
X17894944Y22384237D01*
X17922338Y22504812D01*
X17924310Y22646041D01*
X17900294Y22767333D01*
X17853175Y22881651D01*
X17784750Y22984640D01*
X17697624Y23072376D01*
X17595115Y23141519D01*
X17481129Y23189435D01*
X17360007Y23214297D01*
X17236363Y23215161D01*
X17114905Y23191991D01*
X17000261Y23145672D01*
X16965070Y23122643D01*
X16020367Y24067347D01*
X16033654Y24072501D01*
X16138053Y24138755D01*
X16227595Y24224025D01*
X16298869Y24325063D01*
X16301506Y24330986D01*
X21339671Y24330986D01*
X21361992Y24209370D01*
X21407509Y24094405D01*
X21467041Y24002029D01*
X21415815Y23927216D01*
X21367105Y23813567D01*
X21341397Y23692621D01*
X21339671Y23568986D01*
X21361992Y23447370D01*
X21407509Y23332405D01*
X21467041Y23240029D01*
X21415815Y23165216D01*
X21367105Y23051567D01*
X21341397Y22930621D01*
X21339671Y22806986D01*
X21361992Y22685370D01*
X21407509Y22570405D01*
X21474490Y22466471D01*
X21560383Y22377527D01*
X21661916Y22306959D01*
X21775222Y22257457D01*
X21895985Y22230906D01*
X22019605Y22228316D01*
X22141374Y22249787D01*
X22256654Y22294501D01*
X22348045Y22352500D01*
X23882392Y22352500D01*
X23947916Y22306959D01*
X24061222Y22257457D01*
X24181985Y22230906D01*
X24305605Y22228316D01*
X24427374Y22249787D01*
X24542654Y22294501D01*
X24647053Y22360755D01*
X24736595Y22446025D01*
X24807869Y22547063D01*
X24858161Y22660020D01*
X24885555Y22780595D01*
X24887527Y22921824D01*
X24863511Y23043116D01*
X24816392Y23157434D01*
X24760379Y23241741D01*
X24807869Y23309063D01*
X24858161Y23422020D01*
X24885555Y23542595D01*
X24887527Y23683824D01*
X24863511Y23805116D01*
X24816392Y23919434D01*
X24760379Y24003741D01*
X24807869Y24071063D01*
X24858161Y24184020D01*
X24885555Y24304595D01*
X24887527Y24445824D01*
X24863511Y24567116D01*
X24816392Y24681434D01*
X24747967Y24784423D01*
X24660841Y24872159D01*
X24558332Y24941302D01*
X24444346Y24989218D01*
X24323224Y25014080D01*
X24199580Y25014944D01*
X24078122Y24991774D01*
X23963478Y24945455D01*
X23881027Y24891500D01*
X22346167Y24891500D01*
X22272332Y24941302D01*
X22158346Y24989218D01*
X22037224Y25014080D01*
X21913580Y25014944D01*
X21792122Y24991774D01*
X21677478Y24945455D01*
X21574015Y24877750D01*
X21485672Y24791239D01*
X21415815Y24689216D01*
X21367105Y24575567D01*
X21341397Y24454621D01*
X21339671Y24330986D01*
X16301506Y24330986D01*
X16349161Y24438020D01*
X16376555Y24558595D01*
X16378527Y24699824D01*
X16354511Y24821116D01*
X16307392Y24935434D01*
X16255500Y25013539D01*
X16255500Y28073583D01*
X16298869Y28135063D01*
X16349161Y28248020D01*
X16376555Y28368595D01*
X16378527Y28509824D01*
X16354511Y28631116D01*
X16307392Y28745434D01*
X16238967Y28848423D01*
X16151841Y28936159D01*
X16049332Y29005302D01*
X15935346Y29053218D01*
X15814224Y29078080D01*
X15690580Y29078944D01*
X15569122Y29055774D01*
X15454478Y29009455D01*
X15351015Y28941750D01*
X15262672Y28855239D01*
X15192815Y28753216D01*
X15144105Y28639567D01*
X15118397Y28518621D01*
X15116671Y28394986D01*
X15126681Y28340447D01*
X15055580Y28340944D01*
X14934122Y28317774D01*
X14819478Y28271455D01*
X14716015Y28203750D01*
X14627672Y28117239D01*
X14557815Y28015216D01*
X14509105Y27901567D01*
X14483397Y27780621D01*
X14481671Y27656986D01*
X13334500Y27656986D01*
X13334500Y30607500D01*
X28198000Y30607500D01*
X28235298Y30609332D01*
X28284071Y30614136D01*
X28357224Y30628687D01*
X28404122Y30642913D01*
X28473040Y30671460D01*
X28516262Y30694563D01*
X28578277Y30736000D01*
X28616161Y30767090D01*
X28668910Y30819839D01*
X28700000Y30857723D01*
X28741437Y30919738D01*
X28764540Y30962960D01*
X28793087Y31031878D01*
X28807313Y31078776D01*
X28821864Y31151929D01*
X28826668Y31200702D01*
X28828500Y31238000D01*
X28828500Y35310000D01*
X28826668Y35347298D01*
X28821864Y35396071D01*
X28807313Y35469224D01*
X28793087Y35516122D01*
X28764540Y35585040D01*
X28741437Y35628262D01*
X28700000Y35690277D01*
X28668910Y35728161D01*
X28616161Y35780910D01*
X28578277Y35812000D01*
X28516262Y35853437D01*
X28473040Y35876540D01*
X28404122Y35905087D01*
X28357224Y35919313D01*
X28284071Y35933864D01*
X28235298Y35938668D01*
X28198000Y35940500D01*
X27174000Y35940500D01*
X27136702Y35938668D01*
X27087929Y35933864D01*
X27014776Y35919313D01*
X26967878Y35905087D01*
X26898960Y35876540D01*
X26855738Y35853437D01*
X26793723Y35812000D01*
X26755839Y35780910D01*
X26703090Y35728161D01*
X26672000Y35690277D01*
X26630563Y35628262D01*
X26607460Y35585040D01*
X26578913Y35516122D01*
X26564687Y35469224D01*
X26550136Y35396071D01*
X26545332Y35347298D01*
X26543500Y35310000D01*
X26543500Y32892500D01*
X13334500Y32892500D01*
X13334500Y41914000D01*
X13332668Y41951298D01*
X13327864Y42000071D01*
X13313313Y42073224D01*
X13299087Y42120122D01*
X13270540Y42189040D01*
X13247437Y42232262D01*
X13206000Y42294277D01*
X13174910Y42332161D01*
X13122161Y42384910D01*
X13084277Y42416000D01*
X13022262Y42457437D01*
X12979040Y42480540D01*
X12910122Y42509087D01*
X12863224Y42523313D01*
X12790071Y42537864D01*
X12741298Y42542668D01*
X12704000Y42544500D01*
X11616500Y42544500D01*
X11579202Y42542668D01*
X11530429Y42537864D01*
X11457276Y42523313D01*
X11410378Y42509087D01*
X11341460Y42480540D01*
X11298238Y42457437D01*
X11236223Y42416000D01*
X11198339Y42384910D01*
X11145590Y42332161D01*
X11114500Y42294277D01*
X11073063Y42232262D01*
X11049960Y42189040D01*
X11021413Y42120122D01*
X11007187Y42073224D01*
X10992636Y42000071D01*
X10987832Y41951298D01*
X10986000Y41914000D01*
X4068299Y41914000D01*
X3947951Y42205987D01*
X3728023Y42537004D01*
X3447990Y42819000D01*
X3118516Y43041233D01*
X2752152Y43195238D01*
X2362852Y43275150D01*
X1965444Y43277924D01*
X1575067Y43203456D01*
X1206588Y43054581D01*
X874044Y42836970D01*
X590100Y42558912D01*
X455500Y42362334D01*
X455500Y47615334D01*
X510133Y47477347D01*
X746664Y47110323D01*
X1049979Y46796231D01*
X1408525Y46547035D01*
X1808645Y46372227D01*
X2235098Y46278465D01*
X2671641Y46269321D01*
X3101647Y46345142D01*
X3508736Y46503042D01*
X3877403Y46737005D01*
X4193605Y47038120D01*
X4445298Y47394917D01*
X4622895Y47793807D01*
X4626775Y47810886D01*
X10201295Y47810886D01*
X10220157Y47716056D01*
X10299969Y47485599D01*
X10423207Y47275140D01*
X10585136Y47092768D01*
X10779533Y46945491D01*
X10998927Y46838969D01*
X11234886Y46777295D01*
X11429500Y46857025D01*
X11429500Y48005500D01*
X11430500Y48005500D01*
X11430500Y46857025D01*
X11625114Y46777295D01*
X11861073Y46838969D01*
X12080467Y46945491D01*
X12274864Y47092768D01*
X12436793Y47275140D01*
X12560031Y47485599D01*
X12639843Y47716056D01*
X12658705Y47810886D01*
X12578975Y48005500D01*
X11430500Y48005500D01*
X11429500Y48005500D01*
X10281025Y48005500D01*
X10201295Y47810886D01*
X4626775Y47810886D01*
X4715432Y48201114D01*
X10201295Y48201114D01*
X10281025Y48006500D01*
X11429500Y48006500D01*
X11429500Y49154975D01*
X11430500Y49154975D01*
X11430500Y48006500D01*
X12578975Y48006500D01*
X12582328Y48014685D01*
X12719910Y48014685D01*
X12741916Y47772879D01*
X12810471Y47539952D01*
X12922962Y47324777D01*
X13075105Y47135549D01*
X13261105Y46979476D01*
X13473877Y46862504D01*
X13705317Y46789087D01*
X13946610Y46762021D01*
X13963980Y46761900D01*
X13976020Y46761900D01*
X14217667Y46785594D01*
X14450110Y46855772D01*
X14664494Y46969763D01*
X14852655Y47123223D01*
X15007426Y47310308D01*
X15122910Y47523892D01*
X15194710Y47755839D01*
X15220090Y47997315D01*
X15218510Y48014685D01*
X15259910Y48014685D01*
X15281916Y47772879D01*
X15304000Y47697845D01*
X15304000Y37334000D01*
X15305832Y37296702D01*
X15310636Y37247929D01*
X15325187Y37174776D01*
X15339413Y37127878D01*
X15367960Y37058960D01*
X15391063Y37015738D01*
X15432500Y36953723D01*
X15463590Y36915839D01*
X15516339Y36863090D01*
X15554223Y36832000D01*
X15616238Y36790563D01*
X15659460Y36767460D01*
X15728378Y36738913D01*
X15775276Y36724687D01*
X15848429Y36710136D01*
X15897202Y36705332D01*
X15934500Y36703500D01*
X29337500Y36703500D01*
X29337500Y22348000D01*
X29339332Y22310702D01*
X29344136Y22261929D01*
X29358687Y22188776D01*
X29372913Y22141878D01*
X29401460Y22072960D01*
X29424563Y22029738D01*
X29466000Y21967723D01*
X29497090Y21929839D01*
X29549839Y21877090D01*
X29587723Y21846000D01*
X29649738Y21804563D01*
X29692960Y21781460D01*
X29761878Y21752913D01*
X29808776Y21738687D01*
X29881929Y21724136D01*
X29930702Y21719332D01*
X29968000Y21717500D01*
X30992000Y21717500D01*
X31029298Y21719332D01*
X31078071Y21724136D01*
X31151224Y21738687D01*
X31198122Y21752913D01*
X31267040Y21781460D01*
X31310262Y21804563D01*
X31372277Y21846000D01*
X31410161Y21877090D01*
X31462910Y21929839D01*
X31494000Y21967723D01*
X31535437Y22029738D01*
X31558540Y22072960D01*
X31587087Y22141878D01*
X31601313Y22188776D01*
X31615864Y22261929D01*
X31620668Y22310702D01*
X31622500Y22348000D01*
X31622500Y27116194D01*
X36464571Y27116194D01*
X36482799Y26915904D01*
X36539583Y26722968D01*
X36632760Y26544736D01*
X36758782Y26387997D01*
X36912848Y26258721D01*
X37089089Y26161831D01*
X37280793Y26101019D01*
X37480658Y26078600D01*
X37495046Y26078500D01*
X37906954Y26078500D01*
X38107112Y26098126D01*
X38299647Y26156255D01*
X38477224Y26250675D01*
X38633080Y26377787D01*
X38761277Y26532752D01*
X38856934Y26709665D01*
X38916406Y26901789D01*
X38937429Y27101806D01*
X38919201Y27302096D01*
X38862417Y27495032D01*
X38769240Y27673264D01*
X38643218Y27830003D01*
X38489152Y27959279D01*
X38312911Y28056169D01*
X38121207Y28116981D01*
X37921342Y28139400D01*
X37906954Y28139500D01*
X37495046Y28139500D01*
X37294888Y28119874D01*
X37102353Y28061745D01*
X36924776Y27967325D01*
X36768920Y27840213D01*
X36640723Y27685248D01*
X36545066Y27508335D01*
X36485594Y27316211D01*
X36464571Y27116194D01*
X31622500Y27116194D01*
X31622500Y28226557D01*
X34069211Y28226557D01*
X34103923Y28037430D01*
X34174708Y27858647D01*
X34278871Y27697018D01*
X34412444Y27558699D01*
X34570339Y27448959D01*
X34746543Y27371977D01*
X34934343Y27330687D01*
X35126587Y27326660D01*
X35315952Y27360050D01*
X35495224Y27429585D01*
X35657577Y27532617D01*
X35796825Y27665221D01*
X35907665Y27822347D01*
X35985874Y27998009D01*
X36028475Y28185516D01*
X36031542Y28405143D01*
X35994193Y28593767D01*
X35920919Y28771544D01*
X35814509Y28931703D01*
X35679018Y29068144D01*
X35519606Y29175668D01*
X35342345Y29250182D01*
X35153986Y29288847D01*
X34961705Y29290189D01*
X34772825Y29254158D01*
X34594540Y29182127D01*
X34433642Y29076838D01*
X34296259Y28942303D01*
X34187624Y28783645D01*
X34111875Y28606908D01*
X34071896Y28418824D01*
X34069211Y28226557D01*
X31622500Y28226557D01*
X31622500Y33076557D01*
X34069211Y33076557D01*
X34103923Y32887430D01*
X34174708Y32708647D01*
X34278871Y32547018D01*
X34412444Y32408699D01*
X34570339Y32298959D01*
X34746543Y32221977D01*
X34934343Y32180687D01*
X35126587Y32176660D01*
X35315952Y32210050D01*
X35495224Y32279585D01*
X35657577Y32382617D01*
X35796825Y32515221D01*
X35907665Y32672347D01*
X35985874Y32848009D01*
X36028475Y33035516D01*
X36031542Y33255143D01*
X35994193Y33443767D01*
X35920919Y33621544D01*
X35814509Y33781703D01*
X35679018Y33918144D01*
X35519606Y34025668D01*
X35342345Y34100182D01*
X35153986Y34138847D01*
X34961705Y34140189D01*
X34772825Y34104158D01*
X34594540Y34032127D01*
X34433642Y33926838D01*
X34296259Y33792303D01*
X34187624Y33633645D01*
X34111875Y33456908D01*
X34071896Y33268824D01*
X34069211Y33076557D01*
X31622500Y33076557D01*
X31622500Y34366194D01*
X36464571Y34366194D01*
X36482799Y34165904D01*
X36539583Y33972968D01*
X36632760Y33794736D01*
X36758782Y33637997D01*
X36912848Y33508721D01*
X37089089Y33411831D01*
X37280793Y33351019D01*
X37480658Y33328600D01*
X37495046Y33328500D01*
X37906954Y33328500D01*
X38107112Y33348126D01*
X38299647Y33406255D01*
X38477224Y33500675D01*
X38633080Y33627787D01*
X38761277Y33782752D01*
X38856934Y33959665D01*
X38916406Y34151789D01*
X38937429Y34351806D01*
X38919201Y34552096D01*
X38862417Y34745032D01*
X38769240Y34923264D01*
X38643218Y35080003D01*
X38489152Y35209279D01*
X38312911Y35306169D01*
X38121207Y35366981D01*
X37921342Y35389400D01*
X37906954Y35389500D01*
X37495046Y35389500D01*
X37294888Y35369874D01*
X37102353Y35311745D01*
X36924776Y35217325D01*
X36768920Y35090213D01*
X36640723Y34935248D01*
X36545066Y34758335D01*
X36485594Y34566211D01*
X36464571Y34366194D01*
X31622500Y34366194D01*
X31622500Y38358000D01*
X31620668Y38395298D01*
X31615864Y38444071D01*
X31601313Y38517224D01*
X31587087Y38564122D01*
X31558540Y38633040D01*
X31535437Y38676262D01*
X31494000Y38738277D01*
X31462910Y38776161D01*
X31410161Y38828910D01*
X31372277Y38860000D01*
X31310262Y38901437D01*
X31267040Y38924540D01*
X31198122Y38953087D01*
X31151224Y38967313D01*
X31078071Y38981864D01*
X31029298Y38986668D01*
X30992000Y38988500D01*
X17716000Y38988500D01*
X17716000Y47695397D01*
X17734710Y47755839D01*
X17760090Y47997315D01*
X17758510Y48014685D01*
X17799910Y48014685D01*
X17821916Y47772879D01*
X17890471Y47539952D01*
X18002962Y47324777D01*
X18155105Y47135549D01*
X18341105Y46979476D01*
X18553877Y46862504D01*
X18785317Y46789087D01*
X19026610Y46762021D01*
X19043980Y46761900D01*
X19056020Y46761900D01*
X19297667Y46785594D01*
X19530110Y46855772D01*
X19744494Y46969763D01*
X19932655Y47123223D01*
X20087426Y47310308D01*
X20202910Y47523892D01*
X20274710Y47755839D01*
X20300090Y47997315D01*
X20298510Y48014685D01*
X20339910Y48014685D01*
X20361916Y47772879D01*
X20430471Y47539952D01*
X20542962Y47324777D01*
X20695105Y47135549D01*
X20881105Y46979476D01*
X21093877Y46862504D01*
X21325317Y46789087D01*
X21566610Y46762021D01*
X21583980Y46761900D01*
X21596020Y46761900D01*
X21837667Y46785594D01*
X22070110Y46855772D01*
X22284494Y46969763D01*
X22472655Y47123223D01*
X22627426Y47310308D01*
X22742910Y47523892D01*
X22814710Y47755839D01*
X22840090Y47997315D01*
X22838510Y48014685D01*
X22879910Y48014685D01*
X22901916Y47772879D01*
X22970471Y47539952D01*
X23082962Y47324777D01*
X23235105Y47135549D01*
X23421105Y46979476D01*
X23633877Y46862504D01*
X23865317Y46789087D01*
X24106610Y46762021D01*
X24123980Y46761900D01*
X24136020Y46761900D01*
X24377667Y46785594D01*
X24610110Y46855772D01*
X24824494Y46969763D01*
X25012655Y47123223D01*
X25167426Y47310308D01*
X25282910Y47523892D01*
X25354710Y47755839D01*
X25380090Y47997315D01*
X25358084Y48239121D01*
X25289529Y48472048D01*
X25177038Y48687223D01*
X25024895Y48876451D01*
X24838895Y49032524D01*
X24626123Y49149496D01*
X24394683Y49222913D01*
X24153390Y49249979D01*
X24136020Y49250100D01*
X24123980Y49250100D01*
X23882333Y49226406D01*
X23649890Y49156228D01*
X23435506Y49042237D01*
X23247345Y48888777D01*
X23092574Y48701692D01*
X22977090Y48488108D01*
X22905290Y48256161D01*
X22879910Y48014685D01*
X22838510Y48014685D01*
X22818084Y48239121D01*
X22749529Y48472048D01*
X22637038Y48687223D01*
X22484895Y48876451D01*
X22298895Y49032524D01*
X22086123Y49149496D01*
X21854683Y49222913D01*
X21613390Y49249979D01*
X21596020Y49250100D01*
X21583980Y49250100D01*
X21342333Y49226406D01*
X21109890Y49156228D01*
X20895506Y49042237D01*
X20707345Y48888777D01*
X20552574Y48701692D01*
X20437090Y48488108D01*
X20365290Y48256161D01*
X20339910Y48014685D01*
X20298510Y48014685D01*
X20278084Y48239121D01*
X20209529Y48472048D01*
X20097038Y48687223D01*
X19944895Y48876451D01*
X19758895Y49032524D01*
X19546123Y49149496D01*
X19314683Y49222913D01*
X19073390Y49249979D01*
X19056020Y49250100D01*
X19043980Y49250100D01*
X18802333Y49226406D01*
X18569890Y49156228D01*
X18355506Y49042237D01*
X18167345Y48888777D01*
X18012574Y48701692D01*
X17897090Y48488108D01*
X17825290Y48256161D01*
X17799910Y48014685D01*
X17758510Y48014685D01*
X17738084Y48239121D01*
X17716000Y48314155D01*
X17716000Y48772000D01*
X17714168Y48809298D01*
X17709364Y48858071D01*
X17694813Y48931224D01*
X17680587Y48978122D01*
X17652040Y49047040D01*
X17628937Y49090262D01*
X17587500Y49152277D01*
X17556410Y49190161D01*
X17503661Y49242910D01*
X17465777Y49274000D01*
X17403762Y49315437D01*
X17360540Y49338540D01*
X17291622Y49367087D01*
X17244724Y49381313D01*
X17171571Y49395864D01*
X17122798Y49400668D01*
X17085500Y49402500D01*
X15934500Y49402500D01*
X15897202Y49400668D01*
X15848429Y49395864D01*
X15775276Y49381313D01*
X15728378Y49367087D01*
X15659460Y49338540D01*
X15616238Y49315437D01*
X15554223Y49274000D01*
X15516339Y49242910D01*
X15463590Y49190161D01*
X15432500Y49152277D01*
X15391063Y49090262D01*
X15367960Y49047040D01*
X15339413Y48978122D01*
X15325187Y48931224D01*
X15310636Y48858071D01*
X15305832Y48809298D01*
X15304000Y48772000D01*
X15304000Y48316603D01*
X15285290Y48256161D01*
X15259910Y48014685D01*
X15218510Y48014685D01*
X15198084Y48239121D01*
X15129529Y48472048D01*
X15017038Y48687223D01*
X14864895Y48876451D01*
X14678895Y49032524D01*
X14466123Y49149496D01*
X14234683Y49222913D01*
X13993390Y49249979D01*
X13976020Y49250100D01*
X13963980Y49250100D01*
X13722333Y49226406D01*
X13489890Y49156228D01*
X13275506Y49042237D01*
X13087345Y48888777D01*
X12932574Y48701692D01*
X12817090Y48488108D01*
X12745290Y48256161D01*
X12719910Y48014685D01*
X12582328Y48014685D01*
X12658705Y48201114D01*
X12639843Y48295944D01*
X12560031Y48526401D01*
X12436793Y48736860D01*
X12274864Y48919232D01*
X12080467Y49066509D01*
X11861073Y49173031D01*
X11625114Y49234705D01*
X11430500Y49154975D01*
X11429500Y49154975D01*
X11234886Y49234705D01*
X10998927Y49173031D01*
X10779533Y49066509D01*
X10585136Y48919232D01*
X10423207Y48736860D01*
X10299969Y48526401D01*
X10220157Y48295944D01*
X10201295Y48201114D01*
X4715432Y48201114D01*
X4719631Y48219595D01*
X4726595Y48718320D01*
X4641785Y49146643D01*
X4475395Y49550336D01*
X4233762Y49914022D01*
X3926091Y50223848D01*
X3564101Y50468014D01*
X3382148Y50544500D01*
X30819040Y50544500D01*
X30790648Y50533029D01*
X30790648Y50533029D01*
G37*
X30790648Y50533029D02*
X30662569Y50449217D01*
X30553209Y50342124D01*
X30466733Y50215828D01*
X30406434Y50075142D01*
X30374611Y49925423D01*
X30372474Y49772373D01*
X30400105Y49621824D01*
X30456451Y49479509D01*
X30539367Y49350848D01*
X30645694Y49240743D01*
X30771383Y49153387D01*
X30911645Y49092108D01*
X31061138Y49059240D01*
X31214169Y49056034D01*
X31364908Y49082614D01*
X31507613Y49137965D01*
X31636849Y49219981D01*
X31747694Y49325537D01*
X31835925Y49450613D01*
X31898182Y49590444D01*
X31932093Y49739704D01*
X31934534Y49914532D01*
X31904804Y50064681D01*
X31846475Y50206196D01*
X31761771Y50333686D01*
X31653917Y50442296D01*
X31527021Y50527888D01*
X31487503Y50544500D01*
X32519040Y50544500D01*
X32490648Y50533029D01*
X32362569Y50449217D01*
X32253209Y50342124D01*
X32166733Y50215828D01*
X32106434Y50075142D01*
X32074611Y49925423D01*
X32072474Y49772373D01*
X32100105Y49621824D01*
X32156451Y49479509D01*
X32239367Y49350848D01*
X32345694Y49240743D01*
X32471383Y49153387D01*
X32611645Y49092108D01*
X32761138Y49059240D01*
X32914169Y49056034D01*
X33064908Y49082614D01*
X33207613Y49137965D01*
X33336849Y49219981D01*
X33447694Y49325537D01*
X33535925Y49450613D01*
X33598182Y49590444D01*
X33632093Y49739704D01*
X33634534Y49914532D01*
X33604804Y50064681D01*
X33546475Y50206196D01*
X33461771Y50333686D01*
X33353917Y50442296D01*
X33227021Y50527888D01*
X33187503Y50544500D01*
X36616492Y50544500D01*
X36463480Y50482679D01*
X36098116Y50243592D01*
X35786149Y49938091D01*
X35539463Y49577814D01*
X35367452Y49176484D01*
X35276670Y48749386D01*
X35270573Y48312790D01*
X35349395Y47883324D01*
X35510133Y47477347D01*
X35746664Y47110323D01*
X36049979Y46796231D01*
X36408525Y46547035D01*
X36808645Y46372227D01*
X37235098Y46278465D01*
X37671641Y46269321D01*
X38101647Y46345142D01*
X38508736Y46503042D01*
X38877403Y46737005D01*
X39193605Y47038120D01*
X39445298Y47394917D01*
X39544500Y47617729D01*
X39544500Y42361693D01*
X39428023Y42537004D01*
X39147990Y42819000D01*
X38818516Y43041233D01*
X38452152Y43195238D01*
X38062852Y43275150D01*
X37665444Y43277924D01*
X37275067Y43203456D01*
X36906588Y43054581D01*
X36574044Y42836970D01*
X36290100Y42558912D01*
X36065572Y42230997D01*
X35909013Y41865717D01*
X35826385Y41476985D01*
X35820837Y41079606D01*
X35892578Y40688718D01*
X36038877Y40319209D01*
X36254161Y39985154D01*
X36530230Y39699276D01*
X36856569Y39472464D01*
X37220747Y39313359D01*
X37608893Y39228019D01*
X38006223Y39219696D01*
X38397603Y39288707D01*
X38768124Y39432423D01*
X39103675Y39645370D01*
X39391473Y39919436D01*
X39544500Y40136366D01*
X39544500Y12770762D01*
X39297990Y13019000D01*
X38968516Y13241233D01*
X38602152Y13395238D01*
X38212852Y13475150D01*
X37815444Y13477924D01*
X37425067Y13403456D01*
X37056588Y13254581D01*
X36724044Y13036970D01*
X36440100Y12758912D01*
X36215572Y12430997D01*
X36059013Y12065717D01*
X35976385Y11676985D01*
X35970837Y11279606D01*
X36042578Y10888718D01*
X36188877Y10519209D01*
X36404161Y10185154D01*
X36680230Y9899276D01*
X37006569Y9672464D01*
X37370747Y9513359D01*
X37758893Y9428019D01*
X38156223Y9419696D01*
X38547603Y9488707D01*
X38918124Y9632423D01*
X39253675Y9845370D01*
X39541473Y10119436D01*
X39544500Y10123727D01*
X39544500Y3382674D01*
X39475395Y3550336D01*
X39233762Y3914022D01*
X38926091Y4223848D01*
X38564101Y4468014D01*
X38161580Y4637218D01*
X37733859Y4725017D01*
X37297230Y4728065D01*
X36868325Y4646247D01*
X36463480Y4482679D01*
X36098116Y4243592D01*
X35786149Y3938091D01*
X35539463Y3577814D01*
X35367452Y3176484D01*
X35276670Y2749386D01*
X35270573Y2312790D01*
X35349395Y1883324D01*
X35510133Y1477347D01*
X35746664Y1110323D01*
X36049979Y796231D01*
X36408525Y547035D01*
X36618040Y455500D01*
X3386166Y455500D01*
X3508736Y503042D01*
X3877403Y737005D01*
X4193605Y1038120D01*
X4445298Y1394917D01*
X4622895Y1793807D01*
X4719631Y2219595D01*
X4726595Y2718320D01*
X4641785Y3146643D01*
X4475395Y3550336D01*
X4233762Y3914022D01*
X3926091Y4223848D01*
X3564101Y4468014D01*
X3161580Y4637218D01*
X2733859Y4725017D01*
X2297230Y4728065D01*
X1868325Y4646247D01*
X1463480Y4482679D01*
X1098116Y4243592D01*
X786149Y3938091D01*
X539463Y3577814D01*
X455500Y3381914D01*
X455500Y6240314D01*
X6313785Y6240314D01*
X6359967Y5988691D01*
X6454142Y5750831D01*
X6592725Y5535792D01*
X6770437Y5351766D01*
X6980508Y5205763D01*
X7214937Y5103344D01*
X7464795Y5048409D01*
X7720564Y5043051D01*
X7972503Y5087475D01*
X8211016Y5179988D01*
X8427016Y5317066D01*
X8612278Y5493488D01*
X8759744Y5702535D01*
X8863798Y5936243D01*
X8920476Y6185712D01*
X8921238Y6240314D01*
X9813785Y6240314D01*
X9859967Y5988691D01*
X9954142Y5750831D01*
X10092725Y5535792D01*
X10270437Y5351766D01*
X10480508Y5205763D01*
X10714937Y5103344D01*
X10964795Y5048409D01*
X11220564Y5043051D01*
X11472503Y5087475D01*
X11711016Y5179988D01*
X11927016Y5317066D01*
X12112278Y5493488D01*
X12259744Y5702535D01*
X12363798Y5936243D01*
X12420476Y6185712D01*
X12424556Y6477913D01*
X12374866Y6728866D01*
X12277378Y6965389D01*
X12135807Y7178472D01*
X11955543Y7359998D01*
X11743454Y7503054D01*
X11507618Y7602190D01*
X11257017Y7653631D01*
X11001198Y7655417D01*
X10749903Y7607480D01*
X10512706Y7511646D01*
X10298640Y7371566D01*
X10115860Y7192574D01*
X9971327Y6981488D01*
X9870546Y6746350D01*
X9817357Y6496115D01*
X9813785Y6240314D01*
X8921238Y6240314D01*
X8924556Y6477913D01*
X8874866Y6728866D01*
X8777378Y6965389D01*
X8635807Y7178472D01*
X8455543Y7359998D01*
X8243454Y7503054D01*
X8007618Y7602190D01*
X7757017Y7653631D01*
X7501198Y7655417D01*
X7249903Y7607480D01*
X7012706Y7511646D01*
X6798640Y7371566D01*
X6615860Y7192574D01*
X6471327Y6981488D01*
X6370546Y6746350D01*
X6317357Y6496115D01*
X6313785Y6240314D01*
X455500Y6240314D01*
X455500Y10131991D01*
X680230Y9899276D01*
X1006569Y9672464D01*
X1370747Y9513359D01*
X1758893Y9428019D01*
X2156223Y9419696D01*
X2547603Y9488707D01*
X2918124Y9632423D01*
X3253675Y9845370D01*
X3541473Y10119436D01*
X3770557Y10444184D01*
X3851945Y10626986D01*
X5984671Y10626986D01*
X6006992Y10505370D01*
X6052509Y10390405D01*
X6119490Y10286471D01*
X6205383Y10197527D01*
X6306916Y10126959D01*
X6420222Y10077457D01*
X6540985Y10050906D01*
X6664605Y10048316D01*
X6786374Y10069787D01*
X6901654Y10114501D01*
X6993045Y10172500D01*
X7378000Y10172500D01*
X7424663Y10177075D01*
X7471355Y10181160D01*
X7473918Y10181905D01*
X7476574Y10182165D01*
X7521430Y10195708D01*
X7566469Y10208793D01*
X7568841Y10210022D01*
X7571393Y10210793D01*
X7612774Y10232795D01*
X7654405Y10254375D01*
X7656490Y10256039D01*
X7658846Y10257292D01*
X7695157Y10286907D01*
X7731811Y10316167D01*
X7735529Y10319834D01*
X7735602Y10319893D01*
X7735658Y10319960D01*
X7736857Y10321143D01*
X7978857Y10563144D01*
X8008612Y10599368D01*
X8038745Y10635279D01*
X8040030Y10637617D01*
X8041725Y10639680D01*
X8063880Y10681000D01*
X8086461Y10722074D01*
X8087268Y10724619D01*
X8088529Y10726970D01*
X8102238Y10771808D01*
X8116410Y10816485D01*
X8116707Y10819136D01*
X8117488Y10821689D01*
X8122224Y10868320D01*
X8127451Y10914914D01*
X8127487Y10920131D01*
X8127497Y10920229D01*
X8127488Y10920320D01*
X8127500Y10922000D01*
X8127500Y14013786D01*
X8222041Y14108328D01*
X8298374Y14121787D01*
X8413654Y14166501D01*
X8518053Y14232755D01*
X8607595Y14318025D01*
X8678869Y14419063D01*
X8729161Y14532020D01*
X8756555Y14652595D01*
X8758527Y14793824D01*
X8734511Y14915116D01*
X8687392Y15029434D01*
X8618967Y15132423D01*
X8531841Y15220159D01*
X8429332Y15289302D01*
X8315346Y15337218D01*
X8194224Y15362080D01*
X8070580Y15362944D01*
X7949122Y15339774D01*
X7834478Y15293455D01*
X7731015Y15225750D01*
X7642672Y15139239D01*
X7572815Y15037216D01*
X7524105Y14923567D01*
X7503118Y14824832D01*
X7261143Y14582857D01*
X7231367Y14546607D01*
X7201255Y14510721D01*
X7199970Y14508383D01*
X7198275Y14506320D01*
X7176120Y14465000D01*
X7153539Y14423926D01*
X7152732Y14421381D01*
X7151471Y14419030D01*
X7137758Y14374180D01*
X7123590Y14329515D01*
X7123293Y14326866D01*
X7122512Y14324312D01*
X7117775Y14277675D01*
X7112549Y14231086D01*
X7112513Y14225869D01*
X7112503Y14225771D01*
X7112512Y14225680D01*
X7112500Y14224000D01*
X7112500Y11187500D01*
X6991167Y11187500D01*
X6917332Y11237302D01*
X6803346Y11285218D01*
X6682224Y11310080D01*
X6558580Y11310944D01*
X6437122Y11287774D01*
X6322478Y11241455D01*
X6219015Y11173750D01*
X6130672Y11087239D01*
X6060815Y10985216D01*
X6012105Y10871567D01*
X5986397Y10750621D01*
X5984671Y10626986D01*
X3851945Y10626986D01*
X3932201Y10807242D01*
X4020248Y11194783D01*
X4026587Y11648709D01*
X3949394Y12038557D01*
X3797951Y12405987D01*
X3578023Y12737004D01*
X3297990Y13019000D01*
X2968516Y13241233D01*
X2602152Y13395238D01*
X2212852Y13475150D01*
X1815444Y13477924D01*
X1425067Y13403456D01*
X1056588Y13254581D01*
X724044Y13036970D01*
X455500Y12773993D01*
X455500Y20759886D01*
X549295Y20759886D01*
X610969Y20523927D01*
X717491Y20304533D01*
X864768Y20110136D01*
X1047140Y19948207D01*
X1257599Y19824969D01*
X1488056Y19745157D01*
X1582886Y19726295D01*
X1777500Y19806025D01*
X1777500Y20954500D01*
X1778500Y20954500D01*
X1778500Y19806025D01*
X1973114Y19726295D01*
X2067944Y19745157D01*
X2298401Y19824969D01*
X2508860Y19948207D01*
X2691232Y20110136D01*
X2838509Y20304533D01*
X2945031Y20523927D01*
X3006705Y20759886D01*
X2926975Y20954500D01*
X1778500Y20954500D01*
X1777500Y20954500D01*
X629025Y20954500D01*
X549295Y20759886D01*
X455500Y20759886D01*
X455500Y21150114D01*
X549295Y21150114D01*
X629025Y20955500D01*
X1777500Y20955500D01*
X1777500Y22103975D01*
X1778500Y22103975D01*
X1778500Y20955500D01*
X2926975Y20955500D01*
X2929236Y20961020D01*
X3073900Y20961020D01*
X3073900Y20948980D01*
X3097594Y20707333D01*
X3167772Y20474890D01*
X3281763Y20260506D01*
X3435223Y20072345D01*
X3622308Y19917574D01*
X3835892Y19802090D01*
X4067839Y19730290D01*
X4309315Y19704910D01*
X4551121Y19726916D01*
X4784048Y19795471D01*
X4999223Y19907962D01*
X5188451Y20060105D01*
X5344524Y20246105D01*
X5461496Y20458877D01*
X5534913Y20690317D01*
X5561979Y20931610D01*
X5562100Y20948980D01*
X5562100Y20961020D01*
X5538406Y21202667D01*
X5468228Y21435110D01*
X5354237Y21649494D01*
X5200777Y21837655D01*
X5013692Y21992426D01*
X4800108Y22107910D01*
X4568161Y22179710D01*
X4326685Y22205090D01*
X4084879Y22183084D01*
X3851952Y22114529D01*
X3636777Y22002038D01*
X3447549Y21849895D01*
X3291476Y21663895D01*
X3174504Y21451123D01*
X3101087Y21219683D01*
X3074021Y20978390D01*
X3073900Y20961020D01*
X2929236Y20961020D01*
X3006705Y21150114D01*
X2945031Y21386073D01*
X2838509Y21605467D01*
X2691232Y21799864D01*
X2508860Y21961793D01*
X2298401Y22085031D01*
X2067944Y22164843D01*
X1973114Y22183705D01*
X1778500Y22103975D01*
X1777500Y22103975D01*
X1582886Y22183705D01*
X1488056Y22164843D01*
X1257599Y22085031D01*
X1047140Y21961793D01*
X864768Y21799864D01*
X717491Y21605467D01*
X610969Y21386073D01*
X549295Y21150114D01*
X455500Y21150114D01*
X455500Y23501020D01*
X533900Y23501020D01*
X533900Y23488980D01*
X557594Y23247333D01*
X627772Y23014890D01*
X741763Y22800506D01*
X895223Y22612345D01*
X1082308Y22457574D01*
X1295892Y22342090D01*
X1527839Y22270290D01*
X1769315Y22244910D01*
X2011121Y22266916D01*
X2244048Y22335471D01*
X2459223Y22447962D01*
X2648451Y22600105D01*
X2804524Y22786105D01*
X2921496Y22998877D01*
X2994913Y23230317D01*
X3021979Y23471610D01*
X3022100Y23488980D01*
X3022100Y23501020D01*
X2998406Y23742667D01*
X2939266Y23938552D01*
X3283613Y24282899D01*
X3357768Y24282899D01*
X3291476Y24203895D01*
X3174504Y23991123D01*
X3101087Y23759683D01*
X3074021Y23518390D01*
X3073900Y23501020D01*
X3073900Y23488980D01*
X3097594Y23247333D01*
X3167772Y23014890D01*
X3281763Y22800506D01*
X3435223Y22612345D01*
X3622308Y22457574D01*
X3835892Y22342090D01*
X4067839Y22270290D01*
X4309315Y22244910D01*
X4551121Y22266916D01*
X4765325Y22329961D01*
X5864143Y21231143D01*
X5900393Y21201367D01*
X5936279Y21171255D01*
X5938617Y21169970D01*
X5940680Y21168275D01*
X5982000Y21146120D01*
X6023074Y21123539D01*
X6025619Y21122732D01*
X6027970Y21121471D01*
X6072808Y21107762D01*
X6117485Y21093590D01*
X6120136Y21093293D01*
X6122689Y21092512D01*
X6169320Y21087776D01*
X6215914Y21082549D01*
X6221131Y21082513D01*
X6221229Y21082503D01*
X6221320Y21082512D01*
X6223000Y21082500D01*
X9652000Y21082500D01*
X9698663Y21087075D01*
X9745355Y21091160D01*
X9747918Y21091905D01*
X9750574Y21092165D01*
X9795430Y21105708D01*
X9840469Y21118793D01*
X9842841Y21120022D01*
X9845393Y21120793D01*
X9886774Y21142795D01*
X9928405Y21164375D01*
X9930490Y21166039D01*
X9932846Y21167292D01*
X9969157Y21196907D01*
X10005811Y21226167D01*
X10009529Y21229834D01*
X10009602Y21229893D01*
X10009658Y21229960D01*
X10010857Y21231143D01*
X10660857Y21881143D01*
X10690633Y21917393D01*
X10720745Y21953279D01*
X10722030Y21955617D01*
X10723725Y21957680D01*
X10745880Y21999000D01*
X10768461Y22040074D01*
X10769268Y22042619D01*
X10770529Y22044970D01*
X10784238Y22089808D01*
X10798410Y22134485D01*
X10798707Y22137136D01*
X10799488Y22139689D01*
X10804224Y22186320D01*
X10809451Y22232914D01*
X10809487Y22238131D01*
X10809497Y22238229D01*
X10809488Y22238320D01*
X10809500Y22240000D01*
X10809500Y22343583D01*
X10852869Y22405063D01*
X10903161Y22518020D01*
X10930555Y22638595D01*
X10932527Y22779824D01*
X10908511Y22901116D01*
X10861392Y23015434D01*
X10809500Y23093539D01*
X10809500Y24665847D01*
X10837869Y24706063D01*
X10888161Y24819020D01*
X10915555Y24939595D01*
X10917527Y25080824D01*
X10893511Y25202116D01*
X10846392Y25316434D01*
X10777967Y25419423D01*
X10690841Y25507159D01*
X10588332Y25576302D01*
X10474346Y25624218D01*
X10353224Y25649080D01*
X10229580Y25649944D01*
X10108122Y25626774D01*
X9993478Y25580455D01*
X9890015Y25512750D01*
X9842497Y25466218D01*
X9801841Y25507159D01*
X9699332Y25576302D01*
X9585346Y25624218D01*
X9464224Y25649080D01*
X9340580Y25649944D01*
X9219122Y25626774D01*
X9104478Y25580455D01*
X9001015Y25512750D01*
X8912672Y25426239D01*
X8842815Y25324216D01*
X8794105Y25210567D01*
X8768397Y25089621D01*
X8766671Y24965986D01*
X8788992Y24844370D01*
X8834509Y24729405D01*
X8890500Y24642524D01*
X8890500Y24340214D01*
X8680956Y24130670D01*
X8653332Y24149302D01*
X8539346Y24197218D01*
X8418224Y24222080D01*
X8294580Y24222944D01*
X8173122Y24199774D01*
X8058478Y24153455D01*
X7955015Y24085750D01*
X7866672Y23999239D01*
X7796815Y23897216D01*
X7748105Y23783567D01*
X7722397Y23662621D01*
X7720671Y23538986D01*
X7742992Y23417370D01*
X7788509Y23302405D01*
X7855490Y23198471D01*
X7937546Y23113500D01*
X7068214Y23113500D01*
X6603500Y23578214D01*
X6603500Y24384000D01*
X6598925Y24430663D01*
X6594840Y24477355D01*
X6594095Y24479918D01*
X6593835Y24482574D01*
X6580288Y24527444D01*
X6567207Y24572468D01*
X6565978Y24574839D01*
X6565207Y24577393D01*
X6543205Y24618774D01*
X6521626Y24660404D01*
X6519961Y24662490D01*
X6518708Y24664846D01*
X6489098Y24701151D01*
X6459833Y24737811D01*
X6456170Y24741525D01*
X6456107Y24741602D01*
X6456036Y24741661D01*
X6454857Y24742856D01*
X5509020Y25688693D01*
X5534913Y25770317D01*
X5561979Y26011610D01*
X5562100Y26028980D01*
X5562100Y26041020D01*
X5538406Y26282667D01*
X5468228Y26515110D01*
X5354237Y26729494D01*
X5200777Y26917655D01*
X5013692Y27072426D01*
X4800108Y27187910D01*
X4568161Y27259710D01*
X4326685Y27285090D01*
X4084879Y27263084D01*
X3851952Y27194529D01*
X3636777Y27082038D01*
X3447549Y26929895D01*
X3291476Y26743895D01*
X3174504Y26531123D01*
X3101087Y26299683D01*
X3074021Y26058390D01*
X3073900Y26041020D01*
X3073900Y26028980D01*
X3097594Y25787333D01*
X3167772Y25554890D01*
X3281763Y25340506D01*
X3316512Y25297899D01*
X3073399Y25297899D01*
X3026736Y25293324D01*
X2980044Y25289239D01*
X2977481Y25288494D01*
X2974825Y25288234D01*
X2929969Y25274691D01*
X2884930Y25261606D01*
X2882558Y25260377D01*
X2880006Y25259606D01*
X2838604Y25237593D01*
X2796995Y25216024D01*
X2794912Y25214361D01*
X2792553Y25213107D01*
X2756220Y25183475D01*
X2719588Y25154232D01*
X2715870Y25150565D01*
X2715797Y25150506D01*
X2715741Y25150439D01*
X2714542Y25149256D01*
X2224285Y24658999D01*
X2028161Y24719710D01*
X1786685Y24745090D01*
X1544879Y24723084D01*
X1311952Y24654529D01*
X1096777Y24542038D01*
X907549Y24389895D01*
X751476Y24203895D01*
X634504Y23991123D01*
X561087Y23759683D01*
X534021Y23518390D01*
X533900Y23501020D01*
X455500Y23501020D01*
X455500Y26041020D01*
X533900Y26041020D01*
X533900Y26028980D01*
X557594Y25787333D01*
X627772Y25554890D01*
X741763Y25340506D01*
X895223Y25152345D01*
X1082308Y24997574D01*
X1295892Y24882090D01*
X1527839Y24810290D01*
X1769315Y24784910D01*
X2011121Y24806916D01*
X2244048Y24875471D01*
X2459223Y24987962D01*
X2648451Y25140105D01*
X2804524Y25326105D01*
X2921496Y25538877D01*
X2994913Y25770317D01*
X3021979Y26011610D01*
X3022100Y26028980D01*
X3022100Y26041020D01*
X2998406Y26282667D01*
X2928228Y26515110D01*
X2814237Y26729494D01*
X2660777Y26917655D01*
X2473692Y27072426D01*
X2260108Y27187910D01*
X2028161Y27259710D01*
X1786685Y27285090D01*
X1544879Y27263084D01*
X1311952Y27194529D01*
X1096777Y27082038D01*
X907549Y26929895D01*
X751476Y26743895D01*
X634504Y26531123D01*
X561087Y26299683D01*
X534021Y26058390D01*
X533900Y26041020D01*
X455500Y26041020D01*
X455500Y40138246D01*
X554161Y39985154D01*
X830230Y39699276D01*
X1156569Y39472464D01*
X1520747Y39313359D01*
X1908893Y39228019D01*
X2306223Y39219696D01*
X2697603Y39288707D01*
X3068124Y39432423D01*
X3403675Y39645370D01*
X3691473Y39919436D01*
X3920557Y40244184D01*
X4082201Y40607242D01*
X4170248Y40994783D01*
X4176587Y41448709D01*
X4099394Y41838557D01*
X4068299Y41914000D01*
X10986000Y41914000D01*
X10986000Y17268000D01*
X10987832Y17230702D01*
X10992636Y17181929D01*
X11007187Y17108776D01*
X11021413Y17061878D01*
X11049960Y16992960D01*
X11073063Y16949738D01*
X11114500Y16887723D01*
X11145590Y16849839D01*
X11198339Y16797090D01*
X11236223Y16766000D01*
X11298238Y16724563D01*
X11341460Y16701460D01*
X11410378Y16672913D01*
X11457276Y16658687D01*
X11530429Y16644136D01*
X11579202Y16639332D01*
X11616500Y16637500D01*
X13081500Y16637500D01*
X13081500Y6854000D01*
X13083332Y6816702D01*
X13088136Y6767929D01*
X13102687Y6694776D01*
X13116913Y6647878D01*
X13145460Y6578960D01*
X13168563Y6535738D01*
X13210000Y6473723D01*
X13241090Y6435839D01*
X13293839Y6383090D01*
X13300700Y6377459D01*
X13298785Y6240314D01*
X13344967Y5988691D01*
X13439142Y5750831D01*
X13577725Y5535792D01*
X13755437Y5351766D01*
X13965508Y5205763D01*
X14199937Y5103344D01*
X14449795Y5048409D01*
X14705564Y5043051D01*
X14957503Y5087475D01*
X15196016Y5179988D01*
X15412016Y5317066D01*
X15597278Y5493488D01*
X15744744Y5702535D01*
X15848798Y5936243D01*
X15905476Y6185712D01*
X15906238Y6240314D01*
X16798785Y6240314D01*
X16844967Y5988691D01*
X16939142Y5750831D01*
X17077725Y5535792D01*
X17255437Y5351766D01*
X17465508Y5205763D01*
X17699937Y5103344D01*
X17949795Y5048409D01*
X18205564Y5043051D01*
X18457503Y5087475D01*
X18696016Y5179988D01*
X18912016Y5317066D01*
X19097278Y5493488D01*
X19244744Y5702535D01*
X19348798Y5936243D01*
X19405476Y6185712D01*
X19409556Y6477913D01*
X19359866Y6728866D01*
X19262378Y6965389D01*
X19120807Y7178472D01*
X18940543Y7359998D01*
X18728454Y7503054D01*
X18492618Y7602190D01*
X18242017Y7653631D01*
X17986198Y7655417D01*
X17734903Y7607480D01*
X17497706Y7511646D01*
X17283640Y7371566D01*
X17100860Y7192574D01*
X16956327Y6981488D01*
X16855546Y6746350D01*
X16802357Y6496115D01*
X16798785Y6240314D01*
X15906238Y6240314D01*
X15908140Y6376508D01*
X15916161Y6383090D01*
X15968910Y6435839D01*
X16000000Y6473723D01*
X16041437Y6535738D01*
X16064540Y6578960D01*
X16093087Y6647878D01*
X16107313Y6694776D01*
X16121864Y6767929D01*
X16126668Y6816702D01*
X16128500Y6854000D01*
X16128500Y16637500D01*
X23495500Y16637500D01*
X23495500Y14982000D01*
X23497332Y14944702D01*
X23502136Y14895929D01*
X23516687Y14822776D01*
X23530913Y14775878D01*
X23559460Y14706960D01*
X23582563Y14663738D01*
X23624000Y14601723D01*
X23655090Y14563839D01*
X23707839Y14511090D01*
X23745723Y14480000D01*
X23807738Y14438563D01*
X23850960Y14415460D01*
X23919878Y14386913D01*
X23966776Y14372687D01*
X24039929Y14358136D01*
X24088702Y14353332D01*
X24126000Y14351500D01*
X26166000Y14351500D01*
X26203298Y14353332D01*
X26252071Y14358136D01*
X26325224Y14372687D01*
X26372122Y14386913D01*
X26441040Y14415460D01*
X26484262Y14438563D01*
X26546277Y14480000D01*
X26584161Y14511090D01*
X26636910Y14563839D01*
X26668000Y14601723D01*
X26709437Y14663738D01*
X26732540Y14706960D01*
X26761087Y14775878D01*
X26775313Y14822776D01*
X26789864Y14895929D01*
X26794668Y14944702D01*
X26796500Y14982000D01*
X26796500Y18292000D01*
X26794668Y18329298D01*
X26789864Y18378071D01*
X26775313Y18451224D01*
X26761087Y18498122D01*
X26732540Y18567040D01*
X26709437Y18610262D01*
X26668000Y18672277D01*
X26636910Y18710161D01*
X26584161Y18762910D01*
X26546277Y18794000D01*
X26484262Y18835437D01*
X26441040Y18858540D01*
X26372122Y18887087D01*
X26325224Y18901313D01*
X26252071Y18915864D01*
X26203298Y18920668D01*
X26166000Y18922500D01*
X13334500Y18922500D01*
X13334500Y27656986D01*
X14481671Y27656986D01*
X14503992Y27535370D01*
X14549509Y27420405D01*
X14605500Y27333524D01*
X14605500Y24257000D01*
X14610075Y24210337D01*
X14614160Y24163645D01*
X14614905Y24161082D01*
X14615165Y24158426D01*
X14628708Y24113570D01*
X14641793Y24068531D01*
X14643022Y24066159D01*
X14643793Y24063607D01*
X14665795Y24022226D01*
X14687375Y23980595D01*
X14689039Y23978510D01*
X14690292Y23976154D01*
X14719907Y23939843D01*
X14749167Y23903189D01*
X14752834Y23899471D01*
X14752893Y23899398D01*
X14752960Y23899342D01*
X14754143Y23898143D01*
X16426926Y22225361D01*
X16463146Y22195609D01*
X16499062Y22165472D01*
X16501400Y22164187D01*
X16503463Y22162492D01*
X16544783Y22140337D01*
X16585857Y22117756D01*
X16588402Y22116949D01*
X16590753Y22115688D01*
X16635603Y22101975D01*
X16680268Y22087807D01*
X16682917Y22087510D01*
X16685471Y22086729D01*
X16732113Y22081991D01*
X16778697Y22076766D01*
X16783913Y22076730D01*
X16784011Y22076720D01*
X16784102Y22076729D01*
X16785783Y22076717D01*
X16919175Y22076717D01*
X16984699Y22031176D01*
X17098005Y21981674D01*
X17218768Y21955123D01*
X17342388Y21952533D01*
X17464157Y21974004D01*
X17579437Y22018718D01*
X17683836Y22084972D01*
X17773378Y22170242D01*
X17844652Y22271280D01*
X17894944Y22384237D01*
X17922338Y22504812D01*
X17924310Y22646041D01*
X17900294Y22767333D01*
X17853175Y22881651D01*
X17784750Y22984640D01*
X17697624Y23072376D01*
X17595115Y23141519D01*
X17481129Y23189435D01*
X17360007Y23214297D01*
X17236363Y23215161D01*
X17114905Y23191991D01*
X17000261Y23145672D01*
X16965070Y23122643D01*
X16020367Y24067347D01*
X16033654Y24072501D01*
X16138053Y24138755D01*
X16227595Y24224025D01*
X16298869Y24325063D01*
X16301506Y24330986D01*
X21339671Y24330986D01*
X21361992Y24209370D01*
X21407509Y24094405D01*
X21467041Y24002029D01*
X21415815Y23927216D01*
X21367105Y23813567D01*
X21341397Y23692621D01*
X21339671Y23568986D01*
X21361992Y23447370D01*
X21407509Y23332405D01*
X21467041Y23240029D01*
X21415815Y23165216D01*
X21367105Y23051567D01*
X21341397Y22930621D01*
X21339671Y22806986D01*
X21361992Y22685370D01*
X21407509Y22570405D01*
X21474490Y22466471D01*
X21560383Y22377527D01*
X21661916Y22306959D01*
X21775222Y22257457D01*
X21895985Y22230906D01*
X22019605Y22228316D01*
X22141374Y22249787D01*
X22256654Y22294501D01*
X22348045Y22352500D01*
X23882392Y22352500D01*
X23947916Y22306959D01*
X24061222Y22257457D01*
X24181985Y22230906D01*
X24305605Y22228316D01*
X24427374Y22249787D01*
X24542654Y22294501D01*
X24647053Y22360755D01*
X24736595Y22446025D01*
X24807869Y22547063D01*
X24858161Y22660020D01*
X24885555Y22780595D01*
X24887527Y22921824D01*
X24863511Y23043116D01*
X24816392Y23157434D01*
X24760379Y23241741D01*
X24807869Y23309063D01*
X24858161Y23422020D01*
X24885555Y23542595D01*
X24887527Y23683824D01*
X24863511Y23805116D01*
X24816392Y23919434D01*
X24760379Y24003741D01*
X24807869Y24071063D01*
X24858161Y24184020D01*
X24885555Y24304595D01*
X24887527Y24445824D01*
X24863511Y24567116D01*
X24816392Y24681434D01*
X24747967Y24784423D01*
X24660841Y24872159D01*
X24558332Y24941302D01*
X24444346Y24989218D01*
X24323224Y25014080D01*
X24199580Y25014944D01*
X24078122Y24991774D01*
X23963478Y24945455D01*
X23881027Y24891500D01*
X22346167Y24891500D01*
X22272332Y24941302D01*
X22158346Y24989218D01*
X22037224Y25014080D01*
X21913580Y25014944D01*
X21792122Y24991774D01*
X21677478Y24945455D01*
X21574015Y24877750D01*
X21485672Y24791239D01*
X21415815Y24689216D01*
X21367105Y24575567D01*
X21341397Y24454621D01*
X21339671Y24330986D01*
X16301506Y24330986D01*
X16349161Y24438020D01*
X16376555Y24558595D01*
X16378527Y24699824D01*
X16354511Y24821116D01*
X16307392Y24935434D01*
X16255500Y25013539D01*
X16255500Y28073583D01*
X16298869Y28135063D01*
X16349161Y28248020D01*
X16376555Y28368595D01*
X16378527Y28509824D01*
X16354511Y28631116D01*
X16307392Y28745434D01*
X16238967Y28848423D01*
X16151841Y28936159D01*
X16049332Y29005302D01*
X15935346Y29053218D01*
X15814224Y29078080D01*
X15690580Y29078944D01*
X15569122Y29055774D01*
X15454478Y29009455D01*
X15351015Y28941750D01*
X15262672Y28855239D01*
X15192815Y28753216D01*
X15144105Y28639567D01*
X15118397Y28518621D01*
X15116671Y28394986D01*
X15126681Y28340447D01*
X15055580Y28340944D01*
X14934122Y28317774D01*
X14819478Y28271455D01*
X14716015Y28203750D01*
X14627672Y28117239D01*
X14557815Y28015216D01*
X14509105Y27901567D01*
X14483397Y27780621D01*
X14481671Y27656986D01*
X13334500Y27656986D01*
X13334500Y30607500D01*
X28198000Y30607500D01*
X28235298Y30609332D01*
X28284071Y30614136D01*
X28357224Y30628687D01*
X28404122Y30642913D01*
X28473040Y30671460D01*
X28516262Y30694563D01*
X28578277Y30736000D01*
X28616161Y30767090D01*
X28668910Y30819839D01*
X28700000Y30857723D01*
X28741437Y30919738D01*
X28764540Y30962960D01*
X28793087Y31031878D01*
X28807313Y31078776D01*
X28821864Y31151929D01*
X28826668Y31200702D01*
X28828500Y31238000D01*
X28828500Y35310000D01*
X28826668Y35347298D01*
X28821864Y35396071D01*
X28807313Y35469224D01*
X28793087Y35516122D01*
X28764540Y35585040D01*
X28741437Y35628262D01*
X28700000Y35690277D01*
X28668910Y35728161D01*
X28616161Y35780910D01*
X28578277Y35812000D01*
X28516262Y35853437D01*
X28473040Y35876540D01*
X28404122Y35905087D01*
X28357224Y35919313D01*
X28284071Y35933864D01*
X28235298Y35938668D01*
X28198000Y35940500D01*
X27174000Y35940500D01*
X27136702Y35938668D01*
X27087929Y35933864D01*
X27014776Y35919313D01*
X26967878Y35905087D01*
X26898960Y35876540D01*
X26855738Y35853437D01*
X26793723Y35812000D01*
X26755839Y35780910D01*
X26703090Y35728161D01*
X26672000Y35690277D01*
X26630563Y35628262D01*
X26607460Y35585040D01*
X26578913Y35516122D01*
X26564687Y35469224D01*
X26550136Y35396071D01*
X26545332Y35347298D01*
X26543500Y35310000D01*
X26543500Y32892500D01*
X13334500Y32892500D01*
X13334500Y41914000D01*
X13332668Y41951298D01*
X13327864Y42000071D01*
X13313313Y42073224D01*
X13299087Y42120122D01*
X13270540Y42189040D01*
X13247437Y42232262D01*
X13206000Y42294277D01*
X13174910Y42332161D01*
X13122161Y42384910D01*
X13084277Y42416000D01*
X13022262Y42457437D01*
X12979040Y42480540D01*
X12910122Y42509087D01*
X12863224Y42523313D01*
X12790071Y42537864D01*
X12741298Y42542668D01*
X12704000Y42544500D01*
X11616500Y42544500D01*
X11579202Y42542668D01*
X11530429Y42537864D01*
X11457276Y42523313D01*
X11410378Y42509087D01*
X11341460Y42480540D01*
X11298238Y42457437D01*
X11236223Y42416000D01*
X11198339Y42384910D01*
X11145590Y42332161D01*
X11114500Y42294277D01*
X11073063Y42232262D01*
X11049960Y42189040D01*
X11021413Y42120122D01*
X11007187Y42073224D01*
X10992636Y42000071D01*
X10987832Y41951298D01*
X10986000Y41914000D01*
X4068299Y41914000D01*
X3947951Y42205987D01*
X3728023Y42537004D01*
X3447990Y42819000D01*
X3118516Y43041233D01*
X2752152Y43195238D01*
X2362852Y43275150D01*
X1965444Y43277924D01*
X1575067Y43203456D01*
X1206588Y43054581D01*
X874044Y42836970D01*
X590100Y42558912D01*
X455500Y42362334D01*
X455500Y47615334D01*
X510133Y47477347D01*
X746664Y47110323D01*
X1049979Y46796231D01*
X1408525Y46547035D01*
X1808645Y46372227D01*
X2235098Y46278465D01*
X2671641Y46269321D01*
X3101647Y46345142D01*
X3508736Y46503042D01*
X3877403Y46737005D01*
X4193605Y47038120D01*
X4445298Y47394917D01*
X4622895Y47793807D01*
X4626775Y47810886D01*
X10201295Y47810886D01*
X10220157Y47716056D01*
X10299969Y47485599D01*
X10423207Y47275140D01*
X10585136Y47092768D01*
X10779533Y46945491D01*
X10998927Y46838969D01*
X11234886Y46777295D01*
X11429500Y46857025D01*
X11429500Y48005500D01*
X11430500Y48005500D01*
X11430500Y46857025D01*
X11625114Y46777295D01*
X11861073Y46838969D01*
X12080467Y46945491D01*
X12274864Y47092768D01*
X12436793Y47275140D01*
X12560031Y47485599D01*
X12639843Y47716056D01*
X12658705Y47810886D01*
X12578975Y48005500D01*
X11430500Y48005500D01*
X11429500Y48005500D01*
X10281025Y48005500D01*
X10201295Y47810886D01*
X4626775Y47810886D01*
X4715432Y48201114D01*
X10201295Y48201114D01*
X10281025Y48006500D01*
X11429500Y48006500D01*
X11429500Y49154975D01*
X11430500Y49154975D01*
X11430500Y48006500D01*
X12578975Y48006500D01*
X12582328Y48014685D01*
X12719910Y48014685D01*
X12741916Y47772879D01*
X12810471Y47539952D01*
X12922962Y47324777D01*
X13075105Y47135549D01*
X13261105Y46979476D01*
X13473877Y46862504D01*
X13705317Y46789087D01*
X13946610Y46762021D01*
X13963980Y46761900D01*
X13976020Y46761900D01*
X14217667Y46785594D01*
X14450110Y46855772D01*
X14664494Y46969763D01*
X14852655Y47123223D01*
X15007426Y47310308D01*
X15122910Y47523892D01*
X15194710Y47755839D01*
X15220090Y47997315D01*
X15218510Y48014685D01*
X15259910Y48014685D01*
X15281916Y47772879D01*
X15304000Y47697845D01*
X15304000Y37334000D01*
X15305832Y37296702D01*
X15310636Y37247929D01*
X15325187Y37174776D01*
X15339413Y37127878D01*
X15367960Y37058960D01*
X15391063Y37015738D01*
X15432500Y36953723D01*
X15463590Y36915839D01*
X15516339Y36863090D01*
X15554223Y36832000D01*
X15616238Y36790563D01*
X15659460Y36767460D01*
X15728378Y36738913D01*
X15775276Y36724687D01*
X15848429Y36710136D01*
X15897202Y36705332D01*
X15934500Y36703500D01*
X29337500Y36703500D01*
X29337500Y22348000D01*
X29339332Y22310702D01*
X29344136Y22261929D01*
X29358687Y22188776D01*
X29372913Y22141878D01*
X29401460Y22072960D01*
X29424563Y22029738D01*
X29466000Y21967723D01*
X29497090Y21929839D01*
X29549839Y21877090D01*
X29587723Y21846000D01*
X29649738Y21804563D01*
X29692960Y21781460D01*
X29761878Y21752913D01*
X29808776Y21738687D01*
X29881929Y21724136D01*
X29930702Y21719332D01*
X29968000Y21717500D01*
X30992000Y21717500D01*
X31029298Y21719332D01*
X31078071Y21724136D01*
X31151224Y21738687D01*
X31198122Y21752913D01*
X31267040Y21781460D01*
X31310262Y21804563D01*
X31372277Y21846000D01*
X31410161Y21877090D01*
X31462910Y21929839D01*
X31494000Y21967723D01*
X31535437Y22029738D01*
X31558540Y22072960D01*
X31587087Y22141878D01*
X31601313Y22188776D01*
X31615864Y22261929D01*
X31620668Y22310702D01*
X31622500Y22348000D01*
X31622500Y27116194D01*
X36464571Y27116194D01*
X36482799Y26915904D01*
X36539583Y26722968D01*
X36632760Y26544736D01*
X36758782Y26387997D01*
X36912848Y26258721D01*
X37089089Y26161831D01*
X37280793Y26101019D01*
X37480658Y26078600D01*
X37495046Y26078500D01*
X37906954Y26078500D01*
X38107112Y26098126D01*
X38299647Y26156255D01*
X38477224Y26250675D01*
X38633080Y26377787D01*
X38761277Y26532752D01*
X38856934Y26709665D01*
X38916406Y26901789D01*
X38937429Y27101806D01*
X38919201Y27302096D01*
X38862417Y27495032D01*
X38769240Y27673264D01*
X38643218Y27830003D01*
X38489152Y27959279D01*
X38312911Y28056169D01*
X38121207Y28116981D01*
X37921342Y28139400D01*
X37906954Y28139500D01*
X37495046Y28139500D01*
X37294888Y28119874D01*
X37102353Y28061745D01*
X36924776Y27967325D01*
X36768920Y27840213D01*
X36640723Y27685248D01*
X36545066Y27508335D01*
X36485594Y27316211D01*
X36464571Y27116194D01*
X31622500Y27116194D01*
X31622500Y28226557D01*
X34069211Y28226557D01*
X34103923Y28037430D01*
X34174708Y27858647D01*
X34278871Y27697018D01*
X34412444Y27558699D01*
X34570339Y27448959D01*
X34746543Y27371977D01*
X34934343Y27330687D01*
X35126587Y27326660D01*
X35315952Y27360050D01*
X35495224Y27429585D01*
X35657577Y27532617D01*
X35796825Y27665221D01*
X35907665Y27822347D01*
X35985874Y27998009D01*
X36028475Y28185516D01*
X36031542Y28405143D01*
X35994193Y28593767D01*
X35920919Y28771544D01*
X35814509Y28931703D01*
X35679018Y29068144D01*
X35519606Y29175668D01*
X35342345Y29250182D01*
X35153986Y29288847D01*
X34961705Y29290189D01*
X34772825Y29254158D01*
X34594540Y29182127D01*
X34433642Y29076838D01*
X34296259Y28942303D01*
X34187624Y28783645D01*
X34111875Y28606908D01*
X34071896Y28418824D01*
X34069211Y28226557D01*
X31622500Y28226557D01*
X31622500Y33076557D01*
X34069211Y33076557D01*
X34103923Y32887430D01*
X34174708Y32708647D01*
X34278871Y32547018D01*
X34412444Y32408699D01*
X34570339Y32298959D01*
X34746543Y32221977D01*
X34934343Y32180687D01*
X35126587Y32176660D01*
X35315952Y32210050D01*
X35495224Y32279585D01*
X35657577Y32382617D01*
X35796825Y32515221D01*
X35907665Y32672347D01*
X35985874Y32848009D01*
X36028475Y33035516D01*
X36031542Y33255143D01*
X35994193Y33443767D01*
X35920919Y33621544D01*
X35814509Y33781703D01*
X35679018Y33918144D01*
X35519606Y34025668D01*
X35342345Y34100182D01*
X35153986Y34138847D01*
X34961705Y34140189D01*
X34772825Y34104158D01*
X34594540Y34032127D01*
X34433642Y33926838D01*
X34296259Y33792303D01*
X34187624Y33633645D01*
X34111875Y33456908D01*
X34071896Y33268824D01*
X34069211Y33076557D01*
X31622500Y33076557D01*
X31622500Y34366194D01*
X36464571Y34366194D01*
X36482799Y34165904D01*
X36539583Y33972968D01*
X36632760Y33794736D01*
X36758782Y33637997D01*
X36912848Y33508721D01*
X37089089Y33411831D01*
X37280793Y33351019D01*
X37480658Y33328600D01*
X37495046Y33328500D01*
X37906954Y33328500D01*
X38107112Y33348126D01*
X38299647Y33406255D01*
X38477224Y33500675D01*
X38633080Y33627787D01*
X38761277Y33782752D01*
X38856934Y33959665D01*
X38916406Y34151789D01*
X38937429Y34351806D01*
X38919201Y34552096D01*
X38862417Y34745032D01*
X38769240Y34923264D01*
X38643218Y35080003D01*
X38489152Y35209279D01*
X38312911Y35306169D01*
X38121207Y35366981D01*
X37921342Y35389400D01*
X37906954Y35389500D01*
X37495046Y35389500D01*
X37294888Y35369874D01*
X37102353Y35311745D01*
X36924776Y35217325D01*
X36768920Y35090213D01*
X36640723Y34935248D01*
X36545066Y34758335D01*
X36485594Y34566211D01*
X36464571Y34366194D01*
X31622500Y34366194D01*
X31622500Y38358000D01*
X31620668Y38395298D01*
X31615864Y38444071D01*
X31601313Y38517224D01*
X31587087Y38564122D01*
X31558540Y38633040D01*
X31535437Y38676262D01*
X31494000Y38738277D01*
X31462910Y38776161D01*
X31410161Y38828910D01*
X31372277Y38860000D01*
X31310262Y38901437D01*
X31267040Y38924540D01*
X31198122Y38953087D01*
X31151224Y38967313D01*
X31078071Y38981864D01*
X31029298Y38986668D01*
X30992000Y38988500D01*
X17716000Y38988500D01*
X17716000Y47695397D01*
X17734710Y47755839D01*
X17760090Y47997315D01*
X17758510Y48014685D01*
X17799910Y48014685D01*
X17821916Y47772879D01*
X17890471Y47539952D01*
X18002962Y47324777D01*
X18155105Y47135549D01*
X18341105Y46979476D01*
X18553877Y46862504D01*
X18785317Y46789087D01*
X19026610Y46762021D01*
X19043980Y46761900D01*
X19056020Y46761900D01*
X19297667Y46785594D01*
X19530110Y46855772D01*
X19744494Y46969763D01*
X19932655Y47123223D01*
X20087426Y47310308D01*
X20202910Y47523892D01*
X20274710Y47755839D01*
X20300090Y47997315D01*
X20298510Y48014685D01*
X20339910Y48014685D01*
X20361916Y47772879D01*
X20430471Y47539952D01*
X20542962Y47324777D01*
X20695105Y47135549D01*
X20881105Y46979476D01*
X21093877Y46862504D01*
X21325317Y46789087D01*
X21566610Y46762021D01*
X21583980Y46761900D01*
X21596020Y46761900D01*
X21837667Y46785594D01*
X22070110Y46855772D01*
X22284494Y46969763D01*
X22472655Y47123223D01*
X22627426Y47310308D01*
X22742910Y47523892D01*
X22814710Y47755839D01*
X22840090Y47997315D01*
X22838510Y48014685D01*
X22879910Y48014685D01*
X22901916Y47772879D01*
X22970471Y47539952D01*
X23082962Y47324777D01*
X23235105Y47135549D01*
X23421105Y46979476D01*
X23633877Y46862504D01*
X23865317Y46789087D01*
X24106610Y46762021D01*
X24123980Y46761900D01*
X24136020Y46761900D01*
X24377667Y46785594D01*
X24610110Y46855772D01*
X24824494Y46969763D01*
X25012655Y47123223D01*
X25167426Y47310308D01*
X25282910Y47523892D01*
X25354710Y47755839D01*
X25380090Y47997315D01*
X25358084Y48239121D01*
X25289529Y48472048D01*
X25177038Y48687223D01*
X25024895Y48876451D01*
X24838895Y49032524D01*
X24626123Y49149496D01*
X24394683Y49222913D01*
X24153390Y49249979D01*
X24136020Y49250100D01*
X24123980Y49250100D01*
X23882333Y49226406D01*
X23649890Y49156228D01*
X23435506Y49042237D01*
X23247345Y48888777D01*
X23092574Y48701692D01*
X22977090Y48488108D01*
X22905290Y48256161D01*
X22879910Y48014685D01*
X22838510Y48014685D01*
X22818084Y48239121D01*
X22749529Y48472048D01*
X22637038Y48687223D01*
X22484895Y48876451D01*
X22298895Y49032524D01*
X22086123Y49149496D01*
X21854683Y49222913D01*
X21613390Y49249979D01*
X21596020Y49250100D01*
X21583980Y49250100D01*
X21342333Y49226406D01*
X21109890Y49156228D01*
X20895506Y49042237D01*
X20707345Y48888777D01*
X20552574Y48701692D01*
X20437090Y48488108D01*
X20365290Y48256161D01*
X20339910Y48014685D01*
X20298510Y48014685D01*
X20278084Y48239121D01*
X20209529Y48472048D01*
X20097038Y48687223D01*
X19944895Y48876451D01*
X19758895Y49032524D01*
X19546123Y49149496D01*
X19314683Y49222913D01*
X19073390Y49249979D01*
X19056020Y49250100D01*
X19043980Y49250100D01*
X18802333Y49226406D01*
X18569890Y49156228D01*
X18355506Y49042237D01*
X18167345Y48888777D01*
X18012574Y48701692D01*
X17897090Y48488108D01*
X17825290Y48256161D01*
X17799910Y48014685D01*
X17758510Y48014685D01*
X17738084Y48239121D01*
X17716000Y48314155D01*
X17716000Y48772000D01*
X17714168Y48809298D01*
X17709364Y48858071D01*
X17694813Y48931224D01*
X17680587Y48978122D01*
X17652040Y49047040D01*
X17628937Y49090262D01*
X17587500Y49152277D01*
X17556410Y49190161D01*
X17503661Y49242910D01*
X17465777Y49274000D01*
X17403762Y49315437D01*
X17360540Y49338540D01*
X17291622Y49367087D01*
X17244724Y49381313D01*
X17171571Y49395864D01*
X17122798Y49400668D01*
X17085500Y49402500D01*
X15934500Y49402500D01*
X15897202Y49400668D01*
X15848429Y49395864D01*
X15775276Y49381313D01*
X15728378Y49367087D01*
X15659460Y49338540D01*
X15616238Y49315437D01*
X15554223Y49274000D01*
X15516339Y49242910D01*
X15463590Y49190161D01*
X15432500Y49152277D01*
X15391063Y49090262D01*
X15367960Y49047040D01*
X15339413Y48978122D01*
X15325187Y48931224D01*
X15310636Y48858071D01*
X15305832Y48809298D01*
X15304000Y48772000D01*
X15304000Y48316603D01*
X15285290Y48256161D01*
X15259910Y48014685D01*
X15218510Y48014685D01*
X15198084Y48239121D01*
X15129529Y48472048D01*
X15017038Y48687223D01*
X14864895Y48876451D01*
X14678895Y49032524D01*
X14466123Y49149496D01*
X14234683Y49222913D01*
X13993390Y49249979D01*
X13976020Y49250100D01*
X13963980Y49250100D01*
X13722333Y49226406D01*
X13489890Y49156228D01*
X13275506Y49042237D01*
X13087345Y48888777D01*
X12932574Y48701692D01*
X12817090Y48488108D01*
X12745290Y48256161D01*
X12719910Y48014685D01*
X12582328Y48014685D01*
X12658705Y48201114D01*
X12639843Y48295944D01*
X12560031Y48526401D01*
X12436793Y48736860D01*
X12274864Y48919232D01*
X12080467Y49066509D01*
X11861073Y49173031D01*
X11625114Y49234705D01*
X11430500Y49154975D01*
X11429500Y49154975D01*
X11234886Y49234705D01*
X10998927Y49173031D01*
X10779533Y49066509D01*
X10585136Y48919232D01*
X10423207Y48736860D01*
X10299969Y48526401D01*
X10220157Y48295944D01*
X10201295Y48201114D01*
X4715432Y48201114D01*
X4719631Y48219595D01*
X4726595Y48718320D01*
X4641785Y49146643D01*
X4475395Y49550336D01*
X4233762Y49914022D01*
X3926091Y50223848D01*
X3564101Y50468014D01*
X3382148Y50544500D01*
X30819040Y50544500D01*
X30790648Y50533029D01*
G36*
X12727977Y42034526D02*
X12751026Y42027534D01*
X12772272Y42016178D01*
X12790895Y42000895D01*
X12806178Y41982272D01*
X12817534Y41961026D01*
X12824526Y41937977D01*
X12827500Y41907783D01*
X12827500Y32762000D01*
X12828109Y32749600D01*
X12832913Y32700827D01*
X12837751Y32676507D01*
X12851977Y32629609D01*
X12861467Y32606697D01*
X12884570Y32563475D01*
X12898346Y32542857D01*
X12929436Y32504973D01*
X12946973Y32487436D01*
X12984857Y32456346D01*
X13005475Y32442570D01*
X13048697Y32419467D01*
X13071609Y32409977D01*
X13118507Y32395751D01*
X13142827Y32390913D01*
X13191600Y32386109D01*
X13204000Y32385500D01*
X26674000Y32385500D01*
X26686400Y32386109D01*
X26735173Y32390913D01*
X26759493Y32395751D01*
X26806391Y32409977D01*
X26829303Y32419467D01*
X26872525Y32442570D01*
X26893143Y32456346D01*
X26931027Y32487436D01*
X26948564Y32504973D01*
X26979654Y32542857D01*
X26993430Y32563475D01*
X27016533Y32606697D01*
X27026023Y32629609D01*
X27040249Y32676507D01*
X27045087Y32700827D01*
X27049891Y32749600D01*
X27050500Y32762000D01*
X27050500Y35303783D01*
X27053474Y35333977D01*
X27060466Y35357026D01*
X27071822Y35378272D01*
X27087105Y35396895D01*
X27105728Y35412178D01*
X27126974Y35423534D01*
X27150023Y35430526D01*
X27180217Y35433500D01*
X28191783Y35433500D01*
X28221977Y35430526D01*
X28245026Y35423534D01*
X28266272Y35412178D01*
X28284895Y35396895D01*
X28300178Y35378272D01*
X28311534Y35357026D01*
X28318526Y35333977D01*
X28321500Y35303783D01*
X28321500Y31244217D01*
X28318526Y31214023D01*
X28311534Y31190974D01*
X28300178Y31169728D01*
X28284895Y31151105D01*
X28266272Y31135822D01*
X28245026Y31124466D01*
X28221977Y31117474D01*
X28191783Y31114500D01*
X13204000Y31114500D01*
X13191600Y31113891D01*
X13142827Y31109087D01*
X13118507Y31104249D01*
X13071609Y31090023D01*
X13048697Y31080533D01*
X13005475Y31057430D01*
X12984857Y31043654D01*
X12946973Y31012564D01*
X12929436Y30995027D01*
X12898346Y30957143D01*
X12884570Y30936525D01*
X12861467Y30893303D01*
X12851977Y30870391D01*
X12837751Y30823493D01*
X12832913Y30799173D01*
X12828109Y30750400D01*
X12827500Y30738000D01*
X12827500Y18792000D01*
X12828109Y18779600D01*
X12832913Y18730827D01*
X12837751Y18706507D01*
X12851977Y18659609D01*
X12861467Y18636697D01*
X12884570Y18593475D01*
X12898346Y18572857D01*
X12929436Y18534973D01*
X12946973Y18517436D01*
X12984857Y18486346D01*
X13005475Y18472570D01*
X13048697Y18449467D01*
X13071609Y18439977D01*
X13118507Y18425751D01*
X13142827Y18420913D01*
X13191600Y18416109D01*
X13204000Y18415500D01*
X26159783Y18415500D01*
X26189977Y18412526D01*
X26213026Y18405534D01*
X26234272Y18394178D01*
X26252895Y18378895D01*
X26268178Y18360272D01*
X26279534Y18339026D01*
X26286526Y18315977D01*
X26289500Y18285783D01*
X26289500Y14988217D01*
X26286526Y14958023D01*
X26279534Y14934974D01*
X26268178Y14913728D01*
X26252895Y14895105D01*
X26234272Y14879822D01*
X26213026Y14868466D01*
X26189977Y14861474D01*
X26159783Y14858500D01*
X24132217Y14858500D01*
X24102023Y14861474D01*
X24078974Y14868466D01*
X24057728Y14879822D01*
X24039105Y14895105D01*
X24023822Y14913728D01*
X24012466Y14934974D01*
X24005474Y14958023D01*
X24002500Y14988217D01*
X24002500Y16768000D01*
X24001891Y16780400D01*
X23997087Y16829173D01*
X23992249Y16853493D01*
X23978023Y16900391D01*
X23968533Y16923303D01*
X23945430Y16966525D01*
X23931654Y16987143D01*
X23900564Y17025027D01*
X23883027Y17042564D01*
X23845143Y17073654D01*
X23824525Y17087430D01*
X23781303Y17110533D01*
X23758391Y17120023D01*
X23711493Y17134249D01*
X23687173Y17139087D01*
X23638400Y17143891D01*
X23626000Y17144500D01*
X15998000Y17144500D01*
X15985600Y17143891D01*
X15936827Y17139087D01*
X15912507Y17134249D01*
X15865609Y17120023D01*
X15842697Y17110533D01*
X15799475Y17087430D01*
X15778857Y17073654D01*
X15740973Y17042564D01*
X15723436Y17025027D01*
X15692346Y16987143D01*
X15678570Y16966525D01*
X15655467Y16923303D01*
X15645977Y16900391D01*
X15631751Y16853493D01*
X15626913Y16829173D01*
X15622109Y16780400D01*
X15621500Y16768000D01*
X15621500Y7139735D01*
X15464974Y7209267D01*
X14986207Y6730500D01*
X14984793Y6730500D01*
X15464267Y7209974D01*
X15375072Y7410763D01*
X15153330Y7540615D01*
X14910517Y7624711D01*
X14655963Y7659822D01*
X14399450Y7644597D01*
X14150836Y7579620D01*
X13919676Y7467391D01*
X13834928Y7410763D01*
X13745733Y7209974D01*
X14225207Y6730500D01*
X14223793Y6730500D01*
X13745026Y7209267D01*
X13588500Y7139735D01*
X13588500Y16768000D01*
X13587891Y16780400D01*
X13583087Y16829173D01*
X13578249Y16853493D01*
X13564023Y16900391D01*
X13554533Y16923303D01*
X13531430Y16966525D01*
X13517654Y16987143D01*
X13486564Y17025027D01*
X13469027Y17042564D01*
X13431143Y17073654D01*
X13410525Y17087430D01*
X13367303Y17110533D01*
X13344391Y17120023D01*
X13297493Y17134249D01*
X13273173Y17139087D01*
X13224400Y17143891D01*
X13212000Y17144500D01*
X11622717Y17144500D01*
X11592523Y17147474D01*
X11569474Y17154466D01*
X11548228Y17165822D01*
X11529605Y17181105D01*
X11514322Y17199728D01*
X11502966Y17220974D01*
X11495974Y17244023D01*
X11493000Y17274217D01*
X11493000Y41907783D01*
X11495974Y41937977D01*
X11502966Y41961026D01*
X11514322Y41982272D01*
X11529605Y42000895D01*
X11548228Y42016178D01*
X11569474Y42027534D01*
X11592523Y42034526D01*
X11622717Y42037500D01*
X12697783Y42037500D01*
X12727977Y42034526D01*
X12727977Y42034526D01*
G37*
X12727977Y42034526D02*
X12751026Y42027534D01*
X12772272Y42016178D01*
X12790895Y42000895D01*
X12806178Y41982272D01*
X12817534Y41961026D01*
X12824526Y41937977D01*
X12827500Y41907783D01*
X12827500Y32762000D01*
X12828109Y32749600D01*
X12832913Y32700827D01*
X12837751Y32676507D01*
X12851977Y32629609D01*
X12861467Y32606697D01*
X12884570Y32563475D01*
X12898346Y32542857D01*
X12929436Y32504973D01*
X12946973Y32487436D01*
X12984857Y32456346D01*
X13005475Y32442570D01*
X13048697Y32419467D01*
X13071609Y32409977D01*
X13118507Y32395751D01*
X13142827Y32390913D01*
X13191600Y32386109D01*
X13204000Y32385500D01*
X26674000Y32385500D01*
X26686400Y32386109D01*
X26735173Y32390913D01*
X26759493Y32395751D01*
X26806391Y32409977D01*
X26829303Y32419467D01*
X26872525Y32442570D01*
X26893143Y32456346D01*
X26931027Y32487436D01*
X26948564Y32504973D01*
X26979654Y32542857D01*
X26993430Y32563475D01*
X27016533Y32606697D01*
X27026023Y32629609D01*
X27040249Y32676507D01*
X27045087Y32700827D01*
X27049891Y32749600D01*
X27050500Y32762000D01*
X27050500Y35303783D01*
X27053474Y35333977D01*
X27060466Y35357026D01*
X27071822Y35378272D01*
X27087105Y35396895D01*
X27105728Y35412178D01*
X27126974Y35423534D01*
X27150023Y35430526D01*
X27180217Y35433500D01*
X28191783Y35433500D01*
X28221977Y35430526D01*
X28245026Y35423534D01*
X28266272Y35412178D01*
X28284895Y35396895D01*
X28300178Y35378272D01*
X28311534Y35357026D01*
X28318526Y35333977D01*
X28321500Y35303783D01*
X28321500Y31244217D01*
X28318526Y31214023D01*
X28311534Y31190974D01*
X28300178Y31169728D01*
X28284895Y31151105D01*
X28266272Y31135822D01*
X28245026Y31124466D01*
X28221977Y31117474D01*
X28191783Y31114500D01*
X13204000Y31114500D01*
X13191600Y31113891D01*
X13142827Y31109087D01*
X13118507Y31104249D01*
X13071609Y31090023D01*
X13048697Y31080533D01*
X13005475Y31057430D01*
X12984857Y31043654D01*
X12946973Y31012564D01*
X12929436Y30995027D01*
X12898346Y30957143D01*
X12884570Y30936525D01*
X12861467Y30893303D01*
X12851977Y30870391D01*
X12837751Y30823493D01*
X12832913Y30799173D01*
X12828109Y30750400D01*
X12827500Y30738000D01*
X12827500Y18792000D01*
X12828109Y18779600D01*
X12832913Y18730827D01*
X12837751Y18706507D01*
X12851977Y18659609D01*
X12861467Y18636697D01*
X12884570Y18593475D01*
X12898346Y18572857D01*
X12929436Y18534973D01*
X12946973Y18517436D01*
X12984857Y18486346D01*
X13005475Y18472570D01*
X13048697Y18449467D01*
X13071609Y18439977D01*
X13118507Y18425751D01*
X13142827Y18420913D01*
X13191600Y18416109D01*
X13204000Y18415500D01*
X26159783Y18415500D01*
X26189977Y18412526D01*
X26213026Y18405534D01*
X26234272Y18394178D01*
X26252895Y18378895D01*
X26268178Y18360272D01*
X26279534Y18339026D01*
X26286526Y18315977D01*
X26289500Y18285783D01*
X26289500Y14988217D01*
X26286526Y14958023D01*
X26279534Y14934974D01*
X26268178Y14913728D01*
X26252895Y14895105D01*
X26234272Y14879822D01*
X26213026Y14868466D01*
X26189977Y14861474D01*
X26159783Y14858500D01*
X24132217Y14858500D01*
X24102023Y14861474D01*
X24078974Y14868466D01*
X24057728Y14879822D01*
X24039105Y14895105D01*
X24023822Y14913728D01*
X24012466Y14934974D01*
X24005474Y14958023D01*
X24002500Y14988217D01*
X24002500Y16768000D01*
X24001891Y16780400D01*
X23997087Y16829173D01*
X23992249Y16853493D01*
X23978023Y16900391D01*
X23968533Y16923303D01*
X23945430Y16966525D01*
X23931654Y16987143D01*
X23900564Y17025027D01*
X23883027Y17042564D01*
X23845143Y17073654D01*
X23824525Y17087430D01*
X23781303Y17110533D01*
X23758391Y17120023D01*
X23711493Y17134249D01*
X23687173Y17139087D01*
X23638400Y17143891D01*
X23626000Y17144500D01*
X15998000Y17144500D01*
X15985600Y17143891D01*
X15936827Y17139087D01*
X15912507Y17134249D01*
X15865609Y17120023D01*
X15842697Y17110533D01*
X15799475Y17087430D01*
X15778857Y17073654D01*
X15740973Y17042564D01*
X15723436Y17025027D01*
X15692346Y16987143D01*
X15678570Y16966525D01*
X15655467Y16923303D01*
X15645977Y16900391D01*
X15631751Y16853493D01*
X15626913Y16829173D01*
X15622109Y16780400D01*
X15621500Y16768000D01*
X15621500Y7139735D01*
X15464974Y7209267D01*
X14986207Y6730500D01*
X14984793Y6730500D01*
X15464267Y7209974D01*
X15375072Y7410763D01*
X15153330Y7540615D01*
X14910517Y7624711D01*
X14655963Y7659822D01*
X14399450Y7644597D01*
X14150836Y7579620D01*
X13919676Y7467391D01*
X13834928Y7410763D01*
X13745733Y7209974D01*
X14225207Y6730500D01*
X14223793Y6730500D01*
X13745026Y7209267D01*
X13588500Y7139735D01*
X13588500Y16768000D01*
X13587891Y16780400D01*
X13583087Y16829173D01*
X13578249Y16853493D01*
X13564023Y16900391D01*
X13554533Y16923303D01*
X13531430Y16966525D01*
X13517654Y16987143D01*
X13486564Y17025027D01*
X13469027Y17042564D01*
X13431143Y17073654D01*
X13410525Y17087430D01*
X13367303Y17110533D01*
X13344391Y17120023D01*
X13297493Y17134249D01*
X13273173Y17139087D01*
X13224400Y17143891D01*
X13212000Y17144500D01*
X11622717Y17144500D01*
X11592523Y17147474D01*
X11569474Y17154466D01*
X11548228Y17165822D01*
X11529605Y17181105D01*
X11514322Y17199728D01*
X11502966Y17220974D01*
X11495974Y17244023D01*
X11493000Y17274217D01*
X11493000Y41907783D01*
X11495974Y41937977D01*
X11502966Y41961026D01*
X11514322Y41982272D01*
X11529605Y42000895D01*
X11548228Y42016178D01*
X11569474Y42027534D01*
X11592523Y42034526D01*
X11622717Y42037500D01*
X12697783Y42037500D01*
X12727977Y42034526D01*
M02*
