M48
;DRILL file {KiCad 5.0.2-bee76a0~70~ubuntu18.04.1} date Mon 01 Apr 2019 01:37:37 AM +08
;FORMAT={-:-/ absolute / metric / decimal}
FMAT,2
METRIC,TZ
T1C0.300
T2C0.700
T3C1.000
T4C1.016
T5C0.800
T6C2.200
%
G90
G05
T1
X1.27Y33.02
X1.27Y30.48
X1.27Y27.94
X1.27Y25.4
X1.27Y22.86
X1.524Y7.366
X1.524Y3.81
X2.54Y31.75
X2.54Y29.21
X2.54Y26.67
X2.54Y24.13
X3.302Y9.144
X3.302Y5.588
X3.302Y2.032
X3.81Y46.736
X3.81Y43.18
X3.81Y40.64
X3.81Y27.94
X3.81Y25.4
X5.08Y44.45
X5.08Y39.37
X5.08Y36.83
X5.08Y29.21
X5.08Y7.366
X5.08Y3.81
X5.715Y18.669
X6.35Y46.99
X6.35Y43.18
X6.35Y38.1
X6.35Y35.56
X6.35Y27.94
X6.858Y9.144
X6.858Y5.588
X6.858Y2.032
X7.112Y24.194
X7.505Y10.172
X7.62Y48.26
X7.62Y45.72
X7.62Y36.83
X7.62Y34.29
X7.62Y29.21
X7.62Y26.67
X7.62Y24.194
X8.001Y13.97
X8.636Y7.366
X8.636Y3.81
X8.89Y46.99
X8.89Y44.45
X8.89Y38.1
X8.89Y35.56
X8.89Y27.94
X8.89Y25.4
X9.398Y18.161
X10.16Y29.21
X10.16Y26.67
X10.414Y5.588
X10.668Y2.032
X10.795Y16.51
X11.43Y48.26
X11.43Y45.72
X11.43Y43.18
X11.43Y41.529
X11.43Y40.64
X11.938Y19.558
X12.319Y16.51
X12.319Y16.002
X12.446Y20.066
X12.446Y3.81
X12.7Y11.43
X12.7Y8.89
X13.335Y29.845
X13.335Y24.765
X13.97Y44.45
X13.97Y15.24
X13.97Y10.16
X14.224Y2.032
X14.605Y29.845
X14.605Y24.765
X15.24Y48.26
X15.24Y45.72
X15.24Y43.18
X15.875Y29.845
X15.875Y24.765
X15.875Y19.558
X16.002Y33.147
X16.463Y35.48
X16.51Y46.99
X16.51Y44.45
X16.51Y38.18
X16.764Y24.257
X16.764Y22.987
X17.272Y2.032
X17.411Y18.542
X17.78Y45.72
X17.78Y13.97
X17.78Y11.43
X17.78Y8.89
X19.05Y12.7
X19.05Y10.16
X19.05Y7.62
X19.05Y3.81
X19.812Y23.876
X19.812Y21.844
X19.939Y39.37
X20.066Y26.416
X20.32Y8.89
X20.701Y39.37
X20.701Y22.86
X20.828Y47.244
X20.828Y2.032
X21.209Y42.037
X21.209Y19.304
X21.59Y23.876
X21.59Y21.844
X22.225Y48.26
X22.225Y46.99
X22.606Y26.416
X22.606Y3.81
X22.733Y33.147
X22.74Y32.646
X22.74Y32.131
X22.74Y31.623
X22.86Y8.89
X23.241Y25.908
X23.876Y25.527
X24.13Y15.24
X24.13Y7.62
X24.257Y21.844
X24.384Y2.032
X24.511Y25.019
X24.617Y22.477
X25.146Y24.511
X25.4Y44.45
X25.4Y41.91
X25.4Y16.51
X25.4Y8.89
X25.4Y6.35
X25.781Y25.019
X26.035Y18.415
X26.162Y28.702
X26.162Y3.81
X26.543Y28.321
X26.543Y18.415
X26.67Y45.72
X26.67Y43.18
X26.67Y15.24
X26.67Y7.62
T2
X23.367Y45.859
X23.367Y41.009
T3
X12.22Y5.588
X15.72Y5.588
X19.332Y5.588
X22.832Y5.588
X5.108Y5.588
X8.608Y5.588
T4
X1.778Y21.082
X1.778Y18.542
X1.778Y16.002
X4.318Y21.082
X4.318Y18.542
X4.318Y16.002
T5
X21.248Y49.838
X22.948Y49.838
T6
X2.32Y36.33
X2.32Y12.53
X25.62Y36.33
X25.62Y12.53
T2
X25.817Y47.059G85X26.217Y47.059
G05
X25.817Y39.809G85X26.217Y39.809
G05
T0
M30
