G04 #@! TF.GenerationSoftware,KiCad,Pcbnew,no-vcs-found-90668f9~60~ubuntu16.04.1*
G04 #@! TF.CreationDate,2017-09-09T17:52:20+08:00*
G04 #@! TF.ProjectId,TINY-REFLOW-CONTROLLER-0R20,54494E592D5245464C4F572D434F4E54,rev?*
G04 #@! TF.SameCoordinates,PX8f0d180PY5f5e100*
G04 #@! TF.FileFunction,Soldermask,Top*
G04 #@! TF.FilePolarity,Negative*
%FSLAX46Y46*%
G04 Gerber Fmt 4.6, Leading zero omitted, Abs format (unit mm)*
G04 Created by KiCad (PCBNEW no-vcs-found-90668f9~60~ubuntu16.04.1) date Sat Sep  9 17:52:20 2017*
%MOMM*%
%LPD*%
G01*
G04 APERTURE LIST*
%ADD10R,1.200000X1.450000*%
%ADD11R,0.950000X1.000000*%
%ADD12R,1.550000X0.600000*%
%ADD13C,1.400000*%
%ADD14O,1.900000X1.500000*%
%ADD15O,1.927200X1.927200*%
%ADD16R,1.200000X3.370000*%
%ADD17C,3.800000*%
%ADD18C,2.048000*%
%ADD19C,1.000000*%
%ADD20R,1.100000X1.400000*%
%ADD21R,1.350000X1.500000*%
%ADD22R,1.400000X1.400000*%
%ADD23R,1.800000X1.700000*%
%ADD24R,1.100000X1.150000*%
%ADD25R,0.600000X0.700000*%
%ADD26R,1.800000X1.300000*%
%ADD27R,0.600000X0.450000*%
%ADD28R,1.400000X1.000000*%
%ADD29R,2.400000X1.000000*%
%ADD30R,2.700000X2.200000*%
%ADD31R,1.600000X1.800000*%
%ADD32R,0.850000X1.250000*%
%ADD33R,2.200000X3.200000*%
%ADD34C,0.100000*%
%ADD35C,0.440000*%
%ADD36R,1.340000X1.340000*%
%ADD37R,0.550000X1.600000*%
%ADD38R,0.700000X1.100000*%
%ADD39R,1.100000X0.700000*%
%ADD40R,1.450000X1.200000*%
%ADD41R,1.000000X0.950000*%
%ADD42C,3.000000*%
%ADD43R,0.997560X0.997560*%
%ADD44C,4.200000*%
G04 APERTURE END LIST*
D10*
X34528000Y24892000D03*
X32528000Y24892000D03*
D11*
X32512000Y27952000D03*
X32512000Y29422000D03*
D12*
X35126000Y29434000D03*
X35126000Y30084000D03*
X35126000Y30734000D03*
X35126000Y31384000D03*
X35126000Y32034000D03*
D13*
X35051000Y28309000D03*
X35051000Y33159000D03*
D14*
X37701000Y27109000D03*
X37701000Y34359000D03*
D15*
X24130000Y48006000D03*
X21590000Y48006000D03*
X19050000Y48006000D03*
X16510000Y48006000D03*
X13970000Y48006000D03*
X11430000Y48006000D03*
X4318000Y26035000D03*
X1778000Y26035000D03*
X4318000Y23495000D03*
X1778000Y23495000D03*
X4318000Y20955000D03*
X1778000Y20955000D03*
D16*
X12520000Y44045000D03*
X12520000Y38715000D03*
X15060000Y38715000D03*
X15060000Y44045000D03*
X17600000Y38715000D03*
X17600000Y44045000D03*
X20140000Y38715000D03*
X20140000Y44045000D03*
X22680000Y38715000D03*
X22680000Y44045000D03*
X25220000Y38715000D03*
X25220000Y44045000D03*
X27760000Y38715000D03*
X27760000Y44045000D03*
X30300000Y38715000D03*
X30300000Y44045000D03*
D17*
X2150000Y41250000D03*
X37850000Y41250000D03*
X2000000Y11450000D03*
X38000000Y11450000D03*
D18*
X14605000Y6350000D03*
X18105000Y6350000D03*
X7620000Y6350000D03*
X11120000Y6350000D03*
D19*
X32854000Y49838000D03*
X31154000Y49838000D03*
D20*
X29704000Y49838000D03*
X34304000Y49838000D03*
D21*
X33679000Y48288000D03*
X30329000Y48288000D03*
D22*
X6366000Y45698000D03*
D23*
X7366000Y48948000D03*
D22*
X8366000Y45698000D03*
D24*
X11633000Y28956000D03*
X14783000Y28956000D03*
D25*
X32146000Y22898000D03*
X30846000Y22898000D03*
D26*
X31496000Y21848000D03*
D27*
X31496000Y21173000D03*
D28*
X27714000Y19026000D03*
D29*
X28214000Y17526000D03*
D28*
X27714000Y16026000D03*
D30*
X30564000Y17526000D03*
D31*
X29500000Y2912000D03*
X29500000Y11312000D03*
X34000000Y2912000D03*
X34000000Y11312000D03*
X22134000Y2912000D03*
X22134000Y11312000D03*
X26634000Y2912000D03*
X26634000Y11312000D03*
D32*
X12700000Y35066000D03*
X13650000Y32766000D03*
X11750000Y32766000D03*
X18034000Y11296000D03*
X17084000Y13596000D03*
X18984000Y13596000D03*
D33*
X5588000Y29528000D03*
X5588000Y37528000D03*
D34*
G36*
X20595565Y25728941D02*
X20616921Y25725773D01*
X20637864Y25720527D01*
X20658191Y25713253D01*
X20677708Y25704023D01*
X20696226Y25692923D01*
X20713568Y25680062D01*
X20729564Y25665563D01*
X20744063Y25649567D01*
X20756924Y25632225D01*
X20768024Y25613707D01*
X20777254Y25594190D01*
X20784528Y25573863D01*
X20789774Y25552920D01*
X20792942Y25531564D01*
X20794001Y25510000D01*
X20794001Y24910000D01*
X20792942Y24888436D01*
X20789774Y24867080D01*
X20784528Y24846137D01*
X20777254Y24825810D01*
X20768024Y24806293D01*
X20756924Y24787775D01*
X20744063Y24770433D01*
X20729564Y24754437D01*
X20713568Y24739938D01*
X20696226Y24727077D01*
X20677708Y24715977D01*
X20658191Y24706747D01*
X20637864Y24699473D01*
X20616921Y24694227D01*
X20595565Y24691059D01*
X20574001Y24690000D01*
X20573999Y24690000D01*
X20552435Y24691059D01*
X20531079Y24694227D01*
X20510136Y24699473D01*
X20489809Y24706747D01*
X20470292Y24715977D01*
X20451774Y24727077D01*
X20434432Y24739938D01*
X20418436Y24754437D01*
X20403937Y24770433D01*
X20391076Y24787775D01*
X20379976Y24806293D01*
X20370746Y24825810D01*
X20363472Y24846137D01*
X20358226Y24867080D01*
X20355058Y24888436D01*
X20353999Y24910000D01*
X20353999Y25510000D01*
X20355058Y25531564D01*
X20358226Y25552920D01*
X20363472Y25573863D01*
X20370746Y25594190D01*
X20379976Y25613707D01*
X20391076Y25632225D01*
X20403937Y25649567D01*
X20418436Y25665563D01*
X20434432Y25680062D01*
X20451774Y25692923D01*
X20470292Y25704023D01*
X20489809Y25713253D01*
X20510136Y25720527D01*
X20531079Y25725773D01*
X20552435Y25728941D01*
X20573999Y25730000D01*
X20574001Y25730000D01*
X20595565Y25728941D01*
X20595565Y25728941D01*
G37*
D35*
X20574000Y25210000D03*
D34*
G36*
X20095565Y25728941D02*
X20116921Y25725773D01*
X20137864Y25720527D01*
X20158191Y25713253D01*
X20177708Y25704023D01*
X20196226Y25692923D01*
X20213568Y25680062D01*
X20229564Y25665563D01*
X20244063Y25649567D01*
X20256924Y25632225D01*
X20268024Y25613707D01*
X20277254Y25594190D01*
X20284528Y25573863D01*
X20289774Y25552920D01*
X20292942Y25531564D01*
X20294001Y25510000D01*
X20294001Y24910000D01*
X20292942Y24888436D01*
X20289774Y24867080D01*
X20284528Y24846137D01*
X20277254Y24825810D01*
X20268024Y24806293D01*
X20256924Y24787775D01*
X20244063Y24770433D01*
X20229564Y24754437D01*
X20213568Y24739938D01*
X20196226Y24727077D01*
X20177708Y24715977D01*
X20158191Y24706747D01*
X20137864Y24699473D01*
X20116921Y24694227D01*
X20095565Y24691059D01*
X20074001Y24690000D01*
X20073999Y24690000D01*
X20052435Y24691059D01*
X20031079Y24694227D01*
X20010136Y24699473D01*
X19989809Y24706747D01*
X19970292Y24715977D01*
X19951774Y24727077D01*
X19934432Y24739938D01*
X19918436Y24754437D01*
X19903937Y24770433D01*
X19891076Y24787775D01*
X19879976Y24806293D01*
X19870746Y24825810D01*
X19863472Y24846137D01*
X19858226Y24867080D01*
X19855058Y24888436D01*
X19853999Y24910000D01*
X19853999Y25510000D01*
X19855058Y25531564D01*
X19858226Y25552920D01*
X19863472Y25573863D01*
X19870746Y25594190D01*
X19879976Y25613707D01*
X19891076Y25632225D01*
X19903937Y25649567D01*
X19918436Y25665563D01*
X19934432Y25680062D01*
X19951774Y25692923D01*
X19970292Y25704023D01*
X19989809Y25713253D01*
X20010136Y25720527D01*
X20031079Y25725773D01*
X20052435Y25728941D01*
X20073999Y25730000D01*
X20074001Y25730000D01*
X20095565Y25728941D01*
X20095565Y25728941D01*
G37*
D35*
X20074000Y25210000D03*
D34*
G36*
X19595565Y25728941D02*
X19616921Y25725773D01*
X19637864Y25720527D01*
X19658191Y25713253D01*
X19677708Y25704023D01*
X19696226Y25692923D01*
X19713568Y25680062D01*
X19729564Y25665563D01*
X19744063Y25649567D01*
X19756924Y25632225D01*
X19768024Y25613707D01*
X19777254Y25594190D01*
X19784528Y25573863D01*
X19789774Y25552920D01*
X19792942Y25531564D01*
X19794001Y25510000D01*
X19794001Y24910000D01*
X19792942Y24888436D01*
X19789774Y24867080D01*
X19784528Y24846137D01*
X19777254Y24825810D01*
X19768024Y24806293D01*
X19756924Y24787775D01*
X19744063Y24770433D01*
X19729564Y24754437D01*
X19713568Y24739938D01*
X19696226Y24727077D01*
X19677708Y24715977D01*
X19658191Y24706747D01*
X19637864Y24699473D01*
X19616921Y24694227D01*
X19595565Y24691059D01*
X19574001Y24690000D01*
X19573999Y24690000D01*
X19552435Y24691059D01*
X19531079Y24694227D01*
X19510136Y24699473D01*
X19489809Y24706747D01*
X19470292Y24715977D01*
X19451774Y24727077D01*
X19434432Y24739938D01*
X19418436Y24754437D01*
X19403937Y24770433D01*
X19391076Y24787775D01*
X19379976Y24806293D01*
X19370746Y24825810D01*
X19363472Y24846137D01*
X19358226Y24867080D01*
X19355058Y24888436D01*
X19353999Y24910000D01*
X19353999Y25510000D01*
X19355058Y25531564D01*
X19358226Y25552920D01*
X19363472Y25573863D01*
X19370746Y25594190D01*
X19379976Y25613707D01*
X19391076Y25632225D01*
X19403937Y25649567D01*
X19418436Y25665563D01*
X19434432Y25680062D01*
X19451774Y25692923D01*
X19470292Y25704023D01*
X19489809Y25713253D01*
X19510136Y25720527D01*
X19531079Y25725773D01*
X19552435Y25728941D01*
X19573999Y25730000D01*
X19574001Y25730000D01*
X19595565Y25728941D01*
X19595565Y25728941D01*
G37*
D35*
X19574000Y25210000D03*
D34*
G36*
X19095565Y25728941D02*
X19116921Y25725773D01*
X19137864Y25720527D01*
X19158191Y25713253D01*
X19177708Y25704023D01*
X19196226Y25692923D01*
X19213568Y25680062D01*
X19229564Y25665563D01*
X19244063Y25649567D01*
X19256924Y25632225D01*
X19268024Y25613707D01*
X19277254Y25594190D01*
X19284528Y25573863D01*
X19289774Y25552920D01*
X19292942Y25531564D01*
X19294001Y25510000D01*
X19294001Y24910000D01*
X19292942Y24888436D01*
X19289774Y24867080D01*
X19284528Y24846137D01*
X19277254Y24825810D01*
X19268024Y24806293D01*
X19256924Y24787775D01*
X19244063Y24770433D01*
X19229564Y24754437D01*
X19213568Y24739938D01*
X19196226Y24727077D01*
X19177708Y24715977D01*
X19158191Y24706747D01*
X19137864Y24699473D01*
X19116921Y24694227D01*
X19095565Y24691059D01*
X19074001Y24690000D01*
X19073999Y24690000D01*
X19052435Y24691059D01*
X19031079Y24694227D01*
X19010136Y24699473D01*
X18989809Y24706747D01*
X18970292Y24715977D01*
X18951774Y24727077D01*
X18934432Y24739938D01*
X18918436Y24754437D01*
X18903937Y24770433D01*
X18891076Y24787775D01*
X18879976Y24806293D01*
X18870746Y24825810D01*
X18863472Y24846137D01*
X18858226Y24867080D01*
X18855058Y24888436D01*
X18853999Y24910000D01*
X18853999Y25510000D01*
X18855058Y25531564D01*
X18858226Y25552920D01*
X18863472Y25573863D01*
X18870746Y25594190D01*
X18879976Y25613707D01*
X18891076Y25632225D01*
X18903937Y25649567D01*
X18918436Y25665563D01*
X18934432Y25680062D01*
X18951774Y25692923D01*
X18970292Y25704023D01*
X18989809Y25713253D01*
X19010136Y25720527D01*
X19031079Y25725773D01*
X19052435Y25728941D01*
X19073999Y25730000D01*
X19074001Y25730000D01*
X19095565Y25728941D01*
X19095565Y25728941D01*
G37*
D35*
X19074000Y25210000D03*
D34*
G36*
X18595565Y25728941D02*
X18616921Y25725773D01*
X18637864Y25720527D01*
X18658191Y25713253D01*
X18677708Y25704023D01*
X18696226Y25692923D01*
X18713568Y25680062D01*
X18729564Y25665563D01*
X18744063Y25649567D01*
X18756924Y25632225D01*
X18768024Y25613707D01*
X18777254Y25594190D01*
X18784528Y25573863D01*
X18789774Y25552920D01*
X18792942Y25531564D01*
X18794001Y25510000D01*
X18794001Y24910000D01*
X18792942Y24888436D01*
X18789774Y24867080D01*
X18784528Y24846137D01*
X18777254Y24825810D01*
X18768024Y24806293D01*
X18756924Y24787775D01*
X18744063Y24770433D01*
X18729564Y24754437D01*
X18713568Y24739938D01*
X18696226Y24727077D01*
X18677708Y24715977D01*
X18658191Y24706747D01*
X18637864Y24699473D01*
X18616921Y24694227D01*
X18595565Y24691059D01*
X18574001Y24690000D01*
X18573999Y24690000D01*
X18552435Y24691059D01*
X18531079Y24694227D01*
X18510136Y24699473D01*
X18489809Y24706747D01*
X18470292Y24715977D01*
X18451774Y24727077D01*
X18434432Y24739938D01*
X18418436Y24754437D01*
X18403937Y24770433D01*
X18391076Y24787775D01*
X18379976Y24806293D01*
X18370746Y24825810D01*
X18363472Y24846137D01*
X18358226Y24867080D01*
X18355058Y24888436D01*
X18353999Y24910000D01*
X18353999Y25510000D01*
X18355058Y25531564D01*
X18358226Y25552920D01*
X18363472Y25573863D01*
X18370746Y25594190D01*
X18379976Y25613707D01*
X18391076Y25632225D01*
X18403937Y25649567D01*
X18418436Y25665563D01*
X18434432Y25680062D01*
X18451774Y25692923D01*
X18470292Y25704023D01*
X18489809Y25713253D01*
X18510136Y25720527D01*
X18531079Y25725773D01*
X18552435Y25728941D01*
X18573999Y25730000D01*
X18574001Y25730000D01*
X18595565Y25728941D01*
X18595565Y25728941D01*
G37*
D35*
X18574000Y25210000D03*
D34*
G36*
X17895564Y26428942D02*
X17916920Y26425774D01*
X17937863Y26420528D01*
X17958190Y26413254D01*
X17977707Y26404024D01*
X17996225Y26392924D01*
X18013567Y26380063D01*
X18029563Y26365564D01*
X18044062Y26349568D01*
X18056923Y26332226D01*
X18068023Y26313708D01*
X18077253Y26294191D01*
X18084527Y26273864D01*
X18089773Y26252921D01*
X18092941Y26231565D01*
X18094000Y26210001D01*
X18094000Y26209999D01*
X18092941Y26188435D01*
X18089773Y26167079D01*
X18084527Y26146136D01*
X18077253Y26125809D01*
X18068023Y26106292D01*
X18056923Y26087774D01*
X18044062Y26070432D01*
X18029563Y26054436D01*
X18013567Y26039937D01*
X17996225Y26027076D01*
X17977707Y26015976D01*
X17958190Y26006746D01*
X17937863Y25999472D01*
X17916920Y25994226D01*
X17895564Y25991058D01*
X17874000Y25989999D01*
X17274000Y25989999D01*
X17252436Y25991058D01*
X17231080Y25994226D01*
X17210137Y25999472D01*
X17189810Y26006746D01*
X17170293Y26015976D01*
X17151775Y26027076D01*
X17134433Y26039937D01*
X17118437Y26054436D01*
X17103938Y26070432D01*
X17091077Y26087774D01*
X17079977Y26106292D01*
X17070747Y26125809D01*
X17063473Y26146136D01*
X17058227Y26167079D01*
X17055059Y26188435D01*
X17054000Y26209999D01*
X17054000Y26210001D01*
X17055059Y26231565D01*
X17058227Y26252921D01*
X17063473Y26273864D01*
X17070747Y26294191D01*
X17079977Y26313708D01*
X17091077Y26332226D01*
X17103938Y26349568D01*
X17118437Y26365564D01*
X17134433Y26380063D01*
X17151775Y26392924D01*
X17170293Y26404024D01*
X17189810Y26413254D01*
X17210137Y26420528D01*
X17231080Y26425774D01*
X17252436Y26428942D01*
X17274000Y26430001D01*
X17874000Y26430001D01*
X17895564Y26428942D01*
X17895564Y26428942D01*
G37*
D35*
X17574000Y26210000D03*
D34*
G36*
X17895564Y26928942D02*
X17916920Y26925774D01*
X17937863Y26920528D01*
X17958190Y26913254D01*
X17977707Y26904024D01*
X17996225Y26892924D01*
X18013567Y26880063D01*
X18029563Y26865564D01*
X18044062Y26849568D01*
X18056923Y26832226D01*
X18068023Y26813708D01*
X18077253Y26794191D01*
X18084527Y26773864D01*
X18089773Y26752921D01*
X18092941Y26731565D01*
X18094000Y26710001D01*
X18094000Y26709999D01*
X18092941Y26688435D01*
X18089773Y26667079D01*
X18084527Y26646136D01*
X18077253Y26625809D01*
X18068023Y26606292D01*
X18056923Y26587774D01*
X18044062Y26570432D01*
X18029563Y26554436D01*
X18013567Y26539937D01*
X17996225Y26527076D01*
X17977707Y26515976D01*
X17958190Y26506746D01*
X17937863Y26499472D01*
X17916920Y26494226D01*
X17895564Y26491058D01*
X17874000Y26489999D01*
X17274000Y26489999D01*
X17252436Y26491058D01*
X17231080Y26494226D01*
X17210137Y26499472D01*
X17189810Y26506746D01*
X17170293Y26515976D01*
X17151775Y26527076D01*
X17134433Y26539937D01*
X17118437Y26554436D01*
X17103938Y26570432D01*
X17091077Y26587774D01*
X17079977Y26606292D01*
X17070747Y26625809D01*
X17063473Y26646136D01*
X17058227Y26667079D01*
X17055059Y26688435D01*
X17054000Y26709999D01*
X17054000Y26710001D01*
X17055059Y26731565D01*
X17058227Y26752921D01*
X17063473Y26773864D01*
X17070747Y26794191D01*
X17079977Y26813708D01*
X17091077Y26832226D01*
X17103938Y26849568D01*
X17118437Y26865564D01*
X17134433Y26880063D01*
X17151775Y26892924D01*
X17170293Y26904024D01*
X17189810Y26913254D01*
X17210137Y26920528D01*
X17231080Y26925774D01*
X17252436Y26928942D01*
X17274000Y26930001D01*
X17874000Y26930001D01*
X17895564Y26928942D01*
X17895564Y26928942D01*
G37*
D35*
X17574000Y26710000D03*
D34*
G36*
X17895564Y27428942D02*
X17916920Y27425774D01*
X17937863Y27420528D01*
X17958190Y27413254D01*
X17977707Y27404024D01*
X17996225Y27392924D01*
X18013567Y27380063D01*
X18029563Y27365564D01*
X18044062Y27349568D01*
X18056923Y27332226D01*
X18068023Y27313708D01*
X18077253Y27294191D01*
X18084527Y27273864D01*
X18089773Y27252921D01*
X18092941Y27231565D01*
X18094000Y27210001D01*
X18094000Y27209999D01*
X18092941Y27188435D01*
X18089773Y27167079D01*
X18084527Y27146136D01*
X18077253Y27125809D01*
X18068023Y27106292D01*
X18056923Y27087774D01*
X18044062Y27070432D01*
X18029563Y27054436D01*
X18013567Y27039937D01*
X17996225Y27027076D01*
X17977707Y27015976D01*
X17958190Y27006746D01*
X17937863Y26999472D01*
X17916920Y26994226D01*
X17895564Y26991058D01*
X17874000Y26989999D01*
X17274000Y26989999D01*
X17252436Y26991058D01*
X17231080Y26994226D01*
X17210137Y26999472D01*
X17189810Y27006746D01*
X17170293Y27015976D01*
X17151775Y27027076D01*
X17134433Y27039937D01*
X17118437Y27054436D01*
X17103938Y27070432D01*
X17091077Y27087774D01*
X17079977Y27106292D01*
X17070747Y27125809D01*
X17063473Y27146136D01*
X17058227Y27167079D01*
X17055059Y27188435D01*
X17054000Y27209999D01*
X17054000Y27210001D01*
X17055059Y27231565D01*
X17058227Y27252921D01*
X17063473Y27273864D01*
X17070747Y27294191D01*
X17079977Y27313708D01*
X17091077Y27332226D01*
X17103938Y27349568D01*
X17118437Y27365564D01*
X17134433Y27380063D01*
X17151775Y27392924D01*
X17170293Y27404024D01*
X17189810Y27413254D01*
X17210137Y27420528D01*
X17231080Y27425774D01*
X17252436Y27428942D01*
X17274000Y27430001D01*
X17874000Y27430001D01*
X17895564Y27428942D01*
X17895564Y27428942D01*
G37*
D35*
X17574000Y27210000D03*
D34*
G36*
X17895564Y27928942D02*
X17916920Y27925774D01*
X17937863Y27920528D01*
X17958190Y27913254D01*
X17977707Y27904024D01*
X17996225Y27892924D01*
X18013567Y27880063D01*
X18029563Y27865564D01*
X18044062Y27849568D01*
X18056923Y27832226D01*
X18068023Y27813708D01*
X18077253Y27794191D01*
X18084527Y27773864D01*
X18089773Y27752921D01*
X18092941Y27731565D01*
X18094000Y27710001D01*
X18094000Y27709999D01*
X18092941Y27688435D01*
X18089773Y27667079D01*
X18084527Y27646136D01*
X18077253Y27625809D01*
X18068023Y27606292D01*
X18056923Y27587774D01*
X18044062Y27570432D01*
X18029563Y27554436D01*
X18013567Y27539937D01*
X17996225Y27527076D01*
X17977707Y27515976D01*
X17958190Y27506746D01*
X17937863Y27499472D01*
X17916920Y27494226D01*
X17895564Y27491058D01*
X17874000Y27489999D01*
X17274000Y27489999D01*
X17252436Y27491058D01*
X17231080Y27494226D01*
X17210137Y27499472D01*
X17189810Y27506746D01*
X17170293Y27515976D01*
X17151775Y27527076D01*
X17134433Y27539937D01*
X17118437Y27554436D01*
X17103938Y27570432D01*
X17091077Y27587774D01*
X17079977Y27606292D01*
X17070747Y27625809D01*
X17063473Y27646136D01*
X17058227Y27667079D01*
X17055059Y27688435D01*
X17054000Y27709999D01*
X17054000Y27710001D01*
X17055059Y27731565D01*
X17058227Y27752921D01*
X17063473Y27773864D01*
X17070747Y27794191D01*
X17079977Y27813708D01*
X17091077Y27832226D01*
X17103938Y27849568D01*
X17118437Y27865564D01*
X17134433Y27880063D01*
X17151775Y27892924D01*
X17170293Y27904024D01*
X17189810Y27913254D01*
X17210137Y27920528D01*
X17231080Y27925774D01*
X17252436Y27928942D01*
X17274000Y27930001D01*
X17874000Y27930001D01*
X17895564Y27928942D01*
X17895564Y27928942D01*
G37*
D35*
X17574000Y27710000D03*
D34*
G36*
X17895564Y28428942D02*
X17916920Y28425774D01*
X17937863Y28420528D01*
X17958190Y28413254D01*
X17977707Y28404024D01*
X17996225Y28392924D01*
X18013567Y28380063D01*
X18029563Y28365564D01*
X18044062Y28349568D01*
X18056923Y28332226D01*
X18068023Y28313708D01*
X18077253Y28294191D01*
X18084527Y28273864D01*
X18089773Y28252921D01*
X18092941Y28231565D01*
X18094000Y28210001D01*
X18094000Y28209999D01*
X18092941Y28188435D01*
X18089773Y28167079D01*
X18084527Y28146136D01*
X18077253Y28125809D01*
X18068023Y28106292D01*
X18056923Y28087774D01*
X18044062Y28070432D01*
X18029563Y28054436D01*
X18013567Y28039937D01*
X17996225Y28027076D01*
X17977707Y28015976D01*
X17958190Y28006746D01*
X17937863Y27999472D01*
X17916920Y27994226D01*
X17895564Y27991058D01*
X17874000Y27989999D01*
X17274000Y27989999D01*
X17252436Y27991058D01*
X17231080Y27994226D01*
X17210137Y27999472D01*
X17189810Y28006746D01*
X17170293Y28015976D01*
X17151775Y28027076D01*
X17134433Y28039937D01*
X17118437Y28054436D01*
X17103938Y28070432D01*
X17091077Y28087774D01*
X17079977Y28106292D01*
X17070747Y28125809D01*
X17063473Y28146136D01*
X17058227Y28167079D01*
X17055059Y28188435D01*
X17054000Y28209999D01*
X17054000Y28210001D01*
X17055059Y28231565D01*
X17058227Y28252921D01*
X17063473Y28273864D01*
X17070747Y28294191D01*
X17079977Y28313708D01*
X17091077Y28332226D01*
X17103938Y28349568D01*
X17118437Y28365564D01*
X17134433Y28380063D01*
X17151775Y28392924D01*
X17170293Y28404024D01*
X17189810Y28413254D01*
X17210137Y28420528D01*
X17231080Y28425774D01*
X17252436Y28428942D01*
X17274000Y28430001D01*
X17874000Y28430001D01*
X17895564Y28428942D01*
X17895564Y28428942D01*
G37*
D35*
X17574000Y28210000D03*
D34*
G36*
X18595565Y29728941D02*
X18616921Y29725773D01*
X18637864Y29720527D01*
X18658191Y29713253D01*
X18677708Y29704023D01*
X18696226Y29692923D01*
X18713568Y29680062D01*
X18729564Y29665563D01*
X18744063Y29649567D01*
X18756924Y29632225D01*
X18768024Y29613707D01*
X18777254Y29594190D01*
X18784528Y29573863D01*
X18789774Y29552920D01*
X18792942Y29531564D01*
X18794001Y29510000D01*
X18794001Y28910000D01*
X18792942Y28888436D01*
X18789774Y28867080D01*
X18784528Y28846137D01*
X18777254Y28825810D01*
X18768024Y28806293D01*
X18756924Y28787775D01*
X18744063Y28770433D01*
X18729564Y28754437D01*
X18713568Y28739938D01*
X18696226Y28727077D01*
X18677708Y28715977D01*
X18658191Y28706747D01*
X18637864Y28699473D01*
X18616921Y28694227D01*
X18595565Y28691059D01*
X18574001Y28690000D01*
X18573999Y28690000D01*
X18552435Y28691059D01*
X18531079Y28694227D01*
X18510136Y28699473D01*
X18489809Y28706747D01*
X18470292Y28715977D01*
X18451774Y28727077D01*
X18434432Y28739938D01*
X18418436Y28754437D01*
X18403937Y28770433D01*
X18391076Y28787775D01*
X18379976Y28806293D01*
X18370746Y28825810D01*
X18363472Y28846137D01*
X18358226Y28867080D01*
X18355058Y28888436D01*
X18353999Y28910000D01*
X18353999Y29510000D01*
X18355058Y29531564D01*
X18358226Y29552920D01*
X18363472Y29573863D01*
X18370746Y29594190D01*
X18379976Y29613707D01*
X18391076Y29632225D01*
X18403937Y29649567D01*
X18418436Y29665563D01*
X18434432Y29680062D01*
X18451774Y29692923D01*
X18470292Y29704023D01*
X18489809Y29713253D01*
X18510136Y29720527D01*
X18531079Y29725773D01*
X18552435Y29728941D01*
X18573999Y29730000D01*
X18574001Y29730000D01*
X18595565Y29728941D01*
X18595565Y29728941D01*
G37*
D35*
X18574000Y29210000D03*
D34*
G36*
X19095565Y29728941D02*
X19116921Y29725773D01*
X19137864Y29720527D01*
X19158191Y29713253D01*
X19177708Y29704023D01*
X19196226Y29692923D01*
X19213568Y29680062D01*
X19229564Y29665563D01*
X19244063Y29649567D01*
X19256924Y29632225D01*
X19268024Y29613707D01*
X19277254Y29594190D01*
X19284528Y29573863D01*
X19289774Y29552920D01*
X19292942Y29531564D01*
X19294001Y29510000D01*
X19294001Y28910000D01*
X19292942Y28888436D01*
X19289774Y28867080D01*
X19284528Y28846137D01*
X19277254Y28825810D01*
X19268024Y28806293D01*
X19256924Y28787775D01*
X19244063Y28770433D01*
X19229564Y28754437D01*
X19213568Y28739938D01*
X19196226Y28727077D01*
X19177708Y28715977D01*
X19158191Y28706747D01*
X19137864Y28699473D01*
X19116921Y28694227D01*
X19095565Y28691059D01*
X19074001Y28690000D01*
X19073999Y28690000D01*
X19052435Y28691059D01*
X19031079Y28694227D01*
X19010136Y28699473D01*
X18989809Y28706747D01*
X18970292Y28715977D01*
X18951774Y28727077D01*
X18934432Y28739938D01*
X18918436Y28754437D01*
X18903937Y28770433D01*
X18891076Y28787775D01*
X18879976Y28806293D01*
X18870746Y28825810D01*
X18863472Y28846137D01*
X18858226Y28867080D01*
X18855058Y28888436D01*
X18853999Y28910000D01*
X18853999Y29510000D01*
X18855058Y29531564D01*
X18858226Y29552920D01*
X18863472Y29573863D01*
X18870746Y29594190D01*
X18879976Y29613707D01*
X18891076Y29632225D01*
X18903937Y29649567D01*
X18918436Y29665563D01*
X18934432Y29680062D01*
X18951774Y29692923D01*
X18970292Y29704023D01*
X18989809Y29713253D01*
X19010136Y29720527D01*
X19031079Y29725773D01*
X19052435Y29728941D01*
X19073999Y29730000D01*
X19074001Y29730000D01*
X19095565Y29728941D01*
X19095565Y29728941D01*
G37*
D35*
X19074000Y29210000D03*
D34*
G36*
X19595565Y29728941D02*
X19616921Y29725773D01*
X19637864Y29720527D01*
X19658191Y29713253D01*
X19677708Y29704023D01*
X19696226Y29692923D01*
X19713568Y29680062D01*
X19729564Y29665563D01*
X19744063Y29649567D01*
X19756924Y29632225D01*
X19768024Y29613707D01*
X19777254Y29594190D01*
X19784528Y29573863D01*
X19789774Y29552920D01*
X19792942Y29531564D01*
X19794001Y29510000D01*
X19794001Y28910000D01*
X19792942Y28888436D01*
X19789774Y28867080D01*
X19784528Y28846137D01*
X19777254Y28825810D01*
X19768024Y28806293D01*
X19756924Y28787775D01*
X19744063Y28770433D01*
X19729564Y28754437D01*
X19713568Y28739938D01*
X19696226Y28727077D01*
X19677708Y28715977D01*
X19658191Y28706747D01*
X19637864Y28699473D01*
X19616921Y28694227D01*
X19595565Y28691059D01*
X19574001Y28690000D01*
X19573999Y28690000D01*
X19552435Y28691059D01*
X19531079Y28694227D01*
X19510136Y28699473D01*
X19489809Y28706747D01*
X19470292Y28715977D01*
X19451774Y28727077D01*
X19434432Y28739938D01*
X19418436Y28754437D01*
X19403937Y28770433D01*
X19391076Y28787775D01*
X19379976Y28806293D01*
X19370746Y28825810D01*
X19363472Y28846137D01*
X19358226Y28867080D01*
X19355058Y28888436D01*
X19353999Y28910000D01*
X19353999Y29510000D01*
X19355058Y29531564D01*
X19358226Y29552920D01*
X19363472Y29573863D01*
X19370746Y29594190D01*
X19379976Y29613707D01*
X19391076Y29632225D01*
X19403937Y29649567D01*
X19418436Y29665563D01*
X19434432Y29680062D01*
X19451774Y29692923D01*
X19470292Y29704023D01*
X19489809Y29713253D01*
X19510136Y29720527D01*
X19531079Y29725773D01*
X19552435Y29728941D01*
X19573999Y29730000D01*
X19574001Y29730000D01*
X19595565Y29728941D01*
X19595565Y29728941D01*
G37*
D35*
X19574000Y29210000D03*
D34*
G36*
X20095565Y29728941D02*
X20116921Y29725773D01*
X20137864Y29720527D01*
X20158191Y29713253D01*
X20177708Y29704023D01*
X20196226Y29692923D01*
X20213568Y29680062D01*
X20229564Y29665563D01*
X20244063Y29649567D01*
X20256924Y29632225D01*
X20268024Y29613707D01*
X20277254Y29594190D01*
X20284528Y29573863D01*
X20289774Y29552920D01*
X20292942Y29531564D01*
X20294001Y29510000D01*
X20294001Y28910000D01*
X20292942Y28888436D01*
X20289774Y28867080D01*
X20284528Y28846137D01*
X20277254Y28825810D01*
X20268024Y28806293D01*
X20256924Y28787775D01*
X20244063Y28770433D01*
X20229564Y28754437D01*
X20213568Y28739938D01*
X20196226Y28727077D01*
X20177708Y28715977D01*
X20158191Y28706747D01*
X20137864Y28699473D01*
X20116921Y28694227D01*
X20095565Y28691059D01*
X20074001Y28690000D01*
X20073999Y28690000D01*
X20052435Y28691059D01*
X20031079Y28694227D01*
X20010136Y28699473D01*
X19989809Y28706747D01*
X19970292Y28715977D01*
X19951774Y28727077D01*
X19934432Y28739938D01*
X19918436Y28754437D01*
X19903937Y28770433D01*
X19891076Y28787775D01*
X19879976Y28806293D01*
X19870746Y28825810D01*
X19863472Y28846137D01*
X19858226Y28867080D01*
X19855058Y28888436D01*
X19853999Y28910000D01*
X19853999Y29510000D01*
X19855058Y29531564D01*
X19858226Y29552920D01*
X19863472Y29573863D01*
X19870746Y29594190D01*
X19879976Y29613707D01*
X19891076Y29632225D01*
X19903937Y29649567D01*
X19918436Y29665563D01*
X19934432Y29680062D01*
X19951774Y29692923D01*
X19970292Y29704023D01*
X19989809Y29713253D01*
X20010136Y29720527D01*
X20031079Y29725773D01*
X20052435Y29728941D01*
X20073999Y29730000D01*
X20074001Y29730000D01*
X20095565Y29728941D01*
X20095565Y29728941D01*
G37*
D35*
X20074000Y29210000D03*
D34*
G36*
X20595565Y29728941D02*
X20616921Y29725773D01*
X20637864Y29720527D01*
X20658191Y29713253D01*
X20677708Y29704023D01*
X20696226Y29692923D01*
X20713568Y29680062D01*
X20729564Y29665563D01*
X20744063Y29649567D01*
X20756924Y29632225D01*
X20768024Y29613707D01*
X20777254Y29594190D01*
X20784528Y29573863D01*
X20789774Y29552920D01*
X20792942Y29531564D01*
X20794001Y29510000D01*
X20794001Y28910000D01*
X20792942Y28888436D01*
X20789774Y28867080D01*
X20784528Y28846137D01*
X20777254Y28825810D01*
X20768024Y28806293D01*
X20756924Y28787775D01*
X20744063Y28770433D01*
X20729564Y28754437D01*
X20713568Y28739938D01*
X20696226Y28727077D01*
X20677708Y28715977D01*
X20658191Y28706747D01*
X20637864Y28699473D01*
X20616921Y28694227D01*
X20595565Y28691059D01*
X20574001Y28690000D01*
X20573999Y28690000D01*
X20552435Y28691059D01*
X20531079Y28694227D01*
X20510136Y28699473D01*
X20489809Y28706747D01*
X20470292Y28715977D01*
X20451774Y28727077D01*
X20434432Y28739938D01*
X20418436Y28754437D01*
X20403937Y28770433D01*
X20391076Y28787775D01*
X20379976Y28806293D01*
X20370746Y28825810D01*
X20363472Y28846137D01*
X20358226Y28867080D01*
X20355058Y28888436D01*
X20353999Y28910000D01*
X20353999Y29510000D01*
X20355058Y29531564D01*
X20358226Y29552920D01*
X20363472Y29573863D01*
X20370746Y29594190D01*
X20379976Y29613707D01*
X20391076Y29632225D01*
X20403937Y29649567D01*
X20418436Y29665563D01*
X20434432Y29680062D01*
X20451774Y29692923D01*
X20470292Y29704023D01*
X20489809Y29713253D01*
X20510136Y29720527D01*
X20531079Y29725773D01*
X20552435Y29728941D01*
X20573999Y29730000D01*
X20574001Y29730000D01*
X20595565Y29728941D01*
X20595565Y29728941D01*
G37*
D35*
X20574000Y29210000D03*
D34*
G36*
X21895564Y28428942D02*
X21916920Y28425774D01*
X21937863Y28420528D01*
X21958190Y28413254D01*
X21977707Y28404024D01*
X21996225Y28392924D01*
X22013567Y28380063D01*
X22029563Y28365564D01*
X22044062Y28349568D01*
X22056923Y28332226D01*
X22068023Y28313708D01*
X22077253Y28294191D01*
X22084527Y28273864D01*
X22089773Y28252921D01*
X22092941Y28231565D01*
X22094000Y28210001D01*
X22094000Y28209999D01*
X22092941Y28188435D01*
X22089773Y28167079D01*
X22084527Y28146136D01*
X22077253Y28125809D01*
X22068023Y28106292D01*
X22056923Y28087774D01*
X22044062Y28070432D01*
X22029563Y28054436D01*
X22013567Y28039937D01*
X21996225Y28027076D01*
X21977707Y28015976D01*
X21958190Y28006746D01*
X21937863Y27999472D01*
X21916920Y27994226D01*
X21895564Y27991058D01*
X21874000Y27989999D01*
X21274000Y27989999D01*
X21252436Y27991058D01*
X21231080Y27994226D01*
X21210137Y27999472D01*
X21189810Y28006746D01*
X21170293Y28015976D01*
X21151775Y28027076D01*
X21134433Y28039937D01*
X21118437Y28054436D01*
X21103938Y28070432D01*
X21091077Y28087774D01*
X21079977Y28106292D01*
X21070747Y28125809D01*
X21063473Y28146136D01*
X21058227Y28167079D01*
X21055059Y28188435D01*
X21054000Y28209999D01*
X21054000Y28210001D01*
X21055059Y28231565D01*
X21058227Y28252921D01*
X21063473Y28273864D01*
X21070747Y28294191D01*
X21079977Y28313708D01*
X21091077Y28332226D01*
X21103938Y28349568D01*
X21118437Y28365564D01*
X21134433Y28380063D01*
X21151775Y28392924D01*
X21170293Y28404024D01*
X21189810Y28413254D01*
X21210137Y28420528D01*
X21231080Y28425774D01*
X21252436Y28428942D01*
X21274000Y28430001D01*
X21874000Y28430001D01*
X21895564Y28428942D01*
X21895564Y28428942D01*
G37*
D35*
X21574000Y28210000D03*
D34*
G36*
X21895564Y27928942D02*
X21916920Y27925774D01*
X21937863Y27920528D01*
X21958190Y27913254D01*
X21977707Y27904024D01*
X21996225Y27892924D01*
X22013567Y27880063D01*
X22029563Y27865564D01*
X22044062Y27849568D01*
X22056923Y27832226D01*
X22068023Y27813708D01*
X22077253Y27794191D01*
X22084527Y27773864D01*
X22089773Y27752921D01*
X22092941Y27731565D01*
X22094000Y27710001D01*
X22094000Y27709999D01*
X22092941Y27688435D01*
X22089773Y27667079D01*
X22084527Y27646136D01*
X22077253Y27625809D01*
X22068023Y27606292D01*
X22056923Y27587774D01*
X22044062Y27570432D01*
X22029563Y27554436D01*
X22013567Y27539937D01*
X21996225Y27527076D01*
X21977707Y27515976D01*
X21958190Y27506746D01*
X21937863Y27499472D01*
X21916920Y27494226D01*
X21895564Y27491058D01*
X21874000Y27489999D01*
X21274000Y27489999D01*
X21252436Y27491058D01*
X21231080Y27494226D01*
X21210137Y27499472D01*
X21189810Y27506746D01*
X21170293Y27515976D01*
X21151775Y27527076D01*
X21134433Y27539937D01*
X21118437Y27554436D01*
X21103938Y27570432D01*
X21091077Y27587774D01*
X21079977Y27606292D01*
X21070747Y27625809D01*
X21063473Y27646136D01*
X21058227Y27667079D01*
X21055059Y27688435D01*
X21054000Y27709999D01*
X21054000Y27710001D01*
X21055059Y27731565D01*
X21058227Y27752921D01*
X21063473Y27773864D01*
X21070747Y27794191D01*
X21079977Y27813708D01*
X21091077Y27832226D01*
X21103938Y27849568D01*
X21118437Y27865564D01*
X21134433Y27880063D01*
X21151775Y27892924D01*
X21170293Y27904024D01*
X21189810Y27913254D01*
X21210137Y27920528D01*
X21231080Y27925774D01*
X21252436Y27928942D01*
X21274000Y27930001D01*
X21874000Y27930001D01*
X21895564Y27928942D01*
X21895564Y27928942D01*
G37*
D35*
X21574000Y27710000D03*
D34*
G36*
X21895564Y27428942D02*
X21916920Y27425774D01*
X21937863Y27420528D01*
X21958190Y27413254D01*
X21977707Y27404024D01*
X21996225Y27392924D01*
X22013567Y27380063D01*
X22029563Y27365564D01*
X22044062Y27349568D01*
X22056923Y27332226D01*
X22068023Y27313708D01*
X22077253Y27294191D01*
X22084527Y27273864D01*
X22089773Y27252921D01*
X22092941Y27231565D01*
X22094000Y27210001D01*
X22094000Y27209999D01*
X22092941Y27188435D01*
X22089773Y27167079D01*
X22084527Y27146136D01*
X22077253Y27125809D01*
X22068023Y27106292D01*
X22056923Y27087774D01*
X22044062Y27070432D01*
X22029563Y27054436D01*
X22013567Y27039937D01*
X21996225Y27027076D01*
X21977707Y27015976D01*
X21958190Y27006746D01*
X21937863Y26999472D01*
X21916920Y26994226D01*
X21895564Y26991058D01*
X21874000Y26989999D01*
X21274000Y26989999D01*
X21252436Y26991058D01*
X21231080Y26994226D01*
X21210137Y26999472D01*
X21189810Y27006746D01*
X21170293Y27015976D01*
X21151775Y27027076D01*
X21134433Y27039937D01*
X21118437Y27054436D01*
X21103938Y27070432D01*
X21091077Y27087774D01*
X21079977Y27106292D01*
X21070747Y27125809D01*
X21063473Y27146136D01*
X21058227Y27167079D01*
X21055059Y27188435D01*
X21054000Y27209999D01*
X21054000Y27210001D01*
X21055059Y27231565D01*
X21058227Y27252921D01*
X21063473Y27273864D01*
X21070747Y27294191D01*
X21079977Y27313708D01*
X21091077Y27332226D01*
X21103938Y27349568D01*
X21118437Y27365564D01*
X21134433Y27380063D01*
X21151775Y27392924D01*
X21170293Y27404024D01*
X21189810Y27413254D01*
X21210137Y27420528D01*
X21231080Y27425774D01*
X21252436Y27428942D01*
X21274000Y27430001D01*
X21874000Y27430001D01*
X21895564Y27428942D01*
X21895564Y27428942D01*
G37*
D35*
X21574000Y27210000D03*
D34*
G36*
X21895564Y26928942D02*
X21916920Y26925774D01*
X21937863Y26920528D01*
X21958190Y26913254D01*
X21977707Y26904024D01*
X21996225Y26892924D01*
X22013567Y26880063D01*
X22029563Y26865564D01*
X22044062Y26849568D01*
X22056923Y26832226D01*
X22068023Y26813708D01*
X22077253Y26794191D01*
X22084527Y26773864D01*
X22089773Y26752921D01*
X22092941Y26731565D01*
X22094000Y26710001D01*
X22094000Y26709999D01*
X22092941Y26688435D01*
X22089773Y26667079D01*
X22084527Y26646136D01*
X22077253Y26625809D01*
X22068023Y26606292D01*
X22056923Y26587774D01*
X22044062Y26570432D01*
X22029563Y26554436D01*
X22013567Y26539937D01*
X21996225Y26527076D01*
X21977707Y26515976D01*
X21958190Y26506746D01*
X21937863Y26499472D01*
X21916920Y26494226D01*
X21895564Y26491058D01*
X21874000Y26489999D01*
X21274000Y26489999D01*
X21252436Y26491058D01*
X21231080Y26494226D01*
X21210137Y26499472D01*
X21189810Y26506746D01*
X21170293Y26515976D01*
X21151775Y26527076D01*
X21134433Y26539937D01*
X21118437Y26554436D01*
X21103938Y26570432D01*
X21091077Y26587774D01*
X21079977Y26606292D01*
X21070747Y26625809D01*
X21063473Y26646136D01*
X21058227Y26667079D01*
X21055059Y26688435D01*
X21054000Y26709999D01*
X21054000Y26710001D01*
X21055059Y26731565D01*
X21058227Y26752921D01*
X21063473Y26773864D01*
X21070747Y26794191D01*
X21079977Y26813708D01*
X21091077Y26832226D01*
X21103938Y26849568D01*
X21118437Y26865564D01*
X21134433Y26880063D01*
X21151775Y26892924D01*
X21170293Y26904024D01*
X21189810Y26913254D01*
X21210137Y26920528D01*
X21231080Y26925774D01*
X21252436Y26928942D01*
X21274000Y26930001D01*
X21874000Y26930001D01*
X21895564Y26928942D01*
X21895564Y26928942D01*
G37*
D35*
X21574000Y26710000D03*
D34*
G36*
X21895564Y26428942D02*
X21916920Y26425774D01*
X21937863Y26420528D01*
X21958190Y26413254D01*
X21977707Y26404024D01*
X21996225Y26392924D01*
X22013567Y26380063D01*
X22029563Y26365564D01*
X22044062Y26349568D01*
X22056923Y26332226D01*
X22068023Y26313708D01*
X22077253Y26294191D01*
X22084527Y26273864D01*
X22089773Y26252921D01*
X22092941Y26231565D01*
X22094000Y26210001D01*
X22094000Y26209999D01*
X22092941Y26188435D01*
X22089773Y26167079D01*
X22084527Y26146136D01*
X22077253Y26125809D01*
X22068023Y26106292D01*
X22056923Y26087774D01*
X22044062Y26070432D01*
X22029563Y26054436D01*
X22013567Y26039937D01*
X21996225Y26027076D01*
X21977707Y26015976D01*
X21958190Y26006746D01*
X21937863Y25999472D01*
X21916920Y25994226D01*
X21895564Y25991058D01*
X21874000Y25989999D01*
X21274000Y25989999D01*
X21252436Y25991058D01*
X21231080Y25994226D01*
X21210137Y25999472D01*
X21189810Y26006746D01*
X21170293Y26015976D01*
X21151775Y26027076D01*
X21134433Y26039937D01*
X21118437Y26054436D01*
X21103938Y26070432D01*
X21091077Y26087774D01*
X21079977Y26106292D01*
X21070747Y26125809D01*
X21063473Y26146136D01*
X21058227Y26167079D01*
X21055059Y26188435D01*
X21054000Y26209999D01*
X21054000Y26210001D01*
X21055059Y26231565D01*
X21058227Y26252921D01*
X21063473Y26273864D01*
X21070747Y26294191D01*
X21079977Y26313708D01*
X21091077Y26332226D01*
X21103938Y26349568D01*
X21118437Y26365564D01*
X21134433Y26380063D01*
X21151775Y26392924D01*
X21170293Y26404024D01*
X21189810Y26413254D01*
X21210137Y26420528D01*
X21231080Y26425774D01*
X21252436Y26428942D01*
X21274000Y26430001D01*
X21874000Y26430001D01*
X21895564Y26428942D01*
X21895564Y26428942D01*
G37*
D35*
X21574000Y26210000D03*
D36*
X20174000Y27810000D03*
X20174000Y26610000D03*
X18974000Y26610000D03*
X18974000Y27810000D03*
D37*
X7702000Y15921000D03*
X8352000Y15921000D03*
X9002000Y15921000D03*
X9652000Y15921000D03*
X10302000Y15921000D03*
X10952000Y15921000D03*
X11602000Y15921000D03*
X11602000Y21671000D03*
X10952000Y21671000D03*
X10302000Y21671000D03*
X9652000Y21671000D03*
X9002000Y21671000D03*
X8352000Y21671000D03*
X7702000Y21671000D03*
D38*
X12458000Y26924000D03*
X13958000Y26924000D03*
X11950000Y30988000D03*
X13450000Y30988000D03*
X30214000Y13462000D03*
X28714000Y13462000D03*
X27420000Y13462000D03*
X25920000Y13462000D03*
X18784000Y15494000D03*
X17284000Y15494000D03*
D39*
X11176000Y12180000D03*
X11176000Y10680000D03*
X7620000Y12180000D03*
X7620000Y10680000D03*
D38*
X3036000Y7620000D03*
X1536000Y7620000D03*
X16498000Y21844000D03*
X14998000Y21844000D03*
D10*
X20304000Y33782000D03*
X18304000Y33782000D03*
D40*
X15367000Y17764000D03*
X15367000Y15764000D03*
D11*
X25146000Y18276000D03*
X25146000Y16776000D03*
D41*
X20054000Y31750000D03*
X18554000Y31750000D03*
D11*
X13462000Y20332000D03*
X13462000Y21832000D03*
X13462000Y16014000D03*
X13462000Y17514000D03*
D41*
X10148000Y13716000D03*
X8648000Y13716000D03*
X13196000Y13716000D03*
X11696000Y13716000D03*
X5600000Y13716000D03*
X7100000Y13716000D03*
X27952000Y20828000D03*
X29452000Y20828000D03*
D42*
X35814000Y44704000D03*
X2286000Y16764000D03*
D41*
X28182000Y48006000D03*
X26682000Y48006000D03*
D43*
X3035300Y5842000D03*
X1536700Y5842000D03*
D44*
X37500000Y2500000D03*
X2500000Y2500000D03*
X37500000Y48500000D03*
X2500000Y48500000D03*
M02*
