G04 #@! TF.GenerationSoftware,KiCad,Pcbnew,5.0.2-bee76a0~70~ubuntu18.04.1*
G04 #@! TF.CreationDate,2019-04-01T01:37:44+08:00*
G04 #@! TF.ProjectId,TINY-REFLOW-CONTROLLER,54494e59-2d52-4454-964c-4f572d434f4e,rev?*
G04 #@! TF.SameCoordinates,PX8f0d180PY5f5e100*
G04 #@! TF.FileFunction,Copper,L2,Bot*
G04 #@! TF.FilePolarity,Positive*
%FSLAX46Y46*%
G04 Gerber Fmt 4.6, Leading zero omitted, Abs format (unit mm)*
G04 Created by KiCad (PCBNEW 5.0.2-bee76a0~70~ubuntu18.04.1) date Mon 01 Apr 2019 01:37:44 AM +08*
%MOMM*%
%LPD*%
G01*
G04 APERTURE LIST*
G04 #@! TA.AperFunction,ComponentPad*
%ADD10C,1.848000*%
G04 #@! TD*
G04 #@! TA.AperFunction,ComponentPad*
%ADD11O,1.727200X1.727200*%
G04 #@! TD*
G04 #@! TA.AperFunction,ComponentPad*
%ADD12O,1.700000X1.300000*%
G04 #@! TD*
G04 #@! TA.AperFunction,ComponentPad*
%ADD13C,1.200000*%
G04 #@! TD*
G04 #@! TA.AperFunction,ViaPad*
%ADD14C,0.500000*%
G04 #@! TD*
G04 #@! TA.AperFunction,Conductor*
%ADD15C,0.254000*%
G04 #@! TD*
G04 #@! TA.AperFunction,Conductor*
%ADD16C,0.508000*%
G04 #@! TD*
G04 #@! TA.AperFunction,Conductor*
%ADD17C,0.381000*%
G04 #@! TD*
G04 #@! TA.AperFunction,Conductor*
%ADD18C,0.253000*%
G04 #@! TD*
G04 APERTURE END LIST*
D10*
G04 #@! TO.P,J5,2*
G04 #@! TO.N,Net-(J5-Pad2)*
X22832000Y5588000D03*
G04 #@! TO.P,J5,1*
G04 #@! TO.N,5V0*
X19332000Y5588000D03*
G04 #@! TD*
D11*
G04 #@! TO.P,J4,1*
G04 #@! TO.N,/D12*
X4318000Y21082000D03*
G04 #@! TO.P,J4,2*
G04 #@! TO.N,3V3*
X1778000Y21082000D03*
G04 #@! TO.P,J4,3*
G04 #@! TO.N,/D13*
X4318000Y18542000D03*
G04 #@! TO.P,J4,4*
G04 #@! TO.N,/D11*
X1778000Y18542000D03*
G04 #@! TO.P,J4,5*
G04 #@! TO.N,/RST*
X4318000Y16002000D03*
G04 #@! TO.P,J4,6*
G04 #@! TO.N,GND*
X1778000Y16002000D03*
G04 #@! TD*
D12*
G04 #@! TO.P,J3,9*
G04 #@! TO.N,Net-(J3-Pad9)*
X26017000Y47059000D03*
G04 #@! TO.P,J3,8*
G04 #@! TO.N,Net-(J3-Pad8)*
X26017000Y39809000D03*
D13*
G04 #@! TO.P,J3,7*
G04 #@! TO.N,Net-(J3-Pad7)*
X23367000Y45859000D03*
G04 #@! TO.P,J3,6*
G04 #@! TO.N,Net-(J3-Pad6)*
X23367000Y41009000D03*
G04 #@! TD*
D10*
G04 #@! TO.P,J1,1*
G04 #@! TO.N,/TC-*
X5108000Y5588000D03*
G04 #@! TO.P,J1,2*
G04 #@! TO.N,/TC+*
X8608000Y5588000D03*
G04 #@! TD*
G04 #@! TO.P,J2,2*
G04 #@! TO.N,Net-(J2-Pad2)*
X15720000Y5588000D03*
G04 #@! TO.P,J2,1*
G04 #@! TO.N,5V0*
X12220000Y5588000D03*
G04 #@! TD*
D14*
G04 #@! TO.N,GND*
X7620000Y45720000D03*
X11430000Y45720000D03*
X11430000Y43180000D03*
X11430000Y48260000D03*
X15240000Y45720000D03*
X22225000Y48260000D03*
X22225000Y46990000D03*
X12700000Y11430000D03*
X13970000Y10160000D03*
X12700000Y8890000D03*
X13970000Y15240000D03*
X20701000Y22860000D03*
X19812000Y21844000D03*
X19812000Y23876000D03*
X21590000Y23876000D03*
X21590000Y21844000D03*
X11938000Y19558000D03*
X12446000Y20066000D03*
X10414000Y5588000D03*
X8636000Y3810000D03*
X6858000Y5588000D03*
X5080000Y3810000D03*
X3302000Y5588000D03*
X5080000Y7366000D03*
X8636000Y7366000D03*
X6858000Y9144000D03*
X1524000Y3810000D03*
X1524000Y7366000D03*
X3302000Y9144000D03*
X3302000Y2032000D03*
X6858000Y2032000D03*
X10668000Y2032000D03*
X12446000Y3810000D03*
X14224000Y2032000D03*
X1270000Y33020000D03*
X2540000Y31750000D03*
X1270000Y30480000D03*
X2540000Y29210000D03*
X1270000Y27940000D03*
X2540000Y26670000D03*
X1270000Y25400000D03*
X2540000Y24130000D03*
X1270000Y22860000D03*
X3810000Y25400000D03*
X3810000Y27940000D03*
X5080000Y29210000D03*
X6350000Y27940000D03*
X7620000Y29210000D03*
X7620000Y26670000D03*
X8890000Y27940000D03*
X10160000Y26670000D03*
X10160000Y29210000D03*
X8890000Y25400000D03*
X25400000Y44450000D03*
X25400000Y41910000D03*
X26670000Y43180000D03*
X26670000Y45720000D03*
X17272000Y2032000D03*
X19050000Y3810000D03*
X20828000Y2032000D03*
X22606000Y3810000D03*
X24384000Y2032000D03*
X26162000Y3810000D03*
X19050000Y12700000D03*
X17780000Y13970000D03*
X17780000Y11430000D03*
X19050000Y10160000D03*
X17780000Y8890000D03*
X19050000Y7620000D03*
X20320000Y8890000D03*
X16510000Y46990000D03*
X15240000Y48260000D03*
X17780000Y45720000D03*
X16510000Y44450000D03*
X15240000Y43180000D03*
X13970000Y44450000D03*
X8890000Y44450000D03*
X8890000Y46990000D03*
X7620000Y48260000D03*
X6350000Y46990000D03*
X21209000Y19304000D03*
X13335000Y24765000D03*
X14605000Y24765000D03*
X15875000Y24765000D03*
X13335000Y29845000D03*
X14605000Y29845000D03*
X15875000Y29845000D03*
X5080000Y44450000D03*
X6350000Y43180000D03*
X3810000Y43180000D03*
X3810000Y40640000D03*
X5080000Y39370000D03*
X6350000Y38100000D03*
X5080000Y36830000D03*
X6350000Y35560000D03*
X7620000Y36830000D03*
X8890000Y38100000D03*
X8890000Y35560000D03*
X7620000Y34290000D03*
X24130000Y15240000D03*
X25400000Y16510000D03*
X26670000Y15240000D03*
X22860000Y8890000D03*
X24130000Y7620000D03*
X25400000Y8890000D03*
X26670000Y7620000D03*
X25400000Y6350000D03*
G04 #@! TO.N,/TC-*
X8001000Y13970000D03*
X7505000Y10172000D03*
G04 #@! TO.N,3V3*
X12319000Y16002000D03*
X12319000Y16510000D03*
X10795000Y16510000D03*
X17411000Y18542000D03*
X20066000Y26416000D03*
X21209000Y42037000D03*
X26543000Y28321000D03*
X26162000Y28702000D03*
X26035000Y18415000D03*
X26543000Y18415000D03*
G04 #@! TO.N,/D12*
X5715000Y18669012D03*
G04 #@! TO.N,/RST*
X20828000Y47244000D03*
X9398000Y18161000D03*
X25781000Y25019000D03*
G04 #@! TO.N,/D2*
X11430000Y41529000D03*
X23876000Y25527000D03*
G04 #@! TO.N,/D3*
X11430000Y40640000D03*
X23241000Y25908000D03*
G04 #@! TO.N,/D4*
X3810000Y46736000D03*
X22606000Y26416000D03*
G04 #@! TO.N,/D5*
X16764000Y24257000D03*
X16002000Y33147000D03*
G04 #@! TO.N,/D10*
X16764000Y22987000D03*
X15875000Y19558000D03*
G04 #@! TO.N,/D0*
X19939000Y39370000D03*
X25146000Y24511000D03*
G04 #@! TO.N,/D1*
X20701000Y39370000D03*
X24511000Y25019000D03*
G04 #@! TO.N,5V0*
X22740000Y32646000D03*
X22740000Y32131000D03*
X22740000Y31623000D03*
X22733000Y33147000D03*
X7112000Y24194000D03*
X7620000Y24194000D03*
G04 #@! TO.N,/SDA*
X24257000Y21844000D03*
X16510000Y38180000D03*
G04 #@! TO.N,/SCL*
X16463000Y35480000D03*
X24616581Y22477039D03*
G04 #@! TD*
D15*
G04 #@! TO.N,GND*
X7620000Y45720000D02*
X11430000Y45720000D01*
X11430000Y45720000D02*
X11430000Y48260000D01*
X11430000Y45720000D02*
X15240000Y45720000D01*
X22225000Y48260000D02*
X22225000Y46990000D01*
X12700000Y11430000D02*
X13970000Y10160000D01*
X20701000Y22860000D02*
X20701000Y22733000D01*
X12446000Y20066000D02*
X11938000Y19558000D01*
X10414000Y5588000D02*
X8636000Y3810000D01*
X6858000Y3810000D02*
X5080000Y3810000D01*
X6858000Y5588000D02*
X6858000Y3810000D01*
D16*
X3302000Y5588000D02*
X1524000Y3810000D01*
X1524000Y7366000D02*
X3302000Y9144000D01*
X3302000Y2032000D02*
X6858000Y2032000D01*
X10668000Y2032000D02*
X12446000Y3810000D01*
D15*
X1270000Y33020000D02*
X2540000Y31750000D01*
X1270000Y30480000D02*
X2540000Y29210000D01*
X1270000Y27940000D02*
X2540000Y26670000D01*
X1270000Y25400000D02*
X2540000Y24130000D01*
X2540000Y24130000D02*
X3810000Y25400000D01*
X3810000Y27940000D02*
X5080000Y29210000D01*
X6350000Y27940000D02*
X7620000Y29210000D01*
X7620000Y26670000D02*
X8890000Y27940000D01*
X10160000Y26670000D02*
X10160000Y29210000D01*
X25400000Y44450000D02*
X25400000Y41910000D01*
X26670000Y43180000D02*
X26670000Y45720000D01*
X14224000Y2032000D02*
X17272000Y2032000D01*
X19050000Y3810000D02*
X20828000Y2032000D01*
X22606000Y3810000D02*
X24384000Y2032000D01*
X19050000Y12700000D02*
X17780000Y13970000D01*
X17780000Y11430000D02*
X19050000Y10160000D01*
X17780000Y8890000D02*
X19050000Y7620000D01*
X16510000Y46990000D02*
X15240000Y48260000D01*
X17780000Y45720000D02*
X16510000Y44450000D01*
X15240000Y43180000D02*
X13970000Y44450000D01*
X7620000Y45720000D02*
X8890000Y44450000D01*
X8890000Y46990000D02*
X7620000Y48260000D01*
X13335000Y24765000D02*
X14605000Y24765000D01*
X13335000Y29845000D02*
X14605000Y29845000D01*
X5080000Y44450000D02*
X6350000Y43180000D01*
X3810000Y43180000D02*
X3810000Y40640000D01*
X5080000Y39370000D02*
X6350000Y38100000D01*
X5080000Y36830000D02*
X6350000Y35560000D01*
X7620000Y36830000D02*
X8890000Y38100000D01*
X8890000Y35560000D02*
X7620000Y34290000D01*
X17780000Y13970000D02*
X22860000Y13970000D01*
X22860000Y13970000D02*
X24130000Y15240000D01*
X25400000Y16510000D02*
X26670000Y15240000D01*
X20320000Y8890000D02*
X22860000Y8890000D01*
X24130000Y7620000D02*
X25400000Y8890000D01*
X26670000Y7620000D02*
X25400000Y6350000D01*
G04 #@! TO.N,/TC-*
X7505000Y13474000D02*
X8001000Y13970000D01*
X7505000Y10172000D02*
X7505000Y13474000D01*
D16*
G04 #@! TO.N,3V3*
X12319000Y16002000D02*
X12319000Y16510000D01*
D15*
X20320000Y26416000D02*
X23622000Y23114000D01*
X23622000Y23114000D02*
X23622000Y20701000D01*
X23622000Y20701000D02*
X21463000Y18542000D01*
X20066000Y26416000D02*
X20320000Y26416000D01*
X21463000Y18542000D02*
X17411000Y18542000D01*
D16*
X21209000Y40894000D02*
X21209000Y42037000D01*
X21971000Y40132000D02*
X21209000Y40894000D01*
X21971000Y38862000D02*
X21971000Y40132000D01*
X21082000Y37973000D02*
X21971000Y38862000D01*
X23495000Y33401000D02*
X21082000Y35814000D01*
X23495000Y31369000D02*
X23495000Y33401000D01*
X26162000Y28702000D02*
X23495000Y31369000D01*
X21082000Y35814000D02*
X21082000Y37973000D01*
X26162000Y28702000D02*
X26543000Y28321000D01*
X22098000Y16510000D02*
X12319000Y16510000D01*
X22225000Y16510000D02*
X22098000Y16510000D01*
X24130000Y18415000D02*
X22225000Y16510000D01*
X26543000Y18415000D02*
X24130000Y18415000D01*
X3302000Y22606000D02*
X1778000Y21082000D01*
X7493000Y22606000D02*
X3302000Y22606000D01*
X7747000Y22352000D02*
X7493000Y22606000D01*
X7747000Y17653000D02*
X7747000Y22352000D01*
X10795000Y16510000D02*
X8890000Y16510000D01*
X8890000Y16510000D02*
X7747000Y17653000D01*
D15*
G04 #@! TO.N,/D12*
X4318000Y21082000D02*
X5715000Y19685000D01*
X5715000Y19022565D02*
X5715000Y18669012D01*
X5715000Y19685000D02*
X5715000Y19022565D01*
G04 #@! TO.N,/RST*
X9652000Y17907000D02*
X9398000Y18161000D01*
X25781000Y21971000D02*
X21717000Y17907000D01*
X25781000Y25019000D02*
X25781000Y21971000D01*
X21717000Y17907000D02*
X9652000Y17907000D01*
X20574000Y46990000D02*
X20828000Y47244000D01*
X25781000Y27178000D02*
X20447000Y32512000D01*
X20447000Y32512000D02*
X20447000Y38227000D01*
X20574000Y40640000D02*
X20574000Y46990000D01*
X25781000Y25019000D02*
X25781000Y27178000D01*
X21336000Y39116000D02*
X21336000Y39878000D01*
X21336000Y39878000D02*
X20574000Y40640000D01*
X20447000Y38227000D02*
X21336000Y39116000D01*
G04 #@! TO.N,/D2*
X23876000Y26797000D02*
X18923000Y31750000D01*
X23876000Y25527000D02*
X23876000Y26797000D01*
X18923000Y38227000D02*
X16129000Y41021000D01*
X11938000Y41021000D02*
X11430000Y41529000D01*
X18923000Y31750000D02*
X18923000Y38227000D01*
X16129000Y41021000D02*
X11938000Y41021000D01*
G04 #@! TO.N,/D3*
X23241000Y26670000D02*
X18415000Y31496000D01*
X23241000Y25908000D02*
X23241000Y26670000D01*
X11557000Y40513000D02*
X11430000Y40640000D01*
X18415000Y31496000D02*
X18415000Y37973000D01*
X18415000Y37973000D02*
X15875000Y40513000D01*
X15875000Y40513000D02*
X11557000Y40513000D01*
G04 #@! TO.N,/D4*
X17907000Y31115000D02*
X17907000Y37719000D01*
X4445000Y46736000D02*
X3810000Y46736000D01*
X22606000Y26416000D02*
X17907000Y31115000D01*
X17907000Y37719000D02*
X15621000Y40005000D01*
X15621000Y40005000D02*
X11176000Y40005000D01*
X11176000Y40005000D02*
X4445000Y46736000D01*
G04 #@! TO.N,/D5*
X16764000Y29972000D02*
X16764000Y24257000D01*
X16383000Y30353000D02*
X16764000Y29972000D01*
X16002000Y33147000D02*
X16383000Y32766000D01*
X16383000Y32766000D02*
X16383000Y30353000D01*
G04 #@! TO.N,/D10*
X15875000Y19558000D02*
X16764000Y20447000D01*
X16764000Y20447000D02*
X16764000Y22987000D01*
G04 #@! TO.N,/D0*
X19939000Y32258000D02*
X19939000Y39370000D01*
X25146000Y24511000D02*
X25146000Y27051000D01*
X25146000Y27051000D02*
X19939000Y32258000D01*
G04 #@! TO.N,/D1*
X19481790Y38430210D02*
X19304000Y38608000D01*
X19481790Y31953210D02*
X19481790Y38430210D01*
X24511000Y25019000D02*
X24511000Y26924000D01*
X20320000Y40005000D02*
X20701000Y39624000D01*
X19304000Y39624000D02*
X19685000Y40005000D01*
X19304000Y38608000D02*
X19304000Y39624000D01*
X24511000Y26924000D02*
X19481790Y31953210D01*
X19685000Y40005000D02*
X20320000Y40005000D01*
X20701000Y39624000D02*
X20701000Y39370000D01*
D17*
G04 #@! TO.N,5V0*
X12220000Y5588000D02*
X12220000Y5560000D01*
D16*
X22740000Y32646000D02*
X22740000Y32131000D01*
X22740000Y32131000D02*
X22740000Y31623000D01*
X22740000Y32646000D02*
X22740000Y33140000D01*
D17*
X22740000Y33140000D02*
X22733000Y33147000D01*
D16*
X17300000Y3556000D02*
X19332000Y5588000D01*
X12220000Y5560000D02*
X14224000Y3556000D01*
X14224000Y3556000D02*
X17300000Y3556000D01*
X11557000Y6251000D02*
X12220000Y5588000D01*
X11557000Y17272000D02*
X11557000Y6251000D01*
X26543000Y21844000D02*
X26543000Y27305000D01*
X26543000Y27305000D02*
X22740000Y31108000D01*
X11557000Y17272000D02*
X21971000Y17272000D01*
X22740000Y31108000D02*
X22740000Y31623000D01*
X21971000Y17272000D02*
X26543000Y21844000D01*
X9144000Y17272000D02*
X11557000Y17272000D01*
X8509000Y17907000D02*
X9144000Y17272000D01*
X8509000Y23622000D02*
X8509000Y17907000D01*
X7937000Y24194000D02*
X8509000Y23622000D01*
X7620000Y24194000D02*
X7937000Y24194000D01*
X7112000Y24194000D02*
X7620000Y24194000D01*
D15*
G04 #@! TO.N,/SDA*
X17272000Y37592000D02*
X17145000Y37719000D01*
X16510000Y38180000D02*
X16684000Y38180000D01*
X16684000Y38180000D02*
X17272000Y37592000D01*
X24892000Y21844000D02*
X25196791Y22148791D01*
X24257000Y21844000D02*
X24892000Y21844000D01*
X25196791Y22148791D02*
X25196791Y22936209D01*
X25196791Y22936209D02*
X17399000Y30734000D01*
X17399000Y30734000D02*
X17399000Y37465000D01*
X17399000Y37465000D02*
X17272000Y37592000D01*
G04 #@! TO.N,/SCL*
X16891000Y35052000D02*
X16891000Y30559942D01*
X16463000Y35480000D02*
X16891000Y35052000D01*
X16891000Y30559942D02*
X24616581Y22834361D01*
X24616581Y22834361D02*
X24616581Y22830592D01*
X24616581Y22830592D02*
X24616581Y22477039D01*
G04 #@! TD*
D18*
G04 #@! TO.N,GND*
G36*
X20641746Y50335540D02*
X20556329Y50207706D01*
X20497494Y50065664D01*
X20467500Y49914873D01*
X20467500Y49761127D01*
X20497494Y49610336D01*
X20556329Y49468294D01*
X20641746Y49340460D01*
X20750460Y49231746D01*
X20878294Y49146329D01*
X21020336Y49087494D01*
X21171127Y49057500D01*
X21324873Y49057500D01*
X21475664Y49087494D01*
X21617706Y49146329D01*
X21745540Y49231746D01*
X21854254Y49340460D01*
X21939671Y49468294D01*
X21998506Y49610336D01*
X22028500Y49761127D01*
X22028500Y49914873D01*
X21998506Y50065664D01*
X21939671Y50207706D01*
X21854254Y50335540D01*
X21845294Y50344500D01*
X22350706Y50344500D01*
X22341746Y50335540D01*
X22256329Y50207706D01*
X22197494Y50065664D01*
X22167500Y49914873D01*
X22167500Y49761127D01*
X22197494Y49610336D01*
X22256329Y49468294D01*
X22341746Y49340460D01*
X22450460Y49231746D01*
X22578294Y49146329D01*
X22720336Y49087494D01*
X22871127Y49057500D01*
X23024873Y49057500D01*
X23175664Y49087494D01*
X23317706Y49146329D01*
X23445540Y49231746D01*
X23554254Y49340460D01*
X23639671Y49468294D01*
X23698506Y49610336D01*
X23728500Y49761127D01*
X23728500Y49914873D01*
X23698506Y50065664D01*
X23639671Y50207706D01*
X23554254Y50335540D01*
X23545294Y50344500D01*
X25377723Y50344500D01*
X25804457Y50302658D01*
X26193507Y50185198D01*
X26552341Y49994402D01*
X26867270Y49737552D01*
X27126316Y49424418D01*
X27319611Y49066928D01*
X27439784Y48678709D01*
X27484500Y48253267D01*
X27484500Y38179932D01*
X27294296Y38370136D01*
X26864115Y38657575D01*
X26486647Y38813927D01*
X26613263Y38852336D01*
X26792285Y38948025D01*
X26949199Y39076801D01*
X27077975Y39233715D01*
X27173664Y39412737D01*
X27232589Y39606987D01*
X27252486Y39809000D01*
X27232589Y40011013D01*
X27173664Y40205263D01*
X27077975Y40384285D01*
X26949199Y40541199D01*
X26792285Y40669975D01*
X26613263Y40765664D01*
X26419013Y40824589D01*
X26267623Y40839500D01*
X25766377Y40839500D01*
X25614987Y40824589D01*
X25420737Y40765664D01*
X25241715Y40669975D01*
X25084801Y40541199D01*
X24956025Y40384285D01*
X24860336Y40205263D01*
X24801411Y40011013D01*
X24781514Y39809000D01*
X24801411Y39606987D01*
X24860336Y39412737D01*
X24956025Y39233715D01*
X25084801Y39076801D01*
X25241715Y38948025D01*
X25262595Y38936864D01*
X24853878Y38855566D01*
X24375885Y38657575D01*
X23945704Y38370136D01*
X23579864Y38004296D01*
X23292425Y37574115D01*
X23094434Y37096122D01*
X22993500Y36588688D01*
X22993500Y36071312D01*
X23094434Y35563878D01*
X23292425Y35085885D01*
X23579864Y34655704D01*
X23945704Y34289864D01*
X24375885Y34002425D01*
X24853878Y33804434D01*
X25361312Y33703500D01*
X25878688Y33703500D01*
X26386122Y33804434D01*
X26864115Y34002425D01*
X27294296Y34289864D01*
X27484500Y34480068D01*
X27484501Y14379931D01*
X27294296Y14570136D01*
X26864115Y14857575D01*
X26386122Y15055566D01*
X25878688Y15156500D01*
X25361312Y15156500D01*
X24853878Y15055566D01*
X24375885Y14857575D01*
X23945704Y14570136D01*
X23579864Y14204296D01*
X23292425Y13774115D01*
X23094434Y13296122D01*
X22993500Y12788688D01*
X22993500Y12271312D01*
X23094434Y11763878D01*
X23292425Y11285885D01*
X23579864Y10855704D01*
X23945704Y10489864D01*
X24375885Y10202425D01*
X24853878Y10004434D01*
X25361312Y9903500D01*
X25878688Y9903500D01*
X26386122Y10004434D01*
X26864115Y10202425D01*
X27294296Y10489864D01*
X27484501Y10680069D01*
X27484501Y2562287D01*
X27442658Y2135543D01*
X27325197Y1746492D01*
X27134405Y1387664D01*
X26877551Y1072729D01*
X26564418Y813684D01*
X26206928Y620389D01*
X25818710Y500216D01*
X25393268Y455500D01*
X2562277Y455500D01*
X2135543Y497342D01*
X1746492Y614803D01*
X1387664Y805595D01*
X1072729Y1062449D01*
X813684Y1375582D01*
X620389Y1733072D01*
X500216Y2121290D01*
X455500Y2546732D01*
X455500Y5716482D01*
X3803500Y5716482D01*
X3803500Y5459518D01*
X3853631Y5207491D01*
X3951967Y4970088D01*
X4094729Y4756430D01*
X4276430Y4574729D01*
X4490088Y4431967D01*
X4727491Y4333631D01*
X4979518Y4283500D01*
X5236482Y4283500D01*
X5488509Y4333631D01*
X5725912Y4431967D01*
X5939570Y4574729D01*
X6121271Y4756430D01*
X6264033Y4970088D01*
X6362369Y5207491D01*
X6412500Y5459518D01*
X6412500Y5716482D01*
X7303500Y5716482D01*
X7303500Y5459518D01*
X7353631Y5207491D01*
X7451967Y4970088D01*
X7594729Y4756430D01*
X7776430Y4574729D01*
X7990088Y4431967D01*
X8227491Y4333631D01*
X8479518Y4283500D01*
X8736482Y4283500D01*
X8988509Y4333631D01*
X9225912Y4431967D01*
X9439570Y4574729D01*
X9621271Y4756430D01*
X9764033Y4970088D01*
X9862369Y5207491D01*
X9912500Y5459518D01*
X9912500Y5716482D01*
X9862369Y5968509D01*
X9764033Y6205912D01*
X9621271Y6419570D01*
X9439570Y6601271D01*
X9225912Y6744033D01*
X8988509Y6842369D01*
X8736482Y6892500D01*
X8479518Y6892500D01*
X8227491Y6842369D01*
X7990088Y6744033D01*
X7776430Y6601271D01*
X7594729Y6419570D01*
X7451967Y6205912D01*
X7353631Y5968509D01*
X7303500Y5716482D01*
X6412500Y5716482D01*
X6362369Y5968509D01*
X6264033Y6205912D01*
X6121271Y6419570D01*
X5939570Y6601271D01*
X5725912Y6744033D01*
X5488509Y6842369D01*
X5236482Y6892500D01*
X4979518Y6892500D01*
X4727491Y6842369D01*
X4490088Y6744033D01*
X4276430Y6601271D01*
X4094729Y6419570D01*
X3951967Y6205912D01*
X3853631Y5968509D01*
X3803500Y5716482D01*
X455500Y5716482D01*
X455500Y10680068D01*
X645704Y10489864D01*
X1075885Y10202425D01*
X1553878Y10004434D01*
X2061312Y9903500D01*
X2578688Y9903500D01*
X3086122Y10004434D01*
X3564115Y10202425D01*
X3611518Y10234099D01*
X6874500Y10234099D01*
X6874500Y10109901D01*
X6898729Y9988090D01*
X6946258Y9873346D01*
X7015258Y9770080D01*
X7103080Y9682258D01*
X7206346Y9613258D01*
X7321090Y9565729D01*
X7442901Y9541500D01*
X7567099Y9541500D01*
X7688910Y9565729D01*
X7803654Y9613258D01*
X7906920Y9682258D01*
X7994742Y9770080D01*
X8063742Y9873346D01*
X8111271Y9988090D01*
X8135500Y10109901D01*
X8135500Y10234099D01*
X8111271Y10355910D01*
X8063742Y10470654D01*
X8012500Y10547343D01*
X8012500Y13263787D01*
X8094449Y13345736D01*
X8184910Y13363729D01*
X8299654Y13411258D01*
X8402920Y13480258D01*
X8490742Y13568080D01*
X8559742Y13671346D01*
X8607271Y13786090D01*
X8631500Y13907901D01*
X8631500Y14032099D01*
X8607271Y14153910D01*
X8559742Y14268654D01*
X8490742Y14371920D01*
X8402920Y14459742D01*
X8299654Y14528742D01*
X8184910Y14576271D01*
X8063099Y14600500D01*
X7938901Y14600500D01*
X7817090Y14576271D01*
X7702346Y14528742D01*
X7599080Y14459742D01*
X7511258Y14371920D01*
X7442258Y14268654D01*
X7394729Y14153910D01*
X7376736Y14063449D01*
X7163769Y13850482D01*
X7144408Y13834593D01*
X7080989Y13757316D01*
X7043236Y13686684D01*
X7033864Y13669151D01*
X7004844Y13573487D01*
X6995045Y13474000D01*
X6997501Y13449065D01*
X6997500Y10547343D01*
X6946258Y10470654D01*
X6898729Y10355910D01*
X6874500Y10234099D01*
X3611518Y10234099D01*
X3994296Y10489864D01*
X4360136Y10855704D01*
X4647575Y11285885D01*
X4845566Y11763878D01*
X4946500Y12271312D01*
X4946500Y12788688D01*
X4845566Y13296122D01*
X4647575Y13774115D01*
X4360136Y14204296D01*
X3994296Y14570136D01*
X3564115Y14857575D01*
X3086122Y15055566D01*
X2670049Y15138327D01*
X2691232Y15157136D01*
X2838509Y15351533D01*
X2945031Y15570927D01*
X3006705Y15806886D01*
X2926975Y16001500D01*
X1778500Y16001500D01*
X1778500Y15981500D01*
X1777500Y15981500D01*
X1777500Y16001500D01*
X629025Y16001500D01*
X549295Y15806886D01*
X610969Y15570927D01*
X717491Y15351533D01*
X864768Y15157136D01*
X1047140Y14995207D01*
X1196711Y14907623D01*
X1075885Y14857575D01*
X645704Y14570136D01*
X455500Y14379932D01*
X455500Y16002000D01*
X3067881Y16002000D01*
X3091902Y15758114D01*
X3163041Y15523600D01*
X3278564Y15307471D01*
X3434032Y15118032D01*
X3623471Y14962564D01*
X3839600Y14847041D01*
X4074114Y14775902D01*
X4256889Y14757900D01*
X4379111Y14757900D01*
X4561886Y14775902D01*
X4796400Y14847041D01*
X5012529Y14962564D01*
X5201968Y15118032D01*
X5357436Y15307471D01*
X5472959Y15523600D01*
X5544098Y15758114D01*
X5568119Y16002000D01*
X5544098Y16245886D01*
X5472959Y16480400D01*
X5357436Y16696529D01*
X5201968Y16885968D01*
X5012529Y17041436D01*
X4796400Y17156959D01*
X4561886Y17228098D01*
X4379111Y17246100D01*
X4256889Y17246100D01*
X4074114Y17228098D01*
X3839600Y17156959D01*
X3623471Y17041436D01*
X3434032Y16885968D01*
X3278564Y16696529D01*
X3163041Y16480400D01*
X3091902Y16245886D01*
X3067881Y16002000D01*
X455500Y16002000D01*
X455500Y16197114D01*
X549295Y16197114D01*
X629025Y16002500D01*
X1777500Y16002500D01*
X1777500Y17150975D01*
X1778500Y17150975D01*
X1778500Y16002500D01*
X2926975Y16002500D01*
X3006705Y16197114D01*
X2945031Y16433073D01*
X2838509Y16652467D01*
X2691232Y16846864D01*
X2508860Y17008793D01*
X2298401Y17132031D01*
X2067944Y17211843D01*
X1973114Y17230705D01*
X1778500Y17150975D01*
X1777500Y17150975D01*
X1582886Y17230705D01*
X1488056Y17211843D01*
X1257599Y17132031D01*
X1047140Y17008793D01*
X864768Y16846864D01*
X717491Y16652467D01*
X610969Y16433073D01*
X549295Y16197114D01*
X455500Y16197114D01*
X455500Y18542000D01*
X527881Y18542000D01*
X551902Y18298114D01*
X623041Y18063600D01*
X738564Y17847471D01*
X894032Y17658032D01*
X1083471Y17502564D01*
X1299600Y17387041D01*
X1534114Y17315902D01*
X1716889Y17297900D01*
X1839111Y17297900D01*
X2021886Y17315902D01*
X2256400Y17387041D01*
X2472529Y17502564D01*
X2661968Y17658032D01*
X2817436Y17847471D01*
X2932959Y18063600D01*
X3004098Y18298114D01*
X3028119Y18542000D01*
X3004098Y18785886D01*
X2932959Y19020400D01*
X2817436Y19236529D01*
X2661968Y19425968D01*
X2472529Y19581436D01*
X2256400Y19696959D01*
X2021886Y19768098D01*
X1839111Y19786100D01*
X1716889Y19786100D01*
X1534114Y19768098D01*
X1299600Y19696959D01*
X1083471Y19581436D01*
X894032Y19425968D01*
X738564Y19236529D01*
X623041Y19020400D01*
X551902Y18785886D01*
X527881Y18542000D01*
X455500Y18542000D01*
X455500Y21082000D01*
X527881Y21082000D01*
X551902Y20838114D01*
X623041Y20603600D01*
X738564Y20387471D01*
X894032Y20198032D01*
X1083471Y20042564D01*
X1299600Y19927041D01*
X1534114Y19855902D01*
X1716889Y19837900D01*
X1839111Y19837900D01*
X2021886Y19855902D01*
X2256400Y19927041D01*
X2472529Y20042564D01*
X2661968Y20198032D01*
X2817436Y20387471D01*
X2932959Y20603600D01*
X3004098Y20838114D01*
X3028119Y21082000D01*
X3004098Y21325886D01*
X2984339Y21391021D01*
X3173746Y21580428D01*
X3163041Y21560400D01*
X3091902Y21325886D01*
X3067881Y21082000D01*
X3091902Y20838114D01*
X3163041Y20603600D01*
X3278564Y20387471D01*
X3434032Y20198032D01*
X3623471Y20042564D01*
X3839600Y19927041D01*
X4074114Y19855902D01*
X4256889Y19837900D01*
X4379111Y19837900D01*
X4561886Y19855902D01*
X4764824Y19917463D01*
X5207500Y19474786D01*
X5207500Y19419227D01*
X5201968Y19425968D01*
X5012529Y19581436D01*
X4796400Y19696959D01*
X4561886Y19768098D01*
X4379111Y19786100D01*
X4256889Y19786100D01*
X4074114Y19768098D01*
X3839600Y19696959D01*
X3623471Y19581436D01*
X3434032Y19425968D01*
X3278564Y19236529D01*
X3163041Y19020400D01*
X3091902Y18785886D01*
X3067881Y18542000D01*
X3091902Y18298114D01*
X3163041Y18063600D01*
X3278564Y17847471D01*
X3434032Y17658032D01*
X3623471Y17502564D01*
X3839600Y17387041D01*
X4074114Y17315902D01*
X4256889Y17297900D01*
X4379111Y17297900D01*
X4561886Y17315902D01*
X4796400Y17387041D01*
X5012529Y17502564D01*
X5201968Y17658032D01*
X5357436Y17847471D01*
X5472959Y18063600D01*
X5479216Y18084228D01*
X5531090Y18062741D01*
X5652901Y18038512D01*
X5777099Y18038512D01*
X5898910Y18062741D01*
X6013654Y18110270D01*
X6116920Y18179270D01*
X6204742Y18267092D01*
X6273742Y18370358D01*
X6321271Y18485102D01*
X6345500Y18606913D01*
X6345500Y18731111D01*
X6321271Y18852922D01*
X6273742Y18967666D01*
X6222500Y19044355D01*
X6222500Y19660076D01*
X6224955Y19685001D01*
X6215156Y19784488D01*
X6206353Y19813507D01*
X6186137Y19880151D01*
X6139012Y19968316D01*
X6075593Y20045593D01*
X6056232Y20061482D01*
X5482537Y20635176D01*
X5544098Y20838114D01*
X5568119Y21082000D01*
X5544098Y21325886D01*
X5472959Y21560400D01*
X5357436Y21776529D01*
X5201968Y21965968D01*
X5195227Y21971500D01*
X7112501Y21971500D01*
X7112500Y17684162D01*
X7109431Y17653000D01*
X7112500Y17621838D01*
X7112500Y17621831D01*
X7121681Y17528617D01*
X7157962Y17409014D01*
X7216880Y17298786D01*
X7296170Y17202170D01*
X7320389Y17182294D01*
X8419298Y16083384D01*
X8439170Y16059170D01*
X8535785Y15979880D01*
X8646013Y15920962D01*
X8765616Y15884681D01*
X8858830Y15875500D01*
X8858837Y15875500D01*
X8889999Y15872431D01*
X8921161Y15875500D01*
X10826170Y15875500D01*
X10919384Y15884681D01*
X10922500Y15885626D01*
X10922501Y6282172D01*
X10919431Y6251000D01*
X10931681Y6126617D01*
X10967963Y6007013D01*
X10975635Y5992660D01*
X10965631Y5968509D01*
X10915500Y5716482D01*
X10915500Y5459518D01*
X10965631Y5207491D01*
X11063967Y4970088D01*
X11206729Y4756430D01*
X11388430Y4574729D01*
X11602088Y4431967D01*
X11839491Y4333631D01*
X12091518Y4283500D01*
X12348482Y4283500D01*
X12557589Y4325094D01*
X13753298Y3129384D01*
X13773170Y3105170D01*
X13869785Y3025880D01*
X13980013Y2966962D01*
X14099616Y2930681D01*
X14192830Y2921500D01*
X14192838Y2921500D01*
X14224000Y2918431D01*
X14255162Y2921500D01*
X17268838Y2921500D01*
X17300000Y2918431D01*
X17331162Y2921500D01*
X17331170Y2921500D01*
X17424384Y2930681D01*
X17543987Y2966962D01*
X17654215Y3025880D01*
X17750830Y3105170D01*
X17770706Y3129389D01*
X18971057Y4329739D01*
X19203518Y4283500D01*
X19460482Y4283500D01*
X19712509Y4333631D01*
X19949912Y4431967D01*
X20163570Y4574729D01*
X20345271Y4756430D01*
X20488033Y4970088D01*
X20586369Y5207491D01*
X20636500Y5459518D01*
X20636500Y5716482D01*
X21527500Y5716482D01*
X21527500Y5459518D01*
X21577631Y5207491D01*
X21675967Y4970088D01*
X21818729Y4756430D01*
X22000430Y4574729D01*
X22214088Y4431967D01*
X22451491Y4333631D01*
X22703518Y4283500D01*
X22960482Y4283500D01*
X23212509Y4333631D01*
X23449912Y4431967D01*
X23663570Y4574729D01*
X23845271Y4756430D01*
X23988033Y4970088D01*
X24086369Y5207491D01*
X24136500Y5459518D01*
X24136500Y5716482D01*
X24086369Y5968509D01*
X23988033Y6205912D01*
X23845271Y6419570D01*
X23663570Y6601271D01*
X23449912Y6744033D01*
X23212509Y6842369D01*
X22960482Y6892500D01*
X22703518Y6892500D01*
X22451491Y6842369D01*
X22214088Y6744033D01*
X22000430Y6601271D01*
X21818729Y6419570D01*
X21675967Y6205912D01*
X21577631Y5968509D01*
X21527500Y5716482D01*
X20636500Y5716482D01*
X20586369Y5968509D01*
X20488033Y6205912D01*
X20345271Y6419570D01*
X20163570Y6601271D01*
X19949912Y6744033D01*
X19712509Y6842369D01*
X19460482Y6892500D01*
X19203518Y6892500D01*
X18951491Y6842369D01*
X18714088Y6744033D01*
X18500430Y6601271D01*
X18318729Y6419570D01*
X18175967Y6205912D01*
X18077631Y5968509D01*
X18027500Y5716482D01*
X18027500Y5459518D01*
X18073739Y5227057D01*
X17037183Y4190500D01*
X14486818Y4190500D01*
X13473038Y5204279D01*
X13474369Y5207491D01*
X13524500Y5459518D01*
X13524500Y5716482D01*
X14415500Y5716482D01*
X14415500Y5459518D01*
X14465631Y5207491D01*
X14563967Y4970088D01*
X14706729Y4756430D01*
X14888430Y4574729D01*
X15102088Y4431967D01*
X15339491Y4333631D01*
X15591518Y4283500D01*
X15848482Y4283500D01*
X16100509Y4333631D01*
X16337912Y4431967D01*
X16551570Y4574729D01*
X16733271Y4756430D01*
X16876033Y4970088D01*
X16974369Y5207491D01*
X17024500Y5459518D01*
X17024500Y5716482D01*
X16974369Y5968509D01*
X16876033Y6205912D01*
X16733271Y6419570D01*
X16551570Y6601271D01*
X16337912Y6744033D01*
X16100509Y6842369D01*
X15848482Y6892500D01*
X15591518Y6892500D01*
X15339491Y6842369D01*
X15102088Y6744033D01*
X14888430Y6601271D01*
X14706729Y6419570D01*
X14563967Y6205912D01*
X14465631Y5968509D01*
X14415500Y5716482D01*
X13524500Y5716482D01*
X13474369Y5968509D01*
X13376033Y6205912D01*
X13233271Y6419570D01*
X13051570Y6601271D01*
X12837912Y6744033D01*
X12600509Y6842369D01*
X12348482Y6892500D01*
X12191500Y6892500D01*
X12191500Y15377626D01*
X12194616Y15376681D01*
X12319000Y15364430D01*
X12443383Y15376681D01*
X12562986Y15412962D01*
X12673214Y15471880D01*
X12769830Y15551170D01*
X12849120Y15647785D01*
X12908038Y15758013D01*
X12943677Y15875500D01*
X22193838Y15875500D01*
X22225000Y15872431D01*
X22256162Y15875500D01*
X22256170Y15875500D01*
X22349384Y15884681D01*
X22468987Y15920962D01*
X22579215Y15979880D01*
X22675830Y16059170D01*
X22695706Y16083389D01*
X24392818Y17780500D01*
X26574170Y17780500D01*
X26667384Y17789681D01*
X26786987Y17825962D01*
X26897215Y17884880D01*
X26993830Y17964170D01*
X27073120Y18060785D01*
X27132038Y18171013D01*
X27168319Y18290616D01*
X27180570Y18415000D01*
X27168319Y18539384D01*
X27132038Y18658987D01*
X27073120Y18769215D01*
X26993830Y18865830D01*
X26897215Y18945120D01*
X26786987Y19004038D01*
X26667384Y19040319D01*
X26574170Y19049500D01*
X24645818Y19049500D01*
X26969623Y21373304D01*
X26993830Y21393170D01*
X27073120Y21489785D01*
X27132038Y21600013D01*
X27168319Y21719616D01*
X27177500Y21812830D01*
X27177500Y21812840D01*
X27180569Y21843999D01*
X27177500Y21875158D01*
X27177500Y27273839D01*
X27180569Y27305001D01*
X27177500Y27336163D01*
X27177500Y27336170D01*
X27168319Y27429384D01*
X27132038Y27548987D01*
X27073120Y27659215D01*
X26993830Y27755830D01*
X26969616Y27775702D01*
X26928643Y27816675D01*
X26993829Y27870171D01*
X27073119Y27966786D01*
X27132037Y28077013D01*
X27168319Y28196617D01*
X27180569Y28321001D01*
X27168319Y28445384D01*
X27132037Y28564989D01*
X27073119Y28675215D01*
X27013699Y28747618D01*
X26632709Y29128608D01*
X26632700Y29128619D01*
X24129500Y31631817D01*
X24129500Y33369839D01*
X24132569Y33401001D01*
X24129500Y33432163D01*
X24129500Y33432170D01*
X24120319Y33525384D01*
X24084038Y33644987D01*
X24025120Y33755215D01*
X23945830Y33851830D01*
X23921616Y33871702D01*
X21716500Y36076817D01*
X21716500Y37710183D01*
X22397617Y38391299D01*
X22421830Y38411170D01*
X22501120Y38507785D01*
X22560038Y38618013D01*
X22596319Y38737616D01*
X22605500Y38830830D01*
X22605500Y38830831D01*
X22608570Y38862000D01*
X22605500Y38893169D01*
X22605500Y40100831D01*
X22608570Y40132000D01*
X22601858Y40200152D01*
X22596319Y40256384D01*
X22560038Y40375987D01*
X22501120Y40486215D01*
X22421830Y40582830D01*
X22397616Y40602702D01*
X21894747Y41105571D01*
X22386500Y41105571D01*
X22386500Y40912429D01*
X22424180Y40722999D01*
X22498092Y40544559D01*
X22605396Y40383968D01*
X22741968Y40247396D01*
X22902559Y40140092D01*
X23080999Y40066180D01*
X23270429Y40028500D01*
X23463571Y40028500D01*
X23653001Y40066180D01*
X23831441Y40140092D01*
X23992032Y40247396D01*
X24128604Y40383968D01*
X24235908Y40544559D01*
X24309820Y40722999D01*
X24347500Y40912429D01*
X24347500Y41105571D01*
X24309820Y41295001D01*
X24235908Y41473441D01*
X24128604Y41634032D01*
X23992032Y41770604D01*
X23831441Y41877908D01*
X23653001Y41951820D01*
X23463571Y41989500D01*
X23270429Y41989500D01*
X23080999Y41951820D01*
X22902559Y41877908D01*
X22741968Y41770604D01*
X22605396Y41634032D01*
X22498092Y41473441D01*
X22424180Y41295001D01*
X22386500Y41105571D01*
X21894747Y41105571D01*
X21843500Y41156817D01*
X21843500Y42068170D01*
X21834319Y42161384D01*
X21798038Y42280987D01*
X21739120Y42391215D01*
X21659830Y42487830D01*
X21563215Y42567120D01*
X21452987Y42626038D01*
X21333384Y42662319D01*
X21209000Y42674570D01*
X21084617Y42662319D01*
X21081500Y42661373D01*
X21081500Y45955571D01*
X22386500Y45955571D01*
X22386500Y45762429D01*
X22424180Y45572999D01*
X22498092Y45394559D01*
X22605396Y45233968D01*
X22741968Y45097396D01*
X22902559Y44990092D01*
X23080999Y44916180D01*
X23270429Y44878500D01*
X23463571Y44878500D01*
X23653001Y44916180D01*
X23831441Y44990092D01*
X23992032Y45097396D01*
X24128604Y45233968D01*
X24235908Y45394559D01*
X24309820Y45572999D01*
X24347500Y45762429D01*
X24347500Y45955571D01*
X24309820Y46145001D01*
X24235908Y46323441D01*
X24128604Y46484032D01*
X23992032Y46620604D01*
X23831441Y46727908D01*
X23653001Y46801820D01*
X23463571Y46839500D01*
X23270429Y46839500D01*
X23080999Y46801820D01*
X22902559Y46727908D01*
X22741968Y46620604D01*
X22605396Y46484032D01*
X22498092Y46323441D01*
X22424180Y46145001D01*
X22386500Y45955571D01*
X21081500Y45955571D01*
X21081500Y46666554D01*
X21126654Y46685258D01*
X21229920Y46754258D01*
X21317742Y46842080D01*
X21386742Y46945346D01*
X21433819Y47059000D01*
X24781514Y47059000D01*
X24801411Y46856987D01*
X24860336Y46662737D01*
X24956025Y46483715D01*
X25084801Y46326801D01*
X25241715Y46198025D01*
X25420737Y46102336D01*
X25614987Y46043411D01*
X25766377Y46028500D01*
X26267623Y46028500D01*
X26419013Y46043411D01*
X26613263Y46102336D01*
X26792285Y46198025D01*
X26949199Y46326801D01*
X27077975Y46483715D01*
X27173664Y46662737D01*
X27232589Y46856987D01*
X27252486Y47059000D01*
X27232589Y47261013D01*
X27173664Y47455263D01*
X27077975Y47634285D01*
X26949199Y47791199D01*
X26792285Y47919975D01*
X26613263Y48015664D01*
X26419013Y48074589D01*
X26267623Y48089500D01*
X25766377Y48089500D01*
X25614987Y48074589D01*
X25420737Y48015664D01*
X25241715Y47919975D01*
X25084801Y47791199D01*
X24956025Y47634285D01*
X24860336Y47455263D01*
X24801411Y47261013D01*
X24781514Y47059000D01*
X21433819Y47059000D01*
X21434271Y47060090D01*
X21458500Y47181901D01*
X21458500Y47306099D01*
X21434271Y47427910D01*
X21386742Y47542654D01*
X21317742Y47645920D01*
X21229920Y47733742D01*
X21126654Y47802742D01*
X21011910Y47850271D01*
X20890099Y47874500D01*
X20765901Y47874500D01*
X20644090Y47850271D01*
X20529346Y47802742D01*
X20426080Y47733742D01*
X20338258Y47645920D01*
X20269258Y47542654D01*
X20221729Y47427910D01*
X20204092Y47339242D01*
X20149989Y47273316D01*
X20114616Y47207137D01*
X20102864Y47185151D01*
X20073844Y47089487D01*
X20064045Y46990000D01*
X20066501Y46965065D01*
X20066500Y40664925D01*
X20064045Y40640000D01*
X20073844Y40540513D01*
X20082190Y40513001D01*
X20082342Y40512500D01*
X19709924Y40512500D01*
X19684999Y40514955D01*
X19585512Y40505156D01*
X19556493Y40496353D01*
X19489849Y40476137D01*
X19401684Y40429012D01*
X19324407Y40365593D01*
X19308519Y40346233D01*
X18962769Y40000482D01*
X18943408Y39984593D01*
X18879989Y39907316D01*
X18844616Y39841137D01*
X18832864Y39819151D01*
X18803844Y39723487D01*
X18794045Y39624000D01*
X18796501Y39599065D01*
X18796500Y39071213D01*
X16505487Y41362226D01*
X16489593Y41381593D01*
X16412316Y41445012D01*
X16324151Y41492137D01*
X16228487Y41521156D01*
X16153925Y41528500D01*
X16129000Y41530955D01*
X16104075Y41528500D01*
X12148213Y41528500D01*
X12054264Y41622449D01*
X12036271Y41712910D01*
X11988742Y41827654D01*
X11919742Y41930920D01*
X11831920Y42018742D01*
X11728654Y42087742D01*
X11613910Y42135271D01*
X11492099Y42159500D01*
X11367901Y42159500D01*
X11246090Y42135271D01*
X11131346Y42087742D01*
X11028080Y42018742D01*
X10940258Y41930920D01*
X10871258Y41827654D01*
X10823729Y41712910D01*
X10799500Y41591099D01*
X10799500Y41466901D01*
X10823729Y41345090D01*
X10871258Y41230346D01*
X10940258Y41127080D01*
X10982838Y41084500D01*
X10940258Y41041920D01*
X10906827Y40991886D01*
X4821487Y47077226D01*
X4805593Y47096593D01*
X4728316Y47160012D01*
X4640151Y47207137D01*
X4544487Y47236156D01*
X4469925Y47243500D01*
X4445000Y47245955D01*
X4420075Y47243500D01*
X4185343Y47243500D01*
X4108654Y47294742D01*
X3993910Y47342271D01*
X3872099Y47366500D01*
X3747901Y47366500D01*
X3626090Y47342271D01*
X3511346Y47294742D01*
X3408080Y47225742D01*
X3320258Y47137920D01*
X3251258Y47034654D01*
X3203729Y46919910D01*
X3179500Y46798099D01*
X3179500Y46673901D01*
X3203729Y46552090D01*
X3251258Y46437346D01*
X3320258Y46334080D01*
X3408080Y46246258D01*
X3511346Y46177258D01*
X3626090Y46129729D01*
X3747901Y46105500D01*
X3872099Y46105500D01*
X3993910Y46129729D01*
X4108654Y46177258D01*
X4185343Y46228500D01*
X4234787Y46228500D01*
X10799513Y39663774D01*
X10815407Y39644407D01*
X10892684Y39580988D01*
X10980849Y39533863D01*
X11035095Y39517408D01*
X11076512Y39504844D01*
X11175999Y39495045D01*
X11200924Y39497500D01*
X15410787Y39497500D01*
X16186288Y38721999D01*
X16108080Y38669742D01*
X16020258Y38581920D01*
X15951258Y38478654D01*
X15903729Y38363910D01*
X15879500Y38242099D01*
X15879500Y38117901D01*
X15903729Y37996090D01*
X15951258Y37881346D01*
X16020258Y37778080D01*
X16108080Y37690258D01*
X16211346Y37621258D01*
X16326090Y37573729D01*
X16447901Y37549500D01*
X16572099Y37549500D01*
X16592691Y37553596D01*
X16891501Y37254786D01*
X16891501Y35943161D01*
X16864920Y35969742D01*
X16761654Y36038742D01*
X16646910Y36086271D01*
X16525099Y36110500D01*
X16400901Y36110500D01*
X16279090Y36086271D01*
X16164346Y36038742D01*
X16061080Y35969742D01*
X15973258Y35881920D01*
X15904258Y35778654D01*
X15856729Y35663910D01*
X15832500Y35542099D01*
X15832500Y35417901D01*
X15856729Y35296090D01*
X15904258Y35181346D01*
X15973258Y35078080D01*
X16061080Y34990258D01*
X16164346Y34921258D01*
X16279090Y34873729D01*
X16369551Y34855736D01*
X16383500Y34841786D01*
X16383500Y33650386D01*
X16300654Y33705742D01*
X16185910Y33753271D01*
X16064099Y33777500D01*
X15939901Y33777500D01*
X15818090Y33753271D01*
X15703346Y33705742D01*
X15600080Y33636742D01*
X15512258Y33548920D01*
X15443258Y33445654D01*
X15395729Y33330910D01*
X15371500Y33209099D01*
X15371500Y33084901D01*
X15395729Y32963090D01*
X15443258Y32848346D01*
X15512258Y32745080D01*
X15600080Y32657258D01*
X15703346Y32588258D01*
X15818090Y32540729D01*
X15875500Y32529310D01*
X15875501Y30377935D01*
X15873045Y30353000D01*
X15882844Y30253513D01*
X15893402Y30218710D01*
X15911864Y30157849D01*
X15958989Y30069684D01*
X16022408Y29992407D01*
X16041769Y29976518D01*
X16256500Y29761786D01*
X16256501Y24632345D01*
X16205258Y24555654D01*
X16157729Y24440910D01*
X16133500Y24319099D01*
X16133500Y24194901D01*
X16157729Y24073090D01*
X16205258Y23958346D01*
X16274258Y23855080D01*
X16362080Y23767258D01*
X16465346Y23698258D01*
X16580090Y23650729D01*
X16701901Y23626500D01*
X16826099Y23626500D01*
X16947910Y23650729D01*
X17062654Y23698258D01*
X17165920Y23767258D01*
X17253742Y23855080D01*
X17322742Y23958346D01*
X17370271Y24073090D01*
X17394500Y24194901D01*
X17394500Y24319099D01*
X17370271Y24440910D01*
X17322742Y24555654D01*
X17271500Y24632343D01*
X17271500Y29461729D01*
X19762035Y26971193D01*
X19664080Y26905742D01*
X19576258Y26817920D01*
X19507258Y26714654D01*
X19459729Y26599910D01*
X19435500Y26478099D01*
X19435500Y26353901D01*
X19459729Y26232090D01*
X19507258Y26117346D01*
X19576258Y26014080D01*
X19664080Y25926258D01*
X19767346Y25857258D01*
X19882090Y25809729D01*
X20003901Y25785500D01*
X20128099Y25785500D01*
X20215419Y25802868D01*
X23114500Y22903786D01*
X23114501Y20911215D01*
X21252787Y19049500D01*
X17786343Y19049500D01*
X17709654Y19100742D01*
X17594910Y19148271D01*
X17473099Y19172500D01*
X17348901Y19172500D01*
X17227090Y19148271D01*
X17112346Y19100742D01*
X17009080Y19031742D01*
X16921258Y18943920D01*
X16852258Y18840654D01*
X16804729Y18725910D01*
X16780500Y18604099D01*
X16780500Y18479901D01*
X16793509Y18414500D01*
X9975446Y18414500D01*
X9956742Y18459654D01*
X9887742Y18562920D01*
X9799920Y18650742D01*
X9696654Y18719742D01*
X9581910Y18767271D01*
X9460099Y18791500D01*
X9335901Y18791500D01*
X9214090Y18767271D01*
X9143500Y18738031D01*
X9143500Y19620099D01*
X15244500Y19620099D01*
X15244500Y19495901D01*
X15268729Y19374090D01*
X15316258Y19259346D01*
X15385258Y19156080D01*
X15473080Y19068258D01*
X15576346Y18999258D01*
X15691090Y18951729D01*
X15812901Y18927500D01*
X15937099Y18927500D01*
X16058910Y18951729D01*
X16173654Y18999258D01*
X16276920Y19068258D01*
X16364742Y19156080D01*
X16433742Y19259346D01*
X16481271Y19374090D01*
X16499264Y19464551D01*
X17105226Y20070513D01*
X17124593Y20086407D01*
X17188012Y20163684D01*
X17235137Y20251849D01*
X17264156Y20347513D01*
X17271500Y20422075D01*
X17271500Y20422076D01*
X17273955Y20447000D01*
X17271500Y20471925D01*
X17271500Y22611657D01*
X17322742Y22688346D01*
X17370271Y22803090D01*
X17394500Y22924901D01*
X17394500Y23049099D01*
X17370271Y23170910D01*
X17322742Y23285654D01*
X17253742Y23388920D01*
X17165920Y23476742D01*
X17062654Y23545742D01*
X16947910Y23593271D01*
X16826099Y23617500D01*
X16701901Y23617500D01*
X16580090Y23593271D01*
X16465346Y23545742D01*
X16362080Y23476742D01*
X16274258Y23388920D01*
X16205258Y23285654D01*
X16157729Y23170910D01*
X16133500Y23049099D01*
X16133500Y22924901D01*
X16157729Y22803090D01*
X16205258Y22688346D01*
X16256501Y22611656D01*
X16256500Y20657213D01*
X15781551Y20182264D01*
X15691090Y20164271D01*
X15576346Y20116742D01*
X15473080Y20047742D01*
X15385258Y19959920D01*
X15316258Y19856654D01*
X15268729Y19741910D01*
X15244500Y19620099D01*
X9143500Y19620099D01*
X9143500Y23590839D01*
X9146569Y23622001D01*
X9143500Y23653163D01*
X9143500Y23653170D01*
X9134319Y23746384D01*
X9098038Y23865987D01*
X9039120Y23976215D01*
X8959830Y24072830D01*
X8935617Y24092701D01*
X8407706Y24620611D01*
X8387830Y24644830D01*
X8291215Y24724120D01*
X8180987Y24783038D01*
X8061384Y24819319D01*
X7968170Y24828500D01*
X7968162Y24828500D01*
X7937000Y24831569D01*
X7905838Y24828500D01*
X7080830Y24828500D01*
X6987616Y24819319D01*
X6868013Y24783038D01*
X6757785Y24724120D01*
X6661170Y24644830D01*
X6581880Y24548215D01*
X6522962Y24437987D01*
X6486681Y24318384D01*
X6474430Y24194000D01*
X6486681Y24069616D01*
X6522962Y23950013D01*
X6581880Y23839785D01*
X6661170Y23743170D01*
X6757785Y23663880D01*
X6868013Y23604962D01*
X6987616Y23568681D01*
X7080830Y23559500D01*
X7674183Y23559500D01*
X7874500Y23359182D01*
X7874500Y23113728D01*
X7847215Y23136120D01*
X7736987Y23195038D01*
X7617384Y23231319D01*
X7524170Y23240500D01*
X7524162Y23240500D01*
X7493000Y23243569D01*
X7461838Y23240500D01*
X3333158Y23240500D01*
X3301999Y23243569D01*
X3270840Y23240500D01*
X3270830Y23240500D01*
X3177616Y23231319D01*
X3058013Y23195038D01*
X2947785Y23136120D01*
X2851170Y23056830D01*
X2831303Y23032622D01*
X2087021Y22288339D01*
X2021886Y22308098D01*
X1839111Y22326100D01*
X1716889Y22326100D01*
X1534114Y22308098D01*
X1299600Y22236959D01*
X1083471Y22121436D01*
X894032Y21965968D01*
X738564Y21776529D01*
X623041Y21560400D01*
X551902Y21325886D01*
X527881Y21082000D01*
X455500Y21082000D01*
X455500Y34480068D01*
X645704Y34289864D01*
X1075885Y34002425D01*
X1553878Y33804434D01*
X2061312Y33703500D01*
X2578688Y33703500D01*
X3086122Y33804434D01*
X3564115Y34002425D01*
X3994296Y34289864D01*
X4360136Y34655704D01*
X4647575Y35085885D01*
X4845566Y35563878D01*
X4946500Y36071312D01*
X4946500Y36588688D01*
X4845566Y37096122D01*
X4647575Y37574115D01*
X4360136Y38004296D01*
X3994296Y38370136D01*
X3564115Y38657575D01*
X3086122Y38855566D01*
X2578688Y38956500D01*
X2061312Y38956500D01*
X1553878Y38855566D01*
X1075885Y38657575D01*
X645704Y38370136D01*
X455500Y38179932D01*
X455500Y48237723D01*
X497342Y48664457D01*
X614802Y49053507D01*
X805598Y49412341D01*
X1062448Y49727270D01*
X1375582Y49986316D01*
X1733072Y50179611D01*
X2121291Y50299784D01*
X2546733Y50344500D01*
X20650706Y50344500D01*
X20641746Y50335540D01*
X20641746Y50335540D01*
G37*
X20641746Y50335540D02*
X20556329Y50207706D01*
X20497494Y50065664D01*
X20467500Y49914873D01*
X20467500Y49761127D01*
X20497494Y49610336D01*
X20556329Y49468294D01*
X20641746Y49340460D01*
X20750460Y49231746D01*
X20878294Y49146329D01*
X21020336Y49087494D01*
X21171127Y49057500D01*
X21324873Y49057500D01*
X21475664Y49087494D01*
X21617706Y49146329D01*
X21745540Y49231746D01*
X21854254Y49340460D01*
X21939671Y49468294D01*
X21998506Y49610336D01*
X22028500Y49761127D01*
X22028500Y49914873D01*
X21998506Y50065664D01*
X21939671Y50207706D01*
X21854254Y50335540D01*
X21845294Y50344500D01*
X22350706Y50344500D01*
X22341746Y50335540D01*
X22256329Y50207706D01*
X22197494Y50065664D01*
X22167500Y49914873D01*
X22167500Y49761127D01*
X22197494Y49610336D01*
X22256329Y49468294D01*
X22341746Y49340460D01*
X22450460Y49231746D01*
X22578294Y49146329D01*
X22720336Y49087494D01*
X22871127Y49057500D01*
X23024873Y49057500D01*
X23175664Y49087494D01*
X23317706Y49146329D01*
X23445540Y49231746D01*
X23554254Y49340460D01*
X23639671Y49468294D01*
X23698506Y49610336D01*
X23728500Y49761127D01*
X23728500Y49914873D01*
X23698506Y50065664D01*
X23639671Y50207706D01*
X23554254Y50335540D01*
X23545294Y50344500D01*
X25377723Y50344500D01*
X25804457Y50302658D01*
X26193507Y50185198D01*
X26552341Y49994402D01*
X26867270Y49737552D01*
X27126316Y49424418D01*
X27319611Y49066928D01*
X27439784Y48678709D01*
X27484500Y48253267D01*
X27484500Y38179932D01*
X27294296Y38370136D01*
X26864115Y38657575D01*
X26486647Y38813927D01*
X26613263Y38852336D01*
X26792285Y38948025D01*
X26949199Y39076801D01*
X27077975Y39233715D01*
X27173664Y39412737D01*
X27232589Y39606987D01*
X27252486Y39809000D01*
X27232589Y40011013D01*
X27173664Y40205263D01*
X27077975Y40384285D01*
X26949199Y40541199D01*
X26792285Y40669975D01*
X26613263Y40765664D01*
X26419013Y40824589D01*
X26267623Y40839500D01*
X25766377Y40839500D01*
X25614987Y40824589D01*
X25420737Y40765664D01*
X25241715Y40669975D01*
X25084801Y40541199D01*
X24956025Y40384285D01*
X24860336Y40205263D01*
X24801411Y40011013D01*
X24781514Y39809000D01*
X24801411Y39606987D01*
X24860336Y39412737D01*
X24956025Y39233715D01*
X25084801Y39076801D01*
X25241715Y38948025D01*
X25262595Y38936864D01*
X24853878Y38855566D01*
X24375885Y38657575D01*
X23945704Y38370136D01*
X23579864Y38004296D01*
X23292425Y37574115D01*
X23094434Y37096122D01*
X22993500Y36588688D01*
X22993500Y36071312D01*
X23094434Y35563878D01*
X23292425Y35085885D01*
X23579864Y34655704D01*
X23945704Y34289864D01*
X24375885Y34002425D01*
X24853878Y33804434D01*
X25361312Y33703500D01*
X25878688Y33703500D01*
X26386122Y33804434D01*
X26864115Y34002425D01*
X27294296Y34289864D01*
X27484500Y34480068D01*
X27484501Y14379931D01*
X27294296Y14570136D01*
X26864115Y14857575D01*
X26386122Y15055566D01*
X25878688Y15156500D01*
X25361312Y15156500D01*
X24853878Y15055566D01*
X24375885Y14857575D01*
X23945704Y14570136D01*
X23579864Y14204296D01*
X23292425Y13774115D01*
X23094434Y13296122D01*
X22993500Y12788688D01*
X22993500Y12271312D01*
X23094434Y11763878D01*
X23292425Y11285885D01*
X23579864Y10855704D01*
X23945704Y10489864D01*
X24375885Y10202425D01*
X24853878Y10004434D01*
X25361312Y9903500D01*
X25878688Y9903500D01*
X26386122Y10004434D01*
X26864115Y10202425D01*
X27294296Y10489864D01*
X27484501Y10680069D01*
X27484501Y2562287D01*
X27442658Y2135543D01*
X27325197Y1746492D01*
X27134405Y1387664D01*
X26877551Y1072729D01*
X26564418Y813684D01*
X26206928Y620389D01*
X25818710Y500216D01*
X25393268Y455500D01*
X2562277Y455500D01*
X2135543Y497342D01*
X1746492Y614803D01*
X1387664Y805595D01*
X1072729Y1062449D01*
X813684Y1375582D01*
X620389Y1733072D01*
X500216Y2121290D01*
X455500Y2546732D01*
X455500Y5716482D01*
X3803500Y5716482D01*
X3803500Y5459518D01*
X3853631Y5207491D01*
X3951967Y4970088D01*
X4094729Y4756430D01*
X4276430Y4574729D01*
X4490088Y4431967D01*
X4727491Y4333631D01*
X4979518Y4283500D01*
X5236482Y4283500D01*
X5488509Y4333631D01*
X5725912Y4431967D01*
X5939570Y4574729D01*
X6121271Y4756430D01*
X6264033Y4970088D01*
X6362369Y5207491D01*
X6412500Y5459518D01*
X6412500Y5716482D01*
X7303500Y5716482D01*
X7303500Y5459518D01*
X7353631Y5207491D01*
X7451967Y4970088D01*
X7594729Y4756430D01*
X7776430Y4574729D01*
X7990088Y4431967D01*
X8227491Y4333631D01*
X8479518Y4283500D01*
X8736482Y4283500D01*
X8988509Y4333631D01*
X9225912Y4431967D01*
X9439570Y4574729D01*
X9621271Y4756430D01*
X9764033Y4970088D01*
X9862369Y5207491D01*
X9912500Y5459518D01*
X9912500Y5716482D01*
X9862369Y5968509D01*
X9764033Y6205912D01*
X9621271Y6419570D01*
X9439570Y6601271D01*
X9225912Y6744033D01*
X8988509Y6842369D01*
X8736482Y6892500D01*
X8479518Y6892500D01*
X8227491Y6842369D01*
X7990088Y6744033D01*
X7776430Y6601271D01*
X7594729Y6419570D01*
X7451967Y6205912D01*
X7353631Y5968509D01*
X7303500Y5716482D01*
X6412500Y5716482D01*
X6362369Y5968509D01*
X6264033Y6205912D01*
X6121271Y6419570D01*
X5939570Y6601271D01*
X5725912Y6744033D01*
X5488509Y6842369D01*
X5236482Y6892500D01*
X4979518Y6892500D01*
X4727491Y6842369D01*
X4490088Y6744033D01*
X4276430Y6601271D01*
X4094729Y6419570D01*
X3951967Y6205912D01*
X3853631Y5968509D01*
X3803500Y5716482D01*
X455500Y5716482D01*
X455500Y10680068D01*
X645704Y10489864D01*
X1075885Y10202425D01*
X1553878Y10004434D01*
X2061312Y9903500D01*
X2578688Y9903500D01*
X3086122Y10004434D01*
X3564115Y10202425D01*
X3611518Y10234099D01*
X6874500Y10234099D01*
X6874500Y10109901D01*
X6898729Y9988090D01*
X6946258Y9873346D01*
X7015258Y9770080D01*
X7103080Y9682258D01*
X7206346Y9613258D01*
X7321090Y9565729D01*
X7442901Y9541500D01*
X7567099Y9541500D01*
X7688910Y9565729D01*
X7803654Y9613258D01*
X7906920Y9682258D01*
X7994742Y9770080D01*
X8063742Y9873346D01*
X8111271Y9988090D01*
X8135500Y10109901D01*
X8135500Y10234099D01*
X8111271Y10355910D01*
X8063742Y10470654D01*
X8012500Y10547343D01*
X8012500Y13263787D01*
X8094449Y13345736D01*
X8184910Y13363729D01*
X8299654Y13411258D01*
X8402920Y13480258D01*
X8490742Y13568080D01*
X8559742Y13671346D01*
X8607271Y13786090D01*
X8631500Y13907901D01*
X8631500Y14032099D01*
X8607271Y14153910D01*
X8559742Y14268654D01*
X8490742Y14371920D01*
X8402920Y14459742D01*
X8299654Y14528742D01*
X8184910Y14576271D01*
X8063099Y14600500D01*
X7938901Y14600500D01*
X7817090Y14576271D01*
X7702346Y14528742D01*
X7599080Y14459742D01*
X7511258Y14371920D01*
X7442258Y14268654D01*
X7394729Y14153910D01*
X7376736Y14063449D01*
X7163769Y13850482D01*
X7144408Y13834593D01*
X7080989Y13757316D01*
X7043236Y13686684D01*
X7033864Y13669151D01*
X7004844Y13573487D01*
X6995045Y13474000D01*
X6997501Y13449065D01*
X6997500Y10547343D01*
X6946258Y10470654D01*
X6898729Y10355910D01*
X6874500Y10234099D01*
X3611518Y10234099D01*
X3994296Y10489864D01*
X4360136Y10855704D01*
X4647575Y11285885D01*
X4845566Y11763878D01*
X4946500Y12271312D01*
X4946500Y12788688D01*
X4845566Y13296122D01*
X4647575Y13774115D01*
X4360136Y14204296D01*
X3994296Y14570136D01*
X3564115Y14857575D01*
X3086122Y15055566D01*
X2670049Y15138327D01*
X2691232Y15157136D01*
X2838509Y15351533D01*
X2945031Y15570927D01*
X3006705Y15806886D01*
X2926975Y16001500D01*
X1778500Y16001500D01*
X1778500Y15981500D01*
X1777500Y15981500D01*
X1777500Y16001500D01*
X629025Y16001500D01*
X549295Y15806886D01*
X610969Y15570927D01*
X717491Y15351533D01*
X864768Y15157136D01*
X1047140Y14995207D01*
X1196711Y14907623D01*
X1075885Y14857575D01*
X645704Y14570136D01*
X455500Y14379932D01*
X455500Y16002000D01*
X3067881Y16002000D01*
X3091902Y15758114D01*
X3163041Y15523600D01*
X3278564Y15307471D01*
X3434032Y15118032D01*
X3623471Y14962564D01*
X3839600Y14847041D01*
X4074114Y14775902D01*
X4256889Y14757900D01*
X4379111Y14757900D01*
X4561886Y14775902D01*
X4796400Y14847041D01*
X5012529Y14962564D01*
X5201968Y15118032D01*
X5357436Y15307471D01*
X5472959Y15523600D01*
X5544098Y15758114D01*
X5568119Y16002000D01*
X5544098Y16245886D01*
X5472959Y16480400D01*
X5357436Y16696529D01*
X5201968Y16885968D01*
X5012529Y17041436D01*
X4796400Y17156959D01*
X4561886Y17228098D01*
X4379111Y17246100D01*
X4256889Y17246100D01*
X4074114Y17228098D01*
X3839600Y17156959D01*
X3623471Y17041436D01*
X3434032Y16885968D01*
X3278564Y16696529D01*
X3163041Y16480400D01*
X3091902Y16245886D01*
X3067881Y16002000D01*
X455500Y16002000D01*
X455500Y16197114D01*
X549295Y16197114D01*
X629025Y16002500D01*
X1777500Y16002500D01*
X1777500Y17150975D01*
X1778500Y17150975D01*
X1778500Y16002500D01*
X2926975Y16002500D01*
X3006705Y16197114D01*
X2945031Y16433073D01*
X2838509Y16652467D01*
X2691232Y16846864D01*
X2508860Y17008793D01*
X2298401Y17132031D01*
X2067944Y17211843D01*
X1973114Y17230705D01*
X1778500Y17150975D01*
X1777500Y17150975D01*
X1582886Y17230705D01*
X1488056Y17211843D01*
X1257599Y17132031D01*
X1047140Y17008793D01*
X864768Y16846864D01*
X717491Y16652467D01*
X610969Y16433073D01*
X549295Y16197114D01*
X455500Y16197114D01*
X455500Y18542000D01*
X527881Y18542000D01*
X551902Y18298114D01*
X623041Y18063600D01*
X738564Y17847471D01*
X894032Y17658032D01*
X1083471Y17502564D01*
X1299600Y17387041D01*
X1534114Y17315902D01*
X1716889Y17297900D01*
X1839111Y17297900D01*
X2021886Y17315902D01*
X2256400Y17387041D01*
X2472529Y17502564D01*
X2661968Y17658032D01*
X2817436Y17847471D01*
X2932959Y18063600D01*
X3004098Y18298114D01*
X3028119Y18542000D01*
X3004098Y18785886D01*
X2932959Y19020400D01*
X2817436Y19236529D01*
X2661968Y19425968D01*
X2472529Y19581436D01*
X2256400Y19696959D01*
X2021886Y19768098D01*
X1839111Y19786100D01*
X1716889Y19786100D01*
X1534114Y19768098D01*
X1299600Y19696959D01*
X1083471Y19581436D01*
X894032Y19425968D01*
X738564Y19236529D01*
X623041Y19020400D01*
X551902Y18785886D01*
X527881Y18542000D01*
X455500Y18542000D01*
X455500Y21082000D01*
X527881Y21082000D01*
X551902Y20838114D01*
X623041Y20603600D01*
X738564Y20387471D01*
X894032Y20198032D01*
X1083471Y20042564D01*
X1299600Y19927041D01*
X1534114Y19855902D01*
X1716889Y19837900D01*
X1839111Y19837900D01*
X2021886Y19855902D01*
X2256400Y19927041D01*
X2472529Y20042564D01*
X2661968Y20198032D01*
X2817436Y20387471D01*
X2932959Y20603600D01*
X3004098Y20838114D01*
X3028119Y21082000D01*
X3004098Y21325886D01*
X2984339Y21391021D01*
X3173746Y21580428D01*
X3163041Y21560400D01*
X3091902Y21325886D01*
X3067881Y21082000D01*
X3091902Y20838114D01*
X3163041Y20603600D01*
X3278564Y20387471D01*
X3434032Y20198032D01*
X3623471Y20042564D01*
X3839600Y19927041D01*
X4074114Y19855902D01*
X4256889Y19837900D01*
X4379111Y19837900D01*
X4561886Y19855902D01*
X4764824Y19917463D01*
X5207500Y19474786D01*
X5207500Y19419227D01*
X5201968Y19425968D01*
X5012529Y19581436D01*
X4796400Y19696959D01*
X4561886Y19768098D01*
X4379111Y19786100D01*
X4256889Y19786100D01*
X4074114Y19768098D01*
X3839600Y19696959D01*
X3623471Y19581436D01*
X3434032Y19425968D01*
X3278564Y19236529D01*
X3163041Y19020400D01*
X3091902Y18785886D01*
X3067881Y18542000D01*
X3091902Y18298114D01*
X3163041Y18063600D01*
X3278564Y17847471D01*
X3434032Y17658032D01*
X3623471Y17502564D01*
X3839600Y17387041D01*
X4074114Y17315902D01*
X4256889Y17297900D01*
X4379111Y17297900D01*
X4561886Y17315902D01*
X4796400Y17387041D01*
X5012529Y17502564D01*
X5201968Y17658032D01*
X5357436Y17847471D01*
X5472959Y18063600D01*
X5479216Y18084228D01*
X5531090Y18062741D01*
X5652901Y18038512D01*
X5777099Y18038512D01*
X5898910Y18062741D01*
X6013654Y18110270D01*
X6116920Y18179270D01*
X6204742Y18267092D01*
X6273742Y18370358D01*
X6321271Y18485102D01*
X6345500Y18606913D01*
X6345500Y18731111D01*
X6321271Y18852922D01*
X6273742Y18967666D01*
X6222500Y19044355D01*
X6222500Y19660076D01*
X6224955Y19685001D01*
X6215156Y19784488D01*
X6206353Y19813507D01*
X6186137Y19880151D01*
X6139012Y19968316D01*
X6075593Y20045593D01*
X6056232Y20061482D01*
X5482537Y20635176D01*
X5544098Y20838114D01*
X5568119Y21082000D01*
X5544098Y21325886D01*
X5472959Y21560400D01*
X5357436Y21776529D01*
X5201968Y21965968D01*
X5195227Y21971500D01*
X7112501Y21971500D01*
X7112500Y17684162D01*
X7109431Y17653000D01*
X7112500Y17621838D01*
X7112500Y17621831D01*
X7121681Y17528617D01*
X7157962Y17409014D01*
X7216880Y17298786D01*
X7296170Y17202170D01*
X7320389Y17182294D01*
X8419298Y16083384D01*
X8439170Y16059170D01*
X8535785Y15979880D01*
X8646013Y15920962D01*
X8765616Y15884681D01*
X8858830Y15875500D01*
X8858837Y15875500D01*
X8889999Y15872431D01*
X8921161Y15875500D01*
X10826170Y15875500D01*
X10919384Y15884681D01*
X10922500Y15885626D01*
X10922501Y6282172D01*
X10919431Y6251000D01*
X10931681Y6126617D01*
X10967963Y6007013D01*
X10975635Y5992660D01*
X10965631Y5968509D01*
X10915500Y5716482D01*
X10915500Y5459518D01*
X10965631Y5207491D01*
X11063967Y4970088D01*
X11206729Y4756430D01*
X11388430Y4574729D01*
X11602088Y4431967D01*
X11839491Y4333631D01*
X12091518Y4283500D01*
X12348482Y4283500D01*
X12557589Y4325094D01*
X13753298Y3129384D01*
X13773170Y3105170D01*
X13869785Y3025880D01*
X13980013Y2966962D01*
X14099616Y2930681D01*
X14192830Y2921500D01*
X14192838Y2921500D01*
X14224000Y2918431D01*
X14255162Y2921500D01*
X17268838Y2921500D01*
X17300000Y2918431D01*
X17331162Y2921500D01*
X17331170Y2921500D01*
X17424384Y2930681D01*
X17543987Y2966962D01*
X17654215Y3025880D01*
X17750830Y3105170D01*
X17770706Y3129389D01*
X18971057Y4329739D01*
X19203518Y4283500D01*
X19460482Y4283500D01*
X19712509Y4333631D01*
X19949912Y4431967D01*
X20163570Y4574729D01*
X20345271Y4756430D01*
X20488033Y4970088D01*
X20586369Y5207491D01*
X20636500Y5459518D01*
X20636500Y5716482D01*
X21527500Y5716482D01*
X21527500Y5459518D01*
X21577631Y5207491D01*
X21675967Y4970088D01*
X21818729Y4756430D01*
X22000430Y4574729D01*
X22214088Y4431967D01*
X22451491Y4333631D01*
X22703518Y4283500D01*
X22960482Y4283500D01*
X23212509Y4333631D01*
X23449912Y4431967D01*
X23663570Y4574729D01*
X23845271Y4756430D01*
X23988033Y4970088D01*
X24086369Y5207491D01*
X24136500Y5459518D01*
X24136500Y5716482D01*
X24086369Y5968509D01*
X23988033Y6205912D01*
X23845271Y6419570D01*
X23663570Y6601271D01*
X23449912Y6744033D01*
X23212509Y6842369D01*
X22960482Y6892500D01*
X22703518Y6892500D01*
X22451491Y6842369D01*
X22214088Y6744033D01*
X22000430Y6601271D01*
X21818729Y6419570D01*
X21675967Y6205912D01*
X21577631Y5968509D01*
X21527500Y5716482D01*
X20636500Y5716482D01*
X20586369Y5968509D01*
X20488033Y6205912D01*
X20345271Y6419570D01*
X20163570Y6601271D01*
X19949912Y6744033D01*
X19712509Y6842369D01*
X19460482Y6892500D01*
X19203518Y6892500D01*
X18951491Y6842369D01*
X18714088Y6744033D01*
X18500430Y6601271D01*
X18318729Y6419570D01*
X18175967Y6205912D01*
X18077631Y5968509D01*
X18027500Y5716482D01*
X18027500Y5459518D01*
X18073739Y5227057D01*
X17037183Y4190500D01*
X14486818Y4190500D01*
X13473038Y5204279D01*
X13474369Y5207491D01*
X13524500Y5459518D01*
X13524500Y5716482D01*
X14415500Y5716482D01*
X14415500Y5459518D01*
X14465631Y5207491D01*
X14563967Y4970088D01*
X14706729Y4756430D01*
X14888430Y4574729D01*
X15102088Y4431967D01*
X15339491Y4333631D01*
X15591518Y4283500D01*
X15848482Y4283500D01*
X16100509Y4333631D01*
X16337912Y4431967D01*
X16551570Y4574729D01*
X16733271Y4756430D01*
X16876033Y4970088D01*
X16974369Y5207491D01*
X17024500Y5459518D01*
X17024500Y5716482D01*
X16974369Y5968509D01*
X16876033Y6205912D01*
X16733271Y6419570D01*
X16551570Y6601271D01*
X16337912Y6744033D01*
X16100509Y6842369D01*
X15848482Y6892500D01*
X15591518Y6892500D01*
X15339491Y6842369D01*
X15102088Y6744033D01*
X14888430Y6601271D01*
X14706729Y6419570D01*
X14563967Y6205912D01*
X14465631Y5968509D01*
X14415500Y5716482D01*
X13524500Y5716482D01*
X13474369Y5968509D01*
X13376033Y6205912D01*
X13233271Y6419570D01*
X13051570Y6601271D01*
X12837912Y6744033D01*
X12600509Y6842369D01*
X12348482Y6892500D01*
X12191500Y6892500D01*
X12191500Y15377626D01*
X12194616Y15376681D01*
X12319000Y15364430D01*
X12443383Y15376681D01*
X12562986Y15412962D01*
X12673214Y15471880D01*
X12769830Y15551170D01*
X12849120Y15647785D01*
X12908038Y15758013D01*
X12943677Y15875500D01*
X22193838Y15875500D01*
X22225000Y15872431D01*
X22256162Y15875500D01*
X22256170Y15875500D01*
X22349384Y15884681D01*
X22468987Y15920962D01*
X22579215Y15979880D01*
X22675830Y16059170D01*
X22695706Y16083389D01*
X24392818Y17780500D01*
X26574170Y17780500D01*
X26667384Y17789681D01*
X26786987Y17825962D01*
X26897215Y17884880D01*
X26993830Y17964170D01*
X27073120Y18060785D01*
X27132038Y18171013D01*
X27168319Y18290616D01*
X27180570Y18415000D01*
X27168319Y18539384D01*
X27132038Y18658987D01*
X27073120Y18769215D01*
X26993830Y18865830D01*
X26897215Y18945120D01*
X26786987Y19004038D01*
X26667384Y19040319D01*
X26574170Y19049500D01*
X24645818Y19049500D01*
X26969623Y21373304D01*
X26993830Y21393170D01*
X27073120Y21489785D01*
X27132038Y21600013D01*
X27168319Y21719616D01*
X27177500Y21812830D01*
X27177500Y21812840D01*
X27180569Y21843999D01*
X27177500Y21875158D01*
X27177500Y27273839D01*
X27180569Y27305001D01*
X27177500Y27336163D01*
X27177500Y27336170D01*
X27168319Y27429384D01*
X27132038Y27548987D01*
X27073120Y27659215D01*
X26993830Y27755830D01*
X26969616Y27775702D01*
X26928643Y27816675D01*
X26993829Y27870171D01*
X27073119Y27966786D01*
X27132037Y28077013D01*
X27168319Y28196617D01*
X27180569Y28321001D01*
X27168319Y28445384D01*
X27132037Y28564989D01*
X27073119Y28675215D01*
X27013699Y28747618D01*
X26632709Y29128608D01*
X26632700Y29128619D01*
X24129500Y31631817D01*
X24129500Y33369839D01*
X24132569Y33401001D01*
X24129500Y33432163D01*
X24129500Y33432170D01*
X24120319Y33525384D01*
X24084038Y33644987D01*
X24025120Y33755215D01*
X23945830Y33851830D01*
X23921616Y33871702D01*
X21716500Y36076817D01*
X21716500Y37710183D01*
X22397617Y38391299D01*
X22421830Y38411170D01*
X22501120Y38507785D01*
X22560038Y38618013D01*
X22596319Y38737616D01*
X22605500Y38830830D01*
X22605500Y38830831D01*
X22608570Y38862000D01*
X22605500Y38893169D01*
X22605500Y40100831D01*
X22608570Y40132000D01*
X22601858Y40200152D01*
X22596319Y40256384D01*
X22560038Y40375987D01*
X22501120Y40486215D01*
X22421830Y40582830D01*
X22397616Y40602702D01*
X21894747Y41105571D01*
X22386500Y41105571D01*
X22386500Y40912429D01*
X22424180Y40722999D01*
X22498092Y40544559D01*
X22605396Y40383968D01*
X22741968Y40247396D01*
X22902559Y40140092D01*
X23080999Y40066180D01*
X23270429Y40028500D01*
X23463571Y40028500D01*
X23653001Y40066180D01*
X23831441Y40140092D01*
X23992032Y40247396D01*
X24128604Y40383968D01*
X24235908Y40544559D01*
X24309820Y40722999D01*
X24347500Y40912429D01*
X24347500Y41105571D01*
X24309820Y41295001D01*
X24235908Y41473441D01*
X24128604Y41634032D01*
X23992032Y41770604D01*
X23831441Y41877908D01*
X23653001Y41951820D01*
X23463571Y41989500D01*
X23270429Y41989500D01*
X23080999Y41951820D01*
X22902559Y41877908D01*
X22741968Y41770604D01*
X22605396Y41634032D01*
X22498092Y41473441D01*
X22424180Y41295001D01*
X22386500Y41105571D01*
X21894747Y41105571D01*
X21843500Y41156817D01*
X21843500Y42068170D01*
X21834319Y42161384D01*
X21798038Y42280987D01*
X21739120Y42391215D01*
X21659830Y42487830D01*
X21563215Y42567120D01*
X21452987Y42626038D01*
X21333384Y42662319D01*
X21209000Y42674570D01*
X21084617Y42662319D01*
X21081500Y42661373D01*
X21081500Y45955571D01*
X22386500Y45955571D01*
X22386500Y45762429D01*
X22424180Y45572999D01*
X22498092Y45394559D01*
X22605396Y45233968D01*
X22741968Y45097396D01*
X22902559Y44990092D01*
X23080999Y44916180D01*
X23270429Y44878500D01*
X23463571Y44878500D01*
X23653001Y44916180D01*
X23831441Y44990092D01*
X23992032Y45097396D01*
X24128604Y45233968D01*
X24235908Y45394559D01*
X24309820Y45572999D01*
X24347500Y45762429D01*
X24347500Y45955571D01*
X24309820Y46145001D01*
X24235908Y46323441D01*
X24128604Y46484032D01*
X23992032Y46620604D01*
X23831441Y46727908D01*
X23653001Y46801820D01*
X23463571Y46839500D01*
X23270429Y46839500D01*
X23080999Y46801820D01*
X22902559Y46727908D01*
X22741968Y46620604D01*
X22605396Y46484032D01*
X22498092Y46323441D01*
X22424180Y46145001D01*
X22386500Y45955571D01*
X21081500Y45955571D01*
X21081500Y46666554D01*
X21126654Y46685258D01*
X21229920Y46754258D01*
X21317742Y46842080D01*
X21386742Y46945346D01*
X21433819Y47059000D01*
X24781514Y47059000D01*
X24801411Y46856987D01*
X24860336Y46662737D01*
X24956025Y46483715D01*
X25084801Y46326801D01*
X25241715Y46198025D01*
X25420737Y46102336D01*
X25614987Y46043411D01*
X25766377Y46028500D01*
X26267623Y46028500D01*
X26419013Y46043411D01*
X26613263Y46102336D01*
X26792285Y46198025D01*
X26949199Y46326801D01*
X27077975Y46483715D01*
X27173664Y46662737D01*
X27232589Y46856987D01*
X27252486Y47059000D01*
X27232589Y47261013D01*
X27173664Y47455263D01*
X27077975Y47634285D01*
X26949199Y47791199D01*
X26792285Y47919975D01*
X26613263Y48015664D01*
X26419013Y48074589D01*
X26267623Y48089500D01*
X25766377Y48089500D01*
X25614987Y48074589D01*
X25420737Y48015664D01*
X25241715Y47919975D01*
X25084801Y47791199D01*
X24956025Y47634285D01*
X24860336Y47455263D01*
X24801411Y47261013D01*
X24781514Y47059000D01*
X21433819Y47059000D01*
X21434271Y47060090D01*
X21458500Y47181901D01*
X21458500Y47306099D01*
X21434271Y47427910D01*
X21386742Y47542654D01*
X21317742Y47645920D01*
X21229920Y47733742D01*
X21126654Y47802742D01*
X21011910Y47850271D01*
X20890099Y47874500D01*
X20765901Y47874500D01*
X20644090Y47850271D01*
X20529346Y47802742D01*
X20426080Y47733742D01*
X20338258Y47645920D01*
X20269258Y47542654D01*
X20221729Y47427910D01*
X20204092Y47339242D01*
X20149989Y47273316D01*
X20114616Y47207137D01*
X20102864Y47185151D01*
X20073844Y47089487D01*
X20064045Y46990000D01*
X20066501Y46965065D01*
X20066500Y40664925D01*
X20064045Y40640000D01*
X20073844Y40540513D01*
X20082190Y40513001D01*
X20082342Y40512500D01*
X19709924Y40512500D01*
X19684999Y40514955D01*
X19585512Y40505156D01*
X19556493Y40496353D01*
X19489849Y40476137D01*
X19401684Y40429012D01*
X19324407Y40365593D01*
X19308519Y40346233D01*
X18962769Y40000482D01*
X18943408Y39984593D01*
X18879989Y39907316D01*
X18844616Y39841137D01*
X18832864Y39819151D01*
X18803844Y39723487D01*
X18794045Y39624000D01*
X18796501Y39599065D01*
X18796500Y39071213D01*
X16505487Y41362226D01*
X16489593Y41381593D01*
X16412316Y41445012D01*
X16324151Y41492137D01*
X16228487Y41521156D01*
X16153925Y41528500D01*
X16129000Y41530955D01*
X16104075Y41528500D01*
X12148213Y41528500D01*
X12054264Y41622449D01*
X12036271Y41712910D01*
X11988742Y41827654D01*
X11919742Y41930920D01*
X11831920Y42018742D01*
X11728654Y42087742D01*
X11613910Y42135271D01*
X11492099Y42159500D01*
X11367901Y42159500D01*
X11246090Y42135271D01*
X11131346Y42087742D01*
X11028080Y42018742D01*
X10940258Y41930920D01*
X10871258Y41827654D01*
X10823729Y41712910D01*
X10799500Y41591099D01*
X10799500Y41466901D01*
X10823729Y41345090D01*
X10871258Y41230346D01*
X10940258Y41127080D01*
X10982838Y41084500D01*
X10940258Y41041920D01*
X10906827Y40991886D01*
X4821487Y47077226D01*
X4805593Y47096593D01*
X4728316Y47160012D01*
X4640151Y47207137D01*
X4544487Y47236156D01*
X4469925Y47243500D01*
X4445000Y47245955D01*
X4420075Y47243500D01*
X4185343Y47243500D01*
X4108654Y47294742D01*
X3993910Y47342271D01*
X3872099Y47366500D01*
X3747901Y47366500D01*
X3626090Y47342271D01*
X3511346Y47294742D01*
X3408080Y47225742D01*
X3320258Y47137920D01*
X3251258Y47034654D01*
X3203729Y46919910D01*
X3179500Y46798099D01*
X3179500Y46673901D01*
X3203729Y46552090D01*
X3251258Y46437346D01*
X3320258Y46334080D01*
X3408080Y46246258D01*
X3511346Y46177258D01*
X3626090Y46129729D01*
X3747901Y46105500D01*
X3872099Y46105500D01*
X3993910Y46129729D01*
X4108654Y46177258D01*
X4185343Y46228500D01*
X4234787Y46228500D01*
X10799513Y39663774D01*
X10815407Y39644407D01*
X10892684Y39580988D01*
X10980849Y39533863D01*
X11035095Y39517408D01*
X11076512Y39504844D01*
X11175999Y39495045D01*
X11200924Y39497500D01*
X15410787Y39497500D01*
X16186288Y38721999D01*
X16108080Y38669742D01*
X16020258Y38581920D01*
X15951258Y38478654D01*
X15903729Y38363910D01*
X15879500Y38242099D01*
X15879500Y38117901D01*
X15903729Y37996090D01*
X15951258Y37881346D01*
X16020258Y37778080D01*
X16108080Y37690258D01*
X16211346Y37621258D01*
X16326090Y37573729D01*
X16447901Y37549500D01*
X16572099Y37549500D01*
X16592691Y37553596D01*
X16891501Y37254786D01*
X16891501Y35943161D01*
X16864920Y35969742D01*
X16761654Y36038742D01*
X16646910Y36086271D01*
X16525099Y36110500D01*
X16400901Y36110500D01*
X16279090Y36086271D01*
X16164346Y36038742D01*
X16061080Y35969742D01*
X15973258Y35881920D01*
X15904258Y35778654D01*
X15856729Y35663910D01*
X15832500Y35542099D01*
X15832500Y35417901D01*
X15856729Y35296090D01*
X15904258Y35181346D01*
X15973258Y35078080D01*
X16061080Y34990258D01*
X16164346Y34921258D01*
X16279090Y34873729D01*
X16369551Y34855736D01*
X16383500Y34841786D01*
X16383500Y33650386D01*
X16300654Y33705742D01*
X16185910Y33753271D01*
X16064099Y33777500D01*
X15939901Y33777500D01*
X15818090Y33753271D01*
X15703346Y33705742D01*
X15600080Y33636742D01*
X15512258Y33548920D01*
X15443258Y33445654D01*
X15395729Y33330910D01*
X15371500Y33209099D01*
X15371500Y33084901D01*
X15395729Y32963090D01*
X15443258Y32848346D01*
X15512258Y32745080D01*
X15600080Y32657258D01*
X15703346Y32588258D01*
X15818090Y32540729D01*
X15875500Y32529310D01*
X15875501Y30377935D01*
X15873045Y30353000D01*
X15882844Y30253513D01*
X15893402Y30218710D01*
X15911864Y30157849D01*
X15958989Y30069684D01*
X16022408Y29992407D01*
X16041769Y29976518D01*
X16256500Y29761786D01*
X16256501Y24632345D01*
X16205258Y24555654D01*
X16157729Y24440910D01*
X16133500Y24319099D01*
X16133500Y24194901D01*
X16157729Y24073090D01*
X16205258Y23958346D01*
X16274258Y23855080D01*
X16362080Y23767258D01*
X16465346Y23698258D01*
X16580090Y23650729D01*
X16701901Y23626500D01*
X16826099Y23626500D01*
X16947910Y23650729D01*
X17062654Y23698258D01*
X17165920Y23767258D01*
X17253742Y23855080D01*
X17322742Y23958346D01*
X17370271Y24073090D01*
X17394500Y24194901D01*
X17394500Y24319099D01*
X17370271Y24440910D01*
X17322742Y24555654D01*
X17271500Y24632343D01*
X17271500Y29461729D01*
X19762035Y26971193D01*
X19664080Y26905742D01*
X19576258Y26817920D01*
X19507258Y26714654D01*
X19459729Y26599910D01*
X19435500Y26478099D01*
X19435500Y26353901D01*
X19459729Y26232090D01*
X19507258Y26117346D01*
X19576258Y26014080D01*
X19664080Y25926258D01*
X19767346Y25857258D01*
X19882090Y25809729D01*
X20003901Y25785500D01*
X20128099Y25785500D01*
X20215419Y25802868D01*
X23114500Y22903786D01*
X23114501Y20911215D01*
X21252787Y19049500D01*
X17786343Y19049500D01*
X17709654Y19100742D01*
X17594910Y19148271D01*
X17473099Y19172500D01*
X17348901Y19172500D01*
X17227090Y19148271D01*
X17112346Y19100742D01*
X17009080Y19031742D01*
X16921258Y18943920D01*
X16852258Y18840654D01*
X16804729Y18725910D01*
X16780500Y18604099D01*
X16780500Y18479901D01*
X16793509Y18414500D01*
X9975446Y18414500D01*
X9956742Y18459654D01*
X9887742Y18562920D01*
X9799920Y18650742D01*
X9696654Y18719742D01*
X9581910Y18767271D01*
X9460099Y18791500D01*
X9335901Y18791500D01*
X9214090Y18767271D01*
X9143500Y18738031D01*
X9143500Y19620099D01*
X15244500Y19620099D01*
X15244500Y19495901D01*
X15268729Y19374090D01*
X15316258Y19259346D01*
X15385258Y19156080D01*
X15473080Y19068258D01*
X15576346Y18999258D01*
X15691090Y18951729D01*
X15812901Y18927500D01*
X15937099Y18927500D01*
X16058910Y18951729D01*
X16173654Y18999258D01*
X16276920Y19068258D01*
X16364742Y19156080D01*
X16433742Y19259346D01*
X16481271Y19374090D01*
X16499264Y19464551D01*
X17105226Y20070513D01*
X17124593Y20086407D01*
X17188012Y20163684D01*
X17235137Y20251849D01*
X17264156Y20347513D01*
X17271500Y20422075D01*
X17271500Y20422076D01*
X17273955Y20447000D01*
X17271500Y20471925D01*
X17271500Y22611657D01*
X17322742Y22688346D01*
X17370271Y22803090D01*
X17394500Y22924901D01*
X17394500Y23049099D01*
X17370271Y23170910D01*
X17322742Y23285654D01*
X17253742Y23388920D01*
X17165920Y23476742D01*
X17062654Y23545742D01*
X16947910Y23593271D01*
X16826099Y23617500D01*
X16701901Y23617500D01*
X16580090Y23593271D01*
X16465346Y23545742D01*
X16362080Y23476742D01*
X16274258Y23388920D01*
X16205258Y23285654D01*
X16157729Y23170910D01*
X16133500Y23049099D01*
X16133500Y22924901D01*
X16157729Y22803090D01*
X16205258Y22688346D01*
X16256501Y22611656D01*
X16256500Y20657213D01*
X15781551Y20182264D01*
X15691090Y20164271D01*
X15576346Y20116742D01*
X15473080Y20047742D01*
X15385258Y19959920D01*
X15316258Y19856654D01*
X15268729Y19741910D01*
X15244500Y19620099D01*
X9143500Y19620099D01*
X9143500Y23590839D01*
X9146569Y23622001D01*
X9143500Y23653163D01*
X9143500Y23653170D01*
X9134319Y23746384D01*
X9098038Y23865987D01*
X9039120Y23976215D01*
X8959830Y24072830D01*
X8935617Y24092701D01*
X8407706Y24620611D01*
X8387830Y24644830D01*
X8291215Y24724120D01*
X8180987Y24783038D01*
X8061384Y24819319D01*
X7968170Y24828500D01*
X7968162Y24828500D01*
X7937000Y24831569D01*
X7905838Y24828500D01*
X7080830Y24828500D01*
X6987616Y24819319D01*
X6868013Y24783038D01*
X6757785Y24724120D01*
X6661170Y24644830D01*
X6581880Y24548215D01*
X6522962Y24437987D01*
X6486681Y24318384D01*
X6474430Y24194000D01*
X6486681Y24069616D01*
X6522962Y23950013D01*
X6581880Y23839785D01*
X6661170Y23743170D01*
X6757785Y23663880D01*
X6868013Y23604962D01*
X6987616Y23568681D01*
X7080830Y23559500D01*
X7674183Y23559500D01*
X7874500Y23359182D01*
X7874500Y23113728D01*
X7847215Y23136120D01*
X7736987Y23195038D01*
X7617384Y23231319D01*
X7524170Y23240500D01*
X7524162Y23240500D01*
X7493000Y23243569D01*
X7461838Y23240500D01*
X3333158Y23240500D01*
X3301999Y23243569D01*
X3270840Y23240500D01*
X3270830Y23240500D01*
X3177616Y23231319D01*
X3058013Y23195038D01*
X2947785Y23136120D01*
X2851170Y23056830D01*
X2831303Y23032622D01*
X2087021Y22288339D01*
X2021886Y22308098D01*
X1839111Y22326100D01*
X1716889Y22326100D01*
X1534114Y22308098D01*
X1299600Y22236959D01*
X1083471Y22121436D01*
X894032Y21965968D01*
X738564Y21776529D01*
X623041Y21560400D01*
X551902Y21325886D01*
X527881Y21082000D01*
X455500Y21082000D01*
X455500Y34480068D01*
X645704Y34289864D01*
X1075885Y34002425D01*
X1553878Y33804434D01*
X2061312Y33703500D01*
X2578688Y33703500D01*
X3086122Y33804434D01*
X3564115Y34002425D01*
X3994296Y34289864D01*
X4360136Y34655704D01*
X4647575Y35085885D01*
X4845566Y35563878D01*
X4946500Y36071312D01*
X4946500Y36588688D01*
X4845566Y37096122D01*
X4647575Y37574115D01*
X4360136Y38004296D01*
X3994296Y38370136D01*
X3564115Y38657575D01*
X3086122Y38855566D01*
X2578688Y38956500D01*
X2061312Y38956500D01*
X1553878Y38855566D01*
X1075885Y38657575D01*
X645704Y38370136D01*
X455500Y38179932D01*
X455500Y48237723D01*
X497342Y48664457D01*
X614802Y49053507D01*
X805598Y49412341D01*
X1062448Y49727270D01*
X1375582Y49986316D01*
X1733072Y50179611D01*
X2121291Y50299784D01*
X2546733Y50344500D01*
X20650706Y50344500D01*
X20641746Y50335540D01*
G04 #@! TD*
M02*
