G04 #@! TF.GenerationSoftware,KiCad,Pcbnew,5.0.2-bee76a0~70~ubuntu18.04.1*
G04 #@! TF.CreationDate,2019-04-01T01:37:44+08:00*
G04 #@! TF.ProjectId,TINY-REFLOW-CONTROLLER,54494e59-2d52-4454-964c-4f572d434f4e,rev?*
G04 #@! TF.SameCoordinates,PX8f0d180PY5f5e100*
G04 #@! TF.FileFunction,Paste,Top*
G04 #@! TF.FilePolarity,Positive*
%FSLAX46Y46*%
G04 Gerber Fmt 4.6, Leading zero omitted, Abs format (unit mm)*
G04 Created by KiCad (PCBNEW 5.0.2-bee76a0~70~ubuntu18.04.1) date Mon 01 Apr 2019 01:37:44 AM +08*
%MOMM*%
%LPD*%
G01*
G04 APERTURE LIST*
%ADD10R,0.730000X0.730000*%
%ADD11R,0.678000X0.678000*%
%ADD12R,0.740000X0.740000*%
%ADD13C,0.100000*%
%ADD14C,0.300000*%
%ADD15R,0.350000X1.400000*%
%ADD16R,2.000000X3.000000*%
%ADD17R,1.400000X1.600000*%
%ADD18R,0.650000X1.050000*%
%ADD19R,1.020000X2.700000*%
%ADD20R,0.500000X0.900000*%
%ADD21R,0.800000X0.750000*%
%ADD22R,0.750000X0.800000*%
%ADD23R,0.700000X1.000000*%
%ADD24R,2.700000X1.500000*%
%ADD25R,0.300000X1.350000*%
%ADD26R,0.500000X0.500000*%
%ADD27R,0.797560X0.797560*%
%ADD28O,1.700000X1.300000*%
%ADD29C,1.200000*%
%ADD30R,1.350000X0.400000*%
%ADD31R,0.900000X0.500000*%
%ADD32R,1.050000X0.650000*%
%ADD33R,0.900000X1.200000*%
%ADD34R,1.150000X1.300000*%
G04 APERTURE END LIST*
D10*
G04 #@! TO.C,U1*
X20701000Y21725000D03*
D11*
X19566000Y21725000D03*
X19566000Y22860000D03*
X19566000Y23995000D03*
X21836000Y21725000D03*
X21836000Y22860000D03*
X21836000Y23995000D03*
X20701000Y23995000D03*
D12*
X20701000Y22860000D03*
D13*
G36*
X23440703Y24759278D02*
X23455264Y24757118D01*
X23469543Y24753541D01*
X23483403Y24748582D01*
X23496710Y24742288D01*
X23509336Y24734720D01*
X23521159Y24725952D01*
X23532066Y24716066D01*
X23541952Y24705159D01*
X23550720Y24693336D01*
X23558288Y24680710D01*
X23564582Y24667403D01*
X23569541Y24653543D01*
X23573118Y24639264D01*
X23575278Y24624703D01*
X23576000Y24610000D01*
X23576000Y24609998D01*
X23575278Y24595295D01*
X23573118Y24580734D01*
X23569541Y24566455D01*
X23564582Y24552595D01*
X23558288Y24539288D01*
X23550720Y24526662D01*
X23541952Y24514839D01*
X23532066Y24503932D01*
X23521159Y24494046D01*
X23509336Y24485278D01*
X23496710Y24477710D01*
X23483403Y24471416D01*
X23469543Y24466457D01*
X23455264Y24462880D01*
X23440703Y24460720D01*
X23426000Y24459998D01*
X22876000Y24459998D01*
X22861297Y24460720D01*
X22846736Y24462880D01*
X22832457Y24466457D01*
X22818597Y24471416D01*
X22805290Y24477710D01*
X22792664Y24485278D01*
X22780841Y24494046D01*
X22769934Y24503932D01*
X22760048Y24514839D01*
X22751280Y24526662D01*
X22743712Y24539288D01*
X22737418Y24552595D01*
X22732459Y24566455D01*
X22728882Y24580734D01*
X22726722Y24595295D01*
X22726000Y24609998D01*
X22726000Y24610000D01*
X22726722Y24624703D01*
X22728882Y24639264D01*
X22732459Y24653543D01*
X22737418Y24667403D01*
X22743712Y24680710D01*
X22751280Y24693336D01*
X22760048Y24705159D01*
X22769934Y24716066D01*
X22780841Y24725952D01*
X22792664Y24734720D01*
X22805290Y24742288D01*
X22818597Y24748582D01*
X22832457Y24753541D01*
X22846736Y24757118D01*
X22861297Y24759278D01*
X22876000Y24760000D01*
X23426000Y24760000D01*
X23440703Y24759278D01*
X23440703Y24759278D01*
G37*
D14*
X23151000Y24609999D03*
D13*
G36*
X23440703Y24259279D02*
X23455264Y24257119D01*
X23469543Y24253542D01*
X23483403Y24248583D01*
X23496710Y24242289D01*
X23509336Y24234721D01*
X23521159Y24225953D01*
X23532066Y24216067D01*
X23541952Y24205160D01*
X23550720Y24193337D01*
X23558288Y24180711D01*
X23564582Y24167404D01*
X23569541Y24153544D01*
X23573118Y24139265D01*
X23575278Y24124704D01*
X23576000Y24110001D01*
X23576000Y24109999D01*
X23575278Y24095296D01*
X23573118Y24080735D01*
X23569541Y24066456D01*
X23564582Y24052596D01*
X23558288Y24039289D01*
X23550720Y24026663D01*
X23541952Y24014840D01*
X23532066Y24003933D01*
X23521159Y23994047D01*
X23509336Y23985279D01*
X23496710Y23977711D01*
X23483403Y23971417D01*
X23469543Y23966458D01*
X23455264Y23962881D01*
X23440703Y23960721D01*
X23426000Y23959999D01*
X22876000Y23959999D01*
X22861297Y23960721D01*
X22846736Y23962881D01*
X22832457Y23966458D01*
X22818597Y23971417D01*
X22805290Y23977711D01*
X22792664Y23985279D01*
X22780841Y23994047D01*
X22769934Y24003933D01*
X22760048Y24014840D01*
X22751280Y24026663D01*
X22743712Y24039289D01*
X22737418Y24052596D01*
X22732459Y24066456D01*
X22728882Y24080735D01*
X22726722Y24095296D01*
X22726000Y24109999D01*
X22726000Y24110001D01*
X22726722Y24124704D01*
X22728882Y24139265D01*
X22732459Y24153544D01*
X22737418Y24167404D01*
X22743712Y24180711D01*
X22751280Y24193337D01*
X22760048Y24205160D01*
X22769934Y24216067D01*
X22780841Y24225953D01*
X22792664Y24234721D01*
X22805290Y24242289D01*
X22818597Y24248583D01*
X22832457Y24253542D01*
X22846736Y24257119D01*
X22861297Y24259279D01*
X22876000Y24260001D01*
X23426000Y24260001D01*
X23440703Y24259279D01*
X23440703Y24259279D01*
G37*
D14*
X23151000Y24110000D03*
D13*
G36*
X23440704Y23759279D02*
X23455265Y23757119D01*
X23469544Y23753542D01*
X23483404Y23748583D01*
X23496711Y23742289D01*
X23509337Y23734721D01*
X23521160Y23725953D01*
X23532067Y23716067D01*
X23541953Y23705160D01*
X23550721Y23693337D01*
X23558289Y23680711D01*
X23564583Y23667404D01*
X23569542Y23653544D01*
X23573119Y23639265D01*
X23575279Y23624704D01*
X23576001Y23610001D01*
X23576001Y23609999D01*
X23575279Y23595296D01*
X23573119Y23580735D01*
X23569542Y23566456D01*
X23564583Y23552596D01*
X23558289Y23539289D01*
X23550721Y23526663D01*
X23541953Y23514840D01*
X23532067Y23503933D01*
X23521160Y23494047D01*
X23509337Y23485279D01*
X23496711Y23477711D01*
X23483404Y23471417D01*
X23469544Y23466458D01*
X23455265Y23462881D01*
X23440704Y23460721D01*
X23426001Y23459999D01*
X22876001Y23459999D01*
X22861298Y23460721D01*
X22846737Y23462881D01*
X22832458Y23466458D01*
X22818598Y23471417D01*
X22805291Y23477711D01*
X22792665Y23485279D01*
X22780842Y23494047D01*
X22769935Y23503933D01*
X22760049Y23514840D01*
X22751281Y23526663D01*
X22743713Y23539289D01*
X22737419Y23552596D01*
X22732460Y23566456D01*
X22728883Y23580735D01*
X22726723Y23595296D01*
X22726001Y23609999D01*
X22726001Y23610001D01*
X22726723Y23624704D01*
X22728883Y23639265D01*
X22732460Y23653544D01*
X22737419Y23667404D01*
X22743713Y23680711D01*
X22751281Y23693337D01*
X22760049Y23705160D01*
X22769935Y23716067D01*
X22780842Y23725953D01*
X22792665Y23734721D01*
X22805291Y23742289D01*
X22818598Y23748583D01*
X22832458Y23753542D01*
X22846737Y23757119D01*
X22861298Y23759279D01*
X22876001Y23760001D01*
X23426001Y23760001D01*
X23440704Y23759279D01*
X23440704Y23759279D01*
G37*
D14*
X23151001Y23610000D03*
D13*
G36*
X23440703Y23259279D02*
X23455264Y23257119D01*
X23469543Y23253542D01*
X23483403Y23248583D01*
X23496710Y23242289D01*
X23509336Y23234721D01*
X23521159Y23225953D01*
X23532066Y23216067D01*
X23541952Y23205160D01*
X23550720Y23193337D01*
X23558288Y23180711D01*
X23564582Y23167404D01*
X23569541Y23153544D01*
X23573118Y23139265D01*
X23575278Y23124704D01*
X23576000Y23110001D01*
X23576000Y23109999D01*
X23575278Y23095296D01*
X23573118Y23080735D01*
X23569541Y23066456D01*
X23564582Y23052596D01*
X23558288Y23039289D01*
X23550720Y23026663D01*
X23541952Y23014840D01*
X23532066Y23003933D01*
X23521159Y22994047D01*
X23509336Y22985279D01*
X23496710Y22977711D01*
X23483403Y22971417D01*
X23469543Y22966458D01*
X23455264Y22962881D01*
X23440703Y22960721D01*
X23426000Y22959999D01*
X22876000Y22959999D01*
X22861297Y22960721D01*
X22846736Y22962881D01*
X22832457Y22966458D01*
X22818597Y22971417D01*
X22805290Y22977711D01*
X22792664Y22985279D01*
X22780841Y22994047D01*
X22769934Y23003933D01*
X22760048Y23014840D01*
X22751280Y23026663D01*
X22743712Y23039289D01*
X22737418Y23052596D01*
X22732459Y23066456D01*
X22728882Y23080735D01*
X22726722Y23095296D01*
X22726000Y23109999D01*
X22726000Y23110001D01*
X22726722Y23124704D01*
X22728882Y23139265D01*
X22732459Y23153544D01*
X22737418Y23167404D01*
X22743712Y23180711D01*
X22751280Y23193337D01*
X22760048Y23205160D01*
X22769934Y23216067D01*
X22780841Y23225953D01*
X22792664Y23234721D01*
X22805290Y23242289D01*
X22818597Y23248583D01*
X22832457Y23253542D01*
X22846736Y23257119D01*
X22861297Y23259279D01*
X22876000Y23260001D01*
X23426000Y23260001D01*
X23440703Y23259279D01*
X23440703Y23259279D01*
G37*
D14*
X23151000Y23110000D03*
D13*
G36*
X23440703Y22759279D02*
X23455264Y22757119D01*
X23469543Y22753542D01*
X23483403Y22748583D01*
X23496710Y22742289D01*
X23509336Y22734721D01*
X23521159Y22725953D01*
X23532066Y22716067D01*
X23541952Y22705160D01*
X23550720Y22693337D01*
X23558288Y22680711D01*
X23564582Y22667404D01*
X23569541Y22653544D01*
X23573118Y22639265D01*
X23575278Y22624704D01*
X23576000Y22610001D01*
X23576000Y22609999D01*
X23575278Y22595296D01*
X23573118Y22580735D01*
X23569541Y22566456D01*
X23564582Y22552596D01*
X23558288Y22539289D01*
X23550720Y22526663D01*
X23541952Y22514840D01*
X23532066Y22503933D01*
X23521159Y22494047D01*
X23509336Y22485279D01*
X23496710Y22477711D01*
X23483403Y22471417D01*
X23469543Y22466458D01*
X23455264Y22462881D01*
X23440703Y22460721D01*
X23426000Y22459999D01*
X22876000Y22459999D01*
X22861297Y22460721D01*
X22846736Y22462881D01*
X22832457Y22466458D01*
X22818597Y22471417D01*
X22805290Y22477711D01*
X22792664Y22485279D01*
X22780841Y22494047D01*
X22769934Y22503933D01*
X22760048Y22514840D01*
X22751280Y22526663D01*
X22743712Y22539289D01*
X22737418Y22552596D01*
X22732459Y22566456D01*
X22728882Y22580735D01*
X22726722Y22595296D01*
X22726000Y22609999D01*
X22726000Y22610001D01*
X22726722Y22624704D01*
X22728882Y22639265D01*
X22732459Y22653544D01*
X22737418Y22667404D01*
X22743712Y22680711D01*
X22751280Y22693337D01*
X22760048Y22705160D01*
X22769934Y22716067D01*
X22780841Y22725953D01*
X22792664Y22734721D01*
X22805290Y22742289D01*
X22818597Y22748583D01*
X22832457Y22753542D01*
X22846736Y22757119D01*
X22861297Y22759279D01*
X22876000Y22760001D01*
X23426000Y22760001D01*
X23440703Y22759279D01*
X23440703Y22759279D01*
G37*
D14*
X23151000Y22610000D03*
D13*
G36*
X23440704Y22259279D02*
X23455265Y22257119D01*
X23469544Y22253542D01*
X23483404Y22248583D01*
X23496711Y22242289D01*
X23509337Y22234721D01*
X23521160Y22225953D01*
X23532067Y22216067D01*
X23541953Y22205160D01*
X23550721Y22193337D01*
X23558289Y22180711D01*
X23564583Y22167404D01*
X23569542Y22153544D01*
X23573119Y22139265D01*
X23575279Y22124704D01*
X23576001Y22110001D01*
X23576001Y22109999D01*
X23575279Y22095296D01*
X23573119Y22080735D01*
X23569542Y22066456D01*
X23564583Y22052596D01*
X23558289Y22039289D01*
X23550721Y22026663D01*
X23541953Y22014840D01*
X23532067Y22003933D01*
X23521160Y21994047D01*
X23509337Y21985279D01*
X23496711Y21977711D01*
X23483404Y21971417D01*
X23469544Y21966458D01*
X23455265Y21962881D01*
X23440704Y21960721D01*
X23426001Y21959999D01*
X22876001Y21959999D01*
X22861298Y21960721D01*
X22846737Y21962881D01*
X22832458Y21966458D01*
X22818598Y21971417D01*
X22805291Y21977711D01*
X22792665Y21985279D01*
X22780842Y21994047D01*
X22769935Y22003933D01*
X22760049Y22014840D01*
X22751281Y22026663D01*
X22743713Y22039289D01*
X22737419Y22052596D01*
X22732460Y22066456D01*
X22728883Y22080735D01*
X22726723Y22095296D01*
X22726001Y22109999D01*
X22726001Y22110001D01*
X22726723Y22124704D01*
X22728883Y22139265D01*
X22732460Y22153544D01*
X22737419Y22167404D01*
X22743713Y22180711D01*
X22751281Y22193337D01*
X22760049Y22205160D01*
X22769935Y22216067D01*
X22780842Y22225953D01*
X22792665Y22234721D01*
X22805291Y22242289D01*
X22818598Y22248583D01*
X22832458Y22253542D01*
X22846737Y22257119D01*
X22861298Y22259279D01*
X22876001Y22260001D01*
X23426001Y22260001D01*
X23440704Y22259279D01*
X23440704Y22259279D01*
G37*
D14*
X23151001Y22110000D03*
D13*
G36*
X23440703Y21759279D02*
X23455264Y21757119D01*
X23469543Y21753542D01*
X23483403Y21748583D01*
X23496710Y21742289D01*
X23509336Y21734721D01*
X23521159Y21725953D01*
X23532066Y21716067D01*
X23541952Y21705160D01*
X23550720Y21693337D01*
X23558288Y21680711D01*
X23564582Y21667404D01*
X23569541Y21653544D01*
X23573118Y21639265D01*
X23575278Y21624704D01*
X23576000Y21610001D01*
X23576000Y21609999D01*
X23575278Y21595296D01*
X23573118Y21580735D01*
X23569541Y21566456D01*
X23564582Y21552596D01*
X23558288Y21539289D01*
X23550720Y21526663D01*
X23541952Y21514840D01*
X23532066Y21503933D01*
X23521159Y21494047D01*
X23509336Y21485279D01*
X23496710Y21477711D01*
X23483403Y21471417D01*
X23469543Y21466458D01*
X23455264Y21462881D01*
X23440703Y21460721D01*
X23426000Y21459999D01*
X22876000Y21459999D01*
X22861297Y21460721D01*
X22846736Y21462881D01*
X22832457Y21466458D01*
X22818597Y21471417D01*
X22805290Y21477711D01*
X22792664Y21485279D01*
X22780841Y21494047D01*
X22769934Y21503933D01*
X22760048Y21514840D01*
X22751280Y21526663D01*
X22743712Y21539289D01*
X22737418Y21552596D01*
X22732459Y21566456D01*
X22728882Y21580735D01*
X22726722Y21595296D01*
X22726000Y21609999D01*
X22726000Y21610001D01*
X22726722Y21624704D01*
X22728882Y21639265D01*
X22732459Y21653544D01*
X22737418Y21667404D01*
X22743712Y21680711D01*
X22751280Y21693337D01*
X22760048Y21705160D01*
X22769934Y21716067D01*
X22780841Y21725953D01*
X22792664Y21734721D01*
X22805290Y21742289D01*
X22818597Y21748583D01*
X22832457Y21753542D01*
X22846736Y21757119D01*
X22861297Y21759279D01*
X22876000Y21760001D01*
X23426000Y21760001D01*
X23440703Y21759279D01*
X23440703Y21759279D01*
G37*
D14*
X23151000Y21610000D03*
D13*
G36*
X23440703Y21259280D02*
X23455264Y21257120D01*
X23469543Y21253543D01*
X23483403Y21248584D01*
X23496710Y21242290D01*
X23509336Y21234722D01*
X23521159Y21225954D01*
X23532066Y21216068D01*
X23541952Y21205161D01*
X23550720Y21193338D01*
X23558288Y21180712D01*
X23564582Y21167405D01*
X23569541Y21153545D01*
X23573118Y21139266D01*
X23575278Y21124705D01*
X23576000Y21110002D01*
X23576000Y21110000D01*
X23575278Y21095297D01*
X23573118Y21080736D01*
X23569541Y21066457D01*
X23564582Y21052597D01*
X23558288Y21039290D01*
X23550720Y21026664D01*
X23541952Y21014841D01*
X23532066Y21003934D01*
X23521159Y20994048D01*
X23509336Y20985280D01*
X23496710Y20977712D01*
X23483403Y20971418D01*
X23469543Y20966459D01*
X23455264Y20962882D01*
X23440703Y20960722D01*
X23426000Y20960000D01*
X22876000Y20960000D01*
X22861297Y20960722D01*
X22846736Y20962882D01*
X22832457Y20966459D01*
X22818597Y20971418D01*
X22805290Y20977712D01*
X22792664Y20985280D01*
X22780841Y20994048D01*
X22769934Y21003934D01*
X22760048Y21014841D01*
X22751280Y21026664D01*
X22743712Y21039290D01*
X22737418Y21052597D01*
X22732459Y21066457D01*
X22728882Y21080736D01*
X22726722Y21095297D01*
X22726000Y21110000D01*
X22726000Y21110002D01*
X22726722Y21124705D01*
X22728882Y21139266D01*
X22732459Y21153545D01*
X22737418Y21167405D01*
X22743712Y21180712D01*
X22751280Y21193338D01*
X22760048Y21205161D01*
X22769934Y21216068D01*
X22780841Y21225954D01*
X22792664Y21234722D01*
X22805290Y21242290D01*
X22818597Y21248584D01*
X22832457Y21253543D01*
X22846736Y21257120D01*
X22861297Y21259280D01*
X22876000Y21260002D01*
X23426000Y21260002D01*
X23440703Y21259280D01*
X23440703Y21259280D01*
G37*
D14*
X23151000Y21110001D03*
D13*
G36*
X22465703Y20834278D02*
X22480264Y20832118D01*
X22494543Y20828541D01*
X22508403Y20823582D01*
X22521710Y20817288D01*
X22534336Y20809720D01*
X22546159Y20800952D01*
X22557066Y20791066D01*
X22566952Y20780159D01*
X22575720Y20768336D01*
X22583288Y20755710D01*
X22589582Y20742403D01*
X22594541Y20728543D01*
X22598118Y20714264D01*
X22600278Y20699703D01*
X22601000Y20685000D01*
X22601000Y20135000D01*
X22600278Y20120297D01*
X22598118Y20105736D01*
X22594541Y20091457D01*
X22589582Y20077597D01*
X22583288Y20064290D01*
X22575720Y20051664D01*
X22566952Y20039841D01*
X22557066Y20028934D01*
X22546159Y20019048D01*
X22534336Y20010280D01*
X22521710Y20002712D01*
X22508403Y19996418D01*
X22494543Y19991459D01*
X22480264Y19987882D01*
X22465703Y19985722D01*
X22451000Y19985000D01*
X22450998Y19985000D01*
X22436295Y19985722D01*
X22421734Y19987882D01*
X22407455Y19991459D01*
X22393595Y19996418D01*
X22380288Y20002712D01*
X22367662Y20010280D01*
X22355839Y20019048D01*
X22344932Y20028934D01*
X22335046Y20039841D01*
X22326278Y20051664D01*
X22318710Y20064290D01*
X22312416Y20077597D01*
X22307457Y20091457D01*
X22303880Y20105736D01*
X22301720Y20120297D01*
X22300998Y20135000D01*
X22300998Y20685000D01*
X22301720Y20699703D01*
X22303880Y20714264D01*
X22307457Y20728543D01*
X22312416Y20742403D01*
X22318710Y20755710D01*
X22326278Y20768336D01*
X22335046Y20780159D01*
X22344932Y20791066D01*
X22355839Y20800952D01*
X22367662Y20809720D01*
X22380288Y20817288D01*
X22393595Y20823582D01*
X22407455Y20828541D01*
X22421734Y20832118D01*
X22436295Y20834278D01*
X22450998Y20835000D01*
X22451000Y20835000D01*
X22465703Y20834278D01*
X22465703Y20834278D01*
G37*
D14*
X22450999Y20410000D03*
D13*
G36*
X21965704Y20834278D02*
X21980265Y20832118D01*
X21994544Y20828541D01*
X22008404Y20823582D01*
X22021711Y20817288D01*
X22034337Y20809720D01*
X22046160Y20800952D01*
X22057067Y20791066D01*
X22066953Y20780159D01*
X22075721Y20768336D01*
X22083289Y20755710D01*
X22089583Y20742403D01*
X22094542Y20728543D01*
X22098119Y20714264D01*
X22100279Y20699703D01*
X22101001Y20685000D01*
X22101001Y20135000D01*
X22100279Y20120297D01*
X22098119Y20105736D01*
X22094542Y20091457D01*
X22089583Y20077597D01*
X22083289Y20064290D01*
X22075721Y20051664D01*
X22066953Y20039841D01*
X22057067Y20028934D01*
X22046160Y20019048D01*
X22034337Y20010280D01*
X22021711Y20002712D01*
X22008404Y19996418D01*
X21994544Y19991459D01*
X21980265Y19987882D01*
X21965704Y19985722D01*
X21951001Y19985000D01*
X21950999Y19985000D01*
X21936296Y19985722D01*
X21921735Y19987882D01*
X21907456Y19991459D01*
X21893596Y19996418D01*
X21880289Y20002712D01*
X21867663Y20010280D01*
X21855840Y20019048D01*
X21844933Y20028934D01*
X21835047Y20039841D01*
X21826279Y20051664D01*
X21818711Y20064290D01*
X21812417Y20077597D01*
X21807458Y20091457D01*
X21803881Y20105736D01*
X21801721Y20120297D01*
X21800999Y20135000D01*
X21800999Y20685000D01*
X21801721Y20699703D01*
X21803881Y20714264D01*
X21807458Y20728543D01*
X21812417Y20742403D01*
X21818711Y20755710D01*
X21826279Y20768336D01*
X21835047Y20780159D01*
X21844933Y20791066D01*
X21855840Y20800952D01*
X21867663Y20809720D01*
X21880289Y20817288D01*
X21893596Y20823582D01*
X21907456Y20828541D01*
X21921735Y20832118D01*
X21936296Y20834278D01*
X21950999Y20835000D01*
X21951001Y20835000D01*
X21965704Y20834278D01*
X21965704Y20834278D01*
G37*
D14*
X21951000Y20410000D03*
D13*
G36*
X21465704Y20834277D02*
X21480265Y20832117D01*
X21494544Y20828540D01*
X21508404Y20823581D01*
X21521711Y20817287D01*
X21534337Y20809719D01*
X21546160Y20800951D01*
X21557067Y20791065D01*
X21566953Y20780158D01*
X21575721Y20768335D01*
X21583289Y20755709D01*
X21589583Y20742402D01*
X21594542Y20728542D01*
X21598119Y20714263D01*
X21600279Y20699702D01*
X21601001Y20684999D01*
X21601001Y20134999D01*
X21600279Y20120296D01*
X21598119Y20105735D01*
X21594542Y20091456D01*
X21589583Y20077596D01*
X21583289Y20064289D01*
X21575721Y20051663D01*
X21566953Y20039840D01*
X21557067Y20028933D01*
X21546160Y20019047D01*
X21534337Y20010279D01*
X21521711Y20002711D01*
X21508404Y19996417D01*
X21494544Y19991458D01*
X21480265Y19987881D01*
X21465704Y19985721D01*
X21451001Y19984999D01*
X21450999Y19984999D01*
X21436296Y19985721D01*
X21421735Y19987881D01*
X21407456Y19991458D01*
X21393596Y19996417D01*
X21380289Y20002711D01*
X21367663Y20010279D01*
X21355840Y20019047D01*
X21344933Y20028933D01*
X21335047Y20039840D01*
X21326279Y20051663D01*
X21318711Y20064289D01*
X21312417Y20077596D01*
X21307458Y20091456D01*
X21303881Y20105735D01*
X21301721Y20120296D01*
X21300999Y20134999D01*
X21300999Y20684999D01*
X21301721Y20699702D01*
X21303881Y20714263D01*
X21307458Y20728542D01*
X21312417Y20742402D01*
X21318711Y20755709D01*
X21326279Y20768335D01*
X21335047Y20780158D01*
X21344933Y20791065D01*
X21355840Y20800951D01*
X21367663Y20809719D01*
X21380289Y20817287D01*
X21393596Y20823581D01*
X21407456Y20828540D01*
X21421735Y20832117D01*
X21436296Y20834277D01*
X21450999Y20834999D01*
X21451001Y20834999D01*
X21465704Y20834277D01*
X21465704Y20834277D01*
G37*
D14*
X21451000Y20409999D03*
D13*
G36*
X20965704Y20834278D02*
X20980265Y20832118D01*
X20994544Y20828541D01*
X21008404Y20823582D01*
X21021711Y20817288D01*
X21034337Y20809720D01*
X21046160Y20800952D01*
X21057067Y20791066D01*
X21066953Y20780159D01*
X21075721Y20768336D01*
X21083289Y20755710D01*
X21089583Y20742403D01*
X21094542Y20728543D01*
X21098119Y20714264D01*
X21100279Y20699703D01*
X21101001Y20685000D01*
X21101001Y20135000D01*
X21100279Y20120297D01*
X21098119Y20105736D01*
X21094542Y20091457D01*
X21089583Y20077597D01*
X21083289Y20064290D01*
X21075721Y20051664D01*
X21066953Y20039841D01*
X21057067Y20028934D01*
X21046160Y20019048D01*
X21034337Y20010280D01*
X21021711Y20002712D01*
X21008404Y19996418D01*
X20994544Y19991459D01*
X20980265Y19987882D01*
X20965704Y19985722D01*
X20951001Y19985000D01*
X20950999Y19985000D01*
X20936296Y19985722D01*
X20921735Y19987882D01*
X20907456Y19991459D01*
X20893596Y19996418D01*
X20880289Y20002712D01*
X20867663Y20010280D01*
X20855840Y20019048D01*
X20844933Y20028934D01*
X20835047Y20039841D01*
X20826279Y20051664D01*
X20818711Y20064290D01*
X20812417Y20077597D01*
X20807458Y20091457D01*
X20803881Y20105736D01*
X20801721Y20120297D01*
X20800999Y20135000D01*
X20800999Y20685000D01*
X20801721Y20699703D01*
X20803881Y20714264D01*
X20807458Y20728543D01*
X20812417Y20742403D01*
X20818711Y20755710D01*
X20826279Y20768336D01*
X20835047Y20780159D01*
X20844933Y20791066D01*
X20855840Y20800952D01*
X20867663Y20809720D01*
X20880289Y20817288D01*
X20893596Y20823582D01*
X20907456Y20828541D01*
X20921735Y20832118D01*
X20936296Y20834278D01*
X20950999Y20835000D01*
X20951001Y20835000D01*
X20965704Y20834278D01*
X20965704Y20834278D01*
G37*
D14*
X20951000Y20410000D03*
D13*
G36*
X20465704Y20834278D02*
X20480265Y20832118D01*
X20494544Y20828541D01*
X20508404Y20823582D01*
X20521711Y20817288D01*
X20534337Y20809720D01*
X20546160Y20800952D01*
X20557067Y20791066D01*
X20566953Y20780159D01*
X20575721Y20768336D01*
X20583289Y20755710D01*
X20589583Y20742403D01*
X20594542Y20728543D01*
X20598119Y20714264D01*
X20600279Y20699703D01*
X20601001Y20685000D01*
X20601001Y20135000D01*
X20600279Y20120297D01*
X20598119Y20105736D01*
X20594542Y20091457D01*
X20589583Y20077597D01*
X20583289Y20064290D01*
X20575721Y20051664D01*
X20566953Y20039841D01*
X20557067Y20028934D01*
X20546160Y20019048D01*
X20534337Y20010280D01*
X20521711Y20002712D01*
X20508404Y19996418D01*
X20494544Y19991459D01*
X20480265Y19987882D01*
X20465704Y19985722D01*
X20451001Y19985000D01*
X20450999Y19985000D01*
X20436296Y19985722D01*
X20421735Y19987882D01*
X20407456Y19991459D01*
X20393596Y19996418D01*
X20380289Y20002712D01*
X20367663Y20010280D01*
X20355840Y20019048D01*
X20344933Y20028934D01*
X20335047Y20039841D01*
X20326279Y20051664D01*
X20318711Y20064290D01*
X20312417Y20077597D01*
X20307458Y20091457D01*
X20303881Y20105736D01*
X20301721Y20120297D01*
X20300999Y20135000D01*
X20300999Y20685000D01*
X20301721Y20699703D01*
X20303881Y20714264D01*
X20307458Y20728543D01*
X20312417Y20742403D01*
X20318711Y20755710D01*
X20326279Y20768336D01*
X20335047Y20780159D01*
X20344933Y20791066D01*
X20355840Y20800952D01*
X20367663Y20809720D01*
X20380289Y20817288D01*
X20393596Y20823582D01*
X20407456Y20828541D01*
X20421735Y20832118D01*
X20436296Y20834278D01*
X20450999Y20835000D01*
X20451001Y20835000D01*
X20465704Y20834278D01*
X20465704Y20834278D01*
G37*
D14*
X20451000Y20410000D03*
D13*
G36*
X19965704Y20834277D02*
X19980265Y20832117D01*
X19994544Y20828540D01*
X20008404Y20823581D01*
X20021711Y20817287D01*
X20034337Y20809719D01*
X20046160Y20800951D01*
X20057067Y20791065D01*
X20066953Y20780158D01*
X20075721Y20768335D01*
X20083289Y20755709D01*
X20089583Y20742402D01*
X20094542Y20728542D01*
X20098119Y20714263D01*
X20100279Y20699702D01*
X20101001Y20684999D01*
X20101001Y20134999D01*
X20100279Y20120296D01*
X20098119Y20105735D01*
X20094542Y20091456D01*
X20089583Y20077596D01*
X20083289Y20064289D01*
X20075721Y20051663D01*
X20066953Y20039840D01*
X20057067Y20028933D01*
X20046160Y20019047D01*
X20034337Y20010279D01*
X20021711Y20002711D01*
X20008404Y19996417D01*
X19994544Y19991458D01*
X19980265Y19987881D01*
X19965704Y19985721D01*
X19951001Y19984999D01*
X19950999Y19984999D01*
X19936296Y19985721D01*
X19921735Y19987881D01*
X19907456Y19991458D01*
X19893596Y19996417D01*
X19880289Y20002711D01*
X19867663Y20010279D01*
X19855840Y20019047D01*
X19844933Y20028933D01*
X19835047Y20039840D01*
X19826279Y20051663D01*
X19818711Y20064289D01*
X19812417Y20077596D01*
X19807458Y20091456D01*
X19803881Y20105735D01*
X19801721Y20120296D01*
X19800999Y20134999D01*
X19800999Y20684999D01*
X19801721Y20699702D01*
X19803881Y20714263D01*
X19807458Y20728542D01*
X19812417Y20742402D01*
X19818711Y20755709D01*
X19826279Y20768335D01*
X19835047Y20780158D01*
X19844933Y20791065D01*
X19855840Y20800951D01*
X19867663Y20809719D01*
X19880289Y20817287D01*
X19893596Y20823581D01*
X19907456Y20828540D01*
X19921735Y20832117D01*
X19936296Y20834277D01*
X19950999Y20834999D01*
X19951001Y20834999D01*
X19965704Y20834277D01*
X19965704Y20834277D01*
G37*
D14*
X19951000Y20409999D03*
D13*
G36*
X19465704Y20834278D02*
X19480265Y20832118D01*
X19494544Y20828541D01*
X19508404Y20823582D01*
X19521711Y20817288D01*
X19534337Y20809720D01*
X19546160Y20800952D01*
X19557067Y20791066D01*
X19566953Y20780159D01*
X19575721Y20768336D01*
X19583289Y20755710D01*
X19589583Y20742403D01*
X19594542Y20728543D01*
X19598119Y20714264D01*
X19600279Y20699703D01*
X19601001Y20685000D01*
X19601001Y20135000D01*
X19600279Y20120297D01*
X19598119Y20105736D01*
X19594542Y20091457D01*
X19589583Y20077597D01*
X19583289Y20064290D01*
X19575721Y20051664D01*
X19566953Y20039841D01*
X19557067Y20028934D01*
X19546160Y20019048D01*
X19534337Y20010280D01*
X19521711Y20002712D01*
X19508404Y19996418D01*
X19494544Y19991459D01*
X19480265Y19987882D01*
X19465704Y19985722D01*
X19451001Y19985000D01*
X19450999Y19985000D01*
X19436296Y19985722D01*
X19421735Y19987882D01*
X19407456Y19991459D01*
X19393596Y19996418D01*
X19380289Y20002712D01*
X19367663Y20010280D01*
X19355840Y20019048D01*
X19344933Y20028934D01*
X19335047Y20039841D01*
X19326279Y20051664D01*
X19318711Y20064290D01*
X19312417Y20077597D01*
X19307458Y20091457D01*
X19303881Y20105736D01*
X19301721Y20120297D01*
X19300999Y20135000D01*
X19300999Y20685000D01*
X19301721Y20699703D01*
X19303881Y20714264D01*
X19307458Y20728543D01*
X19312417Y20742403D01*
X19318711Y20755710D01*
X19326279Y20768336D01*
X19335047Y20780159D01*
X19344933Y20791066D01*
X19355840Y20800952D01*
X19367663Y20809720D01*
X19380289Y20817288D01*
X19393596Y20823582D01*
X19407456Y20828541D01*
X19421735Y20832118D01*
X19436296Y20834278D01*
X19450999Y20835000D01*
X19451001Y20835000D01*
X19465704Y20834278D01*
X19465704Y20834278D01*
G37*
D14*
X19451000Y20410000D03*
D13*
G36*
X18965705Y20834278D02*
X18980266Y20832118D01*
X18994545Y20828541D01*
X19008405Y20823582D01*
X19021712Y20817288D01*
X19034338Y20809720D01*
X19046161Y20800952D01*
X19057068Y20791066D01*
X19066954Y20780159D01*
X19075722Y20768336D01*
X19083290Y20755710D01*
X19089584Y20742403D01*
X19094543Y20728543D01*
X19098120Y20714264D01*
X19100280Y20699703D01*
X19101002Y20685000D01*
X19101002Y20135000D01*
X19100280Y20120297D01*
X19098120Y20105736D01*
X19094543Y20091457D01*
X19089584Y20077597D01*
X19083290Y20064290D01*
X19075722Y20051664D01*
X19066954Y20039841D01*
X19057068Y20028934D01*
X19046161Y20019048D01*
X19034338Y20010280D01*
X19021712Y20002712D01*
X19008405Y19996418D01*
X18994545Y19991459D01*
X18980266Y19987882D01*
X18965705Y19985722D01*
X18951002Y19985000D01*
X18951000Y19985000D01*
X18936297Y19985722D01*
X18921736Y19987882D01*
X18907457Y19991459D01*
X18893597Y19996418D01*
X18880290Y20002712D01*
X18867664Y20010280D01*
X18855841Y20019048D01*
X18844934Y20028934D01*
X18835048Y20039841D01*
X18826280Y20051664D01*
X18818712Y20064290D01*
X18812418Y20077597D01*
X18807459Y20091457D01*
X18803882Y20105736D01*
X18801722Y20120297D01*
X18801000Y20135000D01*
X18801000Y20685000D01*
X18801722Y20699703D01*
X18803882Y20714264D01*
X18807459Y20728543D01*
X18812418Y20742403D01*
X18818712Y20755710D01*
X18826280Y20768336D01*
X18835048Y20780159D01*
X18844934Y20791066D01*
X18855841Y20800952D01*
X18867664Y20809720D01*
X18880290Y20817288D01*
X18893597Y20823582D01*
X18907457Y20828541D01*
X18921736Y20832118D01*
X18936297Y20834278D01*
X18951000Y20835000D01*
X18951002Y20835000D01*
X18965705Y20834278D01*
X18965705Y20834278D01*
G37*
D14*
X18951001Y20410000D03*
D13*
G36*
X18540703Y21259280D02*
X18555264Y21257120D01*
X18569543Y21253543D01*
X18583403Y21248584D01*
X18596710Y21242290D01*
X18609336Y21234722D01*
X18621159Y21225954D01*
X18632066Y21216068D01*
X18641952Y21205161D01*
X18650720Y21193338D01*
X18658288Y21180712D01*
X18664582Y21167405D01*
X18669541Y21153545D01*
X18673118Y21139266D01*
X18675278Y21124705D01*
X18676000Y21110002D01*
X18676000Y21110000D01*
X18675278Y21095297D01*
X18673118Y21080736D01*
X18669541Y21066457D01*
X18664582Y21052597D01*
X18658288Y21039290D01*
X18650720Y21026664D01*
X18641952Y21014841D01*
X18632066Y21003934D01*
X18621159Y20994048D01*
X18609336Y20985280D01*
X18596710Y20977712D01*
X18583403Y20971418D01*
X18569543Y20966459D01*
X18555264Y20962882D01*
X18540703Y20960722D01*
X18526000Y20960000D01*
X17976000Y20960000D01*
X17961297Y20960722D01*
X17946736Y20962882D01*
X17932457Y20966459D01*
X17918597Y20971418D01*
X17905290Y20977712D01*
X17892664Y20985280D01*
X17880841Y20994048D01*
X17869934Y21003934D01*
X17860048Y21014841D01*
X17851280Y21026664D01*
X17843712Y21039290D01*
X17837418Y21052597D01*
X17832459Y21066457D01*
X17828882Y21080736D01*
X17826722Y21095297D01*
X17826000Y21110000D01*
X17826000Y21110002D01*
X17826722Y21124705D01*
X17828882Y21139266D01*
X17832459Y21153545D01*
X17837418Y21167405D01*
X17843712Y21180712D01*
X17851280Y21193338D01*
X17860048Y21205161D01*
X17869934Y21216068D01*
X17880841Y21225954D01*
X17892664Y21234722D01*
X17905290Y21242290D01*
X17918597Y21248584D01*
X17932457Y21253543D01*
X17946736Y21257120D01*
X17961297Y21259280D01*
X17976000Y21260002D01*
X18526000Y21260002D01*
X18540703Y21259280D01*
X18540703Y21259280D01*
G37*
D14*
X18251000Y21110001D03*
D13*
G36*
X18540703Y21759279D02*
X18555264Y21757119D01*
X18569543Y21753542D01*
X18583403Y21748583D01*
X18596710Y21742289D01*
X18609336Y21734721D01*
X18621159Y21725953D01*
X18632066Y21716067D01*
X18641952Y21705160D01*
X18650720Y21693337D01*
X18658288Y21680711D01*
X18664582Y21667404D01*
X18669541Y21653544D01*
X18673118Y21639265D01*
X18675278Y21624704D01*
X18676000Y21610001D01*
X18676000Y21609999D01*
X18675278Y21595296D01*
X18673118Y21580735D01*
X18669541Y21566456D01*
X18664582Y21552596D01*
X18658288Y21539289D01*
X18650720Y21526663D01*
X18641952Y21514840D01*
X18632066Y21503933D01*
X18621159Y21494047D01*
X18609336Y21485279D01*
X18596710Y21477711D01*
X18583403Y21471417D01*
X18569543Y21466458D01*
X18555264Y21462881D01*
X18540703Y21460721D01*
X18526000Y21459999D01*
X17976000Y21459999D01*
X17961297Y21460721D01*
X17946736Y21462881D01*
X17932457Y21466458D01*
X17918597Y21471417D01*
X17905290Y21477711D01*
X17892664Y21485279D01*
X17880841Y21494047D01*
X17869934Y21503933D01*
X17860048Y21514840D01*
X17851280Y21526663D01*
X17843712Y21539289D01*
X17837418Y21552596D01*
X17832459Y21566456D01*
X17828882Y21580735D01*
X17826722Y21595296D01*
X17826000Y21609999D01*
X17826000Y21610001D01*
X17826722Y21624704D01*
X17828882Y21639265D01*
X17832459Y21653544D01*
X17837418Y21667404D01*
X17843712Y21680711D01*
X17851280Y21693337D01*
X17860048Y21705160D01*
X17869934Y21716067D01*
X17880841Y21725953D01*
X17892664Y21734721D01*
X17905290Y21742289D01*
X17918597Y21748583D01*
X17932457Y21753542D01*
X17946736Y21757119D01*
X17961297Y21759279D01*
X17976000Y21760001D01*
X18526000Y21760001D01*
X18540703Y21759279D01*
X18540703Y21759279D01*
G37*
D14*
X18251000Y21610000D03*
D13*
G36*
X18540702Y22259279D02*
X18555263Y22257119D01*
X18569542Y22253542D01*
X18583402Y22248583D01*
X18596709Y22242289D01*
X18609335Y22234721D01*
X18621158Y22225953D01*
X18632065Y22216067D01*
X18641951Y22205160D01*
X18650719Y22193337D01*
X18658287Y22180711D01*
X18664581Y22167404D01*
X18669540Y22153544D01*
X18673117Y22139265D01*
X18675277Y22124704D01*
X18675999Y22110001D01*
X18675999Y22109999D01*
X18675277Y22095296D01*
X18673117Y22080735D01*
X18669540Y22066456D01*
X18664581Y22052596D01*
X18658287Y22039289D01*
X18650719Y22026663D01*
X18641951Y22014840D01*
X18632065Y22003933D01*
X18621158Y21994047D01*
X18609335Y21985279D01*
X18596709Y21977711D01*
X18583402Y21971417D01*
X18569542Y21966458D01*
X18555263Y21962881D01*
X18540702Y21960721D01*
X18525999Y21959999D01*
X17975999Y21959999D01*
X17961296Y21960721D01*
X17946735Y21962881D01*
X17932456Y21966458D01*
X17918596Y21971417D01*
X17905289Y21977711D01*
X17892663Y21985279D01*
X17880840Y21994047D01*
X17869933Y22003933D01*
X17860047Y22014840D01*
X17851279Y22026663D01*
X17843711Y22039289D01*
X17837417Y22052596D01*
X17832458Y22066456D01*
X17828881Y22080735D01*
X17826721Y22095296D01*
X17825999Y22109999D01*
X17825999Y22110001D01*
X17826721Y22124704D01*
X17828881Y22139265D01*
X17832458Y22153544D01*
X17837417Y22167404D01*
X17843711Y22180711D01*
X17851279Y22193337D01*
X17860047Y22205160D01*
X17869933Y22216067D01*
X17880840Y22225953D01*
X17892663Y22234721D01*
X17905289Y22242289D01*
X17918596Y22248583D01*
X17932456Y22253542D01*
X17946735Y22257119D01*
X17961296Y22259279D01*
X17975999Y22260001D01*
X18525999Y22260001D01*
X18540702Y22259279D01*
X18540702Y22259279D01*
G37*
D14*
X18250999Y22110000D03*
D13*
G36*
X18540703Y22759279D02*
X18555264Y22757119D01*
X18569543Y22753542D01*
X18583403Y22748583D01*
X18596710Y22742289D01*
X18609336Y22734721D01*
X18621159Y22725953D01*
X18632066Y22716067D01*
X18641952Y22705160D01*
X18650720Y22693337D01*
X18658288Y22680711D01*
X18664582Y22667404D01*
X18669541Y22653544D01*
X18673118Y22639265D01*
X18675278Y22624704D01*
X18676000Y22610001D01*
X18676000Y22609999D01*
X18675278Y22595296D01*
X18673118Y22580735D01*
X18669541Y22566456D01*
X18664582Y22552596D01*
X18658288Y22539289D01*
X18650720Y22526663D01*
X18641952Y22514840D01*
X18632066Y22503933D01*
X18621159Y22494047D01*
X18609336Y22485279D01*
X18596710Y22477711D01*
X18583403Y22471417D01*
X18569543Y22466458D01*
X18555264Y22462881D01*
X18540703Y22460721D01*
X18526000Y22459999D01*
X17976000Y22459999D01*
X17961297Y22460721D01*
X17946736Y22462881D01*
X17932457Y22466458D01*
X17918597Y22471417D01*
X17905290Y22477711D01*
X17892664Y22485279D01*
X17880841Y22494047D01*
X17869934Y22503933D01*
X17860048Y22514840D01*
X17851280Y22526663D01*
X17843712Y22539289D01*
X17837418Y22552596D01*
X17832459Y22566456D01*
X17828882Y22580735D01*
X17826722Y22595296D01*
X17826000Y22609999D01*
X17826000Y22610001D01*
X17826722Y22624704D01*
X17828882Y22639265D01*
X17832459Y22653544D01*
X17837418Y22667404D01*
X17843712Y22680711D01*
X17851280Y22693337D01*
X17860048Y22705160D01*
X17869934Y22716067D01*
X17880841Y22725953D01*
X17892664Y22734721D01*
X17905290Y22742289D01*
X17918597Y22748583D01*
X17932457Y22753542D01*
X17946736Y22757119D01*
X17961297Y22759279D01*
X17976000Y22760001D01*
X18526000Y22760001D01*
X18540703Y22759279D01*
X18540703Y22759279D01*
G37*
D14*
X18251000Y22610000D03*
D13*
G36*
X18540703Y23259279D02*
X18555264Y23257119D01*
X18569543Y23253542D01*
X18583403Y23248583D01*
X18596710Y23242289D01*
X18609336Y23234721D01*
X18621159Y23225953D01*
X18632066Y23216067D01*
X18641952Y23205160D01*
X18650720Y23193337D01*
X18658288Y23180711D01*
X18664582Y23167404D01*
X18669541Y23153544D01*
X18673118Y23139265D01*
X18675278Y23124704D01*
X18676000Y23110001D01*
X18676000Y23109999D01*
X18675278Y23095296D01*
X18673118Y23080735D01*
X18669541Y23066456D01*
X18664582Y23052596D01*
X18658288Y23039289D01*
X18650720Y23026663D01*
X18641952Y23014840D01*
X18632066Y23003933D01*
X18621159Y22994047D01*
X18609336Y22985279D01*
X18596710Y22977711D01*
X18583403Y22971417D01*
X18569543Y22966458D01*
X18555264Y22962881D01*
X18540703Y22960721D01*
X18526000Y22959999D01*
X17976000Y22959999D01*
X17961297Y22960721D01*
X17946736Y22962881D01*
X17932457Y22966458D01*
X17918597Y22971417D01*
X17905290Y22977711D01*
X17892664Y22985279D01*
X17880841Y22994047D01*
X17869934Y23003933D01*
X17860048Y23014840D01*
X17851280Y23026663D01*
X17843712Y23039289D01*
X17837418Y23052596D01*
X17832459Y23066456D01*
X17828882Y23080735D01*
X17826722Y23095296D01*
X17826000Y23109999D01*
X17826000Y23110001D01*
X17826722Y23124704D01*
X17828882Y23139265D01*
X17832459Y23153544D01*
X17837418Y23167404D01*
X17843712Y23180711D01*
X17851280Y23193337D01*
X17860048Y23205160D01*
X17869934Y23216067D01*
X17880841Y23225953D01*
X17892664Y23234721D01*
X17905290Y23242289D01*
X17918597Y23248583D01*
X17932457Y23253542D01*
X17946736Y23257119D01*
X17961297Y23259279D01*
X17976000Y23260001D01*
X18526000Y23260001D01*
X18540703Y23259279D01*
X18540703Y23259279D01*
G37*
D14*
X18251000Y23110000D03*
D13*
G36*
X18540702Y23759279D02*
X18555263Y23757119D01*
X18569542Y23753542D01*
X18583402Y23748583D01*
X18596709Y23742289D01*
X18609335Y23734721D01*
X18621158Y23725953D01*
X18632065Y23716067D01*
X18641951Y23705160D01*
X18650719Y23693337D01*
X18658287Y23680711D01*
X18664581Y23667404D01*
X18669540Y23653544D01*
X18673117Y23639265D01*
X18675277Y23624704D01*
X18675999Y23610001D01*
X18675999Y23609999D01*
X18675277Y23595296D01*
X18673117Y23580735D01*
X18669540Y23566456D01*
X18664581Y23552596D01*
X18658287Y23539289D01*
X18650719Y23526663D01*
X18641951Y23514840D01*
X18632065Y23503933D01*
X18621158Y23494047D01*
X18609335Y23485279D01*
X18596709Y23477711D01*
X18583402Y23471417D01*
X18569542Y23466458D01*
X18555263Y23462881D01*
X18540702Y23460721D01*
X18525999Y23459999D01*
X17975999Y23459999D01*
X17961296Y23460721D01*
X17946735Y23462881D01*
X17932456Y23466458D01*
X17918596Y23471417D01*
X17905289Y23477711D01*
X17892663Y23485279D01*
X17880840Y23494047D01*
X17869933Y23503933D01*
X17860047Y23514840D01*
X17851279Y23526663D01*
X17843711Y23539289D01*
X17837417Y23552596D01*
X17832458Y23566456D01*
X17828881Y23580735D01*
X17826721Y23595296D01*
X17825999Y23609999D01*
X17825999Y23610001D01*
X17826721Y23624704D01*
X17828881Y23639265D01*
X17832458Y23653544D01*
X17837417Y23667404D01*
X17843711Y23680711D01*
X17851279Y23693337D01*
X17860047Y23705160D01*
X17869933Y23716067D01*
X17880840Y23725953D01*
X17892663Y23734721D01*
X17905289Y23742289D01*
X17918596Y23748583D01*
X17932456Y23753542D01*
X17946735Y23757119D01*
X17961296Y23759279D01*
X17975999Y23760001D01*
X18525999Y23760001D01*
X18540702Y23759279D01*
X18540702Y23759279D01*
G37*
D14*
X18250999Y23610000D03*
D13*
G36*
X18540703Y24259279D02*
X18555264Y24257119D01*
X18569543Y24253542D01*
X18583403Y24248583D01*
X18596710Y24242289D01*
X18609336Y24234721D01*
X18621159Y24225953D01*
X18632066Y24216067D01*
X18641952Y24205160D01*
X18650720Y24193337D01*
X18658288Y24180711D01*
X18664582Y24167404D01*
X18669541Y24153544D01*
X18673118Y24139265D01*
X18675278Y24124704D01*
X18676000Y24110001D01*
X18676000Y24109999D01*
X18675278Y24095296D01*
X18673118Y24080735D01*
X18669541Y24066456D01*
X18664582Y24052596D01*
X18658288Y24039289D01*
X18650720Y24026663D01*
X18641952Y24014840D01*
X18632066Y24003933D01*
X18621159Y23994047D01*
X18609336Y23985279D01*
X18596710Y23977711D01*
X18583403Y23971417D01*
X18569543Y23966458D01*
X18555264Y23962881D01*
X18540703Y23960721D01*
X18526000Y23959999D01*
X17976000Y23959999D01*
X17961297Y23960721D01*
X17946736Y23962881D01*
X17932457Y23966458D01*
X17918597Y23971417D01*
X17905290Y23977711D01*
X17892664Y23985279D01*
X17880841Y23994047D01*
X17869934Y24003933D01*
X17860048Y24014840D01*
X17851280Y24026663D01*
X17843712Y24039289D01*
X17837418Y24052596D01*
X17832459Y24066456D01*
X17828882Y24080735D01*
X17826722Y24095296D01*
X17826000Y24109999D01*
X17826000Y24110001D01*
X17826722Y24124704D01*
X17828882Y24139265D01*
X17832459Y24153544D01*
X17837418Y24167404D01*
X17843712Y24180711D01*
X17851280Y24193337D01*
X17860048Y24205160D01*
X17869934Y24216067D01*
X17880841Y24225953D01*
X17892664Y24234721D01*
X17905290Y24242289D01*
X17918597Y24248583D01*
X17932457Y24253542D01*
X17946736Y24257119D01*
X17961297Y24259279D01*
X17976000Y24260001D01*
X18526000Y24260001D01*
X18540703Y24259279D01*
X18540703Y24259279D01*
G37*
D14*
X18251000Y24110000D03*
D13*
G36*
X18540703Y24759278D02*
X18555264Y24757118D01*
X18569543Y24753541D01*
X18583403Y24748582D01*
X18596710Y24742288D01*
X18609336Y24734720D01*
X18621159Y24725952D01*
X18632066Y24716066D01*
X18641952Y24705159D01*
X18650720Y24693336D01*
X18658288Y24680710D01*
X18664582Y24667403D01*
X18669541Y24653543D01*
X18673118Y24639264D01*
X18675278Y24624703D01*
X18676000Y24610000D01*
X18676000Y24609998D01*
X18675278Y24595295D01*
X18673118Y24580734D01*
X18669541Y24566455D01*
X18664582Y24552595D01*
X18658288Y24539288D01*
X18650720Y24526662D01*
X18641952Y24514839D01*
X18632066Y24503932D01*
X18621159Y24494046D01*
X18609336Y24485278D01*
X18596710Y24477710D01*
X18583403Y24471416D01*
X18569543Y24466457D01*
X18555264Y24462880D01*
X18540703Y24460720D01*
X18526000Y24459998D01*
X17976000Y24459998D01*
X17961297Y24460720D01*
X17946736Y24462880D01*
X17932457Y24466457D01*
X17918597Y24471416D01*
X17905290Y24477710D01*
X17892664Y24485278D01*
X17880841Y24494046D01*
X17869934Y24503932D01*
X17860048Y24514839D01*
X17851280Y24526662D01*
X17843712Y24539288D01*
X17837418Y24552595D01*
X17832459Y24566455D01*
X17828882Y24580734D01*
X17826722Y24595295D01*
X17826000Y24609998D01*
X17826000Y24610000D01*
X17826722Y24624703D01*
X17828882Y24639264D01*
X17832459Y24653543D01*
X17837418Y24667403D01*
X17843712Y24680710D01*
X17851280Y24693336D01*
X17860048Y24705159D01*
X17869934Y24716066D01*
X17880841Y24725952D01*
X17892664Y24734720D01*
X17905290Y24742288D01*
X17918597Y24748582D01*
X17932457Y24753541D01*
X17946736Y24757118D01*
X17961297Y24759278D01*
X17976000Y24760000D01*
X18526000Y24760000D01*
X18540703Y24759278D01*
X18540703Y24759278D01*
G37*
D14*
X18251000Y24609999D03*
D13*
G36*
X18965704Y25734277D02*
X18980265Y25732117D01*
X18994544Y25728540D01*
X19008404Y25723581D01*
X19021711Y25717287D01*
X19034337Y25709719D01*
X19046160Y25700951D01*
X19057067Y25691065D01*
X19066953Y25680158D01*
X19075721Y25668335D01*
X19083289Y25655709D01*
X19089583Y25642402D01*
X19094542Y25628542D01*
X19098119Y25614263D01*
X19100279Y25599702D01*
X19101001Y25584999D01*
X19101001Y25034999D01*
X19100279Y25020296D01*
X19098119Y25005735D01*
X19094542Y24991456D01*
X19089583Y24977596D01*
X19083289Y24964289D01*
X19075721Y24951663D01*
X19066953Y24939840D01*
X19057067Y24928933D01*
X19046160Y24919047D01*
X19034337Y24910279D01*
X19021711Y24902711D01*
X19008404Y24896417D01*
X18994544Y24891458D01*
X18980265Y24887881D01*
X18965704Y24885721D01*
X18951001Y24884999D01*
X18950999Y24884999D01*
X18936296Y24885721D01*
X18921735Y24887881D01*
X18907456Y24891458D01*
X18893596Y24896417D01*
X18880289Y24902711D01*
X18867663Y24910279D01*
X18855840Y24919047D01*
X18844933Y24928933D01*
X18835047Y24939840D01*
X18826279Y24951663D01*
X18818711Y24964289D01*
X18812417Y24977596D01*
X18807458Y24991456D01*
X18803881Y25005735D01*
X18801721Y25020296D01*
X18800999Y25034999D01*
X18800999Y25584999D01*
X18801721Y25599702D01*
X18803881Y25614263D01*
X18807458Y25628542D01*
X18812417Y25642402D01*
X18818711Y25655709D01*
X18826279Y25668335D01*
X18835047Y25680158D01*
X18844933Y25691065D01*
X18855840Y25700951D01*
X18867663Y25709719D01*
X18880289Y25717287D01*
X18893596Y25723581D01*
X18907456Y25728540D01*
X18921735Y25732117D01*
X18936296Y25734277D01*
X18950999Y25734999D01*
X18951001Y25734999D01*
X18965704Y25734277D01*
X18965704Y25734277D01*
G37*
D14*
X18951000Y25309999D03*
D13*
G36*
X19465704Y25734278D02*
X19480265Y25732118D01*
X19494544Y25728541D01*
X19508404Y25723582D01*
X19521711Y25717288D01*
X19534337Y25709720D01*
X19546160Y25700952D01*
X19557067Y25691066D01*
X19566953Y25680159D01*
X19575721Y25668336D01*
X19583289Y25655710D01*
X19589583Y25642403D01*
X19594542Y25628543D01*
X19598119Y25614264D01*
X19600279Y25599703D01*
X19601001Y25585000D01*
X19601001Y25035000D01*
X19600279Y25020297D01*
X19598119Y25005736D01*
X19594542Y24991457D01*
X19589583Y24977597D01*
X19583289Y24964290D01*
X19575721Y24951664D01*
X19566953Y24939841D01*
X19557067Y24928934D01*
X19546160Y24919048D01*
X19534337Y24910280D01*
X19521711Y24902712D01*
X19508404Y24896418D01*
X19494544Y24891459D01*
X19480265Y24887882D01*
X19465704Y24885722D01*
X19451001Y24885000D01*
X19450999Y24885000D01*
X19436296Y24885722D01*
X19421735Y24887882D01*
X19407456Y24891459D01*
X19393596Y24896418D01*
X19380289Y24902712D01*
X19367663Y24910280D01*
X19355840Y24919048D01*
X19344933Y24928934D01*
X19335047Y24939841D01*
X19326279Y24951664D01*
X19318711Y24964290D01*
X19312417Y24977597D01*
X19307458Y24991457D01*
X19303881Y25005736D01*
X19301721Y25020297D01*
X19300999Y25035000D01*
X19300999Y25585000D01*
X19301721Y25599703D01*
X19303881Y25614264D01*
X19307458Y25628543D01*
X19312417Y25642403D01*
X19318711Y25655710D01*
X19326279Y25668336D01*
X19335047Y25680159D01*
X19344933Y25691066D01*
X19355840Y25700952D01*
X19367663Y25709720D01*
X19380289Y25717288D01*
X19393596Y25723582D01*
X19407456Y25728541D01*
X19421735Y25732118D01*
X19436296Y25734278D01*
X19450999Y25735000D01*
X19451001Y25735000D01*
X19465704Y25734278D01*
X19465704Y25734278D01*
G37*
D14*
X19451000Y25310000D03*
D13*
G36*
X19965704Y25734279D02*
X19980265Y25732119D01*
X19994544Y25728542D01*
X20008404Y25723583D01*
X20021711Y25717289D01*
X20034337Y25709721D01*
X20046160Y25700953D01*
X20057067Y25691067D01*
X20066953Y25680160D01*
X20075721Y25668337D01*
X20083289Y25655711D01*
X20089583Y25642404D01*
X20094542Y25628544D01*
X20098119Y25614265D01*
X20100279Y25599704D01*
X20101001Y25585001D01*
X20101001Y25035001D01*
X20100279Y25020298D01*
X20098119Y25005737D01*
X20094542Y24991458D01*
X20089583Y24977598D01*
X20083289Y24964291D01*
X20075721Y24951665D01*
X20066953Y24939842D01*
X20057067Y24928935D01*
X20046160Y24919049D01*
X20034337Y24910281D01*
X20021711Y24902713D01*
X20008404Y24896419D01*
X19994544Y24891460D01*
X19980265Y24887883D01*
X19965704Y24885723D01*
X19951001Y24885001D01*
X19950999Y24885001D01*
X19936296Y24885723D01*
X19921735Y24887883D01*
X19907456Y24891460D01*
X19893596Y24896419D01*
X19880289Y24902713D01*
X19867663Y24910281D01*
X19855840Y24919049D01*
X19844933Y24928935D01*
X19835047Y24939842D01*
X19826279Y24951665D01*
X19818711Y24964291D01*
X19812417Y24977598D01*
X19807458Y24991458D01*
X19803881Y25005737D01*
X19801721Y25020298D01*
X19800999Y25035001D01*
X19800999Y25585001D01*
X19801721Y25599704D01*
X19803881Y25614265D01*
X19807458Y25628544D01*
X19812417Y25642404D01*
X19818711Y25655711D01*
X19826279Y25668337D01*
X19835047Y25680160D01*
X19844933Y25691067D01*
X19855840Y25700953D01*
X19867663Y25709721D01*
X19880289Y25717289D01*
X19893596Y25723583D01*
X19907456Y25728542D01*
X19921735Y25732119D01*
X19936296Y25734279D01*
X19950999Y25735001D01*
X19951001Y25735001D01*
X19965704Y25734279D01*
X19965704Y25734279D01*
G37*
D14*
X19951000Y25310001D03*
D13*
G36*
X20465704Y25734278D02*
X20480265Y25732118D01*
X20494544Y25728541D01*
X20508404Y25723582D01*
X20521711Y25717288D01*
X20534337Y25709720D01*
X20546160Y25700952D01*
X20557067Y25691066D01*
X20566953Y25680159D01*
X20575721Y25668336D01*
X20583289Y25655710D01*
X20589583Y25642403D01*
X20594542Y25628543D01*
X20598119Y25614264D01*
X20600279Y25599703D01*
X20601001Y25585000D01*
X20601001Y25035000D01*
X20600279Y25020297D01*
X20598119Y25005736D01*
X20594542Y24991457D01*
X20589583Y24977597D01*
X20583289Y24964290D01*
X20575721Y24951664D01*
X20566953Y24939841D01*
X20557067Y24928934D01*
X20546160Y24919048D01*
X20534337Y24910280D01*
X20521711Y24902712D01*
X20508404Y24896418D01*
X20494544Y24891459D01*
X20480265Y24887882D01*
X20465704Y24885722D01*
X20451001Y24885000D01*
X20450999Y24885000D01*
X20436296Y24885722D01*
X20421735Y24887882D01*
X20407456Y24891459D01*
X20393596Y24896418D01*
X20380289Y24902712D01*
X20367663Y24910280D01*
X20355840Y24919048D01*
X20344933Y24928934D01*
X20335047Y24939841D01*
X20326279Y24951664D01*
X20318711Y24964290D01*
X20312417Y24977597D01*
X20307458Y24991457D01*
X20303881Y25005736D01*
X20301721Y25020297D01*
X20300999Y25035000D01*
X20300999Y25585000D01*
X20301721Y25599703D01*
X20303881Y25614264D01*
X20307458Y25628543D01*
X20312417Y25642403D01*
X20318711Y25655710D01*
X20326279Y25668336D01*
X20335047Y25680159D01*
X20344933Y25691066D01*
X20355840Y25700952D01*
X20367663Y25709720D01*
X20380289Y25717288D01*
X20393596Y25723582D01*
X20407456Y25728541D01*
X20421735Y25732118D01*
X20436296Y25734278D01*
X20450999Y25735000D01*
X20451001Y25735000D01*
X20465704Y25734278D01*
X20465704Y25734278D01*
G37*
D14*
X20451000Y25310000D03*
D13*
G36*
X20965704Y25734278D02*
X20980265Y25732118D01*
X20994544Y25728541D01*
X21008404Y25723582D01*
X21021711Y25717288D01*
X21034337Y25709720D01*
X21046160Y25700952D01*
X21057067Y25691066D01*
X21066953Y25680159D01*
X21075721Y25668336D01*
X21083289Y25655710D01*
X21089583Y25642403D01*
X21094542Y25628543D01*
X21098119Y25614264D01*
X21100279Y25599703D01*
X21101001Y25585000D01*
X21101001Y25035000D01*
X21100279Y25020297D01*
X21098119Y25005736D01*
X21094542Y24991457D01*
X21089583Y24977597D01*
X21083289Y24964290D01*
X21075721Y24951664D01*
X21066953Y24939841D01*
X21057067Y24928934D01*
X21046160Y24919048D01*
X21034337Y24910280D01*
X21021711Y24902712D01*
X21008404Y24896418D01*
X20994544Y24891459D01*
X20980265Y24887882D01*
X20965704Y24885722D01*
X20951001Y24885000D01*
X20950999Y24885000D01*
X20936296Y24885722D01*
X20921735Y24887882D01*
X20907456Y24891459D01*
X20893596Y24896418D01*
X20880289Y24902712D01*
X20867663Y24910280D01*
X20855840Y24919048D01*
X20844933Y24928934D01*
X20835047Y24939841D01*
X20826279Y24951664D01*
X20818711Y24964290D01*
X20812417Y24977597D01*
X20807458Y24991457D01*
X20803881Y25005736D01*
X20801721Y25020297D01*
X20800999Y25035000D01*
X20800999Y25585000D01*
X20801721Y25599703D01*
X20803881Y25614264D01*
X20807458Y25628543D01*
X20812417Y25642403D01*
X20818711Y25655710D01*
X20826279Y25668336D01*
X20835047Y25680159D01*
X20844933Y25691066D01*
X20855840Y25700952D01*
X20867663Y25709720D01*
X20880289Y25717288D01*
X20893596Y25723582D01*
X20907456Y25728541D01*
X20921735Y25732118D01*
X20936296Y25734278D01*
X20950999Y25735000D01*
X20951001Y25735000D01*
X20965704Y25734278D01*
X20965704Y25734278D01*
G37*
D14*
X20951000Y25310000D03*
D13*
G36*
X21465704Y25734279D02*
X21480265Y25732119D01*
X21494544Y25728542D01*
X21508404Y25723583D01*
X21521711Y25717289D01*
X21534337Y25709721D01*
X21546160Y25700953D01*
X21557067Y25691067D01*
X21566953Y25680160D01*
X21575721Y25668337D01*
X21583289Y25655711D01*
X21589583Y25642404D01*
X21594542Y25628544D01*
X21598119Y25614265D01*
X21600279Y25599704D01*
X21601001Y25585001D01*
X21601001Y25035001D01*
X21600279Y25020298D01*
X21598119Y25005737D01*
X21594542Y24991458D01*
X21589583Y24977598D01*
X21583289Y24964291D01*
X21575721Y24951665D01*
X21566953Y24939842D01*
X21557067Y24928935D01*
X21546160Y24919049D01*
X21534337Y24910281D01*
X21521711Y24902713D01*
X21508404Y24896419D01*
X21494544Y24891460D01*
X21480265Y24887883D01*
X21465704Y24885723D01*
X21451001Y24885001D01*
X21450999Y24885001D01*
X21436296Y24885723D01*
X21421735Y24887883D01*
X21407456Y24891460D01*
X21393596Y24896419D01*
X21380289Y24902713D01*
X21367663Y24910281D01*
X21355840Y24919049D01*
X21344933Y24928935D01*
X21335047Y24939842D01*
X21326279Y24951665D01*
X21318711Y24964291D01*
X21312417Y24977598D01*
X21307458Y24991458D01*
X21303881Y25005737D01*
X21301721Y25020298D01*
X21300999Y25035001D01*
X21300999Y25585001D01*
X21301721Y25599704D01*
X21303881Y25614265D01*
X21307458Y25628544D01*
X21312417Y25642404D01*
X21318711Y25655711D01*
X21326279Y25668337D01*
X21335047Y25680160D01*
X21344933Y25691067D01*
X21355840Y25700953D01*
X21367663Y25709721D01*
X21380289Y25717289D01*
X21393596Y25723583D01*
X21407456Y25728542D01*
X21421735Y25732119D01*
X21436296Y25734279D01*
X21450999Y25735001D01*
X21451001Y25735001D01*
X21465704Y25734279D01*
X21465704Y25734279D01*
G37*
D14*
X21451000Y25310001D03*
D13*
G36*
X21965704Y25734278D02*
X21980265Y25732118D01*
X21994544Y25728541D01*
X22008404Y25723582D01*
X22021711Y25717288D01*
X22034337Y25709720D01*
X22046160Y25700952D01*
X22057067Y25691066D01*
X22066953Y25680159D01*
X22075721Y25668336D01*
X22083289Y25655710D01*
X22089583Y25642403D01*
X22094542Y25628543D01*
X22098119Y25614264D01*
X22100279Y25599703D01*
X22101001Y25585000D01*
X22101001Y25035000D01*
X22100279Y25020297D01*
X22098119Y25005736D01*
X22094542Y24991457D01*
X22089583Y24977597D01*
X22083289Y24964290D01*
X22075721Y24951664D01*
X22066953Y24939841D01*
X22057067Y24928934D01*
X22046160Y24919048D01*
X22034337Y24910280D01*
X22021711Y24902712D01*
X22008404Y24896418D01*
X21994544Y24891459D01*
X21980265Y24887882D01*
X21965704Y24885722D01*
X21951001Y24885000D01*
X21950999Y24885000D01*
X21936296Y24885722D01*
X21921735Y24887882D01*
X21907456Y24891459D01*
X21893596Y24896418D01*
X21880289Y24902712D01*
X21867663Y24910280D01*
X21855840Y24919048D01*
X21844933Y24928934D01*
X21835047Y24939841D01*
X21826279Y24951664D01*
X21818711Y24964290D01*
X21812417Y24977597D01*
X21807458Y24991457D01*
X21803881Y25005736D01*
X21801721Y25020297D01*
X21800999Y25035000D01*
X21800999Y25585000D01*
X21801721Y25599703D01*
X21803881Y25614264D01*
X21807458Y25628543D01*
X21812417Y25642403D01*
X21818711Y25655710D01*
X21826279Y25668336D01*
X21835047Y25680159D01*
X21844933Y25691066D01*
X21855840Y25700952D01*
X21867663Y25709720D01*
X21880289Y25717288D01*
X21893596Y25723582D01*
X21907456Y25728541D01*
X21921735Y25732118D01*
X21936296Y25734278D01*
X21950999Y25735000D01*
X21951001Y25735000D01*
X21965704Y25734278D01*
X21965704Y25734278D01*
G37*
D14*
X21951000Y25310000D03*
D13*
G36*
X22465703Y25734278D02*
X22480264Y25732118D01*
X22494543Y25728541D01*
X22508403Y25723582D01*
X22521710Y25717288D01*
X22534336Y25709720D01*
X22546159Y25700952D01*
X22557066Y25691066D01*
X22566952Y25680159D01*
X22575720Y25668336D01*
X22583288Y25655710D01*
X22589582Y25642403D01*
X22594541Y25628543D01*
X22598118Y25614264D01*
X22600278Y25599703D01*
X22601000Y25585000D01*
X22601000Y25035000D01*
X22600278Y25020297D01*
X22598118Y25005736D01*
X22594541Y24991457D01*
X22589582Y24977597D01*
X22583288Y24964290D01*
X22575720Y24951664D01*
X22566952Y24939841D01*
X22557066Y24928934D01*
X22546159Y24919048D01*
X22534336Y24910280D01*
X22521710Y24902712D01*
X22508403Y24896418D01*
X22494543Y24891459D01*
X22480264Y24887882D01*
X22465703Y24885722D01*
X22451000Y24885000D01*
X22450998Y24885000D01*
X22436295Y24885722D01*
X22421734Y24887882D01*
X22407455Y24891459D01*
X22393595Y24896418D01*
X22380288Y24902712D01*
X22367662Y24910280D01*
X22355839Y24919048D01*
X22344932Y24928934D01*
X22335046Y24939841D01*
X22326278Y24951664D01*
X22318710Y24964290D01*
X22312416Y24977597D01*
X22307457Y24991457D01*
X22303880Y25005736D01*
X22301720Y25020297D01*
X22300998Y25035000D01*
X22300998Y25585000D01*
X22301720Y25599703D01*
X22303880Y25614264D01*
X22307457Y25628543D01*
X22312416Y25642403D01*
X22318710Y25655710D01*
X22326278Y25668336D01*
X22335046Y25680159D01*
X22344932Y25691066D01*
X22355839Y25700952D01*
X22367662Y25709720D01*
X22380288Y25717288D01*
X22393595Y25723582D01*
X22407455Y25728541D01*
X22421734Y25732118D01*
X22436295Y25734278D01*
X22450998Y25735000D01*
X22451000Y25735000D01*
X22465703Y25734278D01*
X22465703Y25734278D01*
G37*
D14*
X22450999Y25310000D03*
G04 #@! TD*
D15*
G04 #@! TO.C,U3*
X7702000Y15159000D03*
X8352000Y15159000D03*
X9002000Y15159000D03*
X9652000Y15159000D03*
X10302000Y15159000D03*
X10952000Y15159000D03*
X11602000Y15159000D03*
X11602000Y20909000D03*
X10952000Y20909000D03*
X10302000Y20909000D03*
X9652000Y20909000D03*
X9002000Y20909000D03*
X8352000Y20909000D03*
X7702000Y20909000D03*
G04 #@! TD*
D16*
G04 #@! TO.C,LS1*
X5588000Y24194000D03*
X5588000Y32194000D03*
G04 #@! TD*
D17*
G04 #@! TO.C,SW2*
X17236000Y49539000D03*
X17236000Y41139000D03*
X12736000Y49539000D03*
X12736000Y41139000D03*
G04 #@! TD*
G04 #@! TO.C,SW1*
X10124000Y49539000D03*
X10124000Y41139000D03*
X5624000Y49539000D03*
X5624000Y41139000D03*
G04 #@! TD*
D18*
G04 #@! TO.C,U2*
X23434000Y30346000D03*
X25334000Y30346000D03*
X24384000Y32646000D03*
G04 #@! TD*
D19*
G04 #@! TO.C,U5*
X10160000Y35480000D03*
X12700000Y38180000D03*
X15240000Y35480000D03*
X17780000Y38180000D03*
G04 #@! TD*
D20*
G04 #@! TO.C,R12*
X22086000Y13970000D03*
X20586000Y13970000D03*
G04 #@! TD*
D18*
G04 #@! TO.C,Q3*
X22286000Y12326000D03*
X20386000Y12326000D03*
X21336000Y10026000D03*
G04 #@! TD*
D21*
G04 #@! TO.C,C19*
X9410000Y39116000D03*
X10910000Y39116000D03*
G04 #@! TD*
D22*
G04 #@! TO.C,C10*
X14986000Y16268000D03*
X14986000Y17768000D03*
G04 #@! TD*
D21*
G04 #@! TO.C,C11*
X21578000Y27305000D03*
X20078000Y27305000D03*
G04 #@! TD*
D22*
G04 #@! TO.C,C15*
X11938000Y27825000D03*
X11938000Y29325000D03*
G04 #@! TD*
G04 #@! TO.C,C16*
X11938000Y24904000D03*
X11938000Y26404000D03*
G04 #@! TD*
D21*
G04 #@! TO.C,C17*
X18911000Y16256000D03*
X17411000Y16256000D03*
G04 #@! TD*
G04 #@! TO.C,C18*
X21832000Y17780000D03*
X20332000Y17780000D03*
G04 #@! TD*
G04 #@! TO.C,L2*
X17411000Y17780000D03*
X18911000Y17780000D03*
G04 #@! TD*
D23*
G04 #@! TO.C,F1*
X20105000Y35052000D03*
X21805000Y35052000D03*
G04 #@! TD*
D24*
G04 #@! TO.C,Y1*
X14732000Y28128000D03*
X14732000Y26228000D03*
G04 #@! TD*
D22*
G04 #@! TO.C,C14*
X21590000Y36842000D03*
X21590000Y38342000D03*
G04 #@! TD*
G04 #@! TO.C,C13*
X20066000Y38342000D03*
X20066000Y36842000D03*
G04 #@! TD*
G04 #@! TO.C,C12*
X21717000Y30492000D03*
X21717000Y31992000D03*
G04 #@! TD*
D25*
G04 #@! TO.C,U4*
X21066000Y40697000D03*
X21066000Y44647000D03*
X20566000Y40697000D03*
X20566000Y44647000D03*
X20066000Y40697000D03*
X20066000Y44647000D03*
X19566000Y40697000D03*
X19566000Y44647000D03*
X19066000Y44647000D03*
X19066000Y40697000D03*
G04 #@! TD*
D20*
G04 #@! TO.C,R1*
X11950000Y34544000D03*
X13450000Y34544000D03*
G04 #@! TD*
G04 #@! TO.C,R11*
X15990000Y39116000D03*
X14490000Y39116000D03*
G04 #@! TD*
D26*
G04 #@! TO.C,D3*
X24554000Y19177000D03*
X26754000Y19177000D03*
G04 #@! TD*
D21*
G04 #@! TO.C,C1*
X5600000Y13208000D03*
X7100000Y13208000D03*
G04 #@! TD*
G04 #@! TO.C,C3*
X8648000Y13208000D03*
X10148000Y13208000D03*
G04 #@! TD*
D22*
G04 #@! TO.C,C4*
X20193000Y30492000D03*
X20193000Y31992000D03*
G04 #@! TD*
D21*
G04 #@! TO.C,C5*
X25134000Y28575000D03*
X23634000Y28575000D03*
G04 #@! TD*
G04 #@! TO.C,C6*
X21578000Y28829000D03*
X20078000Y28829000D03*
G04 #@! TD*
G04 #@! TO.C,C7*
X19570000Y46482000D03*
X21070000Y46482000D03*
G04 #@! TD*
D22*
G04 #@! TO.C,C8*
X13335000Y19570000D03*
X13335000Y21070000D03*
G04 #@! TD*
G04 #@! TO.C,C9*
X13335000Y17768000D03*
X13335000Y16268000D03*
G04 #@! TD*
D21*
G04 #@! TO.C,C2*
X13196000Y13208000D03*
X11696000Y13208000D03*
G04 #@! TD*
G04 #@! TO.C,L1*
X21705000Y33528000D03*
X20205000Y33528000D03*
G04 #@! TD*
D27*
G04 #@! TO.C,D1*
X1536700Y48514000D03*
X3035300Y48514000D03*
G04 #@! TD*
D28*
G04 #@! TO.C,J3*
X26017000Y47059000D03*
X26017000Y39809000D03*
D29*
X23367000Y45859000D03*
X23367000Y41009000D03*
D30*
X23442000Y44734000D03*
X23442000Y44084001D03*
X23442000Y43434000D03*
X23442000Y42783999D03*
X23442000Y42134000D03*
G04 #@! TD*
D20*
G04 #@! TO.C,R6*
X3036000Y46736000D03*
X1536000Y46736000D03*
G04 #@! TD*
G04 #@! TO.C,R5*
X15736000Y41148000D03*
X14236000Y41148000D03*
G04 #@! TD*
G04 #@! TO.C,R4*
X8624000Y41148000D03*
X7124000Y41148000D03*
G04 #@! TD*
D31*
G04 #@! TO.C,R3*
X10287000Y10172000D03*
X10287000Y11672000D03*
G04 #@! TD*
G04 #@! TO.C,R7*
X16002000Y31000000D03*
X16002000Y32500000D03*
G04 #@! TD*
D20*
G04 #@! TO.C,R8*
X14998000Y13970000D03*
X16498000Y13970000D03*
G04 #@! TD*
G04 #@! TO.C,R9*
X26404000Y20955000D03*
X24904000Y20955000D03*
G04 #@! TD*
D31*
G04 #@! TO.C,R10*
X14986000Y21070000D03*
X14986000Y19570000D03*
G04 #@! TD*
G04 #@! TO.C,R2*
X8509000Y11672000D03*
X8509000Y10172000D03*
G04 #@! TD*
D32*
G04 #@! TO.C,Q1*
X11931000Y31750000D03*
X14231000Y32700000D03*
X14231000Y30800000D03*
G04 #@! TD*
D18*
G04 #@! TO.C,Q2*
X16698000Y12326000D03*
X14798000Y12326000D03*
X15748000Y10026000D03*
G04 #@! TD*
D33*
G04 #@! TO.C,SW3*
X19798000Y49838000D03*
X24398000Y49838000D03*
D34*
X23773000Y48288000D03*
X20423000Y48288000D03*
G04 #@! TD*
M02*
