M48
;DRILL file {KiCad no-vcs-found-90668f9~60~ubuntu16.04.1} date Sat Sep  9 17:52:26 2017
;FORMAT={-:-/ absolute / metric / decimal}
FMAT,2
METRIC,TZ
T1C0.300
T2C0.700
T3C1.000
T4C1.016
T5C0.800
T6C2.200
%
G90
G05
M71
T1
X2.54Y45.72
X2.54Y38.1
X2.54Y33.02
X5.08Y48.26
X5.08Y43.18
X5.08Y40.64
X5.08Y2.54
X6.35Y19.05
X6.35Y16.51
X6.35Y3.81
X6.35Y1.27
X6.616Y10.68
X7.62Y43.18
X7.62Y40.64
X7.62Y33.02
X7.62Y27.94
X7.62Y20.32
X7.62Y17.78
X7.62Y2.54
X8.128Y14.732
X8.352Y23.592
X8.89Y19.05
X8.89Y10.16
X8.89Y7.62
X8.89Y3.81
X9.002Y22.733
X9.398Y25.019
X9.652Y23.241
X10.16Y43.18
X10.16Y40.64
X10.16Y38.1
X10.16Y20.32
X10.16Y17.78
X10.16Y11.43
X10.16Y8.89
X10.16Y5.08
X10.16Y2.54
X10.287Y25.019
X10.302Y22.718
X11.43Y3.81
X11.43Y1.27
X11.633Y28.067
X11.633Y27.432
X11.633Y26.797
X11.684Y41.656
X12.192Y41.656
X12.434Y21.832
X12.446Y17.526
X12.7Y41.656
X12.7Y12.7
X12.7Y10.16
X12.7Y5.08
X12.7Y2.54
X13.97Y3.81
X13.97Y1.27
X15.113Y27.71
X15.24Y20.32
X15.24Y2.54
X15.748Y28.448
X15.748Y24.638
X16.51Y3.81
X17.018Y25.146
X17.294Y22.584
X17.526Y32.004
X17.526Y31.496
X17.526Y29.21
X17.78Y20.32
X17.78Y2.54
X18.974Y27.81
X18.974Y26.61
X19.05Y3.81
X19.558Y27.178
X20.174Y27.81
X20.174Y26.61
X20.32Y35.56
X20.32Y20.32
X20.32Y15.24
X20.32Y12.7
X20.32Y10.16
X20.32Y7.62
X20.32Y5.08
X20.32Y2.54
X21.59Y13.97
X21.59Y8.89
X21.59Y6.35
X21.844Y25.4
X21.971Y24.384
X21.971Y23.622
X21.971Y22.86
X22.098Y29.21
X22.86Y35.56
X22.86Y7.62
X22.86Y5.08
X24.13Y20.32
X24.13Y11.43
X24.13Y8.89
X24.13Y6.35
X24.13Y3.81
X24.257Y24.384
X24.257Y23.622
X24.257Y22.86
X24.384Y15.748
X24.384Y15.24
X25.146Y15.748
X25.146Y15.24
X25.4Y21.59
X25.4Y10.16
X25.4Y7.62
X25.4Y5.08
X25.4Y2.54
X25.908Y15.748
X25.908Y15.24
X26.67Y27.94
X26.67Y25.4
X26.67Y22.86
X27.432Y34.036
X27.94Y34.544
X27.94Y29.21
X27.94Y26.67
X27.94Y24.13
X28.956Y43.942
X30.099Y23.876
X30.099Y23.114
X30.226Y41.402
X30.48Y6.35
X30.861Y23.876
X31.75Y12.7
X31.75Y10.16
X31.75Y7.62
X31.75Y5.08
X33.02Y34.29
X33.02Y31.75
X33.02Y13.97
X33.02Y8.89
X33.02Y6.35
X34.29Y43.18
X34.29Y40.64
X34.29Y38.1
X34.29Y35.56
X34.29Y22.86
X34.29Y17.78
X34.29Y15.24
X34.29Y7.62
X34.29Y5.08
X35.56Y39.37
X35.56Y36.83
X35.56Y21.59
X35.56Y19.05
X35.56Y16.51
X35.56Y13.97
X35.56Y6.35
X36.83Y38.1
X36.83Y25.4
X36.83Y15.24
X38.1Y45.72
T2
X35.051Y33.159
X35.051Y28.309
T3
X7.62Y6.35
X11.12Y6.35
X14.605Y6.35
X18.105Y6.35
T4
X11.43Y48.006
X13.97Y48.006
X16.51Y48.006
X19.05Y48.006
X21.59Y48.006
X24.13Y48.006
X1.778Y26.035
X1.778Y23.495
X1.778Y20.955
X4.318Y26.035
X4.318Y23.495
X4.318Y20.955
T5
X31.154Y49.838
X32.854Y49.838
T6
X2.Y11.45
X2.15Y41.25
X37.85Y41.25
X38.Y11.45
X37.5Y48.5
X2.5Y2.5
X37.5Y2.5
X2.5Y48.5
T2
X37.501Y34.359G85X37.901Y34.359
G05
X37.501Y27.109G85X37.901Y27.109
G05
T0
M30
