G04 #@! TF.GenerationSoftware,KiCad,Pcbnew,no-vcs-found-90668f9~60~ubuntu16.04.1*
G04 #@! TF.CreationDate,2017-09-09T17:52:20+08:00*
G04 #@! TF.ProjectId,TINY-REFLOW-CONTROLLER-0R20,54494E592D5245464C4F572D434F4E54,rev?*
G04 #@! TF.SameCoordinates,PX8f0d180PY5f5e100*
G04 #@! TF.FileFunction,Legend,Top*
G04 #@! TF.FilePolarity,Positive*
%FSLAX46Y46*%
G04 Gerber Fmt 4.6, Leading zero omitted, Abs format (unit mm)*
G04 Created by KiCad (PCBNEW no-vcs-found-90668f9~60~ubuntu16.04.1) date Sat Sep  9 17:52:20 2017*
%MOMM*%
%LPD*%
G01*
G04 APERTURE LIST*
%ADD10C,0.150000*%
%ADD11C,0.200000*%
%ADD12C,0.300000*%
%ADD13C,0.010000*%
%ADD14R,1.200000X1.450000*%
%ADD15R,0.950000X1.000000*%
%ADD16R,1.550000X0.600000*%
%ADD17C,1.400000*%
%ADD18O,1.900000X1.500000*%
%ADD19O,1.927200X1.927200*%
%ADD20R,1.200000X3.370000*%
%ADD21C,3.800000*%
%ADD22C,2.048000*%
%ADD23C,1.000000*%
%ADD24R,1.100000X1.400000*%
%ADD25R,1.350000X1.500000*%
%ADD26R,1.400000X1.400000*%
%ADD27R,1.800000X1.700000*%
%ADD28R,1.100000X1.150000*%
%ADD29R,0.600000X0.700000*%
%ADD30R,1.800000X1.300000*%
%ADD31R,0.600000X0.450000*%
%ADD32R,1.400000X1.000000*%
%ADD33R,2.400000X1.000000*%
%ADD34R,2.700000X2.200000*%
%ADD35R,1.600000X1.800000*%
%ADD36R,0.850000X1.250000*%
%ADD37R,2.200000X3.200000*%
%ADD38C,0.100000*%
%ADD39C,0.440000*%
%ADD40R,1.340000X1.340000*%
%ADD41R,0.550000X1.600000*%
%ADD42R,0.700000X1.100000*%
%ADD43R,1.100000X0.700000*%
%ADD44R,1.450000X1.200000*%
%ADD45R,1.000000X0.950000*%
%ADD46C,3.000000*%
%ADD47R,0.997560X0.997560*%
%ADD48C,4.200000*%
G04 APERTURE END LIST*
D10*
X27501904Y49676096D02*
X27235238Y50057048D01*
X27044761Y49676096D02*
X27044761Y50476096D01*
X27349523Y50476096D01*
X27425714Y50438000D01*
X27463809Y50399905D01*
X27501904Y50323715D01*
X27501904Y50209429D01*
X27463809Y50133239D01*
X27425714Y50095143D01*
X27349523Y50057048D01*
X27044761Y50057048D01*
X27806666Y49714191D02*
X27920952Y49676096D01*
X28111428Y49676096D01*
X28187619Y49714191D01*
X28225714Y49752286D01*
X28263809Y49828477D01*
X28263809Y49904667D01*
X28225714Y49980858D01*
X28187619Y50018953D01*
X28111428Y50057048D01*
X27959047Y50095143D01*
X27882857Y50133239D01*
X27844761Y50171334D01*
X27806666Y50247524D01*
X27806666Y50323715D01*
X27844761Y50399905D01*
X27882857Y50438000D01*
X27959047Y50476096D01*
X28149523Y50476096D01*
X28263809Y50438000D01*
X28492380Y50476096D02*
X28949523Y50476096D01*
X28720952Y49676096D02*
X28720952Y50476096D01*
D11*
X24638000Y254000D02*
X24638000Y1778000D01*
D10*
X5042190Y50006286D02*
X5004095Y49968191D01*
X4889809Y49930096D01*
X4813619Y49930096D01*
X4699333Y49968191D01*
X4623142Y50044381D01*
X4585047Y50120572D01*
X4546952Y50272953D01*
X4546952Y50387239D01*
X4585047Y50539620D01*
X4623142Y50615810D01*
X4699333Y50692000D01*
X4813619Y50730096D01*
X4889809Y50730096D01*
X5004095Y50692000D01*
X5042190Y50653905D01*
X5537428Y50730096D02*
X5689809Y50730096D01*
X5766000Y50692000D01*
X5842190Y50615810D01*
X5880285Y50463429D01*
X5880285Y50196762D01*
X5842190Y50044381D01*
X5766000Y49968191D01*
X5689809Y49930096D01*
X5537428Y49930096D01*
X5461238Y49968191D01*
X5385047Y50044381D01*
X5346952Y50196762D01*
X5346952Y50463429D01*
X5385047Y50615810D01*
X5461238Y50692000D01*
X5537428Y50730096D01*
X6223142Y49930096D02*
X6223142Y50730096D01*
X6680285Y49930096D01*
X6680285Y50730096D01*
X6946952Y50730096D02*
X7404095Y50730096D01*
X7175523Y49930096D02*
X7175523Y50730096D01*
X8127904Y49930096D02*
X7861238Y50311048D01*
X7670761Y49930096D02*
X7670761Y50730096D01*
X7975523Y50730096D01*
X8051714Y50692000D01*
X8089809Y50653905D01*
X8127904Y50577715D01*
X8127904Y50463429D01*
X8089809Y50387239D01*
X8051714Y50349143D01*
X7975523Y50311048D01*
X7670761Y50311048D01*
X8432666Y50158667D02*
X8813619Y50158667D01*
X8356476Y49930096D02*
X8623142Y50730096D01*
X8889809Y49930096D01*
X9118380Y49968191D02*
X9232666Y49930096D01*
X9423142Y49930096D01*
X9499333Y49968191D01*
X9537428Y50006286D01*
X9575523Y50082477D01*
X9575523Y50158667D01*
X9537428Y50234858D01*
X9499333Y50272953D01*
X9423142Y50311048D01*
X9270761Y50349143D01*
X9194571Y50387239D01*
X9156476Y50425334D01*
X9118380Y50501524D01*
X9118380Y50577715D01*
X9156476Y50653905D01*
X9194571Y50692000D01*
X9270761Y50730096D01*
X9461238Y50730096D01*
X9575523Y50692000D01*
X9804095Y50730096D02*
X10261238Y50730096D01*
X10032666Y49930096D02*
X10032666Y50730096D01*
D11*
X21590000Y46355000D02*
X21844000Y46101000D01*
X21844000Y46101000D02*
X21336000Y46101000D01*
X21336000Y46101000D02*
X21590000Y46355000D01*
X21590000Y46101000D02*
X21590000Y46355000D01*
X19050000Y46101000D02*
X18796000Y46355000D01*
X19050000Y46355000D02*
X19050000Y46101000D01*
X19304000Y46355000D02*
X19050000Y46101000D01*
X18796000Y46355000D02*
X19304000Y46355000D01*
D10*
X13760476Y49803096D02*
X14179523Y50336429D01*
X13760476Y50336429D02*
X14179523Y49803096D01*
X5278380Y4397715D02*
X5278380Y3921524D01*
X4278380Y3921524D01*
X4754571Y4731048D02*
X4754571Y5064381D01*
X5278380Y5207239D02*
X5278380Y4731048D01*
X4278380Y4731048D01*
X4278380Y5207239D01*
X5278380Y5635810D02*
X4278380Y5635810D01*
X4278380Y5873905D01*
X4326000Y6016762D01*
X4421238Y6112000D01*
X4516476Y6159620D01*
X4706952Y6207239D01*
X4849809Y6207239D01*
X5040285Y6159620D01*
X5135523Y6112000D01*
X5230761Y6016762D01*
X5278380Y5873905D01*
X5278380Y5635810D01*
X4897428Y6635810D02*
X4897428Y7397715D01*
X5278380Y7873905D02*
X4278380Y7873905D01*
X4278380Y8112000D01*
X4326000Y8254858D01*
X4421238Y8350096D01*
X4516476Y8397715D01*
X4706952Y8445334D01*
X4849809Y8445334D01*
X5040285Y8397715D01*
X5135523Y8350096D01*
X5230761Y8254858D01*
X5278380Y8112000D01*
X5278380Y7873905D01*
X5278380Y9397715D02*
X5278380Y8826286D01*
X5278380Y9112000D02*
X4278380Y9112000D01*
X4421238Y9016762D01*
X4516476Y8921524D01*
X4564095Y8826286D01*
X4278380Y9731048D02*
X4278380Y10350096D01*
X4659333Y10016762D01*
X4659333Y10159620D01*
X4706952Y10254858D01*
X4754571Y10302477D01*
X4849809Y10350096D01*
X5087904Y10350096D01*
X5183142Y10302477D01*
X5230761Y10254858D01*
X5278380Y10159620D01*
X5278380Y9873905D01*
X5230761Y9778667D01*
X5183142Y9731048D01*
D11*
X34144285Y36979143D02*
X34544285Y35779143D01*
X34944285Y36979143D01*
X35344285Y35779143D02*
X35344285Y36979143D01*
X35915714Y35779143D02*
X35915714Y36979143D01*
X36601428Y35779143D01*
X36601428Y36979143D01*
X37172857Y35893429D02*
X37230000Y35836286D01*
X37172857Y35779143D01*
X37115714Y35836286D01*
X37172857Y35893429D01*
X37172857Y35779143D01*
X37172857Y36522000D02*
X37230000Y36464858D01*
X37172857Y36407715D01*
X37115714Y36464858D01*
X37172857Y36522000D01*
X37172857Y36407715D01*
X38315714Y36979143D02*
X37744285Y36979143D01*
X37687142Y36407715D01*
X37744285Y36464858D01*
X37858571Y36522000D01*
X38144285Y36522000D01*
X38258571Y36464858D01*
X38315714Y36407715D01*
X38372857Y36293429D01*
X38372857Y36007715D01*
X38315714Y35893429D01*
X38258571Y35836286D01*
X38144285Y35779143D01*
X37858571Y35779143D01*
X37744285Y35836286D01*
X37687142Y35893429D01*
X38715714Y36979143D02*
X39115714Y35779143D01*
X39515714Y36979143D01*
X33918857Y18488286D02*
X33918857Y19174000D01*
X35118857Y18831143D02*
X33918857Y18831143D01*
X35118857Y19574000D02*
X34318857Y19574000D01*
X33918857Y19574000D02*
X33976000Y19516858D01*
X34033142Y19574000D01*
X33976000Y19631143D01*
X33918857Y19574000D01*
X34033142Y19574000D01*
X34318857Y20145429D02*
X35118857Y20145429D01*
X34433142Y20145429D02*
X34376000Y20202572D01*
X34318857Y20316858D01*
X34318857Y20488286D01*
X34376000Y20602572D01*
X34490285Y20659715D01*
X35118857Y20659715D01*
X34318857Y21116858D02*
X35118857Y21402572D01*
X34318857Y21688286D02*
X35118857Y21402572D01*
X35404571Y21288286D01*
X35461714Y21231143D01*
X35518857Y21116858D01*
X37118857Y18145429D02*
X36547428Y17745429D01*
X37118857Y17459715D02*
X35918857Y17459715D01*
X35918857Y17916858D01*
X35976000Y18031143D01*
X36033142Y18088286D01*
X36147428Y18145429D01*
X36318857Y18145429D01*
X36433142Y18088286D01*
X36490285Y18031143D01*
X36547428Y17916858D01*
X36547428Y17459715D01*
X37061714Y19116858D02*
X37118857Y19002572D01*
X37118857Y18774000D01*
X37061714Y18659715D01*
X36947428Y18602572D01*
X36490285Y18602572D01*
X36376000Y18659715D01*
X36318857Y18774000D01*
X36318857Y19002572D01*
X36376000Y19116858D01*
X36490285Y19174000D01*
X36604571Y19174000D01*
X36718857Y18602572D01*
X36318857Y19516858D02*
X36318857Y19974000D01*
X37118857Y19688286D02*
X36090285Y19688286D01*
X35976000Y19745429D01*
X35918857Y19859715D01*
X35918857Y19974000D01*
X37118857Y20545429D02*
X37061714Y20431143D01*
X36947428Y20374000D01*
X35918857Y20374000D01*
X37118857Y21174000D02*
X37061714Y21059715D01*
X37004571Y21002572D01*
X36890285Y20945429D01*
X36547428Y20945429D01*
X36433142Y21002572D01*
X36376000Y21059715D01*
X36318857Y21174000D01*
X36318857Y21345429D01*
X36376000Y21459715D01*
X36433142Y21516858D01*
X36547428Y21574000D01*
X36890285Y21574000D01*
X37004571Y21516858D01*
X37061714Y21459715D01*
X37118857Y21345429D01*
X37118857Y21174000D01*
X36318857Y21974000D02*
X37118857Y22202572D01*
X36547428Y22431143D01*
X37118857Y22659715D01*
X36318857Y22888286D01*
X39004571Y17088286D02*
X39061714Y17031143D01*
X39118857Y16859715D01*
X39118857Y16745429D01*
X39061714Y16574000D01*
X38947428Y16459715D01*
X38833142Y16402572D01*
X38604571Y16345429D01*
X38433142Y16345429D01*
X38204571Y16402572D01*
X38090285Y16459715D01*
X37976000Y16574000D01*
X37918857Y16745429D01*
X37918857Y16859715D01*
X37976000Y17031143D01*
X38033142Y17088286D01*
X39118857Y17774000D02*
X39061714Y17659715D01*
X39004571Y17602572D01*
X38890285Y17545429D01*
X38547428Y17545429D01*
X38433142Y17602572D01*
X38376000Y17659715D01*
X38318857Y17774000D01*
X38318857Y17945429D01*
X38376000Y18059715D01*
X38433142Y18116858D01*
X38547428Y18174000D01*
X38890285Y18174000D01*
X39004571Y18116858D01*
X39061714Y18059715D01*
X39118857Y17945429D01*
X39118857Y17774000D01*
X38318857Y18688286D02*
X39118857Y18688286D01*
X38433142Y18688286D02*
X38376000Y18745429D01*
X38318857Y18859715D01*
X38318857Y19031143D01*
X38376000Y19145429D01*
X38490285Y19202572D01*
X39118857Y19202572D01*
X38318857Y19602572D02*
X38318857Y20059715D01*
X37918857Y19774000D02*
X38947428Y19774000D01*
X39061714Y19831143D01*
X39118857Y19945429D01*
X39118857Y20059715D01*
X39118857Y20459715D02*
X38318857Y20459715D01*
X38547428Y20459715D02*
X38433142Y20516858D01*
X38376000Y20574000D01*
X38318857Y20688286D01*
X38318857Y20802572D01*
X39118857Y21374000D02*
X39061714Y21259715D01*
X39004571Y21202572D01*
X38890285Y21145429D01*
X38547428Y21145429D01*
X38433142Y21202572D01*
X38376000Y21259715D01*
X38318857Y21374000D01*
X38318857Y21545429D01*
X38376000Y21659715D01*
X38433142Y21716858D01*
X38547428Y21774000D01*
X38890285Y21774000D01*
X39004571Y21716858D01*
X39061714Y21659715D01*
X39118857Y21545429D01*
X39118857Y21374000D01*
X39118857Y22459715D02*
X39061714Y22345429D01*
X38947428Y22288286D01*
X37918857Y22288286D01*
X39118857Y23088286D02*
X39061714Y22974000D01*
X38947428Y22916858D01*
X37918857Y22916858D01*
X39061714Y24002572D02*
X39118857Y23888286D01*
X39118857Y23659715D01*
X39061714Y23545429D01*
X38947428Y23488286D01*
X38490285Y23488286D01*
X38376000Y23545429D01*
X38318857Y23659715D01*
X38318857Y23888286D01*
X38376000Y24002572D01*
X38490285Y24059715D01*
X38604571Y24059715D01*
X38718857Y23488286D01*
X39118857Y24574000D02*
X38318857Y24574000D01*
X38547428Y24574000D02*
X38433142Y24631143D01*
X38376000Y24688286D01*
X38318857Y24802572D01*
X38318857Y24916858D01*
D10*
X15633809Y50476096D02*
X15900476Y49676096D01*
X16167142Y50476096D01*
X16433809Y49676096D02*
X16433809Y50476096D01*
X16814761Y49676096D02*
X16814761Y50476096D01*
X17271904Y49676096D01*
X17271904Y50476096D01*
X14057619Y944572D02*
X14819523Y944572D01*
X14438571Y563620D02*
X14438571Y1325524D01*
X15248095Y611239D02*
X15390952Y563620D01*
X15629047Y563620D01*
X15724285Y611239D01*
X15771904Y658858D01*
X15819523Y754096D01*
X15819523Y849334D01*
X15771904Y944572D01*
X15724285Y992191D01*
X15629047Y1039810D01*
X15438571Y1087429D01*
X15343333Y1135048D01*
X15295714Y1182667D01*
X15248095Y1277905D01*
X15248095Y1373143D01*
X15295714Y1468381D01*
X15343333Y1516000D01*
X15438571Y1563620D01*
X15676666Y1563620D01*
X15819523Y1516000D01*
X16200476Y611239D02*
X16343333Y563620D01*
X16581428Y563620D01*
X16676666Y611239D01*
X16724285Y658858D01*
X16771904Y754096D01*
X16771904Y849334D01*
X16724285Y944572D01*
X16676666Y992191D01*
X16581428Y1039810D01*
X16390952Y1087429D01*
X16295714Y1135048D01*
X16248095Y1182667D01*
X16200476Y1277905D01*
X16200476Y1373143D01*
X16248095Y1468381D01*
X16295714Y1516000D01*
X16390952Y1563620D01*
X16629047Y1563620D01*
X16771904Y1516000D01*
X17771904Y563620D02*
X17438571Y1039810D01*
X17200476Y563620D02*
X17200476Y1563620D01*
X17581428Y1563620D01*
X17676666Y1516000D01*
X17724285Y1468381D01*
X17771904Y1373143D01*
X17771904Y1230286D01*
X17724285Y1135048D01*
X17676666Y1087429D01*
X17581428Y1039810D01*
X17200476Y1039810D01*
X18200476Y944572D02*
X18962380Y944572D01*
D11*
X30734000Y1778000D02*
X32766000Y1778000D01*
D10*
X31630952Y2150620D02*
X31154761Y2150620D01*
X31154761Y3150620D01*
X32297619Y2674429D02*
X31964285Y2674429D01*
X31964285Y2150620D02*
X31964285Y3150620D01*
X32440476Y3150620D01*
X30988095Y500620D02*
X30988095Y1500620D01*
X31369047Y1500620D01*
X31464285Y1453000D01*
X31511904Y1405381D01*
X31559523Y1310143D01*
X31559523Y1167286D01*
X31511904Y1072048D01*
X31464285Y1024429D01*
X31369047Y976810D01*
X30988095Y976810D01*
X32321428Y1024429D02*
X32464285Y976810D01*
X32511904Y929191D01*
X32559523Y833953D01*
X32559523Y691096D01*
X32511904Y595858D01*
X32464285Y548239D01*
X32369047Y500620D01*
X31988095Y500620D01*
X31988095Y1500620D01*
X32321428Y1500620D01*
X32416666Y1453000D01*
X32464285Y1405381D01*
X32511904Y1310143D01*
X32511904Y1214905D01*
X32464285Y1119667D01*
X32416666Y1072048D01*
X32321428Y1024429D01*
X31988095Y1024429D01*
X20145904Y611239D02*
X20288761Y563620D01*
X20526857Y563620D01*
X20622095Y611239D01*
X20669714Y658858D01*
X20717333Y754096D01*
X20717333Y849334D01*
X20669714Y944572D01*
X20622095Y992191D01*
X20526857Y1039810D01*
X20336380Y1087429D01*
X20241142Y1135048D01*
X20193523Y1182667D01*
X20145904Y1277905D01*
X20145904Y1373143D01*
X20193523Y1468381D01*
X20241142Y1516000D01*
X20336380Y1563620D01*
X20574476Y1563620D01*
X20717333Y1516000D01*
X21003047Y1563620D02*
X21574476Y1563620D01*
X21288761Y563620D02*
X21288761Y1563620D01*
X21860190Y849334D02*
X22336380Y849334D01*
X21764952Y563620D02*
X22098285Y1563620D01*
X22431619Y563620D01*
X23336380Y563620D02*
X23003047Y1039810D01*
X22764952Y563620D02*
X22764952Y1563620D01*
X23145904Y1563620D01*
X23241142Y1516000D01*
X23288761Y1468381D01*
X23336380Y1373143D01*
X23336380Y1230286D01*
X23288761Y1135048D01*
X23241142Y1087429D01*
X23145904Y1039810D01*
X22764952Y1039810D01*
X23622095Y1563620D02*
X24193523Y1563620D01*
X23907809Y563620D02*
X23907809Y1563620D01*
X25241142Y611239D02*
X25384000Y563620D01*
X25622095Y563620D01*
X25717333Y611239D01*
X25764952Y658858D01*
X25812571Y754096D01*
X25812571Y849334D01*
X25764952Y944572D01*
X25717333Y992191D01*
X25622095Y1039810D01*
X25431619Y1087429D01*
X25336380Y1135048D01*
X25288761Y1182667D01*
X25241142Y1277905D01*
X25241142Y1373143D01*
X25288761Y1468381D01*
X25336380Y1516000D01*
X25431619Y1563620D01*
X25669714Y1563620D01*
X25812571Y1516000D01*
X26098285Y1563620D02*
X26669714Y1563620D01*
X26384000Y563620D02*
X26384000Y1563620D01*
X27193523Y1563620D02*
X27384000Y1563620D01*
X27479238Y1516000D01*
X27574476Y1420762D01*
X27622095Y1230286D01*
X27622095Y896953D01*
X27574476Y706477D01*
X27479238Y611239D01*
X27384000Y563620D01*
X27193523Y563620D01*
X27098285Y611239D01*
X27003047Y706477D01*
X26955428Y896953D01*
X26955428Y1230286D01*
X27003047Y1420762D01*
X27098285Y1516000D01*
X27193523Y1563620D01*
X28050666Y563620D02*
X28050666Y1563620D01*
X28431619Y1563620D01*
X28526857Y1516000D01*
X28574476Y1468381D01*
X28622095Y1373143D01*
X28622095Y1230286D01*
X28574476Y1135048D01*
X28526857Y1087429D01*
X28431619Y1039810D01*
X28050666Y1039810D01*
X18516666Y49676096D02*
X18250000Y50057048D01*
X18059523Y49676096D02*
X18059523Y50476096D01*
X18364285Y50476096D01*
X18440476Y50438000D01*
X18478571Y50399905D01*
X18516666Y50323715D01*
X18516666Y50209429D01*
X18478571Y50133239D01*
X18440476Y50095143D01*
X18364285Y50057048D01*
X18059523Y50057048D01*
X18783333Y50476096D02*
X19316666Y49676096D01*
X19316666Y50476096D02*
X18783333Y49676096D01*
X19621428Y49676096D02*
X19621428Y50476096D01*
X19811904Y50476096D01*
X19926190Y50438000D01*
X20002380Y50361810D01*
X20040476Y50285620D01*
X20078571Y50133239D01*
X20078571Y50018953D01*
X20040476Y49866572D01*
X20002380Y49790381D01*
X19926190Y49714191D01*
X19811904Y49676096D01*
X19621428Y49676096D01*
X20580476Y50476096D02*
X21037619Y50476096D01*
X20809047Y49676096D02*
X20809047Y50476096D01*
X21228095Y50476096D02*
X21761428Y49676096D01*
X21761428Y50476096D02*
X21228095Y49676096D01*
X22066190Y49676096D02*
X22066190Y50476096D01*
X22256666Y50476096D01*
X22370952Y50438000D01*
X22447142Y50361810D01*
X22485238Y50285620D01*
X22523333Y50133239D01*
X22523333Y50018953D01*
X22485238Y49866572D01*
X22447142Y49790381D01*
X22370952Y49714191D01*
X22256666Y49676096D01*
X22066190Y49676096D01*
X10820476Y50438000D02*
X10744285Y50476096D01*
X10630000Y50476096D01*
X10515714Y50438000D01*
X10439523Y50361810D01*
X10401428Y50285620D01*
X10363333Y50133239D01*
X10363333Y50018953D01*
X10401428Y49866572D01*
X10439523Y49790381D01*
X10515714Y49714191D01*
X10630000Y49676096D01*
X10706190Y49676096D01*
X10820476Y49714191D01*
X10858571Y49752286D01*
X10858571Y50018953D01*
X10706190Y50018953D01*
X11201428Y49676096D02*
X11201428Y50476096D01*
X11658571Y49676096D01*
X11658571Y50476096D01*
X12039523Y49676096D02*
X12039523Y50476096D01*
X12230000Y50476096D01*
X12344285Y50438000D01*
X12420476Y50361810D01*
X12458571Y50285620D01*
X12496666Y50133239D01*
X12496666Y50018953D01*
X12458571Y49866572D01*
X12420476Y49790381D01*
X12344285Y49714191D01*
X12230000Y49676096D01*
X12039523Y49676096D01*
X7517047Y944572D02*
X8278952Y944572D01*
X8612285Y1563620D02*
X9183714Y1563620D01*
X8898000Y563620D02*
X8898000Y1563620D01*
X10088476Y658858D02*
X10040857Y611239D01*
X9898000Y563620D01*
X9802761Y563620D01*
X9659904Y611239D01*
X9564666Y706477D01*
X9517047Y801715D01*
X9469428Y992191D01*
X9469428Y1135048D01*
X9517047Y1325524D01*
X9564666Y1420762D01*
X9659904Y1516000D01*
X9802761Y1563620D01*
X9898000Y1563620D01*
X10040857Y1516000D01*
X10088476Y1468381D01*
X10517047Y944572D02*
X11278952Y944572D01*
X10898000Y563620D02*
X10898000Y1325524D01*
X23215714Y49676096D02*
X23215714Y50476096D01*
X23406190Y50476096D01*
X23520476Y50438000D01*
X23596666Y50361810D01*
X23634761Y50285620D01*
X23672857Y50133239D01*
X23672857Y50018953D01*
X23634761Y49866572D01*
X23596666Y49790381D01*
X23520476Y49714191D01*
X23406190Y49676096D01*
X23215714Y49676096D01*
X23901428Y50476096D02*
X24358571Y50476096D01*
X24130000Y49676096D02*
X24130000Y50476096D01*
X25082380Y49676096D02*
X24815714Y50057048D01*
X24625238Y49676096D02*
X24625238Y50476096D01*
X24930000Y50476096D01*
X25006190Y50438000D01*
X25044285Y50399905D01*
X25082380Y50323715D01*
X25082380Y50209429D01*
X25044285Y50133239D01*
X25006190Y50095143D01*
X24930000Y50057048D01*
X24625238Y50057048D01*
X33028000Y24042000D02*
X34028000Y24042000D01*
X34028000Y25742000D02*
X33028000Y25742000D01*
X31912000Y28352000D02*
X31912000Y29052000D01*
X33112000Y29052000D02*
X33112000Y28352000D01*
D12*
X34038711Y28988000D02*
G75*
G03X34038711Y28988000I-70711J0D01*
G01*
D10*
X36576000Y34534000D02*
X35026000Y34534000D01*
X35026000Y34534000D02*
X35026000Y33984000D01*
X36576000Y26934000D02*
X35026000Y26934000D01*
X35026000Y26934000D02*
X35026000Y27484000D01*
X38776000Y34534000D02*
X39876000Y34534000D01*
X39876000Y26934000D02*
X38776000Y26934000D01*
X39876000Y26934000D02*
X39876000Y34534000D01*
X12700000Y47371000D02*
X12700000Y48641000D01*
X15240000Y47371000D02*
X15240000Y48641000D01*
X17780000Y47371000D02*
X17780000Y48641000D01*
X20320000Y47371000D02*
X20320000Y48641000D01*
X22860000Y47371000D02*
X22860000Y48641000D01*
X25400000Y47371000D02*
X25400000Y48641000D01*
X25400000Y48641000D02*
X24765000Y49276000D01*
X24765000Y46736000D02*
X25400000Y47371000D01*
X24765000Y49276000D02*
X23495000Y49276000D01*
X23495000Y49276000D02*
X22860000Y48641000D01*
X22860000Y48641000D02*
X22225000Y49276000D01*
X22225000Y49276000D02*
X20955000Y49276000D01*
X20955000Y49276000D02*
X20320000Y48641000D01*
X20320000Y48641000D02*
X19685000Y49276000D01*
X19685000Y49276000D02*
X18415000Y49276000D01*
X18415000Y49276000D02*
X17780000Y48641000D01*
X17780000Y48641000D02*
X17145000Y49276000D01*
X17145000Y49276000D02*
X15875000Y49276000D01*
X15875000Y49276000D02*
X15240000Y48641000D01*
X15240000Y48641000D02*
X14605000Y49276000D01*
X14605000Y49276000D02*
X13335000Y49276000D01*
X13335000Y49276000D02*
X12700000Y48641000D01*
X12700000Y48641000D02*
X12065000Y49276000D01*
X12065000Y49276000D02*
X10795000Y49276000D01*
X10795000Y49276000D02*
X10160000Y48641000D01*
X10160000Y48641000D02*
X10160000Y47371000D01*
X10160000Y47371000D02*
X10795000Y46736000D01*
X10795000Y46736000D02*
X12065000Y46736000D01*
X12065000Y46736000D02*
X12700000Y47371000D01*
X12700000Y47371000D02*
X13335000Y46736000D01*
X13335000Y46736000D02*
X14605000Y46736000D01*
X14605000Y46736000D02*
X15240000Y47371000D01*
X15240000Y47371000D02*
X15875000Y46736000D01*
X15875000Y46736000D02*
X17145000Y46736000D01*
X17145000Y46736000D02*
X17780000Y47371000D01*
X17780000Y47371000D02*
X18415000Y46736000D01*
X18415000Y46736000D02*
X19685000Y46736000D01*
X19685000Y46736000D02*
X20320000Y47371000D01*
X20320000Y47371000D02*
X20955000Y46736000D01*
X20955000Y46736000D02*
X22225000Y46736000D01*
X22225000Y46736000D02*
X22860000Y47371000D01*
X22860000Y47371000D02*
X23495000Y46736000D01*
X23495000Y46736000D02*
X24765000Y46736000D01*
X0Y44650000D02*
X11820000Y44650000D01*
X40000000Y44650000D02*
X40000000Y14550000D01*
X0Y44650000D02*
X0Y14550000D01*
X-50000Y14550000D02*
X40050000Y14550000D01*
X-50000Y11400000D02*
G75*
G03X4050000Y11400000I2050000J0D01*
G01*
X-50000Y14550000D02*
X-50000Y11450000D01*
X40050000Y14550000D02*
X40050000Y11450000D01*
X35950000Y11450000D02*
G75*
G03X40050000Y11450000I2050000J0D01*
G01*
X4050000Y14500000D02*
X4050000Y11400000D01*
X35950000Y14550000D02*
X35950000Y11450000D01*
X11250000Y39475000D02*
X11885000Y38840000D01*
X11250000Y43285000D02*
X11250000Y39475000D01*
X13790000Y39475000D02*
X13155000Y38840000D01*
X13790000Y39475000D02*
X14425000Y38840000D01*
X16330000Y39475000D02*
X15695000Y38840000D01*
X16330000Y39475000D02*
X16965000Y38840000D01*
X11885000Y43920000D02*
X11250000Y43285000D01*
X13155000Y43920000D02*
X13790000Y43285000D01*
X13790000Y43285000D02*
X14425000Y43920000D01*
X15695000Y43920000D02*
X16330000Y43285000D01*
X18235000Y38840000D02*
X18870000Y39475000D01*
X19505000Y38840000D02*
X18870000Y39475000D01*
X21410000Y39475000D02*
X20775000Y38840000D01*
X25855000Y38840000D02*
X26490000Y39475000D01*
X21410000Y39475000D02*
X22045000Y38840000D01*
X23950000Y39475000D02*
X24585000Y38840000D01*
X23950000Y39475000D02*
X23315000Y38840000D01*
X27125000Y38840000D02*
X26490000Y39475000D01*
X29030000Y39475000D02*
X28395000Y38840000D01*
X16965000Y43920000D02*
X16330000Y43285000D01*
X20775000Y43920000D02*
X21410000Y43285000D01*
X18870000Y43285000D02*
X19505000Y43920000D01*
X18235000Y43920000D02*
X18870000Y43285000D01*
X22045000Y43920000D02*
X21410000Y43285000D01*
X25855000Y43920000D02*
X26490000Y43285000D01*
X23950000Y43285000D02*
X24585000Y43920000D01*
X23315000Y43920000D02*
X23950000Y43285000D01*
X27125000Y43920000D02*
X26490000Y43285000D01*
X30935000Y43920000D02*
X31570000Y43285000D01*
X29030000Y43285000D02*
X29665000Y43920000D01*
X28395000Y43920000D02*
X29030000Y43285000D01*
X31570000Y39475000D02*
X31570000Y43285000D01*
X29030000Y39475000D02*
X29665000Y38840000D01*
X31570000Y39475000D02*
X30935000Y38840000D01*
D12*
X11491000Y38684000D02*
G75*
G03X11491000Y38684000I-127000J0D01*
G01*
D10*
X40000000Y44650000D02*
X31000000Y44650000D01*
X13220000Y44650000D02*
X14360000Y44650000D01*
X15760000Y44650000D02*
X16900000Y44650000D01*
X18300000Y44650000D02*
X19440000Y44650000D01*
X20840000Y44650000D02*
X21980000Y44650000D01*
X23380000Y44650000D02*
X24520000Y44650000D01*
X25920000Y44650000D02*
X27060000Y44650000D01*
X28460000Y44650000D02*
X29600000Y44650000D01*
X15339000Y3810000D02*
X13815000Y3810000D01*
X15339000Y2794000D02*
X15339000Y3810000D01*
X19855000Y9750000D02*
X12855000Y9750000D01*
X19855000Y2750000D02*
X19855000Y9750000D01*
X12855000Y2750000D02*
X19855000Y2750000D01*
X12855000Y9750000D02*
X12855000Y2750000D01*
X16355000Y2750000D02*
X16355000Y9750000D01*
X13815000Y2794000D02*
X13815000Y3810000D01*
X15085000Y2794000D02*
X15085000Y3810000D01*
X14831000Y2794000D02*
X14831000Y3810000D01*
X14577000Y2794000D02*
X14577000Y3810000D01*
X14323000Y2794000D02*
X14323000Y3810000D01*
X14069000Y2794000D02*
X14069000Y3810000D01*
X14196000Y2794000D02*
X14196000Y3810000D01*
X13942000Y2794000D02*
X13942000Y3810000D01*
X14450000Y2794000D02*
X14450000Y3810000D01*
X14704000Y2794000D02*
X14704000Y3810000D01*
X14958000Y2794000D02*
X14958000Y3810000D01*
X15212000Y2794000D02*
X15212000Y3810000D01*
X18895000Y2794000D02*
X18895000Y3810000D01*
X18895000Y3810000D02*
X17371000Y3810000D01*
X17371000Y2794000D02*
X17371000Y3810000D01*
X8354000Y3810000D02*
X6830000Y3810000D01*
X8354000Y2794000D02*
X8354000Y3810000D01*
X12870000Y9750000D02*
X5870000Y9750000D01*
X12870000Y2750000D02*
X12870000Y9750000D01*
X5870000Y2750000D02*
X12870000Y2750000D01*
X5870000Y9750000D02*
X5870000Y2750000D01*
X9370000Y2750000D02*
X9370000Y9750000D01*
X6830000Y2794000D02*
X6830000Y3810000D01*
X8100000Y2794000D02*
X8100000Y3810000D01*
X7846000Y2794000D02*
X7846000Y3810000D01*
X7592000Y2794000D02*
X7592000Y3810000D01*
X7338000Y2794000D02*
X7338000Y3810000D01*
X7084000Y2794000D02*
X7084000Y3810000D01*
X7211000Y2794000D02*
X7211000Y3810000D01*
X6957000Y2794000D02*
X6957000Y3810000D01*
X7465000Y2794000D02*
X7465000Y3810000D01*
X7719000Y2794000D02*
X7719000Y3810000D01*
X7973000Y2794000D02*
X7973000Y3810000D01*
X8227000Y2794000D02*
X8227000Y3810000D01*
X11910000Y2794000D02*
X11910000Y3810000D01*
X11910000Y3810000D02*
X10386000Y3810000D01*
X10386000Y2794000D02*
X10386000Y3810000D01*
X34254000Y50738000D02*
X34254000Y50588000D01*
X31204000Y48138000D02*
X32804000Y48138000D01*
X29754000Y50588000D02*
X29754000Y50738000D01*
X29754000Y50738000D02*
X34254000Y50738000D01*
X7166000Y45548000D02*
X7566000Y45548000D01*
X7112000Y47498000D02*
X7620000Y47498000D01*
X7366000Y47752000D02*
X7366000Y47244000D01*
X8866000Y49298000D02*
X8866000Y46598000D01*
X5866000Y49298000D02*
X5866000Y46598000D01*
X6366000Y49298000D02*
X5866000Y49298000D01*
X8866000Y49298000D02*
X8366000Y49298000D01*
X12708000Y29731000D02*
X12708000Y28181000D01*
X11858000Y28181000D02*
X14558000Y28181000D01*
X11858000Y29731000D02*
X14558000Y29731000D01*
X31896000Y21098000D02*
X32496000Y21098000D01*
X30496000Y23098000D02*
X30496000Y21098000D01*
X31746000Y23098000D02*
X31246000Y23098000D01*
X32496000Y21098000D02*
X32496000Y23098000D01*
X30496000Y21098000D02*
X31096000Y21098000D01*
X32464000Y20026000D02*
X26464000Y20026000D01*
X32464000Y20026000D02*
X32464000Y15026000D01*
X32464000Y15026000D02*
X26464000Y15026000D01*
X26464000Y15026000D02*
X26464000Y20026000D01*
X28750000Y4112000D02*
X28750000Y10112000D01*
X28750000Y4112000D02*
X34750000Y4112000D01*
X34750000Y10112000D02*
X28750000Y10112000D01*
X34750000Y10112000D02*
X34750000Y4112000D01*
X33500000Y7112000D02*
G75*
G03X33500000Y7112000I-1750000J0D01*
G01*
X21384000Y4112000D02*
X21384000Y10112000D01*
X21384000Y4112000D02*
X27384000Y4112000D01*
X27384000Y10112000D02*
X21384000Y10112000D01*
X27384000Y10112000D02*
X27384000Y4112000D01*
X26134000Y7112000D02*
G75*
G03X26134000Y7112000I-1750000J0D01*
G01*
X12300000Y33116000D02*
X13100000Y33116000D01*
X11200000Y33116000D02*
X11200000Y34516000D01*
X11200000Y34516000D02*
X12200000Y34516000D01*
X13300000Y34516000D02*
X14200000Y34516000D01*
X14200000Y33116000D02*
X14200000Y34516000D01*
X18434000Y13246000D02*
X17634000Y13246000D01*
X19534000Y13246000D02*
X19534000Y11846000D01*
X19534000Y11846000D02*
X18534000Y11846000D01*
X17434000Y11846000D02*
X16534000Y11846000D01*
X16534000Y13246000D02*
X16534000Y11846000D01*
X4088000Y28728000D02*
X788000Y28728000D01*
X788000Y38328000D02*
X788000Y28728000D01*
X4088000Y38328000D02*
X788000Y38328000D01*
X10388000Y28728000D02*
X7088000Y28728000D01*
X10388000Y28728000D02*
X10388000Y36328000D01*
X8388000Y38328000D02*
X7088000Y38328000D01*
X10388000Y36328000D02*
X8388000Y38328000D01*
X6858000Y33528000D02*
G75*
G03X6858000Y33528000I-1270000J0D01*
G01*
X17574000Y25860000D02*
X17574000Y25210000D01*
X21574000Y25210000D02*
X20924000Y25210000D01*
X17574000Y28560000D02*
X17574000Y29210000D01*
X21574000Y25210000D02*
X21574000Y25860000D01*
D12*
X22241000Y25559000D02*
G75*
G03X22241000Y25559000I-127000J0D01*
G01*
D10*
X21574000Y29210000D02*
X20924000Y29210000D01*
X21574000Y28560000D02*
X21574000Y29210000D01*
X18224000Y29210000D02*
X17574000Y29210000D01*
X18224000Y25210000D02*
X17574000Y25210000D01*
D12*
X7179000Y15921000D02*
G75*
G03X7179000Y15921000I-127000J0D01*
G01*
D10*
X7152000Y16896000D02*
X7152000Y20696000D01*
X7152000Y16896000D02*
X12152000Y16896000D01*
X7152000Y20696000D02*
X12152000Y20696000D01*
X12152000Y16896000D02*
X12152000Y20696000D01*
X13708000Y26249000D02*
X12708000Y26249000D01*
X12708000Y27599000D02*
X13708000Y27599000D01*
X13200000Y30313000D02*
X12200000Y30313000D01*
X12200000Y31663000D02*
X13200000Y31663000D01*
X28964000Y14137000D02*
X29964000Y14137000D01*
X29964000Y12787000D02*
X28964000Y12787000D01*
X26170000Y14137000D02*
X27170000Y14137000D01*
X27170000Y12787000D02*
X26170000Y12787000D01*
X17534000Y16169000D02*
X18534000Y16169000D01*
X18534000Y14819000D02*
X17534000Y14819000D01*
X10501000Y10930000D02*
X10501000Y11930000D01*
X11851000Y11930000D02*
X11851000Y10930000D01*
X6945000Y10930000D02*
X6945000Y11930000D01*
X8295000Y11930000D02*
X8295000Y10930000D01*
X1786000Y8295000D02*
X2786000Y8295000D01*
X2786000Y6945000D02*
X1786000Y6945000D01*
X15248000Y22519000D02*
X16248000Y22519000D01*
X16248000Y21169000D02*
X15248000Y21169000D01*
X18804000Y32932000D02*
X19804000Y32932000D01*
X19804000Y34632000D02*
X18804000Y34632000D01*
X16217000Y16264000D02*
X16217000Y17264000D01*
X14517000Y17264000D02*
X14517000Y16264000D01*
X25746000Y17876000D02*
X25746000Y17176000D01*
X24546000Y17176000D02*
X24546000Y17876000D01*
X19654000Y31150000D02*
X18954000Y31150000D01*
X18954000Y32350000D02*
X19654000Y32350000D01*
X12862000Y20732000D02*
X12862000Y21432000D01*
X14062000Y21432000D02*
X14062000Y20732000D01*
X12862000Y16414000D02*
X12862000Y17114000D01*
X14062000Y17114000D02*
X14062000Y16414000D01*
X9748000Y13116000D02*
X9048000Y13116000D01*
X9048000Y14316000D02*
X9748000Y14316000D01*
X12796000Y13116000D02*
X12096000Y13116000D01*
X12096000Y14316000D02*
X12796000Y14316000D01*
X6000000Y14316000D02*
X6700000Y14316000D01*
X6700000Y13116000D02*
X6000000Y13116000D01*
X28352000Y21428000D02*
X29052000Y21428000D01*
X29052000Y20228000D02*
X28352000Y20228000D01*
X27782000Y47406000D02*
X27082000Y47406000D01*
X27082000Y48606000D02*
X27782000Y48606000D01*
D13*
G36*
X37968101Y7688365D02*
X38035173Y7665322D01*
X38093881Y7622607D01*
X38139633Y7561138D01*
X38143222Y7554191D01*
X38169137Y7486199D01*
X38173599Y7424028D01*
X38156527Y7359962D01*
X38140838Y7326612D01*
X38112901Y7281019D01*
X38080707Y7249481D01*
X38037788Y7223562D01*
X37967520Y7195794D01*
X37902593Y7190516D01*
X37837180Y7207404D01*
X37826841Y7211886D01*
X37765442Y7251680D01*
X37716904Y7306577D01*
X37684526Y7370798D01*
X37671607Y7438559D01*
X37674604Y7478709D01*
X37695476Y7545796D01*
X37733231Y7601539D01*
X37762634Y7630281D01*
X37827238Y7671763D01*
X37897258Y7690818D01*
X37968101Y7688365D01*
X37968101Y7688365D01*
G37*
X37968101Y7688365D02*
X38035173Y7665322D01*
X38093881Y7622607D01*
X38139633Y7561138D01*
X38143222Y7554191D01*
X38169137Y7486199D01*
X38173599Y7424028D01*
X38156527Y7359962D01*
X38140838Y7326612D01*
X38112901Y7281019D01*
X38080707Y7249481D01*
X38037788Y7223562D01*
X37967520Y7195794D01*
X37902593Y7190516D01*
X37837180Y7207404D01*
X37826841Y7211886D01*
X37765442Y7251680D01*
X37716904Y7306577D01*
X37684526Y7370798D01*
X37671607Y7438559D01*
X37674604Y7478709D01*
X37695476Y7545796D01*
X37733231Y7601539D01*
X37762634Y7630281D01*
X37827238Y7671763D01*
X37897258Y7690818D01*
X37968101Y7688365D01*
G36*
X39379394Y7306139D02*
X39378749Y7070189D01*
X39378114Y6858273D01*
X39377469Y6669026D01*
X39376792Y6501082D01*
X39376063Y6353074D01*
X39375259Y6223637D01*
X39374361Y6111406D01*
X39373346Y6015014D01*
X39372193Y5933095D01*
X39370882Y5864285D01*
X39369390Y5807217D01*
X39367698Y5760525D01*
X39365783Y5722843D01*
X39363624Y5692807D01*
X39361201Y5669049D01*
X39358492Y5650204D01*
X39355475Y5634907D01*
X39353308Y5626100D01*
X39298714Y5465129D01*
X39224735Y5318813D01*
X39132753Y5188437D01*
X39024149Y5075287D01*
X38900304Y4980646D01*
X38762600Y4905801D01*
X38612417Y4852034D01*
X38493700Y4826517D01*
X38462919Y4823730D01*
X38408743Y4821205D01*
X38333175Y4818974D01*
X38238220Y4817070D01*
X38125880Y4815527D01*
X37998160Y4814378D01*
X37857063Y4813657D01*
X37705380Y4813396D01*
X36999611Y4813300D01*
X36937093Y4908790D01*
X36980189Y4951691D01*
X37031590Y5017468D01*
X37065759Y5092223D01*
X37082658Y5171291D01*
X37082247Y5250002D01*
X37064486Y5323690D01*
X37029336Y5387686D01*
X36984274Y5432070D01*
X36954041Y5454350D01*
X36932449Y5470567D01*
X36928068Y5473991D01*
X36927096Y5489160D01*
X36935662Y5518802D01*
X36943664Y5538192D01*
X36962834Y5602990D01*
X36969359Y5677871D01*
X36963159Y5751956D01*
X36945661Y5811149D01*
X36920240Y5852497D01*
X36885637Y5892226D01*
X36875067Y5901682D01*
X36847013Y5926300D01*
X36840095Y5937250D01*
X37508768Y5937250D01*
X37512823Y5934733D01*
X37531285Y5948112D01*
X37561383Y5974569D01*
X37600349Y6011286D01*
X37645412Y6055447D01*
X37693805Y6104234D01*
X37742757Y6154829D01*
X37789500Y6204416D01*
X37831264Y6250176D01*
X37865280Y6289292D01*
X37888779Y6318947D01*
X37897657Y6332911D01*
X37928995Y6419424D01*
X37943152Y6510214D01*
X37938852Y6596084D01*
X37936130Y6609812D01*
X37926219Y6647914D01*
X37916926Y6673440D01*
X37911764Y6680117D01*
X37896502Y6673533D01*
X37870128Y6657451D01*
X37865050Y6654036D01*
X37835712Y6635987D01*
X37791897Y6611315D01*
X37741897Y6584653D01*
X37729335Y6578186D01*
X37631720Y6528332D01*
X37643610Y6486875D01*
X37656672Y6396392D01*
X37645585Y6304330D01*
X37611034Y6214452D01*
X37586768Y6173863D01*
X37548573Y6099024D01*
X37531050Y6036678D01*
X37522282Y5991774D01*
X37513608Y5954033D01*
X37508768Y5937250D01*
X36840095Y5937250D01*
X36835208Y5944984D01*
X36835935Y5967505D01*
X36841606Y5989683D01*
X36852663Y6053725D01*
X36853073Y6119997D01*
X36843033Y6177409D01*
X36838031Y6191205D01*
X36831748Y6208440D01*
X36831002Y6224176D01*
X36838008Y6242958D01*
X36854981Y6269329D01*
X36884136Y6307834D01*
X36912319Y6343605D01*
X36983711Y6434491D01*
X37044236Y6512969D01*
X37060161Y6534150D01*
X37604700Y6534150D01*
X37611050Y6527800D01*
X37617400Y6534150D01*
X37611050Y6540500D01*
X37604700Y6534150D01*
X37060161Y6534150D01*
X37092859Y6577637D01*
X37128543Y6627088D01*
X37150255Y6659919D01*
X37156960Y6674727D01*
X37156715Y6675218D01*
X37145566Y6669553D01*
X37117894Y6650841D01*
X37077179Y6621689D01*
X37026902Y6584701D01*
X36970542Y6542484D01*
X36911582Y6497645D01*
X36853500Y6452788D01*
X36799778Y6410520D01*
X36756214Y6375353D01*
X36727855Y6354131D01*
X36706262Y6347599D01*
X36679417Y6353352D01*
X36667314Y6357551D01*
X36590309Y6372892D01*
X36510190Y6367925D01*
X36471948Y6357538D01*
X36443663Y6348571D01*
X36424958Y6349641D01*
X36407044Y6364134D01*
X36384508Y6391234D01*
X36327364Y6443022D01*
X36256836Y6476374D01*
X36177980Y6490320D01*
X36095850Y6483893D01*
X36024113Y6460261D01*
X35961177Y6431148D01*
X35922513Y6488115D01*
X35869939Y6544470D01*
X35804049Y6582274D01*
X35729110Y6601304D01*
X35649391Y6601341D01*
X35569159Y6582162D01*
X35492679Y6543547D01*
X35452083Y6512477D01*
X35392947Y6460424D01*
X35346298Y6487098D01*
X35299650Y6513773D01*
X35299650Y7028605D01*
X36420384Y7028605D01*
X36423600Y7028825D01*
X36455343Y7035510D01*
X36498857Y7042164D01*
X36518850Y7044571D01*
X36579367Y7059208D01*
X36628778Y7088237D01*
X37096700Y7088237D01*
X37105340Y7071091D01*
X37128664Y7041309D01*
X37162772Y7003572D01*
X37191297Y6974618D01*
X37285894Y6881822D01*
X37377761Y6946337D01*
X37430220Y6980827D01*
X37464452Y6997651D01*
X37480598Y6996666D01*
X37478797Y6977727D01*
X37459191Y6940689D01*
X37428278Y6894369D01*
X37363040Y6801774D01*
X37461347Y6702887D01*
X37501280Y6663038D01*
X37534121Y6630870D01*
X37556089Y6610047D01*
X37563380Y6604000D01*
X37575561Y6609326D01*
X37605369Y6623670D01*
X37647766Y6644585D01*
X37679317Y6660356D01*
X37839455Y6754605D01*
X37984396Y6868114D01*
X38112488Y6998925D01*
X38222082Y7145080D01*
X38311526Y7304620D01*
X38379169Y7475585D01*
X38386515Y7499350D01*
X38401783Y7554455D01*
X38411952Y7603774D01*
X38418079Y7655575D01*
X38421222Y7718125D01*
X38422275Y7778750D01*
X38423850Y7943850D01*
X38307366Y7947489D01*
X38152257Y7939985D01*
X37996296Y7908878D01*
X37842432Y7855678D01*
X37693613Y7781899D01*
X37552787Y7689050D01*
X37422902Y7578642D01*
X37306908Y7452187D01*
X37284025Y7422992D01*
X37243188Y7366054D01*
X37202703Y7303815D01*
X37165252Y7241064D01*
X37133514Y7182592D01*
X37110172Y7133191D01*
X37097905Y7097650D01*
X37096700Y7088237D01*
X36628778Y7088237D01*
X36635401Y7092128D01*
X36637674Y7093857D01*
X36722472Y7144227D01*
X36813210Y7169904D01*
X36898416Y7172047D01*
X36942982Y7167395D01*
X36978887Y7162156D01*
X36995100Y7158435D01*
X37009407Y7162247D01*
X37027409Y7184909D01*
X37050993Y7228904D01*
X37055101Y7237438D01*
X37080439Y7287815D01*
X37106949Y7336105D01*
X37128126Y7370666D01*
X37147563Y7401621D01*
X37158957Y7424240D01*
X37160200Y7429164D01*
X37148856Y7437591D01*
X37119516Y7447762D01*
X37089160Y7455148D01*
X36997491Y7462182D01*
X36902657Y7447935D01*
X36813053Y7413741D01*
X36806338Y7410171D01*
X36780335Y7392488D01*
X36744102Y7363021D01*
X36700443Y7324565D01*
X36652163Y7279913D01*
X36602066Y7231861D01*
X36552957Y7183202D01*
X36507641Y7136730D01*
X36468920Y7095241D01*
X36439601Y7061527D01*
X36422488Y7038384D01*
X36420384Y7028605D01*
X35299650Y7028605D01*
X35299650Y7254212D01*
X35299672Y7410117D01*
X35299787Y7542830D01*
X35300070Y7654561D01*
X35300595Y7747519D01*
X35301436Y7823913D01*
X35302666Y7885951D01*
X35304360Y7935842D01*
X35306593Y7975795D01*
X35309437Y8008020D01*
X35312967Y8034724D01*
X35317257Y8058118D01*
X35322381Y8080409D01*
X35328096Y8102600D01*
X35382003Y8259213D01*
X35456989Y8402668D01*
X35551563Y8531465D01*
X35664235Y8644102D01*
X35793517Y8739077D01*
X35937917Y8814889D01*
X36087050Y8867599D01*
X36188650Y8895850D01*
X37786138Y8899738D01*
X39383626Y8903627D01*
X39379394Y7306139D01*
X39379394Y7306139D01*
G37*
X39379394Y7306139D02*
X39378749Y7070189D01*
X39378114Y6858273D01*
X39377469Y6669026D01*
X39376792Y6501082D01*
X39376063Y6353074D01*
X39375259Y6223637D01*
X39374361Y6111406D01*
X39373346Y6015014D01*
X39372193Y5933095D01*
X39370882Y5864285D01*
X39369390Y5807217D01*
X39367698Y5760525D01*
X39365783Y5722843D01*
X39363624Y5692807D01*
X39361201Y5669049D01*
X39358492Y5650204D01*
X39355475Y5634907D01*
X39353308Y5626100D01*
X39298714Y5465129D01*
X39224735Y5318813D01*
X39132753Y5188437D01*
X39024149Y5075287D01*
X38900304Y4980646D01*
X38762600Y4905801D01*
X38612417Y4852034D01*
X38493700Y4826517D01*
X38462919Y4823730D01*
X38408743Y4821205D01*
X38333175Y4818974D01*
X38238220Y4817070D01*
X38125880Y4815527D01*
X37998160Y4814378D01*
X37857063Y4813657D01*
X37705380Y4813396D01*
X36999611Y4813300D01*
X36937093Y4908790D01*
X36980189Y4951691D01*
X37031590Y5017468D01*
X37065759Y5092223D01*
X37082658Y5171291D01*
X37082247Y5250002D01*
X37064486Y5323690D01*
X37029336Y5387686D01*
X36984274Y5432070D01*
X36954041Y5454350D01*
X36932449Y5470567D01*
X36928068Y5473991D01*
X36927096Y5489160D01*
X36935662Y5518802D01*
X36943664Y5538192D01*
X36962834Y5602990D01*
X36969359Y5677871D01*
X36963159Y5751956D01*
X36945661Y5811149D01*
X36920240Y5852497D01*
X36885637Y5892226D01*
X36875067Y5901682D01*
X36847013Y5926300D01*
X36840095Y5937250D01*
X37508768Y5937250D01*
X37512823Y5934733D01*
X37531285Y5948112D01*
X37561383Y5974569D01*
X37600349Y6011286D01*
X37645412Y6055447D01*
X37693805Y6104234D01*
X37742757Y6154829D01*
X37789500Y6204416D01*
X37831264Y6250176D01*
X37865280Y6289292D01*
X37888779Y6318947D01*
X37897657Y6332911D01*
X37928995Y6419424D01*
X37943152Y6510214D01*
X37938852Y6596084D01*
X37936130Y6609812D01*
X37926219Y6647914D01*
X37916926Y6673440D01*
X37911764Y6680117D01*
X37896502Y6673533D01*
X37870128Y6657451D01*
X37865050Y6654036D01*
X37835712Y6635987D01*
X37791897Y6611315D01*
X37741897Y6584653D01*
X37729335Y6578186D01*
X37631720Y6528332D01*
X37643610Y6486875D01*
X37656672Y6396392D01*
X37645585Y6304330D01*
X37611034Y6214452D01*
X37586768Y6173863D01*
X37548573Y6099024D01*
X37531050Y6036678D01*
X37522282Y5991774D01*
X37513608Y5954033D01*
X37508768Y5937250D01*
X36840095Y5937250D01*
X36835208Y5944984D01*
X36835935Y5967505D01*
X36841606Y5989683D01*
X36852663Y6053725D01*
X36853073Y6119997D01*
X36843033Y6177409D01*
X36838031Y6191205D01*
X36831748Y6208440D01*
X36831002Y6224176D01*
X36838008Y6242958D01*
X36854981Y6269329D01*
X36884136Y6307834D01*
X36912319Y6343605D01*
X36983711Y6434491D01*
X37044236Y6512969D01*
X37060161Y6534150D01*
X37604700Y6534150D01*
X37611050Y6527800D01*
X37617400Y6534150D01*
X37611050Y6540500D01*
X37604700Y6534150D01*
X37060161Y6534150D01*
X37092859Y6577637D01*
X37128543Y6627088D01*
X37150255Y6659919D01*
X37156960Y6674727D01*
X37156715Y6675218D01*
X37145566Y6669553D01*
X37117894Y6650841D01*
X37077179Y6621689D01*
X37026902Y6584701D01*
X36970542Y6542484D01*
X36911582Y6497645D01*
X36853500Y6452788D01*
X36799778Y6410520D01*
X36756214Y6375353D01*
X36727855Y6354131D01*
X36706262Y6347599D01*
X36679417Y6353352D01*
X36667314Y6357551D01*
X36590309Y6372892D01*
X36510190Y6367925D01*
X36471948Y6357538D01*
X36443663Y6348571D01*
X36424958Y6349641D01*
X36407044Y6364134D01*
X36384508Y6391234D01*
X36327364Y6443022D01*
X36256836Y6476374D01*
X36177980Y6490320D01*
X36095850Y6483893D01*
X36024113Y6460261D01*
X35961177Y6431148D01*
X35922513Y6488115D01*
X35869939Y6544470D01*
X35804049Y6582274D01*
X35729110Y6601304D01*
X35649391Y6601341D01*
X35569159Y6582162D01*
X35492679Y6543547D01*
X35452083Y6512477D01*
X35392947Y6460424D01*
X35346298Y6487098D01*
X35299650Y6513773D01*
X35299650Y7028605D01*
X36420384Y7028605D01*
X36423600Y7028825D01*
X36455343Y7035510D01*
X36498857Y7042164D01*
X36518850Y7044571D01*
X36579367Y7059208D01*
X36628778Y7088237D01*
X37096700Y7088237D01*
X37105340Y7071091D01*
X37128664Y7041309D01*
X37162772Y7003572D01*
X37191297Y6974618D01*
X37285894Y6881822D01*
X37377761Y6946337D01*
X37430220Y6980827D01*
X37464452Y6997651D01*
X37480598Y6996666D01*
X37478797Y6977727D01*
X37459191Y6940689D01*
X37428278Y6894369D01*
X37363040Y6801774D01*
X37461347Y6702887D01*
X37501280Y6663038D01*
X37534121Y6630870D01*
X37556089Y6610047D01*
X37563380Y6604000D01*
X37575561Y6609326D01*
X37605369Y6623670D01*
X37647766Y6644585D01*
X37679317Y6660356D01*
X37839455Y6754605D01*
X37984396Y6868114D01*
X38112488Y6998925D01*
X38222082Y7145080D01*
X38311526Y7304620D01*
X38379169Y7475585D01*
X38386515Y7499350D01*
X38401783Y7554455D01*
X38411952Y7603774D01*
X38418079Y7655575D01*
X38421222Y7718125D01*
X38422275Y7778750D01*
X38423850Y7943850D01*
X38307366Y7947489D01*
X38152257Y7939985D01*
X37996296Y7908878D01*
X37842432Y7855678D01*
X37693613Y7781899D01*
X37552787Y7689050D01*
X37422902Y7578642D01*
X37306908Y7452187D01*
X37284025Y7422992D01*
X37243188Y7366054D01*
X37202703Y7303815D01*
X37165252Y7241064D01*
X37133514Y7182592D01*
X37110172Y7133191D01*
X37097905Y7097650D01*
X37096700Y7088237D01*
X36628778Y7088237D01*
X36635401Y7092128D01*
X36637674Y7093857D01*
X36722472Y7144227D01*
X36813210Y7169904D01*
X36898416Y7172047D01*
X36942982Y7167395D01*
X36978887Y7162156D01*
X36995100Y7158435D01*
X37009407Y7162247D01*
X37027409Y7184909D01*
X37050993Y7228904D01*
X37055101Y7237438D01*
X37080439Y7287815D01*
X37106949Y7336105D01*
X37128126Y7370666D01*
X37147563Y7401621D01*
X37158957Y7424240D01*
X37160200Y7429164D01*
X37148856Y7437591D01*
X37119516Y7447762D01*
X37089160Y7455148D01*
X36997491Y7462182D01*
X36902657Y7447935D01*
X36813053Y7413741D01*
X36806338Y7410171D01*
X36780335Y7392488D01*
X36744102Y7363021D01*
X36700443Y7324565D01*
X36652163Y7279913D01*
X36602066Y7231861D01*
X36552957Y7183202D01*
X36507641Y7136730D01*
X36468920Y7095241D01*
X36439601Y7061527D01*
X36422488Y7038384D01*
X36420384Y7028605D01*
X35299650Y7028605D01*
X35299650Y7254212D01*
X35299672Y7410117D01*
X35299787Y7542830D01*
X35300070Y7654561D01*
X35300595Y7747519D01*
X35301436Y7823913D01*
X35302666Y7885951D01*
X35304360Y7935842D01*
X35306593Y7975795D01*
X35309437Y8008020D01*
X35312967Y8034724D01*
X35317257Y8058118D01*
X35322381Y8080409D01*
X35328096Y8102600D01*
X35382003Y8259213D01*
X35456989Y8402668D01*
X35551563Y8531465D01*
X35664235Y8644102D01*
X35793517Y8739077D01*
X35937917Y8814889D01*
X36087050Y8867599D01*
X36188650Y8895850D01*
X37786138Y8899738D01*
X39383626Y8903627D01*
X39379394Y7306139D01*
D10*
X2286000Y6092000D02*
X2536000Y5842000D01*
X2286000Y5592000D02*
X2286000Y6092000D01*
X2536000Y5842000D02*
X2286000Y5592000D01*
X2536000Y5592000D02*
X2536000Y6092000D01*
X2486000Y5842000D02*
X2036000Y5842000D01*
X3386000Y5292000D02*
X1486000Y5292000D01*
X3386000Y6392000D02*
X1486000Y6392000D01*
%LPC*%
D14*
X34528000Y24892000D03*
X32528000Y24892000D03*
D15*
X32512000Y27952000D03*
X32512000Y29422000D03*
D16*
X35126000Y29434000D03*
X35126000Y30084000D03*
X35126000Y30734000D03*
X35126000Y31384000D03*
X35126000Y32034000D03*
D17*
X35051000Y28309000D03*
X35051000Y33159000D03*
D18*
X37701000Y27109000D03*
X37701000Y34359000D03*
D19*
X24130000Y48006000D03*
X21590000Y48006000D03*
X19050000Y48006000D03*
X16510000Y48006000D03*
X13970000Y48006000D03*
X11430000Y48006000D03*
X4318000Y26035000D03*
X1778000Y26035000D03*
X4318000Y23495000D03*
X1778000Y23495000D03*
X4318000Y20955000D03*
X1778000Y20955000D03*
D20*
X12520000Y44045000D03*
X12520000Y38715000D03*
X15060000Y38715000D03*
X15060000Y44045000D03*
X17600000Y38715000D03*
X17600000Y44045000D03*
X20140000Y38715000D03*
X20140000Y44045000D03*
X22680000Y38715000D03*
X22680000Y44045000D03*
X25220000Y38715000D03*
X25220000Y44045000D03*
X27760000Y38715000D03*
X27760000Y44045000D03*
X30300000Y38715000D03*
X30300000Y44045000D03*
D21*
X2150000Y41250000D03*
X37850000Y41250000D03*
X2000000Y11450000D03*
X38000000Y11450000D03*
D22*
X14605000Y6350000D03*
X18105000Y6350000D03*
X7620000Y6350000D03*
X11120000Y6350000D03*
D23*
X32854000Y49838000D03*
X31154000Y49838000D03*
D24*
X29704000Y49838000D03*
X34304000Y49838000D03*
D25*
X33679000Y48288000D03*
X30329000Y48288000D03*
D26*
X6366000Y45698000D03*
D27*
X7366000Y48948000D03*
D26*
X8366000Y45698000D03*
D28*
X11633000Y28956000D03*
X14783000Y28956000D03*
D29*
X32146000Y22898000D03*
X30846000Y22898000D03*
D30*
X31496000Y21848000D03*
D31*
X31496000Y21173000D03*
D32*
X27714000Y19026000D03*
D33*
X28214000Y17526000D03*
D32*
X27714000Y16026000D03*
D34*
X30564000Y17526000D03*
D35*
X29500000Y2912000D03*
X29500000Y11312000D03*
X34000000Y2912000D03*
X34000000Y11312000D03*
X22134000Y2912000D03*
X22134000Y11312000D03*
X26634000Y2912000D03*
X26634000Y11312000D03*
D36*
X12700000Y35066000D03*
X13650000Y32766000D03*
X11750000Y32766000D03*
X18034000Y11296000D03*
X17084000Y13596000D03*
X18984000Y13596000D03*
D37*
X5588000Y29528000D03*
X5588000Y37528000D03*
D38*
G36*
X20595565Y25728941D02*
X20616921Y25725773D01*
X20637864Y25720527D01*
X20658191Y25713253D01*
X20677708Y25704023D01*
X20696226Y25692923D01*
X20713568Y25680062D01*
X20729564Y25665563D01*
X20744063Y25649567D01*
X20756924Y25632225D01*
X20768024Y25613707D01*
X20777254Y25594190D01*
X20784528Y25573863D01*
X20789774Y25552920D01*
X20792942Y25531564D01*
X20794001Y25510000D01*
X20794001Y24910000D01*
X20792942Y24888436D01*
X20789774Y24867080D01*
X20784528Y24846137D01*
X20777254Y24825810D01*
X20768024Y24806293D01*
X20756924Y24787775D01*
X20744063Y24770433D01*
X20729564Y24754437D01*
X20713568Y24739938D01*
X20696226Y24727077D01*
X20677708Y24715977D01*
X20658191Y24706747D01*
X20637864Y24699473D01*
X20616921Y24694227D01*
X20595565Y24691059D01*
X20574001Y24690000D01*
X20573999Y24690000D01*
X20552435Y24691059D01*
X20531079Y24694227D01*
X20510136Y24699473D01*
X20489809Y24706747D01*
X20470292Y24715977D01*
X20451774Y24727077D01*
X20434432Y24739938D01*
X20418436Y24754437D01*
X20403937Y24770433D01*
X20391076Y24787775D01*
X20379976Y24806293D01*
X20370746Y24825810D01*
X20363472Y24846137D01*
X20358226Y24867080D01*
X20355058Y24888436D01*
X20353999Y24910000D01*
X20353999Y25510000D01*
X20355058Y25531564D01*
X20358226Y25552920D01*
X20363472Y25573863D01*
X20370746Y25594190D01*
X20379976Y25613707D01*
X20391076Y25632225D01*
X20403937Y25649567D01*
X20418436Y25665563D01*
X20434432Y25680062D01*
X20451774Y25692923D01*
X20470292Y25704023D01*
X20489809Y25713253D01*
X20510136Y25720527D01*
X20531079Y25725773D01*
X20552435Y25728941D01*
X20573999Y25730000D01*
X20574001Y25730000D01*
X20595565Y25728941D01*
X20595565Y25728941D01*
G37*
D39*
X20574000Y25210000D03*
D38*
G36*
X20095565Y25728941D02*
X20116921Y25725773D01*
X20137864Y25720527D01*
X20158191Y25713253D01*
X20177708Y25704023D01*
X20196226Y25692923D01*
X20213568Y25680062D01*
X20229564Y25665563D01*
X20244063Y25649567D01*
X20256924Y25632225D01*
X20268024Y25613707D01*
X20277254Y25594190D01*
X20284528Y25573863D01*
X20289774Y25552920D01*
X20292942Y25531564D01*
X20294001Y25510000D01*
X20294001Y24910000D01*
X20292942Y24888436D01*
X20289774Y24867080D01*
X20284528Y24846137D01*
X20277254Y24825810D01*
X20268024Y24806293D01*
X20256924Y24787775D01*
X20244063Y24770433D01*
X20229564Y24754437D01*
X20213568Y24739938D01*
X20196226Y24727077D01*
X20177708Y24715977D01*
X20158191Y24706747D01*
X20137864Y24699473D01*
X20116921Y24694227D01*
X20095565Y24691059D01*
X20074001Y24690000D01*
X20073999Y24690000D01*
X20052435Y24691059D01*
X20031079Y24694227D01*
X20010136Y24699473D01*
X19989809Y24706747D01*
X19970292Y24715977D01*
X19951774Y24727077D01*
X19934432Y24739938D01*
X19918436Y24754437D01*
X19903937Y24770433D01*
X19891076Y24787775D01*
X19879976Y24806293D01*
X19870746Y24825810D01*
X19863472Y24846137D01*
X19858226Y24867080D01*
X19855058Y24888436D01*
X19853999Y24910000D01*
X19853999Y25510000D01*
X19855058Y25531564D01*
X19858226Y25552920D01*
X19863472Y25573863D01*
X19870746Y25594190D01*
X19879976Y25613707D01*
X19891076Y25632225D01*
X19903937Y25649567D01*
X19918436Y25665563D01*
X19934432Y25680062D01*
X19951774Y25692923D01*
X19970292Y25704023D01*
X19989809Y25713253D01*
X20010136Y25720527D01*
X20031079Y25725773D01*
X20052435Y25728941D01*
X20073999Y25730000D01*
X20074001Y25730000D01*
X20095565Y25728941D01*
X20095565Y25728941D01*
G37*
D39*
X20074000Y25210000D03*
D38*
G36*
X19595565Y25728941D02*
X19616921Y25725773D01*
X19637864Y25720527D01*
X19658191Y25713253D01*
X19677708Y25704023D01*
X19696226Y25692923D01*
X19713568Y25680062D01*
X19729564Y25665563D01*
X19744063Y25649567D01*
X19756924Y25632225D01*
X19768024Y25613707D01*
X19777254Y25594190D01*
X19784528Y25573863D01*
X19789774Y25552920D01*
X19792942Y25531564D01*
X19794001Y25510000D01*
X19794001Y24910000D01*
X19792942Y24888436D01*
X19789774Y24867080D01*
X19784528Y24846137D01*
X19777254Y24825810D01*
X19768024Y24806293D01*
X19756924Y24787775D01*
X19744063Y24770433D01*
X19729564Y24754437D01*
X19713568Y24739938D01*
X19696226Y24727077D01*
X19677708Y24715977D01*
X19658191Y24706747D01*
X19637864Y24699473D01*
X19616921Y24694227D01*
X19595565Y24691059D01*
X19574001Y24690000D01*
X19573999Y24690000D01*
X19552435Y24691059D01*
X19531079Y24694227D01*
X19510136Y24699473D01*
X19489809Y24706747D01*
X19470292Y24715977D01*
X19451774Y24727077D01*
X19434432Y24739938D01*
X19418436Y24754437D01*
X19403937Y24770433D01*
X19391076Y24787775D01*
X19379976Y24806293D01*
X19370746Y24825810D01*
X19363472Y24846137D01*
X19358226Y24867080D01*
X19355058Y24888436D01*
X19353999Y24910000D01*
X19353999Y25510000D01*
X19355058Y25531564D01*
X19358226Y25552920D01*
X19363472Y25573863D01*
X19370746Y25594190D01*
X19379976Y25613707D01*
X19391076Y25632225D01*
X19403937Y25649567D01*
X19418436Y25665563D01*
X19434432Y25680062D01*
X19451774Y25692923D01*
X19470292Y25704023D01*
X19489809Y25713253D01*
X19510136Y25720527D01*
X19531079Y25725773D01*
X19552435Y25728941D01*
X19573999Y25730000D01*
X19574001Y25730000D01*
X19595565Y25728941D01*
X19595565Y25728941D01*
G37*
D39*
X19574000Y25210000D03*
D38*
G36*
X19095565Y25728941D02*
X19116921Y25725773D01*
X19137864Y25720527D01*
X19158191Y25713253D01*
X19177708Y25704023D01*
X19196226Y25692923D01*
X19213568Y25680062D01*
X19229564Y25665563D01*
X19244063Y25649567D01*
X19256924Y25632225D01*
X19268024Y25613707D01*
X19277254Y25594190D01*
X19284528Y25573863D01*
X19289774Y25552920D01*
X19292942Y25531564D01*
X19294001Y25510000D01*
X19294001Y24910000D01*
X19292942Y24888436D01*
X19289774Y24867080D01*
X19284528Y24846137D01*
X19277254Y24825810D01*
X19268024Y24806293D01*
X19256924Y24787775D01*
X19244063Y24770433D01*
X19229564Y24754437D01*
X19213568Y24739938D01*
X19196226Y24727077D01*
X19177708Y24715977D01*
X19158191Y24706747D01*
X19137864Y24699473D01*
X19116921Y24694227D01*
X19095565Y24691059D01*
X19074001Y24690000D01*
X19073999Y24690000D01*
X19052435Y24691059D01*
X19031079Y24694227D01*
X19010136Y24699473D01*
X18989809Y24706747D01*
X18970292Y24715977D01*
X18951774Y24727077D01*
X18934432Y24739938D01*
X18918436Y24754437D01*
X18903937Y24770433D01*
X18891076Y24787775D01*
X18879976Y24806293D01*
X18870746Y24825810D01*
X18863472Y24846137D01*
X18858226Y24867080D01*
X18855058Y24888436D01*
X18853999Y24910000D01*
X18853999Y25510000D01*
X18855058Y25531564D01*
X18858226Y25552920D01*
X18863472Y25573863D01*
X18870746Y25594190D01*
X18879976Y25613707D01*
X18891076Y25632225D01*
X18903937Y25649567D01*
X18918436Y25665563D01*
X18934432Y25680062D01*
X18951774Y25692923D01*
X18970292Y25704023D01*
X18989809Y25713253D01*
X19010136Y25720527D01*
X19031079Y25725773D01*
X19052435Y25728941D01*
X19073999Y25730000D01*
X19074001Y25730000D01*
X19095565Y25728941D01*
X19095565Y25728941D01*
G37*
D39*
X19074000Y25210000D03*
D38*
G36*
X18595565Y25728941D02*
X18616921Y25725773D01*
X18637864Y25720527D01*
X18658191Y25713253D01*
X18677708Y25704023D01*
X18696226Y25692923D01*
X18713568Y25680062D01*
X18729564Y25665563D01*
X18744063Y25649567D01*
X18756924Y25632225D01*
X18768024Y25613707D01*
X18777254Y25594190D01*
X18784528Y25573863D01*
X18789774Y25552920D01*
X18792942Y25531564D01*
X18794001Y25510000D01*
X18794001Y24910000D01*
X18792942Y24888436D01*
X18789774Y24867080D01*
X18784528Y24846137D01*
X18777254Y24825810D01*
X18768024Y24806293D01*
X18756924Y24787775D01*
X18744063Y24770433D01*
X18729564Y24754437D01*
X18713568Y24739938D01*
X18696226Y24727077D01*
X18677708Y24715977D01*
X18658191Y24706747D01*
X18637864Y24699473D01*
X18616921Y24694227D01*
X18595565Y24691059D01*
X18574001Y24690000D01*
X18573999Y24690000D01*
X18552435Y24691059D01*
X18531079Y24694227D01*
X18510136Y24699473D01*
X18489809Y24706747D01*
X18470292Y24715977D01*
X18451774Y24727077D01*
X18434432Y24739938D01*
X18418436Y24754437D01*
X18403937Y24770433D01*
X18391076Y24787775D01*
X18379976Y24806293D01*
X18370746Y24825810D01*
X18363472Y24846137D01*
X18358226Y24867080D01*
X18355058Y24888436D01*
X18353999Y24910000D01*
X18353999Y25510000D01*
X18355058Y25531564D01*
X18358226Y25552920D01*
X18363472Y25573863D01*
X18370746Y25594190D01*
X18379976Y25613707D01*
X18391076Y25632225D01*
X18403937Y25649567D01*
X18418436Y25665563D01*
X18434432Y25680062D01*
X18451774Y25692923D01*
X18470292Y25704023D01*
X18489809Y25713253D01*
X18510136Y25720527D01*
X18531079Y25725773D01*
X18552435Y25728941D01*
X18573999Y25730000D01*
X18574001Y25730000D01*
X18595565Y25728941D01*
X18595565Y25728941D01*
G37*
D39*
X18574000Y25210000D03*
D38*
G36*
X17895564Y26428942D02*
X17916920Y26425774D01*
X17937863Y26420528D01*
X17958190Y26413254D01*
X17977707Y26404024D01*
X17996225Y26392924D01*
X18013567Y26380063D01*
X18029563Y26365564D01*
X18044062Y26349568D01*
X18056923Y26332226D01*
X18068023Y26313708D01*
X18077253Y26294191D01*
X18084527Y26273864D01*
X18089773Y26252921D01*
X18092941Y26231565D01*
X18094000Y26210001D01*
X18094000Y26209999D01*
X18092941Y26188435D01*
X18089773Y26167079D01*
X18084527Y26146136D01*
X18077253Y26125809D01*
X18068023Y26106292D01*
X18056923Y26087774D01*
X18044062Y26070432D01*
X18029563Y26054436D01*
X18013567Y26039937D01*
X17996225Y26027076D01*
X17977707Y26015976D01*
X17958190Y26006746D01*
X17937863Y25999472D01*
X17916920Y25994226D01*
X17895564Y25991058D01*
X17874000Y25989999D01*
X17274000Y25989999D01*
X17252436Y25991058D01*
X17231080Y25994226D01*
X17210137Y25999472D01*
X17189810Y26006746D01*
X17170293Y26015976D01*
X17151775Y26027076D01*
X17134433Y26039937D01*
X17118437Y26054436D01*
X17103938Y26070432D01*
X17091077Y26087774D01*
X17079977Y26106292D01*
X17070747Y26125809D01*
X17063473Y26146136D01*
X17058227Y26167079D01*
X17055059Y26188435D01*
X17054000Y26209999D01*
X17054000Y26210001D01*
X17055059Y26231565D01*
X17058227Y26252921D01*
X17063473Y26273864D01*
X17070747Y26294191D01*
X17079977Y26313708D01*
X17091077Y26332226D01*
X17103938Y26349568D01*
X17118437Y26365564D01*
X17134433Y26380063D01*
X17151775Y26392924D01*
X17170293Y26404024D01*
X17189810Y26413254D01*
X17210137Y26420528D01*
X17231080Y26425774D01*
X17252436Y26428942D01*
X17274000Y26430001D01*
X17874000Y26430001D01*
X17895564Y26428942D01*
X17895564Y26428942D01*
G37*
D39*
X17574000Y26210000D03*
D38*
G36*
X17895564Y26928942D02*
X17916920Y26925774D01*
X17937863Y26920528D01*
X17958190Y26913254D01*
X17977707Y26904024D01*
X17996225Y26892924D01*
X18013567Y26880063D01*
X18029563Y26865564D01*
X18044062Y26849568D01*
X18056923Y26832226D01*
X18068023Y26813708D01*
X18077253Y26794191D01*
X18084527Y26773864D01*
X18089773Y26752921D01*
X18092941Y26731565D01*
X18094000Y26710001D01*
X18094000Y26709999D01*
X18092941Y26688435D01*
X18089773Y26667079D01*
X18084527Y26646136D01*
X18077253Y26625809D01*
X18068023Y26606292D01*
X18056923Y26587774D01*
X18044062Y26570432D01*
X18029563Y26554436D01*
X18013567Y26539937D01*
X17996225Y26527076D01*
X17977707Y26515976D01*
X17958190Y26506746D01*
X17937863Y26499472D01*
X17916920Y26494226D01*
X17895564Y26491058D01*
X17874000Y26489999D01*
X17274000Y26489999D01*
X17252436Y26491058D01*
X17231080Y26494226D01*
X17210137Y26499472D01*
X17189810Y26506746D01*
X17170293Y26515976D01*
X17151775Y26527076D01*
X17134433Y26539937D01*
X17118437Y26554436D01*
X17103938Y26570432D01*
X17091077Y26587774D01*
X17079977Y26606292D01*
X17070747Y26625809D01*
X17063473Y26646136D01*
X17058227Y26667079D01*
X17055059Y26688435D01*
X17054000Y26709999D01*
X17054000Y26710001D01*
X17055059Y26731565D01*
X17058227Y26752921D01*
X17063473Y26773864D01*
X17070747Y26794191D01*
X17079977Y26813708D01*
X17091077Y26832226D01*
X17103938Y26849568D01*
X17118437Y26865564D01*
X17134433Y26880063D01*
X17151775Y26892924D01*
X17170293Y26904024D01*
X17189810Y26913254D01*
X17210137Y26920528D01*
X17231080Y26925774D01*
X17252436Y26928942D01*
X17274000Y26930001D01*
X17874000Y26930001D01*
X17895564Y26928942D01*
X17895564Y26928942D01*
G37*
D39*
X17574000Y26710000D03*
D38*
G36*
X17895564Y27428942D02*
X17916920Y27425774D01*
X17937863Y27420528D01*
X17958190Y27413254D01*
X17977707Y27404024D01*
X17996225Y27392924D01*
X18013567Y27380063D01*
X18029563Y27365564D01*
X18044062Y27349568D01*
X18056923Y27332226D01*
X18068023Y27313708D01*
X18077253Y27294191D01*
X18084527Y27273864D01*
X18089773Y27252921D01*
X18092941Y27231565D01*
X18094000Y27210001D01*
X18094000Y27209999D01*
X18092941Y27188435D01*
X18089773Y27167079D01*
X18084527Y27146136D01*
X18077253Y27125809D01*
X18068023Y27106292D01*
X18056923Y27087774D01*
X18044062Y27070432D01*
X18029563Y27054436D01*
X18013567Y27039937D01*
X17996225Y27027076D01*
X17977707Y27015976D01*
X17958190Y27006746D01*
X17937863Y26999472D01*
X17916920Y26994226D01*
X17895564Y26991058D01*
X17874000Y26989999D01*
X17274000Y26989999D01*
X17252436Y26991058D01*
X17231080Y26994226D01*
X17210137Y26999472D01*
X17189810Y27006746D01*
X17170293Y27015976D01*
X17151775Y27027076D01*
X17134433Y27039937D01*
X17118437Y27054436D01*
X17103938Y27070432D01*
X17091077Y27087774D01*
X17079977Y27106292D01*
X17070747Y27125809D01*
X17063473Y27146136D01*
X17058227Y27167079D01*
X17055059Y27188435D01*
X17054000Y27209999D01*
X17054000Y27210001D01*
X17055059Y27231565D01*
X17058227Y27252921D01*
X17063473Y27273864D01*
X17070747Y27294191D01*
X17079977Y27313708D01*
X17091077Y27332226D01*
X17103938Y27349568D01*
X17118437Y27365564D01*
X17134433Y27380063D01*
X17151775Y27392924D01*
X17170293Y27404024D01*
X17189810Y27413254D01*
X17210137Y27420528D01*
X17231080Y27425774D01*
X17252436Y27428942D01*
X17274000Y27430001D01*
X17874000Y27430001D01*
X17895564Y27428942D01*
X17895564Y27428942D01*
G37*
D39*
X17574000Y27210000D03*
D38*
G36*
X17895564Y27928942D02*
X17916920Y27925774D01*
X17937863Y27920528D01*
X17958190Y27913254D01*
X17977707Y27904024D01*
X17996225Y27892924D01*
X18013567Y27880063D01*
X18029563Y27865564D01*
X18044062Y27849568D01*
X18056923Y27832226D01*
X18068023Y27813708D01*
X18077253Y27794191D01*
X18084527Y27773864D01*
X18089773Y27752921D01*
X18092941Y27731565D01*
X18094000Y27710001D01*
X18094000Y27709999D01*
X18092941Y27688435D01*
X18089773Y27667079D01*
X18084527Y27646136D01*
X18077253Y27625809D01*
X18068023Y27606292D01*
X18056923Y27587774D01*
X18044062Y27570432D01*
X18029563Y27554436D01*
X18013567Y27539937D01*
X17996225Y27527076D01*
X17977707Y27515976D01*
X17958190Y27506746D01*
X17937863Y27499472D01*
X17916920Y27494226D01*
X17895564Y27491058D01*
X17874000Y27489999D01*
X17274000Y27489999D01*
X17252436Y27491058D01*
X17231080Y27494226D01*
X17210137Y27499472D01*
X17189810Y27506746D01*
X17170293Y27515976D01*
X17151775Y27527076D01*
X17134433Y27539937D01*
X17118437Y27554436D01*
X17103938Y27570432D01*
X17091077Y27587774D01*
X17079977Y27606292D01*
X17070747Y27625809D01*
X17063473Y27646136D01*
X17058227Y27667079D01*
X17055059Y27688435D01*
X17054000Y27709999D01*
X17054000Y27710001D01*
X17055059Y27731565D01*
X17058227Y27752921D01*
X17063473Y27773864D01*
X17070747Y27794191D01*
X17079977Y27813708D01*
X17091077Y27832226D01*
X17103938Y27849568D01*
X17118437Y27865564D01*
X17134433Y27880063D01*
X17151775Y27892924D01*
X17170293Y27904024D01*
X17189810Y27913254D01*
X17210137Y27920528D01*
X17231080Y27925774D01*
X17252436Y27928942D01*
X17274000Y27930001D01*
X17874000Y27930001D01*
X17895564Y27928942D01*
X17895564Y27928942D01*
G37*
D39*
X17574000Y27710000D03*
D38*
G36*
X17895564Y28428942D02*
X17916920Y28425774D01*
X17937863Y28420528D01*
X17958190Y28413254D01*
X17977707Y28404024D01*
X17996225Y28392924D01*
X18013567Y28380063D01*
X18029563Y28365564D01*
X18044062Y28349568D01*
X18056923Y28332226D01*
X18068023Y28313708D01*
X18077253Y28294191D01*
X18084527Y28273864D01*
X18089773Y28252921D01*
X18092941Y28231565D01*
X18094000Y28210001D01*
X18094000Y28209999D01*
X18092941Y28188435D01*
X18089773Y28167079D01*
X18084527Y28146136D01*
X18077253Y28125809D01*
X18068023Y28106292D01*
X18056923Y28087774D01*
X18044062Y28070432D01*
X18029563Y28054436D01*
X18013567Y28039937D01*
X17996225Y28027076D01*
X17977707Y28015976D01*
X17958190Y28006746D01*
X17937863Y27999472D01*
X17916920Y27994226D01*
X17895564Y27991058D01*
X17874000Y27989999D01*
X17274000Y27989999D01*
X17252436Y27991058D01*
X17231080Y27994226D01*
X17210137Y27999472D01*
X17189810Y28006746D01*
X17170293Y28015976D01*
X17151775Y28027076D01*
X17134433Y28039937D01*
X17118437Y28054436D01*
X17103938Y28070432D01*
X17091077Y28087774D01*
X17079977Y28106292D01*
X17070747Y28125809D01*
X17063473Y28146136D01*
X17058227Y28167079D01*
X17055059Y28188435D01*
X17054000Y28209999D01*
X17054000Y28210001D01*
X17055059Y28231565D01*
X17058227Y28252921D01*
X17063473Y28273864D01*
X17070747Y28294191D01*
X17079977Y28313708D01*
X17091077Y28332226D01*
X17103938Y28349568D01*
X17118437Y28365564D01*
X17134433Y28380063D01*
X17151775Y28392924D01*
X17170293Y28404024D01*
X17189810Y28413254D01*
X17210137Y28420528D01*
X17231080Y28425774D01*
X17252436Y28428942D01*
X17274000Y28430001D01*
X17874000Y28430001D01*
X17895564Y28428942D01*
X17895564Y28428942D01*
G37*
D39*
X17574000Y28210000D03*
D38*
G36*
X18595565Y29728941D02*
X18616921Y29725773D01*
X18637864Y29720527D01*
X18658191Y29713253D01*
X18677708Y29704023D01*
X18696226Y29692923D01*
X18713568Y29680062D01*
X18729564Y29665563D01*
X18744063Y29649567D01*
X18756924Y29632225D01*
X18768024Y29613707D01*
X18777254Y29594190D01*
X18784528Y29573863D01*
X18789774Y29552920D01*
X18792942Y29531564D01*
X18794001Y29510000D01*
X18794001Y28910000D01*
X18792942Y28888436D01*
X18789774Y28867080D01*
X18784528Y28846137D01*
X18777254Y28825810D01*
X18768024Y28806293D01*
X18756924Y28787775D01*
X18744063Y28770433D01*
X18729564Y28754437D01*
X18713568Y28739938D01*
X18696226Y28727077D01*
X18677708Y28715977D01*
X18658191Y28706747D01*
X18637864Y28699473D01*
X18616921Y28694227D01*
X18595565Y28691059D01*
X18574001Y28690000D01*
X18573999Y28690000D01*
X18552435Y28691059D01*
X18531079Y28694227D01*
X18510136Y28699473D01*
X18489809Y28706747D01*
X18470292Y28715977D01*
X18451774Y28727077D01*
X18434432Y28739938D01*
X18418436Y28754437D01*
X18403937Y28770433D01*
X18391076Y28787775D01*
X18379976Y28806293D01*
X18370746Y28825810D01*
X18363472Y28846137D01*
X18358226Y28867080D01*
X18355058Y28888436D01*
X18353999Y28910000D01*
X18353999Y29510000D01*
X18355058Y29531564D01*
X18358226Y29552920D01*
X18363472Y29573863D01*
X18370746Y29594190D01*
X18379976Y29613707D01*
X18391076Y29632225D01*
X18403937Y29649567D01*
X18418436Y29665563D01*
X18434432Y29680062D01*
X18451774Y29692923D01*
X18470292Y29704023D01*
X18489809Y29713253D01*
X18510136Y29720527D01*
X18531079Y29725773D01*
X18552435Y29728941D01*
X18573999Y29730000D01*
X18574001Y29730000D01*
X18595565Y29728941D01*
X18595565Y29728941D01*
G37*
D39*
X18574000Y29210000D03*
D38*
G36*
X19095565Y29728941D02*
X19116921Y29725773D01*
X19137864Y29720527D01*
X19158191Y29713253D01*
X19177708Y29704023D01*
X19196226Y29692923D01*
X19213568Y29680062D01*
X19229564Y29665563D01*
X19244063Y29649567D01*
X19256924Y29632225D01*
X19268024Y29613707D01*
X19277254Y29594190D01*
X19284528Y29573863D01*
X19289774Y29552920D01*
X19292942Y29531564D01*
X19294001Y29510000D01*
X19294001Y28910000D01*
X19292942Y28888436D01*
X19289774Y28867080D01*
X19284528Y28846137D01*
X19277254Y28825810D01*
X19268024Y28806293D01*
X19256924Y28787775D01*
X19244063Y28770433D01*
X19229564Y28754437D01*
X19213568Y28739938D01*
X19196226Y28727077D01*
X19177708Y28715977D01*
X19158191Y28706747D01*
X19137864Y28699473D01*
X19116921Y28694227D01*
X19095565Y28691059D01*
X19074001Y28690000D01*
X19073999Y28690000D01*
X19052435Y28691059D01*
X19031079Y28694227D01*
X19010136Y28699473D01*
X18989809Y28706747D01*
X18970292Y28715977D01*
X18951774Y28727077D01*
X18934432Y28739938D01*
X18918436Y28754437D01*
X18903937Y28770433D01*
X18891076Y28787775D01*
X18879976Y28806293D01*
X18870746Y28825810D01*
X18863472Y28846137D01*
X18858226Y28867080D01*
X18855058Y28888436D01*
X18853999Y28910000D01*
X18853999Y29510000D01*
X18855058Y29531564D01*
X18858226Y29552920D01*
X18863472Y29573863D01*
X18870746Y29594190D01*
X18879976Y29613707D01*
X18891076Y29632225D01*
X18903937Y29649567D01*
X18918436Y29665563D01*
X18934432Y29680062D01*
X18951774Y29692923D01*
X18970292Y29704023D01*
X18989809Y29713253D01*
X19010136Y29720527D01*
X19031079Y29725773D01*
X19052435Y29728941D01*
X19073999Y29730000D01*
X19074001Y29730000D01*
X19095565Y29728941D01*
X19095565Y29728941D01*
G37*
D39*
X19074000Y29210000D03*
D38*
G36*
X19595565Y29728941D02*
X19616921Y29725773D01*
X19637864Y29720527D01*
X19658191Y29713253D01*
X19677708Y29704023D01*
X19696226Y29692923D01*
X19713568Y29680062D01*
X19729564Y29665563D01*
X19744063Y29649567D01*
X19756924Y29632225D01*
X19768024Y29613707D01*
X19777254Y29594190D01*
X19784528Y29573863D01*
X19789774Y29552920D01*
X19792942Y29531564D01*
X19794001Y29510000D01*
X19794001Y28910000D01*
X19792942Y28888436D01*
X19789774Y28867080D01*
X19784528Y28846137D01*
X19777254Y28825810D01*
X19768024Y28806293D01*
X19756924Y28787775D01*
X19744063Y28770433D01*
X19729564Y28754437D01*
X19713568Y28739938D01*
X19696226Y28727077D01*
X19677708Y28715977D01*
X19658191Y28706747D01*
X19637864Y28699473D01*
X19616921Y28694227D01*
X19595565Y28691059D01*
X19574001Y28690000D01*
X19573999Y28690000D01*
X19552435Y28691059D01*
X19531079Y28694227D01*
X19510136Y28699473D01*
X19489809Y28706747D01*
X19470292Y28715977D01*
X19451774Y28727077D01*
X19434432Y28739938D01*
X19418436Y28754437D01*
X19403937Y28770433D01*
X19391076Y28787775D01*
X19379976Y28806293D01*
X19370746Y28825810D01*
X19363472Y28846137D01*
X19358226Y28867080D01*
X19355058Y28888436D01*
X19353999Y28910000D01*
X19353999Y29510000D01*
X19355058Y29531564D01*
X19358226Y29552920D01*
X19363472Y29573863D01*
X19370746Y29594190D01*
X19379976Y29613707D01*
X19391076Y29632225D01*
X19403937Y29649567D01*
X19418436Y29665563D01*
X19434432Y29680062D01*
X19451774Y29692923D01*
X19470292Y29704023D01*
X19489809Y29713253D01*
X19510136Y29720527D01*
X19531079Y29725773D01*
X19552435Y29728941D01*
X19573999Y29730000D01*
X19574001Y29730000D01*
X19595565Y29728941D01*
X19595565Y29728941D01*
G37*
D39*
X19574000Y29210000D03*
D38*
G36*
X20095565Y29728941D02*
X20116921Y29725773D01*
X20137864Y29720527D01*
X20158191Y29713253D01*
X20177708Y29704023D01*
X20196226Y29692923D01*
X20213568Y29680062D01*
X20229564Y29665563D01*
X20244063Y29649567D01*
X20256924Y29632225D01*
X20268024Y29613707D01*
X20277254Y29594190D01*
X20284528Y29573863D01*
X20289774Y29552920D01*
X20292942Y29531564D01*
X20294001Y29510000D01*
X20294001Y28910000D01*
X20292942Y28888436D01*
X20289774Y28867080D01*
X20284528Y28846137D01*
X20277254Y28825810D01*
X20268024Y28806293D01*
X20256924Y28787775D01*
X20244063Y28770433D01*
X20229564Y28754437D01*
X20213568Y28739938D01*
X20196226Y28727077D01*
X20177708Y28715977D01*
X20158191Y28706747D01*
X20137864Y28699473D01*
X20116921Y28694227D01*
X20095565Y28691059D01*
X20074001Y28690000D01*
X20073999Y28690000D01*
X20052435Y28691059D01*
X20031079Y28694227D01*
X20010136Y28699473D01*
X19989809Y28706747D01*
X19970292Y28715977D01*
X19951774Y28727077D01*
X19934432Y28739938D01*
X19918436Y28754437D01*
X19903937Y28770433D01*
X19891076Y28787775D01*
X19879976Y28806293D01*
X19870746Y28825810D01*
X19863472Y28846137D01*
X19858226Y28867080D01*
X19855058Y28888436D01*
X19853999Y28910000D01*
X19853999Y29510000D01*
X19855058Y29531564D01*
X19858226Y29552920D01*
X19863472Y29573863D01*
X19870746Y29594190D01*
X19879976Y29613707D01*
X19891076Y29632225D01*
X19903937Y29649567D01*
X19918436Y29665563D01*
X19934432Y29680062D01*
X19951774Y29692923D01*
X19970292Y29704023D01*
X19989809Y29713253D01*
X20010136Y29720527D01*
X20031079Y29725773D01*
X20052435Y29728941D01*
X20073999Y29730000D01*
X20074001Y29730000D01*
X20095565Y29728941D01*
X20095565Y29728941D01*
G37*
D39*
X20074000Y29210000D03*
D38*
G36*
X20595565Y29728941D02*
X20616921Y29725773D01*
X20637864Y29720527D01*
X20658191Y29713253D01*
X20677708Y29704023D01*
X20696226Y29692923D01*
X20713568Y29680062D01*
X20729564Y29665563D01*
X20744063Y29649567D01*
X20756924Y29632225D01*
X20768024Y29613707D01*
X20777254Y29594190D01*
X20784528Y29573863D01*
X20789774Y29552920D01*
X20792942Y29531564D01*
X20794001Y29510000D01*
X20794001Y28910000D01*
X20792942Y28888436D01*
X20789774Y28867080D01*
X20784528Y28846137D01*
X20777254Y28825810D01*
X20768024Y28806293D01*
X20756924Y28787775D01*
X20744063Y28770433D01*
X20729564Y28754437D01*
X20713568Y28739938D01*
X20696226Y28727077D01*
X20677708Y28715977D01*
X20658191Y28706747D01*
X20637864Y28699473D01*
X20616921Y28694227D01*
X20595565Y28691059D01*
X20574001Y28690000D01*
X20573999Y28690000D01*
X20552435Y28691059D01*
X20531079Y28694227D01*
X20510136Y28699473D01*
X20489809Y28706747D01*
X20470292Y28715977D01*
X20451774Y28727077D01*
X20434432Y28739938D01*
X20418436Y28754437D01*
X20403937Y28770433D01*
X20391076Y28787775D01*
X20379976Y28806293D01*
X20370746Y28825810D01*
X20363472Y28846137D01*
X20358226Y28867080D01*
X20355058Y28888436D01*
X20353999Y28910000D01*
X20353999Y29510000D01*
X20355058Y29531564D01*
X20358226Y29552920D01*
X20363472Y29573863D01*
X20370746Y29594190D01*
X20379976Y29613707D01*
X20391076Y29632225D01*
X20403937Y29649567D01*
X20418436Y29665563D01*
X20434432Y29680062D01*
X20451774Y29692923D01*
X20470292Y29704023D01*
X20489809Y29713253D01*
X20510136Y29720527D01*
X20531079Y29725773D01*
X20552435Y29728941D01*
X20573999Y29730000D01*
X20574001Y29730000D01*
X20595565Y29728941D01*
X20595565Y29728941D01*
G37*
D39*
X20574000Y29210000D03*
D38*
G36*
X21895564Y28428942D02*
X21916920Y28425774D01*
X21937863Y28420528D01*
X21958190Y28413254D01*
X21977707Y28404024D01*
X21996225Y28392924D01*
X22013567Y28380063D01*
X22029563Y28365564D01*
X22044062Y28349568D01*
X22056923Y28332226D01*
X22068023Y28313708D01*
X22077253Y28294191D01*
X22084527Y28273864D01*
X22089773Y28252921D01*
X22092941Y28231565D01*
X22094000Y28210001D01*
X22094000Y28209999D01*
X22092941Y28188435D01*
X22089773Y28167079D01*
X22084527Y28146136D01*
X22077253Y28125809D01*
X22068023Y28106292D01*
X22056923Y28087774D01*
X22044062Y28070432D01*
X22029563Y28054436D01*
X22013567Y28039937D01*
X21996225Y28027076D01*
X21977707Y28015976D01*
X21958190Y28006746D01*
X21937863Y27999472D01*
X21916920Y27994226D01*
X21895564Y27991058D01*
X21874000Y27989999D01*
X21274000Y27989999D01*
X21252436Y27991058D01*
X21231080Y27994226D01*
X21210137Y27999472D01*
X21189810Y28006746D01*
X21170293Y28015976D01*
X21151775Y28027076D01*
X21134433Y28039937D01*
X21118437Y28054436D01*
X21103938Y28070432D01*
X21091077Y28087774D01*
X21079977Y28106292D01*
X21070747Y28125809D01*
X21063473Y28146136D01*
X21058227Y28167079D01*
X21055059Y28188435D01*
X21054000Y28209999D01*
X21054000Y28210001D01*
X21055059Y28231565D01*
X21058227Y28252921D01*
X21063473Y28273864D01*
X21070747Y28294191D01*
X21079977Y28313708D01*
X21091077Y28332226D01*
X21103938Y28349568D01*
X21118437Y28365564D01*
X21134433Y28380063D01*
X21151775Y28392924D01*
X21170293Y28404024D01*
X21189810Y28413254D01*
X21210137Y28420528D01*
X21231080Y28425774D01*
X21252436Y28428942D01*
X21274000Y28430001D01*
X21874000Y28430001D01*
X21895564Y28428942D01*
X21895564Y28428942D01*
G37*
D39*
X21574000Y28210000D03*
D38*
G36*
X21895564Y27928942D02*
X21916920Y27925774D01*
X21937863Y27920528D01*
X21958190Y27913254D01*
X21977707Y27904024D01*
X21996225Y27892924D01*
X22013567Y27880063D01*
X22029563Y27865564D01*
X22044062Y27849568D01*
X22056923Y27832226D01*
X22068023Y27813708D01*
X22077253Y27794191D01*
X22084527Y27773864D01*
X22089773Y27752921D01*
X22092941Y27731565D01*
X22094000Y27710001D01*
X22094000Y27709999D01*
X22092941Y27688435D01*
X22089773Y27667079D01*
X22084527Y27646136D01*
X22077253Y27625809D01*
X22068023Y27606292D01*
X22056923Y27587774D01*
X22044062Y27570432D01*
X22029563Y27554436D01*
X22013567Y27539937D01*
X21996225Y27527076D01*
X21977707Y27515976D01*
X21958190Y27506746D01*
X21937863Y27499472D01*
X21916920Y27494226D01*
X21895564Y27491058D01*
X21874000Y27489999D01*
X21274000Y27489999D01*
X21252436Y27491058D01*
X21231080Y27494226D01*
X21210137Y27499472D01*
X21189810Y27506746D01*
X21170293Y27515976D01*
X21151775Y27527076D01*
X21134433Y27539937D01*
X21118437Y27554436D01*
X21103938Y27570432D01*
X21091077Y27587774D01*
X21079977Y27606292D01*
X21070747Y27625809D01*
X21063473Y27646136D01*
X21058227Y27667079D01*
X21055059Y27688435D01*
X21054000Y27709999D01*
X21054000Y27710001D01*
X21055059Y27731565D01*
X21058227Y27752921D01*
X21063473Y27773864D01*
X21070747Y27794191D01*
X21079977Y27813708D01*
X21091077Y27832226D01*
X21103938Y27849568D01*
X21118437Y27865564D01*
X21134433Y27880063D01*
X21151775Y27892924D01*
X21170293Y27904024D01*
X21189810Y27913254D01*
X21210137Y27920528D01*
X21231080Y27925774D01*
X21252436Y27928942D01*
X21274000Y27930001D01*
X21874000Y27930001D01*
X21895564Y27928942D01*
X21895564Y27928942D01*
G37*
D39*
X21574000Y27710000D03*
D38*
G36*
X21895564Y27428942D02*
X21916920Y27425774D01*
X21937863Y27420528D01*
X21958190Y27413254D01*
X21977707Y27404024D01*
X21996225Y27392924D01*
X22013567Y27380063D01*
X22029563Y27365564D01*
X22044062Y27349568D01*
X22056923Y27332226D01*
X22068023Y27313708D01*
X22077253Y27294191D01*
X22084527Y27273864D01*
X22089773Y27252921D01*
X22092941Y27231565D01*
X22094000Y27210001D01*
X22094000Y27209999D01*
X22092941Y27188435D01*
X22089773Y27167079D01*
X22084527Y27146136D01*
X22077253Y27125809D01*
X22068023Y27106292D01*
X22056923Y27087774D01*
X22044062Y27070432D01*
X22029563Y27054436D01*
X22013567Y27039937D01*
X21996225Y27027076D01*
X21977707Y27015976D01*
X21958190Y27006746D01*
X21937863Y26999472D01*
X21916920Y26994226D01*
X21895564Y26991058D01*
X21874000Y26989999D01*
X21274000Y26989999D01*
X21252436Y26991058D01*
X21231080Y26994226D01*
X21210137Y26999472D01*
X21189810Y27006746D01*
X21170293Y27015976D01*
X21151775Y27027076D01*
X21134433Y27039937D01*
X21118437Y27054436D01*
X21103938Y27070432D01*
X21091077Y27087774D01*
X21079977Y27106292D01*
X21070747Y27125809D01*
X21063473Y27146136D01*
X21058227Y27167079D01*
X21055059Y27188435D01*
X21054000Y27209999D01*
X21054000Y27210001D01*
X21055059Y27231565D01*
X21058227Y27252921D01*
X21063473Y27273864D01*
X21070747Y27294191D01*
X21079977Y27313708D01*
X21091077Y27332226D01*
X21103938Y27349568D01*
X21118437Y27365564D01*
X21134433Y27380063D01*
X21151775Y27392924D01*
X21170293Y27404024D01*
X21189810Y27413254D01*
X21210137Y27420528D01*
X21231080Y27425774D01*
X21252436Y27428942D01*
X21274000Y27430001D01*
X21874000Y27430001D01*
X21895564Y27428942D01*
X21895564Y27428942D01*
G37*
D39*
X21574000Y27210000D03*
D38*
G36*
X21895564Y26928942D02*
X21916920Y26925774D01*
X21937863Y26920528D01*
X21958190Y26913254D01*
X21977707Y26904024D01*
X21996225Y26892924D01*
X22013567Y26880063D01*
X22029563Y26865564D01*
X22044062Y26849568D01*
X22056923Y26832226D01*
X22068023Y26813708D01*
X22077253Y26794191D01*
X22084527Y26773864D01*
X22089773Y26752921D01*
X22092941Y26731565D01*
X22094000Y26710001D01*
X22094000Y26709999D01*
X22092941Y26688435D01*
X22089773Y26667079D01*
X22084527Y26646136D01*
X22077253Y26625809D01*
X22068023Y26606292D01*
X22056923Y26587774D01*
X22044062Y26570432D01*
X22029563Y26554436D01*
X22013567Y26539937D01*
X21996225Y26527076D01*
X21977707Y26515976D01*
X21958190Y26506746D01*
X21937863Y26499472D01*
X21916920Y26494226D01*
X21895564Y26491058D01*
X21874000Y26489999D01*
X21274000Y26489999D01*
X21252436Y26491058D01*
X21231080Y26494226D01*
X21210137Y26499472D01*
X21189810Y26506746D01*
X21170293Y26515976D01*
X21151775Y26527076D01*
X21134433Y26539937D01*
X21118437Y26554436D01*
X21103938Y26570432D01*
X21091077Y26587774D01*
X21079977Y26606292D01*
X21070747Y26625809D01*
X21063473Y26646136D01*
X21058227Y26667079D01*
X21055059Y26688435D01*
X21054000Y26709999D01*
X21054000Y26710001D01*
X21055059Y26731565D01*
X21058227Y26752921D01*
X21063473Y26773864D01*
X21070747Y26794191D01*
X21079977Y26813708D01*
X21091077Y26832226D01*
X21103938Y26849568D01*
X21118437Y26865564D01*
X21134433Y26880063D01*
X21151775Y26892924D01*
X21170293Y26904024D01*
X21189810Y26913254D01*
X21210137Y26920528D01*
X21231080Y26925774D01*
X21252436Y26928942D01*
X21274000Y26930001D01*
X21874000Y26930001D01*
X21895564Y26928942D01*
X21895564Y26928942D01*
G37*
D39*
X21574000Y26710000D03*
D38*
G36*
X21895564Y26428942D02*
X21916920Y26425774D01*
X21937863Y26420528D01*
X21958190Y26413254D01*
X21977707Y26404024D01*
X21996225Y26392924D01*
X22013567Y26380063D01*
X22029563Y26365564D01*
X22044062Y26349568D01*
X22056923Y26332226D01*
X22068023Y26313708D01*
X22077253Y26294191D01*
X22084527Y26273864D01*
X22089773Y26252921D01*
X22092941Y26231565D01*
X22094000Y26210001D01*
X22094000Y26209999D01*
X22092941Y26188435D01*
X22089773Y26167079D01*
X22084527Y26146136D01*
X22077253Y26125809D01*
X22068023Y26106292D01*
X22056923Y26087774D01*
X22044062Y26070432D01*
X22029563Y26054436D01*
X22013567Y26039937D01*
X21996225Y26027076D01*
X21977707Y26015976D01*
X21958190Y26006746D01*
X21937863Y25999472D01*
X21916920Y25994226D01*
X21895564Y25991058D01*
X21874000Y25989999D01*
X21274000Y25989999D01*
X21252436Y25991058D01*
X21231080Y25994226D01*
X21210137Y25999472D01*
X21189810Y26006746D01*
X21170293Y26015976D01*
X21151775Y26027076D01*
X21134433Y26039937D01*
X21118437Y26054436D01*
X21103938Y26070432D01*
X21091077Y26087774D01*
X21079977Y26106292D01*
X21070747Y26125809D01*
X21063473Y26146136D01*
X21058227Y26167079D01*
X21055059Y26188435D01*
X21054000Y26209999D01*
X21054000Y26210001D01*
X21055059Y26231565D01*
X21058227Y26252921D01*
X21063473Y26273864D01*
X21070747Y26294191D01*
X21079977Y26313708D01*
X21091077Y26332226D01*
X21103938Y26349568D01*
X21118437Y26365564D01*
X21134433Y26380063D01*
X21151775Y26392924D01*
X21170293Y26404024D01*
X21189810Y26413254D01*
X21210137Y26420528D01*
X21231080Y26425774D01*
X21252436Y26428942D01*
X21274000Y26430001D01*
X21874000Y26430001D01*
X21895564Y26428942D01*
X21895564Y26428942D01*
G37*
D39*
X21574000Y26210000D03*
D40*
X20174000Y27810000D03*
X20174000Y26610000D03*
X18974000Y26610000D03*
X18974000Y27810000D03*
D41*
X7702000Y15921000D03*
X8352000Y15921000D03*
X9002000Y15921000D03*
X9652000Y15921000D03*
X10302000Y15921000D03*
X10952000Y15921000D03*
X11602000Y15921000D03*
X11602000Y21671000D03*
X10952000Y21671000D03*
X10302000Y21671000D03*
X9652000Y21671000D03*
X9002000Y21671000D03*
X8352000Y21671000D03*
X7702000Y21671000D03*
D42*
X12458000Y26924000D03*
X13958000Y26924000D03*
X11950000Y30988000D03*
X13450000Y30988000D03*
X30214000Y13462000D03*
X28714000Y13462000D03*
X27420000Y13462000D03*
X25920000Y13462000D03*
X18784000Y15494000D03*
X17284000Y15494000D03*
D43*
X11176000Y12180000D03*
X11176000Y10680000D03*
X7620000Y12180000D03*
X7620000Y10680000D03*
D42*
X3036000Y7620000D03*
X1536000Y7620000D03*
X16498000Y21844000D03*
X14998000Y21844000D03*
D14*
X20304000Y33782000D03*
X18304000Y33782000D03*
D44*
X15367000Y17764000D03*
X15367000Y15764000D03*
D15*
X25146000Y18276000D03*
X25146000Y16776000D03*
D45*
X20054000Y31750000D03*
X18554000Y31750000D03*
D15*
X13462000Y20332000D03*
X13462000Y21832000D03*
X13462000Y16014000D03*
X13462000Y17514000D03*
D45*
X10148000Y13716000D03*
X8648000Y13716000D03*
X13196000Y13716000D03*
X11696000Y13716000D03*
X5600000Y13716000D03*
X7100000Y13716000D03*
X27952000Y20828000D03*
X29452000Y20828000D03*
D46*
X35814000Y44704000D03*
X2286000Y16764000D03*
D45*
X28182000Y48006000D03*
X26682000Y48006000D03*
D47*
X3035300Y5842000D03*
X1536700Y5842000D03*
D48*
X37500000Y2500000D03*
X2500000Y2500000D03*
X37500000Y48500000D03*
X2500000Y48500000D03*
M02*
