G04 #@! TF.GenerationSoftware,KiCad,Pcbnew,no-vcs-found-90668f9~60~ubuntu16.04.1*
G04 #@! TF.CreationDate,2017-09-09T17:52:20+08:00*
G04 #@! TF.ProjectId,TINY-REFLOW-CONTROLLER-0R20,54494E592D5245464C4F572D434F4E54,rev?*
G04 #@! TF.SameCoordinates,PX8f0d180PY5f5e100*
G04 #@! TF.FileFunction,Paste,Top*
G04 #@! TF.FilePolarity,Positive*
%FSLAX46Y46*%
G04 Gerber Fmt 4.6, Leading zero omitted, Abs format (unit mm)*
G04 Created by KiCad (PCBNEW no-vcs-found-90668f9~60~ubuntu16.04.1) date Sat Sep  9 17:52:20 2017*
%MOMM*%
%LPD*%
G01*
G04 APERTURE LIST*
%ADD10R,1.000000X1.250000*%
%ADD11R,0.750000X0.800000*%
%ADD12R,1.350000X0.400000*%
%ADD13R,1.000000X3.170000*%
%ADD14R,0.900000X1.200000*%
%ADD15R,1.150000X1.300000*%
%ADD16R,1.200000X1.200000*%
%ADD17R,1.600000X1.500000*%
%ADD18R,0.900000X0.950000*%
%ADD19R,0.400000X0.500000*%
%ADD20R,1.600000X1.100000*%
%ADD21R,0.400000X0.250000*%
%ADD22R,1.200000X0.800000*%
%ADD23R,2.200000X0.800000*%
%ADD24R,2.500000X2.000000*%
%ADD25R,1.400000X1.600000*%
%ADD26R,0.650000X1.050000*%
%ADD27R,2.000000X3.000000*%
%ADD28C,0.100000*%
%ADD29C,0.250000*%
%ADD30R,0.960000X0.960000*%
%ADD31R,0.350000X1.400000*%
%ADD32R,0.500000X0.900000*%
%ADD33R,0.900000X0.500000*%
%ADD34R,1.250000X1.000000*%
%ADD35R,0.800000X0.750000*%
%ADD36R,0.797560X0.797560*%
G04 APERTURE END LIST*
D10*
X34528000Y24892000D03*
X32528000Y24892000D03*
D11*
X32512000Y27952000D03*
X32512000Y29422000D03*
D12*
X35126000Y29434000D03*
X35126000Y30084000D03*
X35126000Y30734000D03*
X35126000Y31384000D03*
X35126000Y32034000D03*
D13*
X12520000Y44045000D03*
X12520000Y38715000D03*
X15060000Y38715000D03*
X15060000Y44045000D03*
X17600000Y38715000D03*
X17600000Y44045000D03*
X20140000Y38715000D03*
X20140000Y44045000D03*
X22680000Y38715000D03*
X22680000Y44045000D03*
X25220000Y38715000D03*
X25220000Y44045000D03*
X27760000Y38715000D03*
X27760000Y44045000D03*
X30300000Y38715000D03*
X30300000Y44045000D03*
D14*
X29704000Y49838000D03*
X34304000Y49838000D03*
D15*
X33679000Y48288000D03*
X30329000Y48288000D03*
D16*
X6366000Y45698000D03*
D17*
X7366000Y48948000D03*
D16*
X8366000Y45698000D03*
D18*
X11633000Y28956000D03*
X14783000Y28956000D03*
D19*
X32146000Y22898000D03*
X30846000Y22898000D03*
D20*
X31496000Y21848000D03*
D21*
X31496000Y21173000D03*
D22*
X27714000Y19026000D03*
D23*
X28214000Y17526000D03*
D22*
X27714000Y16026000D03*
D24*
X30564000Y17526000D03*
D25*
X29500000Y2912000D03*
X29500000Y11312000D03*
X34000000Y2912000D03*
X34000000Y11312000D03*
X22134000Y2912000D03*
X22134000Y11312000D03*
X26634000Y2912000D03*
X26634000Y11312000D03*
D26*
X12700000Y35066000D03*
X13650000Y32766000D03*
X11750000Y32766000D03*
X18034000Y11296000D03*
X17084000Y13596000D03*
X18984000Y13596000D03*
D27*
X5588000Y29528000D03*
X5588000Y37528000D03*
D28*
G36*
X20586253Y25634398D02*
X20598387Y25632598D01*
X20610287Y25629618D01*
X20621836Y25625485D01*
X20632926Y25620240D01*
X20643447Y25613934D01*
X20653300Y25606626D01*
X20662389Y25598388D01*
X20670627Y25589299D01*
X20677935Y25579446D01*
X20684241Y25568925D01*
X20689486Y25557835D01*
X20693619Y25546286D01*
X20696599Y25534386D01*
X20698399Y25522252D01*
X20699001Y25510000D01*
X20699001Y24910000D01*
X20698399Y24897748D01*
X20696599Y24885614D01*
X20693619Y24873714D01*
X20689486Y24862165D01*
X20684241Y24851075D01*
X20677935Y24840554D01*
X20670627Y24830701D01*
X20662389Y24821612D01*
X20653300Y24813374D01*
X20643447Y24806066D01*
X20632926Y24799760D01*
X20621836Y24794515D01*
X20610287Y24790382D01*
X20598387Y24787402D01*
X20586253Y24785602D01*
X20574001Y24785000D01*
X20573999Y24785000D01*
X20561747Y24785602D01*
X20549613Y24787402D01*
X20537713Y24790382D01*
X20526164Y24794515D01*
X20515074Y24799760D01*
X20504553Y24806066D01*
X20494700Y24813374D01*
X20485611Y24821612D01*
X20477373Y24830701D01*
X20470065Y24840554D01*
X20463759Y24851075D01*
X20458514Y24862165D01*
X20454381Y24873714D01*
X20451401Y24885614D01*
X20449601Y24897748D01*
X20448999Y24910000D01*
X20448999Y25510000D01*
X20449601Y25522252D01*
X20451401Y25534386D01*
X20454381Y25546286D01*
X20458514Y25557835D01*
X20463759Y25568925D01*
X20470065Y25579446D01*
X20477373Y25589299D01*
X20485611Y25598388D01*
X20494700Y25606626D01*
X20504553Y25613934D01*
X20515074Y25620240D01*
X20526164Y25625485D01*
X20537713Y25629618D01*
X20549613Y25632598D01*
X20561747Y25634398D01*
X20573999Y25635000D01*
X20574001Y25635000D01*
X20586253Y25634398D01*
X20586253Y25634398D01*
G37*
D29*
X20574000Y25210000D03*
D28*
G36*
X20086253Y25634398D02*
X20098387Y25632598D01*
X20110287Y25629618D01*
X20121836Y25625485D01*
X20132926Y25620240D01*
X20143447Y25613934D01*
X20153300Y25606626D01*
X20162389Y25598388D01*
X20170627Y25589299D01*
X20177935Y25579446D01*
X20184241Y25568925D01*
X20189486Y25557835D01*
X20193619Y25546286D01*
X20196599Y25534386D01*
X20198399Y25522252D01*
X20199001Y25510000D01*
X20199001Y24910000D01*
X20198399Y24897748D01*
X20196599Y24885614D01*
X20193619Y24873714D01*
X20189486Y24862165D01*
X20184241Y24851075D01*
X20177935Y24840554D01*
X20170627Y24830701D01*
X20162389Y24821612D01*
X20153300Y24813374D01*
X20143447Y24806066D01*
X20132926Y24799760D01*
X20121836Y24794515D01*
X20110287Y24790382D01*
X20098387Y24787402D01*
X20086253Y24785602D01*
X20074001Y24785000D01*
X20073999Y24785000D01*
X20061747Y24785602D01*
X20049613Y24787402D01*
X20037713Y24790382D01*
X20026164Y24794515D01*
X20015074Y24799760D01*
X20004553Y24806066D01*
X19994700Y24813374D01*
X19985611Y24821612D01*
X19977373Y24830701D01*
X19970065Y24840554D01*
X19963759Y24851075D01*
X19958514Y24862165D01*
X19954381Y24873714D01*
X19951401Y24885614D01*
X19949601Y24897748D01*
X19948999Y24910000D01*
X19948999Y25510000D01*
X19949601Y25522252D01*
X19951401Y25534386D01*
X19954381Y25546286D01*
X19958514Y25557835D01*
X19963759Y25568925D01*
X19970065Y25579446D01*
X19977373Y25589299D01*
X19985611Y25598388D01*
X19994700Y25606626D01*
X20004553Y25613934D01*
X20015074Y25620240D01*
X20026164Y25625485D01*
X20037713Y25629618D01*
X20049613Y25632598D01*
X20061747Y25634398D01*
X20073999Y25635000D01*
X20074001Y25635000D01*
X20086253Y25634398D01*
X20086253Y25634398D01*
G37*
D29*
X20074000Y25210000D03*
D28*
G36*
X19586253Y25634398D02*
X19598387Y25632598D01*
X19610287Y25629618D01*
X19621836Y25625485D01*
X19632926Y25620240D01*
X19643447Y25613934D01*
X19653300Y25606626D01*
X19662389Y25598388D01*
X19670627Y25589299D01*
X19677935Y25579446D01*
X19684241Y25568925D01*
X19689486Y25557835D01*
X19693619Y25546286D01*
X19696599Y25534386D01*
X19698399Y25522252D01*
X19699001Y25510000D01*
X19699001Y24910000D01*
X19698399Y24897748D01*
X19696599Y24885614D01*
X19693619Y24873714D01*
X19689486Y24862165D01*
X19684241Y24851075D01*
X19677935Y24840554D01*
X19670627Y24830701D01*
X19662389Y24821612D01*
X19653300Y24813374D01*
X19643447Y24806066D01*
X19632926Y24799760D01*
X19621836Y24794515D01*
X19610287Y24790382D01*
X19598387Y24787402D01*
X19586253Y24785602D01*
X19574001Y24785000D01*
X19573999Y24785000D01*
X19561747Y24785602D01*
X19549613Y24787402D01*
X19537713Y24790382D01*
X19526164Y24794515D01*
X19515074Y24799760D01*
X19504553Y24806066D01*
X19494700Y24813374D01*
X19485611Y24821612D01*
X19477373Y24830701D01*
X19470065Y24840554D01*
X19463759Y24851075D01*
X19458514Y24862165D01*
X19454381Y24873714D01*
X19451401Y24885614D01*
X19449601Y24897748D01*
X19448999Y24910000D01*
X19448999Y25510000D01*
X19449601Y25522252D01*
X19451401Y25534386D01*
X19454381Y25546286D01*
X19458514Y25557835D01*
X19463759Y25568925D01*
X19470065Y25579446D01*
X19477373Y25589299D01*
X19485611Y25598388D01*
X19494700Y25606626D01*
X19504553Y25613934D01*
X19515074Y25620240D01*
X19526164Y25625485D01*
X19537713Y25629618D01*
X19549613Y25632598D01*
X19561747Y25634398D01*
X19573999Y25635000D01*
X19574001Y25635000D01*
X19586253Y25634398D01*
X19586253Y25634398D01*
G37*
D29*
X19574000Y25210000D03*
D28*
G36*
X19086253Y25634398D02*
X19098387Y25632598D01*
X19110287Y25629618D01*
X19121836Y25625485D01*
X19132926Y25620240D01*
X19143447Y25613934D01*
X19153300Y25606626D01*
X19162389Y25598388D01*
X19170627Y25589299D01*
X19177935Y25579446D01*
X19184241Y25568925D01*
X19189486Y25557835D01*
X19193619Y25546286D01*
X19196599Y25534386D01*
X19198399Y25522252D01*
X19199001Y25510000D01*
X19199001Y24910000D01*
X19198399Y24897748D01*
X19196599Y24885614D01*
X19193619Y24873714D01*
X19189486Y24862165D01*
X19184241Y24851075D01*
X19177935Y24840554D01*
X19170627Y24830701D01*
X19162389Y24821612D01*
X19153300Y24813374D01*
X19143447Y24806066D01*
X19132926Y24799760D01*
X19121836Y24794515D01*
X19110287Y24790382D01*
X19098387Y24787402D01*
X19086253Y24785602D01*
X19074001Y24785000D01*
X19073999Y24785000D01*
X19061747Y24785602D01*
X19049613Y24787402D01*
X19037713Y24790382D01*
X19026164Y24794515D01*
X19015074Y24799760D01*
X19004553Y24806066D01*
X18994700Y24813374D01*
X18985611Y24821612D01*
X18977373Y24830701D01*
X18970065Y24840554D01*
X18963759Y24851075D01*
X18958514Y24862165D01*
X18954381Y24873714D01*
X18951401Y24885614D01*
X18949601Y24897748D01*
X18948999Y24910000D01*
X18948999Y25510000D01*
X18949601Y25522252D01*
X18951401Y25534386D01*
X18954381Y25546286D01*
X18958514Y25557835D01*
X18963759Y25568925D01*
X18970065Y25579446D01*
X18977373Y25589299D01*
X18985611Y25598388D01*
X18994700Y25606626D01*
X19004553Y25613934D01*
X19015074Y25620240D01*
X19026164Y25625485D01*
X19037713Y25629618D01*
X19049613Y25632598D01*
X19061747Y25634398D01*
X19073999Y25635000D01*
X19074001Y25635000D01*
X19086253Y25634398D01*
X19086253Y25634398D01*
G37*
D29*
X19074000Y25210000D03*
D28*
G36*
X18586253Y25634398D02*
X18598387Y25632598D01*
X18610287Y25629618D01*
X18621836Y25625485D01*
X18632926Y25620240D01*
X18643447Y25613934D01*
X18653300Y25606626D01*
X18662389Y25598388D01*
X18670627Y25589299D01*
X18677935Y25579446D01*
X18684241Y25568925D01*
X18689486Y25557835D01*
X18693619Y25546286D01*
X18696599Y25534386D01*
X18698399Y25522252D01*
X18699001Y25510000D01*
X18699001Y24910000D01*
X18698399Y24897748D01*
X18696599Y24885614D01*
X18693619Y24873714D01*
X18689486Y24862165D01*
X18684241Y24851075D01*
X18677935Y24840554D01*
X18670627Y24830701D01*
X18662389Y24821612D01*
X18653300Y24813374D01*
X18643447Y24806066D01*
X18632926Y24799760D01*
X18621836Y24794515D01*
X18610287Y24790382D01*
X18598387Y24787402D01*
X18586253Y24785602D01*
X18574001Y24785000D01*
X18573999Y24785000D01*
X18561747Y24785602D01*
X18549613Y24787402D01*
X18537713Y24790382D01*
X18526164Y24794515D01*
X18515074Y24799760D01*
X18504553Y24806066D01*
X18494700Y24813374D01*
X18485611Y24821612D01*
X18477373Y24830701D01*
X18470065Y24840554D01*
X18463759Y24851075D01*
X18458514Y24862165D01*
X18454381Y24873714D01*
X18451401Y24885614D01*
X18449601Y24897748D01*
X18448999Y24910000D01*
X18448999Y25510000D01*
X18449601Y25522252D01*
X18451401Y25534386D01*
X18454381Y25546286D01*
X18458514Y25557835D01*
X18463759Y25568925D01*
X18470065Y25579446D01*
X18477373Y25589299D01*
X18485611Y25598388D01*
X18494700Y25606626D01*
X18504553Y25613934D01*
X18515074Y25620240D01*
X18526164Y25625485D01*
X18537713Y25629618D01*
X18549613Y25632598D01*
X18561747Y25634398D01*
X18573999Y25635000D01*
X18574001Y25635000D01*
X18586253Y25634398D01*
X18586253Y25634398D01*
G37*
D29*
X18574000Y25210000D03*
D28*
G36*
X17886252Y26334399D02*
X17898386Y26332599D01*
X17910286Y26329619D01*
X17921835Y26325486D01*
X17932925Y26320241D01*
X17943446Y26313935D01*
X17953299Y26306627D01*
X17962388Y26298389D01*
X17970626Y26289300D01*
X17977934Y26279447D01*
X17984240Y26268926D01*
X17989485Y26257836D01*
X17993618Y26246287D01*
X17996598Y26234387D01*
X17998398Y26222253D01*
X17999000Y26210001D01*
X17999000Y26209999D01*
X17998398Y26197747D01*
X17996598Y26185613D01*
X17993618Y26173713D01*
X17989485Y26162164D01*
X17984240Y26151074D01*
X17977934Y26140553D01*
X17970626Y26130700D01*
X17962388Y26121611D01*
X17953299Y26113373D01*
X17943446Y26106065D01*
X17932925Y26099759D01*
X17921835Y26094514D01*
X17910286Y26090381D01*
X17898386Y26087401D01*
X17886252Y26085601D01*
X17874000Y26084999D01*
X17274000Y26084999D01*
X17261748Y26085601D01*
X17249614Y26087401D01*
X17237714Y26090381D01*
X17226165Y26094514D01*
X17215075Y26099759D01*
X17204554Y26106065D01*
X17194701Y26113373D01*
X17185612Y26121611D01*
X17177374Y26130700D01*
X17170066Y26140553D01*
X17163760Y26151074D01*
X17158515Y26162164D01*
X17154382Y26173713D01*
X17151402Y26185613D01*
X17149602Y26197747D01*
X17149000Y26209999D01*
X17149000Y26210001D01*
X17149602Y26222253D01*
X17151402Y26234387D01*
X17154382Y26246287D01*
X17158515Y26257836D01*
X17163760Y26268926D01*
X17170066Y26279447D01*
X17177374Y26289300D01*
X17185612Y26298389D01*
X17194701Y26306627D01*
X17204554Y26313935D01*
X17215075Y26320241D01*
X17226165Y26325486D01*
X17237714Y26329619D01*
X17249614Y26332599D01*
X17261748Y26334399D01*
X17274000Y26335001D01*
X17874000Y26335001D01*
X17886252Y26334399D01*
X17886252Y26334399D01*
G37*
D29*
X17574000Y26210000D03*
D28*
G36*
X17886252Y26834399D02*
X17898386Y26832599D01*
X17910286Y26829619D01*
X17921835Y26825486D01*
X17932925Y26820241D01*
X17943446Y26813935D01*
X17953299Y26806627D01*
X17962388Y26798389D01*
X17970626Y26789300D01*
X17977934Y26779447D01*
X17984240Y26768926D01*
X17989485Y26757836D01*
X17993618Y26746287D01*
X17996598Y26734387D01*
X17998398Y26722253D01*
X17999000Y26710001D01*
X17999000Y26709999D01*
X17998398Y26697747D01*
X17996598Y26685613D01*
X17993618Y26673713D01*
X17989485Y26662164D01*
X17984240Y26651074D01*
X17977934Y26640553D01*
X17970626Y26630700D01*
X17962388Y26621611D01*
X17953299Y26613373D01*
X17943446Y26606065D01*
X17932925Y26599759D01*
X17921835Y26594514D01*
X17910286Y26590381D01*
X17898386Y26587401D01*
X17886252Y26585601D01*
X17874000Y26584999D01*
X17274000Y26584999D01*
X17261748Y26585601D01*
X17249614Y26587401D01*
X17237714Y26590381D01*
X17226165Y26594514D01*
X17215075Y26599759D01*
X17204554Y26606065D01*
X17194701Y26613373D01*
X17185612Y26621611D01*
X17177374Y26630700D01*
X17170066Y26640553D01*
X17163760Y26651074D01*
X17158515Y26662164D01*
X17154382Y26673713D01*
X17151402Y26685613D01*
X17149602Y26697747D01*
X17149000Y26709999D01*
X17149000Y26710001D01*
X17149602Y26722253D01*
X17151402Y26734387D01*
X17154382Y26746287D01*
X17158515Y26757836D01*
X17163760Y26768926D01*
X17170066Y26779447D01*
X17177374Y26789300D01*
X17185612Y26798389D01*
X17194701Y26806627D01*
X17204554Y26813935D01*
X17215075Y26820241D01*
X17226165Y26825486D01*
X17237714Y26829619D01*
X17249614Y26832599D01*
X17261748Y26834399D01*
X17274000Y26835001D01*
X17874000Y26835001D01*
X17886252Y26834399D01*
X17886252Y26834399D01*
G37*
D29*
X17574000Y26710000D03*
D28*
G36*
X17886252Y27334399D02*
X17898386Y27332599D01*
X17910286Y27329619D01*
X17921835Y27325486D01*
X17932925Y27320241D01*
X17943446Y27313935D01*
X17953299Y27306627D01*
X17962388Y27298389D01*
X17970626Y27289300D01*
X17977934Y27279447D01*
X17984240Y27268926D01*
X17989485Y27257836D01*
X17993618Y27246287D01*
X17996598Y27234387D01*
X17998398Y27222253D01*
X17999000Y27210001D01*
X17999000Y27209999D01*
X17998398Y27197747D01*
X17996598Y27185613D01*
X17993618Y27173713D01*
X17989485Y27162164D01*
X17984240Y27151074D01*
X17977934Y27140553D01*
X17970626Y27130700D01*
X17962388Y27121611D01*
X17953299Y27113373D01*
X17943446Y27106065D01*
X17932925Y27099759D01*
X17921835Y27094514D01*
X17910286Y27090381D01*
X17898386Y27087401D01*
X17886252Y27085601D01*
X17874000Y27084999D01*
X17274000Y27084999D01*
X17261748Y27085601D01*
X17249614Y27087401D01*
X17237714Y27090381D01*
X17226165Y27094514D01*
X17215075Y27099759D01*
X17204554Y27106065D01*
X17194701Y27113373D01*
X17185612Y27121611D01*
X17177374Y27130700D01*
X17170066Y27140553D01*
X17163760Y27151074D01*
X17158515Y27162164D01*
X17154382Y27173713D01*
X17151402Y27185613D01*
X17149602Y27197747D01*
X17149000Y27209999D01*
X17149000Y27210001D01*
X17149602Y27222253D01*
X17151402Y27234387D01*
X17154382Y27246287D01*
X17158515Y27257836D01*
X17163760Y27268926D01*
X17170066Y27279447D01*
X17177374Y27289300D01*
X17185612Y27298389D01*
X17194701Y27306627D01*
X17204554Y27313935D01*
X17215075Y27320241D01*
X17226165Y27325486D01*
X17237714Y27329619D01*
X17249614Y27332599D01*
X17261748Y27334399D01*
X17274000Y27335001D01*
X17874000Y27335001D01*
X17886252Y27334399D01*
X17886252Y27334399D01*
G37*
D29*
X17574000Y27210000D03*
D28*
G36*
X17886252Y27834399D02*
X17898386Y27832599D01*
X17910286Y27829619D01*
X17921835Y27825486D01*
X17932925Y27820241D01*
X17943446Y27813935D01*
X17953299Y27806627D01*
X17962388Y27798389D01*
X17970626Y27789300D01*
X17977934Y27779447D01*
X17984240Y27768926D01*
X17989485Y27757836D01*
X17993618Y27746287D01*
X17996598Y27734387D01*
X17998398Y27722253D01*
X17999000Y27710001D01*
X17999000Y27709999D01*
X17998398Y27697747D01*
X17996598Y27685613D01*
X17993618Y27673713D01*
X17989485Y27662164D01*
X17984240Y27651074D01*
X17977934Y27640553D01*
X17970626Y27630700D01*
X17962388Y27621611D01*
X17953299Y27613373D01*
X17943446Y27606065D01*
X17932925Y27599759D01*
X17921835Y27594514D01*
X17910286Y27590381D01*
X17898386Y27587401D01*
X17886252Y27585601D01*
X17874000Y27584999D01*
X17274000Y27584999D01*
X17261748Y27585601D01*
X17249614Y27587401D01*
X17237714Y27590381D01*
X17226165Y27594514D01*
X17215075Y27599759D01*
X17204554Y27606065D01*
X17194701Y27613373D01*
X17185612Y27621611D01*
X17177374Y27630700D01*
X17170066Y27640553D01*
X17163760Y27651074D01*
X17158515Y27662164D01*
X17154382Y27673713D01*
X17151402Y27685613D01*
X17149602Y27697747D01*
X17149000Y27709999D01*
X17149000Y27710001D01*
X17149602Y27722253D01*
X17151402Y27734387D01*
X17154382Y27746287D01*
X17158515Y27757836D01*
X17163760Y27768926D01*
X17170066Y27779447D01*
X17177374Y27789300D01*
X17185612Y27798389D01*
X17194701Y27806627D01*
X17204554Y27813935D01*
X17215075Y27820241D01*
X17226165Y27825486D01*
X17237714Y27829619D01*
X17249614Y27832599D01*
X17261748Y27834399D01*
X17274000Y27835001D01*
X17874000Y27835001D01*
X17886252Y27834399D01*
X17886252Y27834399D01*
G37*
D29*
X17574000Y27710000D03*
D28*
G36*
X17886252Y28334399D02*
X17898386Y28332599D01*
X17910286Y28329619D01*
X17921835Y28325486D01*
X17932925Y28320241D01*
X17943446Y28313935D01*
X17953299Y28306627D01*
X17962388Y28298389D01*
X17970626Y28289300D01*
X17977934Y28279447D01*
X17984240Y28268926D01*
X17989485Y28257836D01*
X17993618Y28246287D01*
X17996598Y28234387D01*
X17998398Y28222253D01*
X17999000Y28210001D01*
X17999000Y28209999D01*
X17998398Y28197747D01*
X17996598Y28185613D01*
X17993618Y28173713D01*
X17989485Y28162164D01*
X17984240Y28151074D01*
X17977934Y28140553D01*
X17970626Y28130700D01*
X17962388Y28121611D01*
X17953299Y28113373D01*
X17943446Y28106065D01*
X17932925Y28099759D01*
X17921835Y28094514D01*
X17910286Y28090381D01*
X17898386Y28087401D01*
X17886252Y28085601D01*
X17874000Y28084999D01*
X17274000Y28084999D01*
X17261748Y28085601D01*
X17249614Y28087401D01*
X17237714Y28090381D01*
X17226165Y28094514D01*
X17215075Y28099759D01*
X17204554Y28106065D01*
X17194701Y28113373D01*
X17185612Y28121611D01*
X17177374Y28130700D01*
X17170066Y28140553D01*
X17163760Y28151074D01*
X17158515Y28162164D01*
X17154382Y28173713D01*
X17151402Y28185613D01*
X17149602Y28197747D01*
X17149000Y28209999D01*
X17149000Y28210001D01*
X17149602Y28222253D01*
X17151402Y28234387D01*
X17154382Y28246287D01*
X17158515Y28257836D01*
X17163760Y28268926D01*
X17170066Y28279447D01*
X17177374Y28289300D01*
X17185612Y28298389D01*
X17194701Y28306627D01*
X17204554Y28313935D01*
X17215075Y28320241D01*
X17226165Y28325486D01*
X17237714Y28329619D01*
X17249614Y28332599D01*
X17261748Y28334399D01*
X17274000Y28335001D01*
X17874000Y28335001D01*
X17886252Y28334399D01*
X17886252Y28334399D01*
G37*
D29*
X17574000Y28210000D03*
D28*
G36*
X18586253Y29634398D02*
X18598387Y29632598D01*
X18610287Y29629618D01*
X18621836Y29625485D01*
X18632926Y29620240D01*
X18643447Y29613934D01*
X18653300Y29606626D01*
X18662389Y29598388D01*
X18670627Y29589299D01*
X18677935Y29579446D01*
X18684241Y29568925D01*
X18689486Y29557835D01*
X18693619Y29546286D01*
X18696599Y29534386D01*
X18698399Y29522252D01*
X18699001Y29510000D01*
X18699001Y28910000D01*
X18698399Y28897748D01*
X18696599Y28885614D01*
X18693619Y28873714D01*
X18689486Y28862165D01*
X18684241Y28851075D01*
X18677935Y28840554D01*
X18670627Y28830701D01*
X18662389Y28821612D01*
X18653300Y28813374D01*
X18643447Y28806066D01*
X18632926Y28799760D01*
X18621836Y28794515D01*
X18610287Y28790382D01*
X18598387Y28787402D01*
X18586253Y28785602D01*
X18574001Y28785000D01*
X18573999Y28785000D01*
X18561747Y28785602D01*
X18549613Y28787402D01*
X18537713Y28790382D01*
X18526164Y28794515D01*
X18515074Y28799760D01*
X18504553Y28806066D01*
X18494700Y28813374D01*
X18485611Y28821612D01*
X18477373Y28830701D01*
X18470065Y28840554D01*
X18463759Y28851075D01*
X18458514Y28862165D01*
X18454381Y28873714D01*
X18451401Y28885614D01*
X18449601Y28897748D01*
X18448999Y28910000D01*
X18448999Y29510000D01*
X18449601Y29522252D01*
X18451401Y29534386D01*
X18454381Y29546286D01*
X18458514Y29557835D01*
X18463759Y29568925D01*
X18470065Y29579446D01*
X18477373Y29589299D01*
X18485611Y29598388D01*
X18494700Y29606626D01*
X18504553Y29613934D01*
X18515074Y29620240D01*
X18526164Y29625485D01*
X18537713Y29629618D01*
X18549613Y29632598D01*
X18561747Y29634398D01*
X18573999Y29635000D01*
X18574001Y29635000D01*
X18586253Y29634398D01*
X18586253Y29634398D01*
G37*
D29*
X18574000Y29210000D03*
D28*
G36*
X19086253Y29634398D02*
X19098387Y29632598D01*
X19110287Y29629618D01*
X19121836Y29625485D01*
X19132926Y29620240D01*
X19143447Y29613934D01*
X19153300Y29606626D01*
X19162389Y29598388D01*
X19170627Y29589299D01*
X19177935Y29579446D01*
X19184241Y29568925D01*
X19189486Y29557835D01*
X19193619Y29546286D01*
X19196599Y29534386D01*
X19198399Y29522252D01*
X19199001Y29510000D01*
X19199001Y28910000D01*
X19198399Y28897748D01*
X19196599Y28885614D01*
X19193619Y28873714D01*
X19189486Y28862165D01*
X19184241Y28851075D01*
X19177935Y28840554D01*
X19170627Y28830701D01*
X19162389Y28821612D01*
X19153300Y28813374D01*
X19143447Y28806066D01*
X19132926Y28799760D01*
X19121836Y28794515D01*
X19110287Y28790382D01*
X19098387Y28787402D01*
X19086253Y28785602D01*
X19074001Y28785000D01*
X19073999Y28785000D01*
X19061747Y28785602D01*
X19049613Y28787402D01*
X19037713Y28790382D01*
X19026164Y28794515D01*
X19015074Y28799760D01*
X19004553Y28806066D01*
X18994700Y28813374D01*
X18985611Y28821612D01*
X18977373Y28830701D01*
X18970065Y28840554D01*
X18963759Y28851075D01*
X18958514Y28862165D01*
X18954381Y28873714D01*
X18951401Y28885614D01*
X18949601Y28897748D01*
X18948999Y28910000D01*
X18948999Y29510000D01*
X18949601Y29522252D01*
X18951401Y29534386D01*
X18954381Y29546286D01*
X18958514Y29557835D01*
X18963759Y29568925D01*
X18970065Y29579446D01*
X18977373Y29589299D01*
X18985611Y29598388D01*
X18994700Y29606626D01*
X19004553Y29613934D01*
X19015074Y29620240D01*
X19026164Y29625485D01*
X19037713Y29629618D01*
X19049613Y29632598D01*
X19061747Y29634398D01*
X19073999Y29635000D01*
X19074001Y29635000D01*
X19086253Y29634398D01*
X19086253Y29634398D01*
G37*
D29*
X19074000Y29210000D03*
D28*
G36*
X19586253Y29634398D02*
X19598387Y29632598D01*
X19610287Y29629618D01*
X19621836Y29625485D01*
X19632926Y29620240D01*
X19643447Y29613934D01*
X19653300Y29606626D01*
X19662389Y29598388D01*
X19670627Y29589299D01*
X19677935Y29579446D01*
X19684241Y29568925D01*
X19689486Y29557835D01*
X19693619Y29546286D01*
X19696599Y29534386D01*
X19698399Y29522252D01*
X19699001Y29510000D01*
X19699001Y28910000D01*
X19698399Y28897748D01*
X19696599Y28885614D01*
X19693619Y28873714D01*
X19689486Y28862165D01*
X19684241Y28851075D01*
X19677935Y28840554D01*
X19670627Y28830701D01*
X19662389Y28821612D01*
X19653300Y28813374D01*
X19643447Y28806066D01*
X19632926Y28799760D01*
X19621836Y28794515D01*
X19610287Y28790382D01*
X19598387Y28787402D01*
X19586253Y28785602D01*
X19574001Y28785000D01*
X19573999Y28785000D01*
X19561747Y28785602D01*
X19549613Y28787402D01*
X19537713Y28790382D01*
X19526164Y28794515D01*
X19515074Y28799760D01*
X19504553Y28806066D01*
X19494700Y28813374D01*
X19485611Y28821612D01*
X19477373Y28830701D01*
X19470065Y28840554D01*
X19463759Y28851075D01*
X19458514Y28862165D01*
X19454381Y28873714D01*
X19451401Y28885614D01*
X19449601Y28897748D01*
X19448999Y28910000D01*
X19448999Y29510000D01*
X19449601Y29522252D01*
X19451401Y29534386D01*
X19454381Y29546286D01*
X19458514Y29557835D01*
X19463759Y29568925D01*
X19470065Y29579446D01*
X19477373Y29589299D01*
X19485611Y29598388D01*
X19494700Y29606626D01*
X19504553Y29613934D01*
X19515074Y29620240D01*
X19526164Y29625485D01*
X19537713Y29629618D01*
X19549613Y29632598D01*
X19561747Y29634398D01*
X19573999Y29635000D01*
X19574001Y29635000D01*
X19586253Y29634398D01*
X19586253Y29634398D01*
G37*
D29*
X19574000Y29210000D03*
D28*
G36*
X20086253Y29634398D02*
X20098387Y29632598D01*
X20110287Y29629618D01*
X20121836Y29625485D01*
X20132926Y29620240D01*
X20143447Y29613934D01*
X20153300Y29606626D01*
X20162389Y29598388D01*
X20170627Y29589299D01*
X20177935Y29579446D01*
X20184241Y29568925D01*
X20189486Y29557835D01*
X20193619Y29546286D01*
X20196599Y29534386D01*
X20198399Y29522252D01*
X20199001Y29510000D01*
X20199001Y28910000D01*
X20198399Y28897748D01*
X20196599Y28885614D01*
X20193619Y28873714D01*
X20189486Y28862165D01*
X20184241Y28851075D01*
X20177935Y28840554D01*
X20170627Y28830701D01*
X20162389Y28821612D01*
X20153300Y28813374D01*
X20143447Y28806066D01*
X20132926Y28799760D01*
X20121836Y28794515D01*
X20110287Y28790382D01*
X20098387Y28787402D01*
X20086253Y28785602D01*
X20074001Y28785000D01*
X20073999Y28785000D01*
X20061747Y28785602D01*
X20049613Y28787402D01*
X20037713Y28790382D01*
X20026164Y28794515D01*
X20015074Y28799760D01*
X20004553Y28806066D01*
X19994700Y28813374D01*
X19985611Y28821612D01*
X19977373Y28830701D01*
X19970065Y28840554D01*
X19963759Y28851075D01*
X19958514Y28862165D01*
X19954381Y28873714D01*
X19951401Y28885614D01*
X19949601Y28897748D01*
X19948999Y28910000D01*
X19948999Y29510000D01*
X19949601Y29522252D01*
X19951401Y29534386D01*
X19954381Y29546286D01*
X19958514Y29557835D01*
X19963759Y29568925D01*
X19970065Y29579446D01*
X19977373Y29589299D01*
X19985611Y29598388D01*
X19994700Y29606626D01*
X20004553Y29613934D01*
X20015074Y29620240D01*
X20026164Y29625485D01*
X20037713Y29629618D01*
X20049613Y29632598D01*
X20061747Y29634398D01*
X20073999Y29635000D01*
X20074001Y29635000D01*
X20086253Y29634398D01*
X20086253Y29634398D01*
G37*
D29*
X20074000Y29210000D03*
D28*
G36*
X20586253Y29634398D02*
X20598387Y29632598D01*
X20610287Y29629618D01*
X20621836Y29625485D01*
X20632926Y29620240D01*
X20643447Y29613934D01*
X20653300Y29606626D01*
X20662389Y29598388D01*
X20670627Y29589299D01*
X20677935Y29579446D01*
X20684241Y29568925D01*
X20689486Y29557835D01*
X20693619Y29546286D01*
X20696599Y29534386D01*
X20698399Y29522252D01*
X20699001Y29510000D01*
X20699001Y28910000D01*
X20698399Y28897748D01*
X20696599Y28885614D01*
X20693619Y28873714D01*
X20689486Y28862165D01*
X20684241Y28851075D01*
X20677935Y28840554D01*
X20670627Y28830701D01*
X20662389Y28821612D01*
X20653300Y28813374D01*
X20643447Y28806066D01*
X20632926Y28799760D01*
X20621836Y28794515D01*
X20610287Y28790382D01*
X20598387Y28787402D01*
X20586253Y28785602D01*
X20574001Y28785000D01*
X20573999Y28785000D01*
X20561747Y28785602D01*
X20549613Y28787402D01*
X20537713Y28790382D01*
X20526164Y28794515D01*
X20515074Y28799760D01*
X20504553Y28806066D01*
X20494700Y28813374D01*
X20485611Y28821612D01*
X20477373Y28830701D01*
X20470065Y28840554D01*
X20463759Y28851075D01*
X20458514Y28862165D01*
X20454381Y28873714D01*
X20451401Y28885614D01*
X20449601Y28897748D01*
X20448999Y28910000D01*
X20448999Y29510000D01*
X20449601Y29522252D01*
X20451401Y29534386D01*
X20454381Y29546286D01*
X20458514Y29557835D01*
X20463759Y29568925D01*
X20470065Y29579446D01*
X20477373Y29589299D01*
X20485611Y29598388D01*
X20494700Y29606626D01*
X20504553Y29613934D01*
X20515074Y29620240D01*
X20526164Y29625485D01*
X20537713Y29629618D01*
X20549613Y29632598D01*
X20561747Y29634398D01*
X20573999Y29635000D01*
X20574001Y29635000D01*
X20586253Y29634398D01*
X20586253Y29634398D01*
G37*
D29*
X20574000Y29210000D03*
D28*
G36*
X21886252Y28334399D02*
X21898386Y28332599D01*
X21910286Y28329619D01*
X21921835Y28325486D01*
X21932925Y28320241D01*
X21943446Y28313935D01*
X21953299Y28306627D01*
X21962388Y28298389D01*
X21970626Y28289300D01*
X21977934Y28279447D01*
X21984240Y28268926D01*
X21989485Y28257836D01*
X21993618Y28246287D01*
X21996598Y28234387D01*
X21998398Y28222253D01*
X21999000Y28210001D01*
X21999000Y28209999D01*
X21998398Y28197747D01*
X21996598Y28185613D01*
X21993618Y28173713D01*
X21989485Y28162164D01*
X21984240Y28151074D01*
X21977934Y28140553D01*
X21970626Y28130700D01*
X21962388Y28121611D01*
X21953299Y28113373D01*
X21943446Y28106065D01*
X21932925Y28099759D01*
X21921835Y28094514D01*
X21910286Y28090381D01*
X21898386Y28087401D01*
X21886252Y28085601D01*
X21874000Y28084999D01*
X21274000Y28084999D01*
X21261748Y28085601D01*
X21249614Y28087401D01*
X21237714Y28090381D01*
X21226165Y28094514D01*
X21215075Y28099759D01*
X21204554Y28106065D01*
X21194701Y28113373D01*
X21185612Y28121611D01*
X21177374Y28130700D01*
X21170066Y28140553D01*
X21163760Y28151074D01*
X21158515Y28162164D01*
X21154382Y28173713D01*
X21151402Y28185613D01*
X21149602Y28197747D01*
X21149000Y28209999D01*
X21149000Y28210001D01*
X21149602Y28222253D01*
X21151402Y28234387D01*
X21154382Y28246287D01*
X21158515Y28257836D01*
X21163760Y28268926D01*
X21170066Y28279447D01*
X21177374Y28289300D01*
X21185612Y28298389D01*
X21194701Y28306627D01*
X21204554Y28313935D01*
X21215075Y28320241D01*
X21226165Y28325486D01*
X21237714Y28329619D01*
X21249614Y28332599D01*
X21261748Y28334399D01*
X21274000Y28335001D01*
X21874000Y28335001D01*
X21886252Y28334399D01*
X21886252Y28334399D01*
G37*
D29*
X21574000Y28210000D03*
D28*
G36*
X21886252Y27834399D02*
X21898386Y27832599D01*
X21910286Y27829619D01*
X21921835Y27825486D01*
X21932925Y27820241D01*
X21943446Y27813935D01*
X21953299Y27806627D01*
X21962388Y27798389D01*
X21970626Y27789300D01*
X21977934Y27779447D01*
X21984240Y27768926D01*
X21989485Y27757836D01*
X21993618Y27746287D01*
X21996598Y27734387D01*
X21998398Y27722253D01*
X21999000Y27710001D01*
X21999000Y27709999D01*
X21998398Y27697747D01*
X21996598Y27685613D01*
X21993618Y27673713D01*
X21989485Y27662164D01*
X21984240Y27651074D01*
X21977934Y27640553D01*
X21970626Y27630700D01*
X21962388Y27621611D01*
X21953299Y27613373D01*
X21943446Y27606065D01*
X21932925Y27599759D01*
X21921835Y27594514D01*
X21910286Y27590381D01*
X21898386Y27587401D01*
X21886252Y27585601D01*
X21874000Y27584999D01*
X21274000Y27584999D01*
X21261748Y27585601D01*
X21249614Y27587401D01*
X21237714Y27590381D01*
X21226165Y27594514D01*
X21215075Y27599759D01*
X21204554Y27606065D01*
X21194701Y27613373D01*
X21185612Y27621611D01*
X21177374Y27630700D01*
X21170066Y27640553D01*
X21163760Y27651074D01*
X21158515Y27662164D01*
X21154382Y27673713D01*
X21151402Y27685613D01*
X21149602Y27697747D01*
X21149000Y27709999D01*
X21149000Y27710001D01*
X21149602Y27722253D01*
X21151402Y27734387D01*
X21154382Y27746287D01*
X21158515Y27757836D01*
X21163760Y27768926D01*
X21170066Y27779447D01*
X21177374Y27789300D01*
X21185612Y27798389D01*
X21194701Y27806627D01*
X21204554Y27813935D01*
X21215075Y27820241D01*
X21226165Y27825486D01*
X21237714Y27829619D01*
X21249614Y27832599D01*
X21261748Y27834399D01*
X21274000Y27835001D01*
X21874000Y27835001D01*
X21886252Y27834399D01*
X21886252Y27834399D01*
G37*
D29*
X21574000Y27710000D03*
D28*
G36*
X21886252Y27334399D02*
X21898386Y27332599D01*
X21910286Y27329619D01*
X21921835Y27325486D01*
X21932925Y27320241D01*
X21943446Y27313935D01*
X21953299Y27306627D01*
X21962388Y27298389D01*
X21970626Y27289300D01*
X21977934Y27279447D01*
X21984240Y27268926D01*
X21989485Y27257836D01*
X21993618Y27246287D01*
X21996598Y27234387D01*
X21998398Y27222253D01*
X21999000Y27210001D01*
X21999000Y27209999D01*
X21998398Y27197747D01*
X21996598Y27185613D01*
X21993618Y27173713D01*
X21989485Y27162164D01*
X21984240Y27151074D01*
X21977934Y27140553D01*
X21970626Y27130700D01*
X21962388Y27121611D01*
X21953299Y27113373D01*
X21943446Y27106065D01*
X21932925Y27099759D01*
X21921835Y27094514D01*
X21910286Y27090381D01*
X21898386Y27087401D01*
X21886252Y27085601D01*
X21874000Y27084999D01*
X21274000Y27084999D01*
X21261748Y27085601D01*
X21249614Y27087401D01*
X21237714Y27090381D01*
X21226165Y27094514D01*
X21215075Y27099759D01*
X21204554Y27106065D01*
X21194701Y27113373D01*
X21185612Y27121611D01*
X21177374Y27130700D01*
X21170066Y27140553D01*
X21163760Y27151074D01*
X21158515Y27162164D01*
X21154382Y27173713D01*
X21151402Y27185613D01*
X21149602Y27197747D01*
X21149000Y27209999D01*
X21149000Y27210001D01*
X21149602Y27222253D01*
X21151402Y27234387D01*
X21154382Y27246287D01*
X21158515Y27257836D01*
X21163760Y27268926D01*
X21170066Y27279447D01*
X21177374Y27289300D01*
X21185612Y27298389D01*
X21194701Y27306627D01*
X21204554Y27313935D01*
X21215075Y27320241D01*
X21226165Y27325486D01*
X21237714Y27329619D01*
X21249614Y27332599D01*
X21261748Y27334399D01*
X21274000Y27335001D01*
X21874000Y27335001D01*
X21886252Y27334399D01*
X21886252Y27334399D01*
G37*
D29*
X21574000Y27210000D03*
D28*
G36*
X21886252Y26834399D02*
X21898386Y26832599D01*
X21910286Y26829619D01*
X21921835Y26825486D01*
X21932925Y26820241D01*
X21943446Y26813935D01*
X21953299Y26806627D01*
X21962388Y26798389D01*
X21970626Y26789300D01*
X21977934Y26779447D01*
X21984240Y26768926D01*
X21989485Y26757836D01*
X21993618Y26746287D01*
X21996598Y26734387D01*
X21998398Y26722253D01*
X21999000Y26710001D01*
X21999000Y26709999D01*
X21998398Y26697747D01*
X21996598Y26685613D01*
X21993618Y26673713D01*
X21989485Y26662164D01*
X21984240Y26651074D01*
X21977934Y26640553D01*
X21970626Y26630700D01*
X21962388Y26621611D01*
X21953299Y26613373D01*
X21943446Y26606065D01*
X21932925Y26599759D01*
X21921835Y26594514D01*
X21910286Y26590381D01*
X21898386Y26587401D01*
X21886252Y26585601D01*
X21874000Y26584999D01*
X21274000Y26584999D01*
X21261748Y26585601D01*
X21249614Y26587401D01*
X21237714Y26590381D01*
X21226165Y26594514D01*
X21215075Y26599759D01*
X21204554Y26606065D01*
X21194701Y26613373D01*
X21185612Y26621611D01*
X21177374Y26630700D01*
X21170066Y26640553D01*
X21163760Y26651074D01*
X21158515Y26662164D01*
X21154382Y26673713D01*
X21151402Y26685613D01*
X21149602Y26697747D01*
X21149000Y26709999D01*
X21149000Y26710001D01*
X21149602Y26722253D01*
X21151402Y26734387D01*
X21154382Y26746287D01*
X21158515Y26757836D01*
X21163760Y26768926D01*
X21170066Y26779447D01*
X21177374Y26789300D01*
X21185612Y26798389D01*
X21194701Y26806627D01*
X21204554Y26813935D01*
X21215075Y26820241D01*
X21226165Y26825486D01*
X21237714Y26829619D01*
X21249614Y26832599D01*
X21261748Y26834399D01*
X21274000Y26835001D01*
X21874000Y26835001D01*
X21886252Y26834399D01*
X21886252Y26834399D01*
G37*
D29*
X21574000Y26710000D03*
D28*
G36*
X21886252Y26334399D02*
X21898386Y26332599D01*
X21910286Y26329619D01*
X21921835Y26325486D01*
X21932925Y26320241D01*
X21943446Y26313935D01*
X21953299Y26306627D01*
X21962388Y26298389D01*
X21970626Y26289300D01*
X21977934Y26279447D01*
X21984240Y26268926D01*
X21989485Y26257836D01*
X21993618Y26246287D01*
X21996598Y26234387D01*
X21998398Y26222253D01*
X21999000Y26210001D01*
X21999000Y26209999D01*
X21998398Y26197747D01*
X21996598Y26185613D01*
X21993618Y26173713D01*
X21989485Y26162164D01*
X21984240Y26151074D01*
X21977934Y26140553D01*
X21970626Y26130700D01*
X21962388Y26121611D01*
X21953299Y26113373D01*
X21943446Y26106065D01*
X21932925Y26099759D01*
X21921835Y26094514D01*
X21910286Y26090381D01*
X21898386Y26087401D01*
X21886252Y26085601D01*
X21874000Y26084999D01*
X21274000Y26084999D01*
X21261748Y26085601D01*
X21249614Y26087401D01*
X21237714Y26090381D01*
X21226165Y26094514D01*
X21215075Y26099759D01*
X21204554Y26106065D01*
X21194701Y26113373D01*
X21185612Y26121611D01*
X21177374Y26130700D01*
X21170066Y26140553D01*
X21163760Y26151074D01*
X21158515Y26162164D01*
X21154382Y26173713D01*
X21151402Y26185613D01*
X21149602Y26197747D01*
X21149000Y26209999D01*
X21149000Y26210001D01*
X21149602Y26222253D01*
X21151402Y26234387D01*
X21154382Y26246287D01*
X21158515Y26257836D01*
X21163760Y26268926D01*
X21170066Y26279447D01*
X21177374Y26289300D01*
X21185612Y26298389D01*
X21194701Y26306627D01*
X21204554Y26313935D01*
X21215075Y26320241D01*
X21226165Y26325486D01*
X21237714Y26329619D01*
X21249614Y26332599D01*
X21261748Y26334399D01*
X21274000Y26335001D01*
X21874000Y26335001D01*
X21886252Y26334399D01*
X21886252Y26334399D01*
G37*
D29*
X21574000Y26210000D03*
D30*
X20174000Y27810000D03*
X20174000Y26610000D03*
X18974000Y26610000D03*
X18974000Y27810000D03*
D31*
X7702000Y15921000D03*
X8352000Y15921000D03*
X9002000Y15921000D03*
X9652000Y15921000D03*
X10302000Y15921000D03*
X10952000Y15921000D03*
X11602000Y15921000D03*
X11602000Y21671000D03*
X10952000Y21671000D03*
X10302000Y21671000D03*
X9652000Y21671000D03*
X9002000Y21671000D03*
X8352000Y21671000D03*
X7702000Y21671000D03*
D32*
X12458000Y26924000D03*
X13958000Y26924000D03*
X11950000Y30988000D03*
X13450000Y30988000D03*
X30214000Y13462000D03*
X28714000Y13462000D03*
X27420000Y13462000D03*
X25920000Y13462000D03*
X18784000Y15494000D03*
X17284000Y15494000D03*
D33*
X11176000Y12180000D03*
X11176000Y10680000D03*
X7620000Y12180000D03*
X7620000Y10680000D03*
D32*
X3036000Y7620000D03*
X1536000Y7620000D03*
X16498000Y21844000D03*
X14998000Y21844000D03*
D10*
X20304000Y33782000D03*
X18304000Y33782000D03*
D34*
X15367000Y17764000D03*
X15367000Y15764000D03*
D11*
X25146000Y18276000D03*
X25146000Y16776000D03*
D35*
X20054000Y31750000D03*
X18554000Y31750000D03*
D11*
X13462000Y20332000D03*
X13462000Y21832000D03*
X13462000Y16014000D03*
X13462000Y17514000D03*
D35*
X10148000Y13716000D03*
X8648000Y13716000D03*
X13196000Y13716000D03*
X11696000Y13716000D03*
X5600000Y13716000D03*
X7100000Y13716000D03*
X27952000Y20828000D03*
X29452000Y20828000D03*
X28182000Y48006000D03*
X26682000Y48006000D03*
D36*
X3035300Y5842000D03*
X1536700Y5842000D03*
M02*
